<?xml version="1.0" standalone="no"?>
<!DOCTYPE svg PUBLIC "-//W3C//DTD SVG 1.1//EN" "http://www.w3.org/Graphics/SVG/1.1/DTD/svg11.dtd" >
<svg>
<metadata>
Created by FontForge 20090914 at Wed Dec  8 02:52:35 2021
 By www-data
Copyright 2020 The Arimo Project Authors (https://github.com/googlefonts/arimo)
</metadata>
<defs>
<font id="Arimo-Bold" horiz-adv-x="0" >
  <font-face 
    font-family="Arimo"
    font-weight="700"
    font-stretch="normal"
    units-per-em="2048"
    panose-1="2 11 6 4 2 2 2 2 2 4"
    ascent="1638"
    descent="-410"
    x-height="1082"
    cap-height="1409"
    bbox="-987 -797 5728 2136"
    underline-thickness="150"
    underline-position="-142"
    unicode-range="U+000D-U+FFFD"
  />
<missing-glyph horiz-adv-x="1536" 
d="M1330 1409v-1409h-1125v1409h1125zM281 76h973v1257h-973v-1257z" />
    <glyph glyph-name=".notdef" horiz-adv-x="1536" 
d="M1330 1409v-1409h-1125v1409h1125zM281 76h973v1257h-973v-1257z" />
    <glyph glyph-name=".null" 
 />
    <glyph glyph-name=".null" 
 />
    <glyph glyph-name="nonmarkingreturn" unicode="&#xd;" horiz-adv-x="569" 
 />
    <glyph glyph-name="space" unicode=" " horiz-adv-x="569" 
 />
    <glyph glyph-name="exclam" unicode="!" horiz-adv-x="682" 
d="M487 1409l-32 -983h-230l-32 983h294zM481 270v-270h-288v270h288z" />
    <glyph glyph-name="quotedbl" unicode="&#x22;" horiz-adv-x="971" 
d="M836 1409l-29 -511h-219l-27 511h275zM408 1409l-27 -511h-219l-27 511h273z" />
    <glyph glyph-name="numbersign" unicode="#" horiz-adv-x="1139" 
d="M344 381l-80 -381h-153l79 381h-155v149h188l70 332h-207v148h238l84 385h153l-82 -385h307l84 385h156l-84 -385h164v-148h-197l-69 -332h215v-149h-246l-82 -381h-156l80 381h-307zM377 530h309l70 332h-307z" />
    <glyph glyph-name="dollar" unicode="$" horiz-adv-x="1139" 
d="M520 20c-143.333 5.33301 -254.998 39.165 -334.998 101.498s-132.667 157.833 -158 286.5l256 47c12.667 -75.333 37.834 -130.5 75.501 -165.5s91.5 -55.833 161.5 -62.5v391c-25.333 6 -55.333 13.833 -90 23.5s-68.667 20.667 -102 33s-61 25.166 -83 38.499
c-54.667 33.333 -97.167 75.833 -127.5 127.5s-45.5 114.834 -45.5 189.501c0 110.667 38.167 196.334 114.5 257.001s187.5 93.667 333.5 99v134h109v-134c82 -4 152.167 -16.667 210.5 -38s106.666 -56.666 144.999 -105.999s68.5 -118 90.5 -206l-264 -39
c-10 58 -29.5 102.833 -58.5 134.5s-70.167 51.167 -123.5 58.5v-352c15.333 -2.66699 38.166 -7.66699 68.499 -15s70.166 -19 119.499 -35c98 -32 171.333 -79.167 220 -141.5s73 -140.5 73 -234.5c0 -120.667 -40.5 -214.167 -121.5 -280.5
s-200.833 -102.5 -359.5 -108.5v-175h-109v172zM334.002 1034c0 -30 5.33301 -54.332 16 -72.999c12.667 -24 32 -42.333 58 -55s63.333 -27.334 112 -44.001v332c-124 -8.66699 -186 -62 -186 -160zM850.002 408c0 33.333 -5.83398 60.5 -17.501 81.5
s-29.167 38.167 -52.5 51.5s-73.666 31 -150.999 53v-367c73.333 5.33301 128.5 23 165.5 53s55.5 72.667 55.5 128z" />
    <glyph glyph-name="percent" unicode="%" horiz-adv-x="1821" 
d="M408 1425c234.667 0 352 -149.333 352 -448c0 -145.333 -30.167 -256.5 -90.5 -333.5s-149.166 -115.5 -266.499 -115.5c-116 0 -203.667 38.167 -263 114.5s-89 187.833 -89 334.5c0 151.333 28.667 263.833 86 337.5s147.666 110.5 270.999 110.5zM1475 1409
l-923 -1409h-206l920 1409h209zM543 977c0 105.333 -10.168 180.5 -30.501 225.5s-55.166 67.5 -104.499 67.5c-53.333 0 -90.333 -22.5 -111 -67.5s-31 -120.167 -31 -225.5c0 -104.667 10.833 -179.667 32.5 -225s57.5 -68 107.5 -68c49.333 0 84.5 22.667 105.5 68
s31.5 120.333 31.5 225zM1767 432c0 -145.333 -30.001 -256.333 -90.001 -333s-148 -115 -264 -115c-117.333 0 -205.666 38 -264.999 114s-89 187.333 -89 334c0 149.333 28.667 261.5 86 336.5s148 112.5 272 112.5c120 0 208.333 -37.833 265 -113.5s85 -187.5 85 -335.5
zM1552 432c0 106.667 -10.1689 182.5 -30.502 227.5s-55.166 67.5 -104.499 67.5c-53.333 0 -90.166 -23.167 -110.499 -69.5s-30.5 -121.5 -30.5 -225.5c0 -107.333 10.833 -182.666 32.5 -225.999s57.167 -65 106.5 -65c48.667 0 83.667 22.667 105 68
s32 119.666 32 222.999z" />
    <glyph glyph-name="ampersand" unicode="&#x26;" horiz-adv-x="1479" 
d="M90 385c0 90 26.999 170.162 80.999 240.495s139.667 132.833 257 187.5c-24.667 50 -43.167 98.333 -55.5 145s-18.5 91.334 -18.5 134.001c0 104 32.667 184.167 98 240.5s158.333 84.5 279 84.5c112 0 200.5 -26.667 265.5 -80s97.5 -125.666 97.5 -216.999
c0 -51.333 -13 -97.666 -39 -138.999s-62.667 -79.666 -110 -114.999c-24 -17.333 -56.167 -37.166 -96.5 -59.499s-89.166 -46.833 -146.499 -73.5c66.667 -118 148 -230 244 -336c69.333 106 122 227 158 363l209 -70c-44.667 -153.333 -109 -293.333 -193 -420
c56.667 -48.667 116 -73 178 -73c44 0 83 5.33301 117 16v-203c-36 -14.667 -79.667 -22 -131 -22c-57.333 0 -114.833 10.333 -172.5 31s-110.167 50.667 -157.5 90c-112.667 -86 -239 -129 -379 -129c-154 0 -273.333 35.5 -358 106.5s-127 170.5 -127 298.5z
M869.999 1118c0 38 -12.668 69 -38.001 93s-59.666 36 -102.999 36c-51.333 0 -90.5 -14.333 -117.5 -43s-40.5 -66.667 -40.5 -114c0 -57.333 18 -121.666 54 -192.999c70.667 30 121 55.333 151 76s53.167 42.667 69.5 66s24.5 49.666 24.5 78.999zM787.998 245.995
c-55.333 61.333 -105.668 123.5 -151.001 186.5s-85.666 126.5 -120.999 190.5c-114.667 -54 -172 -132 -172 -234c0 -66 21.667 -119 65 -159s102.333 -60 177 -60c43.333 0 82.5 8 117.5 24s63.167 33.333 84.5 52z" />
    <glyph glyph-name="quotesingle" unicode="'" horiz-adv-x="487" 
d="M381 1409l-27 -511h-219l-26 511h272z" />
    <glyph glyph-name="parenleft" unicode="(" horiz-adv-x="682" 
d="M399 -425c-69.333 100.667 -126 200.501 -170 299.501s-76.167 202.167 -96.5 309.5s-30.5 223 -30.5 347s10.167 239.5 30.5 346.5s52.5 209.833 96.5 308.5s100.667 198 170 298h281c-105.333 -152 -181.833 -303.333 -229.5 -454s-71.5 -317.334 -71.5 -500.001
c0 -121.333 10.333 -235 31 -341s53.167 -208.833 97.5 -308.5s101.833 -201.5 172.5 -305.5h-281z" />
    <glyph glyph-name="parenright" unicode=")" horiz-adv-x="682" 
d="M2 -425c71.333 104 129 205.833 173 305.5s76.333 202.5 97 308.5s31 219.667 31 341c0 183.333 -24 350.5 -72 501.5s-124.333 301.833 -229 452.5h281c70.667 -100.667 127.667 -200.667 171 -300s75.166 -202.333 95.499 -309s30.5 -221.334 30.5 -344.001
c0 -123.333 -10.167 -238.5 -30.5 -345.5s-52.166 -210.167 -95.499 -309.5s-100.333 -199.666 -171 -300.999h-281z" />
    <glyph glyph-name="asterisk" unicode="*" horiz-adv-x="797" 
d="M731 768l-184 -121l-146 252l-149 -252l-186 123l190 211l-250 61l68 197l239 -104l-18 274h215l-18 -274l235 104l68 -197l-250 -61z" />
    <glyph glyph-name="plus" unicode="+" horiz-adv-x="1196" 
d="M711 569v-408h-226v408h-399v224h399v408h226v-408h402v-224h-402z" />
    <glyph glyph-name="comma" unicode="," horiz-adv-x="569" 
d="M432 66c0 -80 -8.5 -150.668 -25.5 -212.001s-44.5 -118.333 -82.5 -171h-185c39.333 47.333 71.333 99.333 96 156s37 110.334 37 161.001h-129v305h289v-239z" />
    <glyph glyph-name="hyphen" unicode="-" horiz-adv-x="682" 
d="M600 653v-244h-520v244h520z" />
    <glyph glyph-name="hyphen" unicode="&#xad;" horiz-adv-x="682" 
d="M600 653v-244h-520v244h520z" />
    <glyph glyph-name="period" unicode="." horiz-adv-x="569" 
d="M428 305v-305h-289v305h289z" />
    <glyph glyph-name="slash" unicode="/" horiz-adv-x="569" 
d="M549 1484l-286 -1525h-243l291 1525h238z" />
    <glyph glyph-name="zero" unicode="0" horiz-adv-x="1139" 
d="M1055 705c0 -238 -40.833 -418.333 -122.5 -541s-204.167 -184 -367.5 -184c-161.333 0 -282.333 60.5 -363 181.5s-121 302.167 -121 543.5c0 247.333 38.5 430 115.5 548s202.5 177 376.5 177c166.667 0 288.667 -60.333 366 -181s116 -302 116 -544zM773 705
c0 126.667 -5.66992 226.835 -17.0029 300.502s-31.666 126.167 -60.999 157.5s-70.666 47 -123.999 47c-56.667 0 -100.167 -15.833 -130.5 -47.5s-51 -84.334 -62 -158.001s-16.5 -173.5 -16.5 -299.5s5.83301 -225.833 17.5 -299.5s32.334 -126.167 62.001 -157.5
s71.5 -47 125.5 -47c80 0 134.333 38.667 163 116s43 206.666 43 387.999z" />
    <glyph glyph-name="one" unicode="1" horiz-adv-x="1139" 
d="M1082 209v-209h-953v209h349v961l-338 -211v221l353 229h266v-1200h323z" />
    <glyph glyph-name="two" unicode="2" horiz-adv-x="1139" 
d="M1057 231l-0.00195312 -231.001h-986v195c24.667 54 56 106.833 94 158.5s83.5 103.667 136.5 156s113.5 106.166 181.5 161.499c49.333 40 91.333 76.5 126 109.5s61.667 62.5 81 88.5c20 26 35 51.833 45 77.5s15 50.834 15 75.501c0 61.333 -15.5 107.333 -46.5 138
s-77.167 46 -138.5 46c-60 0 -105.833 -16.167 -137.5 -48.5s-52.167 -80.833 -61.5 -145.5l-283 16c16 130.667 64.833 230.334 146.5 299.001s192.834 103 333.501 103c152 0 268.667 -34.667 350 -104s122 -166.666 122 -291.999c0 -70.667 -14.667 -134 -44 -190
s-66.666 -107.667 -111.999 -155c-37.333 -40.667 -79.5 -79.334 -126.5 -116.001l-136.5 -107c-46.667 -37.333 -89.167 -75 -127.5 -113s-66.833 -78.667 -85.5 -122h654z" />
    <glyph glyph-name="three" unicode="3" horiz-adv-x="1139" 
d="M1065 391c0 -132 -43.3359 -234 -130.003 -306s-210 -108 -370 -108c-151.333 0 -271.666 34.833 -360.999 104.5s-141.666 170.167 -156.999 301.5l286 25c18 -135.333 95 -203 231 -203c67.333 0 119.666 16.667 156.999 50s56 84.333 56 153
c0 62.667 -22.667 110.667 -68 144s-112.666 50 -201.999 50h-98v227h92c80.667 0 141.334 16.5 182.001 49.5s61 80.167 61 141.5c0 58 -16.167 103.5 -48.5 136.5s-79.5 49.5 -141.5 49.5c-58 0 -104.833 -16 -140.5 -48s-56.167 -77.333 -61.5 -136l-281 20
c14.667 121.333 65 216.333 151 285s198.333 103 337 103c147.333 0 262.5 -33.167 345.5 -99.5s124.5 -158.166 124.5 -275.499c0 -88 -25.833 -160.333 -77.5 -217s-126.167 -94.334 -223.5 -113.001v-4c108 -12.667 191.167 -48.167 249.5 -106.5
s87.5 -132.833 87.5 -223.5z" />
    <glyph glyph-name="four" unicode="4" horiz-adv-x="1139" 
d="M940 287v-287h-268v287h-641v211l595 911h314v-913h188v-209h-188zM260 496h412.003v461c0 36 1.16699 75 3.5 117s4.16602 69 5.49902 81c-8.66699 -18.667 -20.834 -41.5 -36.501 -68.5s-34.834 -58.167 -57.501 -93.5z" />
    <glyph glyph-name="five" unicode="5" horiz-adv-x="1139" 
d="M1082 469c0 -149.333 -46.498 -268.168 -139.498 -356.501s-220.5 -132.5 -382.5 -132.5c-141.333 0 -254.5 31.833 -339.5 95.5s-137.5 155.834 -157.5 276.501l281 23c14.667 -60 40.667 -103.667 78 -131s84.333 -41 141 -41c70 0 125.833 22.333 167.5 67
s62.5 109 62.5 193c0 74 -19.667 133.167 -59 177.5s-94.333 66.5 -165 66.5c-38.667 0 -74 -7.5 -106 -22.5s-60.333 -37.833 -85 -68.5h-274l49 793h847v-209h-592l-23 -356c68 60 153 90 255 90c89.333 0 167.166 -18.833 233.499 -56.5s117.666 -91.167 153.999 -160.5
s54.5 -152 54.5 -248z" />
    <glyph glyph-name="six" unicode="6" horiz-adv-x="1139" 
d="M1065 461c0 -150 -41.998 -267.667 -125.998 -353s-200 -128 -348 -128c-166 0 -293.5 58.167 -382.5 174.5s-133.5 288.833 -133.5 517.5c0 251.333 45.167 440.5 135.5 567.5s219.5 190.5 387.5 190.5c119.333 0 213.5 -26.333 282.5 -79
s117.833 -134.334 146.5 -245.001l-265 -37c-24.667 92.667 -81.334 139 -170.001 139c-75.333 0 -134.5 -37.667 -177.5 -113s-64.5 -189.666 -64.5 -342.999c30 50 71.667 88.333 125 115s113.666 40 180.999 40c126 0 225.667 -40 299 -120s110 -188.667 110 -326z
M783.002 453c0 80 -18.499 141.169 -55.499 183.502s-87.833 63.5 -152.5 63.5c-62 0 -111.667 -19.833 -149 -59.5s-56 -92.167 -56 -157.5c0 -54.667 8.83301 -103.334 26.5 -146.001s42.5 -76.334 74.5 -101.001s69 -37 111 -37c63.333 0 112.666 22.5 147.999 67.5
s53 107.167 53 186.5z" />
    <glyph glyph-name="seven" unicode="7" horiz-adv-x="1139" 
d="M1049 1186l-179.5 -290.497c-56.333 -93.667 -105.5 -188.167 -147.5 -283.5c-42 -94.667 -75.167 -192.334 -99.5 -293.001s-36.5 -207 -36.5 -319h-293c0 107.333 11.667 209.166 35 305.499s60.333 197.833 111 304.5c33.333 69.333 77.333 148.666 132 237.999
s127 199.333 217 330h-700v231h961v-223z" />
    <glyph glyph-name="eight" unicode="8" horiz-adv-x="1139" 
d="M1076 397c0 -132 -43.6689 -234.502 -131.002 -307.502s-212 -109.5 -374 -109.5c-160.667 0 -285.167 36.333 -373.5 109s-132.5 174.667 -132.5 306c0 90 26 165.833 78 227.5s121.667 99.834 209 114.501v4c-76 16.667 -137.333 54.334 -184 113.001
s-70 126.334 -70 203.001c0 115.333 40.833 206.333 122.5 273s197.167 100 346.5 100c152.667 0 269.834 -32.5 351.501 -97.5s122.5 -157.5 122.5 -277.5c0 -76.667 -23.167 -144 -69.5 -202s-108.5 -94.667 -186.5 -110v-4
c90.667 -14.667 161.834 -51.834 213.501 -111.501s77.5 -136.5 77.5 -230.5zM751.998 1040c0 128.667 -61.666 193 -184.999 193c-121.333 0 -182 -64.333 -182 -193c0 -67.333 15.333 -117.833 46 -151.5s76.667 -50.5 138 -50.5s107.166 15.667 137.499 47
s45.5 83 45.5 155zM784.999 419.998c0 73.333 -18.333 128.501 -55 165.501s-91.667 55.5 -165 55.5c-68 0 -120.167 -19.333 -156.5 -58s-54.5 -94.334 -54.5 -167.001c0 -82.667 18 -143 54 -181s91 -57 165 -57c72.667 0 126.167 19 160.5 57s51.5 99.667 51.5 185z" />
    <glyph glyph-name="nine" unicode="9" horiz-adv-x="1139" 
d="M1063 727c0 -250 -45.666 -437 -136.999 -561s-221 -186 -389 -186c-124 0 -221.167 26.5 -291.5 79.5s-120.166 136.833 -149.499 251.5l264 37c26 -98 86 -147 180 -147c78.667 0 139.167 37.667 181.5 113s64.166 187 65.499 335
c-25.333 -50 -66.833 -89.167 -124.5 -117.5s-119.834 -42.5 -186.501 -42.5c-82.667 0 -154.334 19.167 -215.001 57.5s-107.5 92.5 -140.5 162.5s-49.5 153 -49.5 249c0 148 42.833 263.667 128.5 347s206.834 125 363.501 125c168.667 0 294.167 -58.5 376.5 -175.5
s123.5 -292.833 123.5 -527.5zM766.001 924c0 87.333 -19.166 156.833 -57.499 208.5s-89.166 77.5 -152.499 77.5c-62 0 -110.833 -22.5 -146.5 -67.5s-53.5 -107.167 -53.5 -186.5c0 -78 17.667 -140.5 53 -187.5s84.666 -70.5 147.999 -70.5c40 0 75.667 9.33301 107 28
s56.166 45 74.499 79s27.5 73.667 27.5 119z" />
    <glyph glyph-name="colon" unicode=":" horiz-adv-x="682" 
d="M485 1034v-282h-288v282h288zM485 281v-281h-288v281h288z" />
    <glyph glyph-name="semicolon" unicode=";" horiz-adv-x="682" 
d="M487 1034v-282h-288v282h288zM487 66c0 -80 -8.5 -150.667 -25.5 -212s-44.5 -118.333 -82.5 -171h-184c42.667 54 75.5 108.5 98.5 163.5s34.5 106.167 34.5 153.5h-129v281h288v-215z" />
    <glyph glyph-name="semicolon" unicode="&#x37e;" horiz-adv-x="682" 
d="M487 1034v-282h-288v282h288zM487 66c0 -80 -8.5 -150.667 -25.5 -212s-44.5 -118.333 -82.5 -171h-184c42.667 54 75.5 108.5 98.5 163.5s34.5 106.167 34.5 153.5h-129v281h288v-215z" />
    <glyph glyph-name="less" unicode="&#x3c;" horiz-adv-x="1196" 
d="M1113 352v-227l-1027 391v322l1027 391v-228l-833 -325z" />
    <glyph glyph-name="equal" unicode="=" horiz-adv-x="1196" 
d="M1112 1065v-223h-1027v223h1027zM1112 512v-221h-1027v221h1027z" />
    <glyph glyph-name="greater" unicode="&#x3e;" horiz-adv-x="1196" 
d="M1113 516l-1027 -391v227l832 324l-832 325v228l1027 -391v-322z" />
    <glyph glyph-name="question" unicode="?" horiz-adv-x="1251" 
d="M1133 1026c0 -64.667 -14.499 -122.665 -43.499 -173.998s-83.167 -105.333 -162.5 -162l-76 -55c-88 -62.667 -134 -132.334 -138 -209.001h-267c2.66699 45.333 12 87.333 28 126s39.167 75 69.5 109s67.5 66.333 111.5 97c48 33.333 86.167 63.5 114.5 90.5
s48.833 53.667 61.5 80s19 54.833 19 85.5c0 58.667 -19.167 105 -57.5 139s-92.833 51 -163.5 51c-67.333 0 -123.833 -19.667 -169.5 -59s-72.5 -91.333 -80.5 -156l-285 12c18 135.333 73.667 240.666 167 315.999s214.666 113 363.999 113
c158 0 282.167 -35.833 372.5 -107.5s135.5 -170.5 135.5 -296.5zM727.001 270.002v-270h-289v270h289z" />
    <glyph glyph-name="at" unicode="@" horiz-adv-x="1997" 
d="M1878 725c0 -121.333 -20.999 -231.998 -62.999 -331.998c-42.667 -100 -101.334 -178.167 -176.001 -234.5s-155.334 -84.5 -242.001 -84.5c-61.333 0 -108.5 15.167 -141.5 45.5s-49.5 72.5 -49.5 126.5c0 12.667 0.5 24.5 1.5 35.5s2.5 21.5 4.5 31.5h-6
c-33.333 -70 -82.833 -127.333 -148.5 -172s-132.834 -67 -201.501 -67c-104.667 0 -185.834 33.833 -243.501 101.5s-86.5 162.167 -86.5 283.5c0 108 21.667 210 65 306c43.333 95.333 103 170.166 179 224.499s161.333 81.5 256 81.5c130 0 218 -58 264 -174h6l39 152
h156l-117 -506c-24.667 -113.333 -37 -193.333 -37 -240c0 -33.333 7.83301 -57 23.5 -71s33.834 -21 54.501 -21c53.333 0 104.333 23.333 153 70c48.667 46 87.167 107.833 115.5 185.5s42.5 163.167 42.5 256.5c0 117.333 -25.333 220.666 -76 309.999
s-124.167 158.333 -220.5 207s-208.166 73 -335.499 73c-160 0 -301 -35 -423 -105s-217.833 -171 -287.5 -303s-104.5 -280 -104.5 -444c0 -129.333 26.667 -243.333 80 -342s127.833 -173.167 223.5 -223.5s208.167 -75.5 337.5 -75.5c98 0 196 13 294 39
s196.333 64.667 295 116l62 -122c-112 -63.333 -221.5 -108.666 -328.5 -135.999s-216.833 -41 -329.5 -41c-157.333 0 -295.666 32 -414.999 96c-120 63.333 -213.5 155.166 -280.5 275.499s-100.5 258.166 -100.5 413.499c0 188.667 42.333 359.334 127 512.001
c84 152.667 200.333 271 349 355s315 126 499 126c162 0 302.333 -30 421 -90c118.667 -60.667 209.167 -146 271.5 -256s93.5 -237.667 93.5 -383zM1231 721.002c0 63.333 -19.833 115 -59.5 155s-90.834 60 -153.501 60s-118.667 -20.667 -168 -62
c-50 -42 -88.833 -101.167 -116.5 -177.5s-41.5 -154.833 -41.5 -235.5c0 -76 16.167 -136 48.5 -180s81.833 -66 148.5 -66c44 0 86.833 14.167 128.5 42.5s78.834 68.833 111.501 121.5c22 35.333 40.5 74.5 55.5 117.5s26.5 84.5 34.5 124.5s12 73.333 12 100z" />
    <glyph glyph-name="A" unicode="A" horiz-adv-x="1479" 
d="M471 360l-125 -360h-295l514 1409h348l512 -1409h-292l-125 360h-537zM739 1192c-6.66699 -26.667 -16 -58.668 -28 -96.001s-20.667 -63.666 -26 -78.999l-148 -435h405l-152 444c-9.33301 27.333 -18 55 -26 83s-16.333 55.667 -25 83z" />
    <glyph glyph-name="B" unicode="B" horiz-adv-x="1479" 
d="M1386 402c0 -128 -48 -227 -144 -297s-229.333 -105 -400 -105h-705v1409h645c172 0 302.167 -29.833 390.5 -89.5s132.5 -147.834 132.5 -264.501c0 -80 -22.167 -147.5 -66.5 -202.5s-111.833 -92.167 -202.5 -111.5c114 -13.333 200.833 -49.166 260.5 -107.499
s89.5 -135.5 89.5 -231.5zM1008 1015c0 63.333 -20.168 108.333 -60.501 135s-100.166 40 -179.499 40h-336v-349h338c83.333 0 143.833 14.5 181.5 43.5s56.5 72.5 56.5 130.5zM1090 425c0 132 -94.668 198 -284.001 198h-374v-404h385
c94.667 0 163.834 17.167 207.501 51.5s65.5 85.833 65.5 154.5z" />
    <glyph glyph-name="C" unicode="C" horiz-adv-x="1479" 
d="M795 212c178.667 0 302.331 89.3311 370.998 267.998l257 -97c-55.333 -136 -136.5 -237.167 -243.5 -303.5s-235.167 -99.5 -384.5 -99.5c-150.667 0 -279 28.833 -385 86.5s-186.833 141.167 -242.5 250.5s-83.5 240.666 -83.5 393.999
c0 154.667 26.667 285.334 80 392.001s132 187.834 236 243.501s231.333 83.5 382 83.5c165.333 0 300 -33.167 404 -99.5s177 -163.833 219 -292.5l-260 -71c-22 70.667 -65.167 126.834 -129.5 168.501s-140.166 62.5 -227.499 62.5
c-133.333 0 -234.5 -41.333 -303.5 -124s-103.5 -203.667 -103.5 -363c0 -108 15.833 -199 47.5 -273s78.334 -130.167 140.001 -168.5s137.167 -57.5 226.5 -57.5z" />
    <glyph glyph-name="D" unicode="D" horiz-adv-x="1479" 
d="M1393 715c0 -150.667 -29.167 -279.333 -87.5 -386s-139 -188.167 -242 -244.5s-221.833 -84.5 -356.5 -84.5h-570v1409h510c237.333 0 421 -59.833 551 -179.5s195 -291.167 195 -514.5zM1096 715.001c0 151.333 -39.334 266.832 -118.001 346.499
s-191 119.5 -337 119.5h-209v-953h250c84.667 0 157.834 19.833 219.501 59.5s109.5 95.834 143.5 168.501s51 159 51 259z" />
    <glyph glyph-name="E" unicode="E" horiz-adv-x="1366" 
d="M1286 228v-228h-1149v1409h1108v-228h-813v-354h752v-228h-752v-371h854z" />
    <glyph glyph-name="F" unicode="F" horiz-adv-x="1251" 
d="M432 517v-517h-295v1409h1039v-228h-744v-436h721v-228h-721z" />
    <glyph glyph-name="G" unicode="G" horiz-adv-x="1593" 
d="M806 211c76.667 0 151.002 11.167 223.002 33.5s127.667 50.833 167 85.5v195h-344v218h614v-518c-74.667 -76.667 -171.834 -136.667 -291.501 -180s-245.167 -65 -376.5 -65c-152.667 0 -282.167 28.5 -388.5 85.5s-187.166 140 -242.499 249s-83 241.167 -83 396.5
c0 232 62 409.833 186 533.5s302.333 185.5 535 185.5c165.333 0 300.666 -30.5 405.999 -91.5s180.333 -152.833 225 -275.5l-272 -82c-29.333 71.333 -75.333 125.333 -138 162s-136.334 55 -221.001 55c-138.667 0 -244 -42 -316 -126s-108 -204.333 -108 -361
c0 -159.333 37.167 -282.5 111.5 -369.5s178.833 -130.5 313.5 -130.5z" />
    <glyph glyph-name="H" unicode="H" horiz-adv-x="1479" 
d="M432 604v-604h-295v1409h295v-561h614v561h295v-1409h-295v604h-614z" />
    <glyph glyph-name="I" unicode="I" horiz-adv-x="569" 
d="M432 1409v-1409h-295v1409h295z" />
    <glyph glyph-name="J" unicode="J" horiz-adv-x="1139" 
d="M524 -20c-146 0 -258.167 31.6689 -336.5 95.002s-130.5 165.666 -156.5 306.999l293 43c12 -72.667 34.333 -126.5 67 -161.5s77.667 -52.5 135 -52.5c58.667 0 103.167 19.667 133.5 59s45.5 95.666 45.5 168.999v739h-281v231h575v-963
c0 -146.667 -41.667 -261 -125 -343s-200 -123 -350 -123z" />
    <glyph glyph-name="K" unicode="K" horiz-adv-x="1479" 
d="M432 514v-514h-295v1409h295v-639l635 639h344l-602 -596l651 -813h-348l-506 647z" />
    <glyph glyph-name="L" unicode="L" horiz-adv-x="1251" 
d="M1188 228v-228h-1051v1409h295v-1181h756z" />
    <glyph glyph-name="M" unicode="M" horiz-adv-x="1706" 
d="M399 854v-853.999h-262v1409h395l252 -788l35 -132.5l35 -132.5l21 75.5l20.5 75.5l21.5 75l259 827h393v-1409h-262v854c0 19.333 0.833008 58.166 2.5 116.499s4.16699 121.833 7.5 190.5l-61.5 -228c-17.667 -62.667 -32.167 -111.667 -43.5 -147l-254 -786h-210
l-254 786l-107 375c4 -77.333 7 -141.5 9 -192.5s3 -89.167 3 -114.5z" />
    <glyph glyph-name="N" unicode="N" horiz-adv-x="1479" 
d="M399 831v-831h-262v1409h337l623 -1094c-12 101.333 -18 193 -18 275v819h262v-1409h-346l-614 1085c6 -52.667 10.5 -100.167 13.5 -142.5s4.5 -79.5 4.5 -111.5z" />
    <glyph glyph-name="O" unicode="O" horiz-adv-x="1593" 
d="M1507 711c0 -146.667 -29.499 -274.833 -88.499 -384.5s-142 -194.834 -249 -255.501s-232.5 -91 -376.5 -91c-147.333 0 -274 29.5 -380 88.5s-187.333 143.167 -244 252.5s-85 239.333 -85 390s28.167 279.667 84.5 387s137.666 189.5 243.999 246.5
s233.833 85.5 382.5 85.5c149.333 0 277 -28.833 383 -86.5s187.333 -140.167 244 -247.5s85 -235.666 85 -384.999zM1206 711.001c0 152 -36.001 271.168 -108.001 357.501s-173 129.5 -303 129.5c-132 0 -234 -42.833 -306 -128.5s-108 -205.167 -108 -358.5
c0 -102.667 16.667 -191.334 50 -266.001s80.833 -132.167 142.5 -172.5s134.834 -60.5 219.501 -60.5c132 0 233.833 43.333 305.5 130s107.5 209.667 107.5 369z" />
    <glyph glyph-name="P" unicode="P" horiz-adv-x="1366" 
d="M1296 963c0 -91.333 -20.832 -172.167 -62.499 -242.5s-100.834 -125.333 -177.501 -165s-168 -59.5 -274 -59.5h-350v-496h-295v1409h633c168.667 0 298.5 -38.833 389.5 -116.5s136.5 -187.5 136.5 -329.5zM999.001 957.999c0 148 -87.333 222 -262 222h-305v-457h313
c81.333 0 144 20.167 188 60.5s66 98.5 66 174.5z" />
    <glyph glyph-name="Q" unicode="Q" horiz-adv-x="1593" 
d="M1507 711c0 -125.333 -20.833 -237.002 -62.5 -335.002s-101.5 -178.833 -179.5 -242.5s-172 -106.834 -282 -129.501c22.667 -66 54.5 -113.667 95.5 -143s98.5 -44 172.5 -44c41.333 0 81 3.33301 119 10l-2 -202c-82.667 -18.667 -163.334 -28 -242.001 -28
c-108.667 0 -198.667 30.333 -270 91s-128.666 161.334 -171.999 302.001c-126.667 12 -234.667 48.667 -324 110s-157.666 143.833 -204.999 247.5s-71 224.834 -71 363.501c0 150.667 28.167 279.667 84.5 387s137.666 189.5 243.999 246.5s233.833 85.5 382.5 85.5
c149.333 0 277 -28.833 383 -86.5s187.333 -140.167 244 -247.5s85 -235.666 85 -384.999zM1206 710.998c0 152 -36 271.167 -108 357.5s-173 129.5 -303 129.5c-132 0 -234 -42.833 -306 -128.5s-108 -205.167 -108 -358.5c0 -102.667 16.5 -191.5 49.5 -266.5
s80.333 -132.667 142 -173s135.167 -60.5 220.5 -60.5c132 0 233.833 43.333 305.5 130s107.5 210 107.5 370z" />
    <glyph glyph-name="R" unicode="R" horiz-adv-x="1479" 
d="M432 535v-534.999h-295v1409h704c168 0 297.667 -36.167 389 -108.5s137 -176.166 137 -311.499c0 -98.667 -28 -183.834 -84 -255.501s-131.667 -118.834 -227 -141.501l381 -592h-332l-327 535h-346zM1070 977.001c0 67.333 -21.668 118.001 -65.001 152.001
s-108.333 51 -195 51h-378v-416h386c82.667 0 145.334 18.667 188.001 56s64 89.666 64 156.999z" />
    <glyph glyph-name="S" unicode="S" horiz-adv-x="1366" 
d="M1286 406c0 -138 -51.1699 -243.501 -153.503 -316.501s-252.5 -109.5 -450.5 -109.5c-356.667 0 -564.334 129 -623.001 387l285 47c19.333 -74.667 57 -128.834 113 -162.501s133.667 -50.5 233 -50.5c103.333 0 180.666 15.667 231.999 47s77 78.333 77 141
c0 40 -11.667 73 -35 99s-56.666 47.667 -99.999 65c-21.333 8.66699 -52.666 18.167 -93.999 28.5s-92.666 21.833 -153.999 34.5c-70.667 16.667 -126 30.834 -166 42.501s-72 23 -96 34s-47.333 23.167 -70 36.5c-50 30 -89 70 -117 120s-42 112.333 -42 187
c0 127.333 47.833 224.833 143.5 292.5s234.834 101.5 417.501 101.5c174.667 0 305.834 -27.333 393.501 -82s144.167 -145 169.5 -271l-286 -39c-14.667 60.667 -44.5 106.334 -89.5 137.001s-109.5 46 -193.5 46c-89.333 0 -156.333 -14 -201 -42s-67 -70 -67 -126
c0 -36.667 9.5 -66.667 28.5 -90s47.167 -43.333 84.5 -60c35.333 -16 111 -36.333 227 -61c67.333 -14.667 125.333 -28.5 174 -41.5s87.667 -25.5 117 -37.5c29.333 -12.667 55.5 -26 78.5 -40s42.833 -29 59.5 -45c34 -32.667 60 -71.5 78 -116.5s27 -96.833 27 -155.5z
" />
    <glyph glyph-name="T" unicode="T" horiz-adv-x="1251" 
d="M773 1181v-1181h-295v1181h-455v228h1206v-228h-456z" />
    <glyph glyph-name="U" unicode="U" horiz-adv-x="1479" 
d="M723 -20c-129.333 0 -238.667 21.167 -328 63.5s-157 104.333 -203 186s-69 181.167 -69 298.5v881h295v-858c0 -111.333 26.5 -195.833 79.5 -253.5s130.833 -86.5 233.5 -86.5c105.333 0 186.333 30.167 243 90.5s85 146.833 85 259.5v848h295v-866
c0 -118.667 -24.833 -220 -74.5 -304s-121.5 -148.167 -215.5 -192.5s-207.667 -66.5 -341 -66.5z" />
    <glyph glyph-name="V" unicode="V" horiz-adv-x="1366" 
d="M1352 1409l-518 -1409h-299l-521 1409h308l290 -905c9.33301 -29.333 20.166 -66.166 32.499 -110.499l41.5 -155.5l47.5 181c9.66699 37.333 17.834 65.666 24.501 84.999l289 905h305z" />
    <glyph glyph-name="W" unicode="W" horiz-adv-x="1933" 
d="M909 834l-194.003 -834h-350l-363 1409h299l196 -863c8.66699 -36.667 18.167 -79 28.5 -127s18.833 -94.667 25.5 -140c6.66699 31.333 12.834 61.833 18.501 91.5l17.5 88c6 29 12.333 57.833 19 86.5l199 864h330l197 -833c6.66699 -28 14.834 -68.667 24.501 -122
s18.834 -111.666 27.501 -174.999l23.5 102.5l21 89c7 29.667 14.5 63.5 22.5 101.5l181 837h299l-364 -1409h-350l-191 815c-11.333 48 -22 97 -32 147s-19 101.333 -27 154c-5.33301 -28.667 -12 -62.334 -20 -101.001l-22.5 -108z" />
    <glyph glyph-name="X" unicode="X" horiz-adv-x="1366" 
d="M684 561l-354 -561h-312l488 741l-447 668h312l313 -498l313 498h310l-428 -668l469 -741h-310z" />
    <glyph glyph-name="Y" unicode="Y" horiz-adv-x="1366" 
d="M831 578v-578h-294v578l-502 831h309l338 -596l342 596h309z" />
    <glyph glyph-name="Z" unicode="Z" horiz-adv-x="1251" 
d="M1192 231v-231h-1131v209l762 969h-686v231h1014v-205l-762 -973h803z" />
    <glyph glyph-name="bracketleft" unicode="[" horiz-adv-x="682" 
d="M657 -234v-191h-542v1909h542v-190h-276v-1528h276z" />
    <glyph glyph-name="backslash" unicode="\" horiz-adv-x="569" 
d="M259 1485l291 -1526h-243l-286 1526h238z" />
    <glyph glyph-name="bracketright" unicode="]" horiz-adv-x="682" 
d="M567 1484v-1909h-542v191h278v1528h-278v190h542z" />
    <glyph glyph-name="asciicircum" unicode="^" horiz-adv-x="1196" 
d="M45 514l391 895h322l393 -895h-229l-326 752l-324 -752h-227z" />
    <glyph glyph-name="underscore" unicode="_" horiz-adv-x="1139" 
d="M1157 -172v-78h-1177v78h1177z" />
    <glyph glyph-name="grave" unicode="`" horiz-adv-x="682" 
d="M575 1214v-31h-169l-340 276v43h258z" />
    <glyph glyph-name="a" unicode="a" horiz-adv-x="1139" 
d="M393 -20c-104.667 0 -186.332 28.502 -244.999 85.502s-88 137.167 -88 240.5c0 112 36.5 197 109.5 255s178.833 88.333 317.5 91l233 4v55c0 70.667 -12.333 123.167 -37 157.5s-65 51.5 -121 51.5c-52 0 -90.167 -11.833 -114.5 -35.5s-39.5 -62.834 -45.5 -117.501
l-293 14c36.667 214 191.667 321 465 321c136.667 0 242 -33.667 316 -101s111 -163 111 -287v-394c0 -60.667 6.83301 -102.5 20.5 -125.5s36.5 -34.5 68.5 -34.5c21.333 0 42 2 62 6v-152c-34.667 -8.66699 -64.334 -15.167 -89.001 -19.5s-55 -6.5 -91 -6.5
c-70.667 0 -122.834 17.333 -156.501 52s-53.834 85.667 -60.501 153h-6c-39.333 -70.667 -88.666 -123.834 -147.999 -159.501s-128.666 -53.5 -207.999 -53.5zM720.002 501.002l-144.001 -1.99902c-66 -3.33301 -112.333 -10.333 -139 -21
c-27.333 -12 -48.166 -30 -62.499 -54s-21.5 -56 -21.5 -96c0 -51.333 11.833 -89.5 35.5 -114.5s55.167 -37.5 94.5 -37.5c44 0 84.333 12 121 36c36 24 64.333 57.167 85 99.5s31 87.166 31 134.499v55z" />
    <glyph glyph-name="b" unicode="b" horiz-adv-x="1251" 
d="M1167 545c0 -178.667 -35.833 -317.501 -107.5 -416.501s-174.167 -148.5 -307.5 -148.5c-76.667 0 -143 16.667 -199 50s-99 81.333 -129 144h-2c0 -15.333 -0.666992 -35.333 -2 -60s-3 -47.834 -5 -69.501s-4.33301 -36.5 -7 -44.5h-273
c2.66699 31.333 4.66699 67.5 6 108.5s2 87.167 2 138.5v1237h281v-414c0 -29.333 -0.5 -58.666 -1.5 -87.999s-1.83301 -58.666 -2.5 -87.999h4c31.333 69.333 76 121.333 134 156s128.667 52 212 52c128 0 226.167 -48.5 294.5 -145.5s102.5 -234.167 102.5 -411.5z
M874 544.999c0 122.667 -18 213.667 -54 273s-91.667 89 -167 89c-76 0 -133.833 -31.833 -173.5 -95.5s-59.5 -155.5 -59.5 -275.5c0 -114.667 19.5 -204 58.5 -268s96.5 -96 172.5 -96c74.667 0 130.5 31 167.5 93s55.5 155.333 55.5 280z" />
    <glyph glyph-name="c" unicode="c" horiz-adv-x="1139" 
d="M594 -20c-164 0 -290.666 48.8291 -379.999 146.496s-134 233.834 -134 408.501c0 178.667 45 317.834 135 417.501s217.667 149.5 383 149.5c127.333 0 232.666 -32 315.999 -96s135.666 -152.333 156.999 -265l-283 -14c-8 55.333 -28 99.5 -60 132.5
s-77.333 49.5 -136 49.5c-72.667 0 -127 -30.167 -163 -90.5s-54 -151.166 -54 -272.499c0 -124.667 18.5 -218.167 55.5 -280.5s92.167 -93.5 165.5 -93.5c53.333 0 98 16.833 134 50.5s58.333 83.834 67 150.501l282 -13c-10 -76 -36.833 -142.5 -80.5 -199.5
s-100.167 -101.333 -169.5 -133s-147.666 -47.5 -234.999 -47.5z" />
    <glyph glyph-name="d" unicode="d" horiz-adv-x="1251" 
d="M844 0c-1.33301 6.66699 -3.33398 20.667 -6.00098 42s-4.83398 44.666 -6.50098 69.999s-2.5 46.666 -2.5 63.999h-4c-30.667 -65.333 -74.667 -114.333 -132 -147s-128.666 -49 -213.999 -49c-126 0 -223.333 49.167 -292 147.5s-103 235.833 -103 412.5
c0 179.333 36.167 317.833 108.5 415.5s174.833 146.5 307.5 146.5c76.667 0 142.834 -16 198.501 -48s98.5 -79.667 128.5 -143h2l-2 178v395h281v-1248c0 -33.333 0.666992 -69.666 2 -108.999s3.33301 -81.666 6 -126.999h-272zM376.999 540
c0 -122.667 18.5 -214.667 55.5 -276s92.167 -92 165.5 -92c74 0 131.333 32.5 172 97.5s61 157.5 61 277.5c0 116.667 -19.5 206.5 -58.5 269.5s-96.5 94.5 -172.5 94.5c-75.333 0 -131.333 -30.5 -168 -91.5s-55 -154.167 -55 -279.5z" />
    <glyph glyph-name="e" unicode="e" horiz-adv-x="1139" 
d="M375 487c0 -105.333 19.499 -184.834 58.499 -238.501s94.5 -80.5 166.5 -80.5c49.333 0 89.833 10.833 121.5 32.5s53.834 53.834 66.501 96.501l265 -23c-76.667 -196 -232.334 -294 -467.001 -294c-162.667 0 -287.667 48.167 -375 144.5s-131 236.833 -131 421.5
c0 178.667 44.333 316 133 412s214.334 144 377.001 144c155.333 0 274 -51.5 356 -154.5s123 -253.833 123 -452.5v-8h-694zM796.999 662.999c-5.33301 87.333 -26.333 152.833 -63 196.5s-86 65.5 -148 65.5c-66 0 -116.833 -23 -152.5 -69s-54.5 -110.333 -56.5 -193h420
z" />
    <glyph glyph-name="f" unicode="f" horiz-adv-x="682" 
d="M473 892v-892h-280v892h-158v190h158v113c0 98 26 170.667 78 218s131 71 237 71c54.667 0 114 -5.33301 178 -16v-181c-26.667 6 -54 9 -82 9c-48 0 -81.833 -9.5 -101.5 -28.5s-29.5 -52.5 -29.5 -100.5v-85h213v-190h-213z" />
    <glyph glyph-name="g" unicode="g" horiz-adv-x="1251" 
d="M596 -434c-132 0 -238.166 25.167 -318.499 75.5s-129.833 122.166 -148.5 215.499l281 33c10 -43.333 31.5 -77.333 64.5 -102s76.167 -37 129.5 -37c78 0 135 24 171 72s54 119.333 54 214l2 164h-2c-30.667 -66.667 -75 -116.5 -133 -149.5s-129.667 -49.5 -215 -49.5
c-126 0 -223.667 47.333 -293 142s-104 230 -104 406c0 176.667 35.667 313 107 409s175 144 311 144c78.667 0 145.167 -16.167 199.5 -48.5s96.833 -81.166 127.5 -146.499h5c0 16 0.666992 36 2 60s3.16602 47 5.49902 69s4.5 37 6.5 45h266c-4 -72 -6 -155.333 -6 -250
v-799c0 -154 -43.667 -270.333 -131 -349s-214.333 -118 -381 -118zM831.001 556c0 111.333 -19.833 198.167 -59.5 260.5s-96.167 93.5 -169.5 93.5c-74.667 0 -130.834 -30 -168.501 -90s-56.5 -150 -56.5 -270c0 -117.333 18.5 -205.5 55.5 -264.5
s92.833 -88.5 167.5 -88.5s131.834 31.167 171.501 93.5s59.5 150.833 59.5 265.5z" />
    <glyph glyph-name="h" unicode="h" horiz-adv-x="1251" 
d="M420 866c38 82.667 85.668 142.666 143.001 179.999s125.666 56 204.999 56c114.667 0 202.667 -35.333 264 -106s92 -174 92 -310v-686h-280v606c0 95.333 -16 166.666 -48 213.999s-80.333 71 -145 71c-68 0 -122.833 -29.167 -164.5 -87.5
s-62.5 -133.166 -62.5 -224.499v-579h-281v1484h281v-405c0 -24 -0.333008 -48 -1 -72s-1.5 -47.667 -2.5 -71s-2.5 -46.666 -4.5 -69.999h4z" />
    <glyph glyph-name="i" unicode="i" horiz-adv-x="569" 
d="M424 1484v-207h-281v207h281zM424 1082v-1082h-281v1082h281z" />
    <glyph glyph-name="j" unicode="j" horiz-adv-x="569" 
d="M425 1484v-207h-281v207h281zM138 -425c-66 0 -122.667 2.99902 -170 8.99902v198c8.66699 -0.666992 17.167 -1.5 25.5 -2.5s16.833 -1.5 25.5 -1.5c48 0 80.833 10.5 98.5 31.5s26.5 64.5 26.5 130.5v1142h281v-1210c0 -95.333 -24.167 -168.666 -72.5 -219.999
s-119.833 -77 -214.5 -77z" />
    <glyph glyph-name="k" unicode="k" horiz-adv-x="1139" 
d="M424 406v-406h-281v1484h281v-850l386 448h302l-380 -422l409 -660h-307l-289 490z" />
    <glyph glyph-name="l" unicode="l" horiz-adv-x="569" 
d="M424 1484v-1484h-281v1484h281z" />
    <glyph glyph-name="m" unicode="m" horiz-adv-x="1821" 
d="M424 580l0.00390625 -579.998h-281v840c0 58 -0.833008 105.5 -2.5 142.5s-3.5 70.167 -5.5 99.5h268c1.33301 -8 3 -26.833 5 -56.5s3.83301 -60 5.5 -91s2.5 -53.5 2.5 -67.5h4c34.667 82.667 77.834 142.667 129.501 180s113.5 56 185.5 56
c82.667 0 149.167 -19.667 199.5 -59s84.166 -98.333 101.499 -177h6c36.667 84 80.667 144.333 132 181s116.666 55 195.999 55c105.333 0 185.666 -35.833 240.999 -107.5s83 -174.5 83 -308.5v-687h-279v607c0 95.333 -13.667 166.666 -41 213.999s-68.333 71 -123 71
s-100.334 -26.5 -137.001 -79.5s-55 -126.167 -55 -219.5v-593h-279v607c0 95.333 -13.667 166.666 -41 213.999s-68.333 71 -123 71c-56.667 0 -102.834 -29 -138.501 -87s-53.5 -133 -53.5 -225z" />
    <glyph glyph-name="n" unicode="n" horiz-adv-x="1251" 
d="M424 580l0.000976562 -580h-281v840c0 58 -0.833008 105.5 -2.5 142.5s-3.5 70.167 -5.5 99.5h268c1.33301 -8 3 -26.833 5 -56.5s3.83301 -60 5.5 -91s2.5 -53.5 2.5 -67.5h4c38 82.667 85.667 142.667 143 180s125.666 56 204.999 56
c114.667 0 202.667 -35.333 264 -106s92 -174 92 -310v-687h-280v607c0 95.333 -16 166.666 -48 213.999s-80.333 71 -145 71c-68 0 -122.833 -29.167 -164.5 -87.5s-62.5 -133.166 -62.5 -224.499z" />
    <glyph glyph-name="o" unicode="o" horiz-adv-x="1251" 
d="M1171 542c0 -175.333 -48.667 -312.833 -146 -412.5s-232 -149.5 -404 -149.5c-168.667 0 -301 50 -397 150s-144 237.333 -144 412c0 174 48 310.833 144 410.5s230.333 149.5 403 149.5c176.667 0 311.5 -48.167 404.5 -144.5s139.5 -234.833 139.5 -415.5zM877 542
c0 128.667 -21.001 222 -63.001 280s-103 87 -183 87c-85.333 0 -149.333 -30.5 -192 -91.5s-64 -152.833 -64 -275.5c0 -120.667 20.833 -212.5 62.5 -275.5s101.834 -94.5 180.501 -94.5c86.667 0 151.5 30.833 194.5 92.5s64.5 154.167 64.5 277.5z" />
    <glyph glyph-name="p" unicode="p" horiz-adv-x="1251" 
d="M1167 546c0 -180.667 -36.168 -320.166 -108.501 -418.499s-174.5 -147.5 -306.5 -147.5c-156.667 0 -266 64 -328 192h-6c4 -20 6 -80.667 6 -182v-415h-281v1258c0 51.333 -0.666992 97.666 -2 138.999s-3.33301 78 -6 110h273c2.66699 -8 4.83398 -21.5 6.50098 -40.5
s3 -40.5 4 -64.5s1.5 -47.667 1.5 -71h4c31.333 66.667 76 116.5 134 149.5s128.667 49.5 212 49.5c126 0 223.667 -48.5 293 -145.5s104 -234.833 104 -413.5zM873.999 546.001c0 121.333 -18.498 212.333 -55.498 273s-92.833 91 -167.5 91s-131.834 -32.667 -171.501 -98
s-59.5 -156.666 -59.5 -273.999c0 -116.667 19.833 -206.834 59.5 -270.501s96.167 -95.5 169.5 -95.5c75.333 0 131.666 31.167 168.999 93.5s56 155.833 56 280.5z" />
    <glyph glyph-name="q" unicode="q" horiz-adv-x="1251" 
d="M84 540c0 178.667 36.499 317.165 109.499 415.498s175.833 147.5 308.5 147.5c78.667 0 145.167 -16.167 199.5 -48.5s96.833 -81.166 127.5 -146.499c0 20.667 0.833008 43.167 2.5 67.5s3.83398 46.5 6.50098 66.5s4.66699 33.333 6 40h270
c-2 -36 -3.5 -74.667 -4.5 -116s-1.5 -85.666 -1.5 -132.999v-1258h-279v450l5 155h-2c-30.667 -66.667 -75.5 -116.667 -134.5 -150s-131.833 -50 -218.5 -50c-126 0 -223.333 49.167 -292 147.5s-103 235.833 -103 412.5zM830.999 545.998
c0 115.333 -19.3311 204.833 -57.998 268.5s-95.667 95.5 -171 95.5c-74.667 0 -130.834 -30.833 -168.501 -92.5s-56.5 -154.167 -56.5 -277.5c0 -122.667 18.5 -214.667 55.5 -276s92.833 -92 167.5 -92c73.333 0 130.166 32.5 170.499 97.5s60.5 157.167 60.5 276.5z" />
    <glyph glyph-name="r" unicode="r" horiz-adv-x="797" 
d="M424 531l0.00292969 -531h-281v828c0 59.333 -0.833008 108.833 -2.5 148.5s-3.5 74.834 -5.5 105.501h268c1.33301 -6 2.66602 -19.333 3.99902 -40s2.66602 -43.834 3.99902 -69.501s2.5 -49.834 3.5 -72.501s1.5 -39 1.5 -49h4c26.667 74.667 51 128.334 73 161.001
c21.333 31.333 46.666 54.333 75.999 69s66 22 110 22c36 0 65 -5 87 -15v-235c-44.667 10 -84.667 15 -120 15c-70 0 -124.5 -28.333 -163.5 -85s-58.5 -140.667 -58.5 -252z" />
    <glyph glyph-name="s" unicode="s" horiz-adv-x="1139" 
d="M1055 316c0 -104.667 -42.8301 -186.839 -128.497 -246.506s-204.167 -89.5 -355.5 -89.5c-148.667 0 -262.5 23.5 -341.5 70.5s-131.5 120.167 -157.5 219.5l247 37c14 -51.333 38.167 -87.666 72.5 -108.999s94.166 -32 179.499 -32c78.667 0 136 10 172 30
s54 51.333 54 94c0 34.667 -14.5 62.167 -43.5 82.5s-78.167 37.5 -147.5 51.5c-52.667 10.667 -99.834 21 -141.501 31s-77.334 19.833 -107.001 29.5s-53.834 18.834 -72.501 27.501c-55.333 27.333 -97.5 62.333 -126.5 105s-43.5 95.334 -43.5 158.001
c0 103.333 39.833 183.833 119.5 241.5s192.5 86.5 338.5 86.5c128.667 0 232.167 -25 310.5 -75s127.166 -122.333 146.499 -217l-249 -26c-8 44 -27.667 76.833 -59 98.5s-81 32.5 -149 32.5c-66.667 0 -116.667 -8.5 -150 -25.5s-50 -45.5 -50 -85.5
c0 -31.333 12.833 -56.166 38.5 -74.499s68.834 -33.5 129.501 -45.5c84.667 -17.333 159.834 -35.166 225.501 -53.499s118.5 -40.166 158.5 -65.499c39.333 -25.333 70.833 -57.833 94.5 -97.5s35.5 -90.5 35.5 -152.5z" />
    <glyph glyph-name="t" unicode="t" horiz-adv-x="682" 
d="M657 16c-68 -22.667 -146.999 -34 -236.999 -34c-82.667 0 -146.334 22.5 -191.001 67.5s-67 113.167 -67 204.5v638h-137v190h151l88 254h176v-254h205v-190h-205v-562c0 -52.667 10 -91.5 30 -116.5s51 -37.5 93 -37.5c20 0 51.333 4.66699 94 14v-174z" />
    <glyph glyph-name="u" unicode="u" horiz-adv-x="1251" 
d="M831 215c-37.333 -82 -84.833 -141.665 -142.5 -178.998s-126.167 -56 -205.5 -56c-114.667 0 -202.667 35.167 -264 105.5s-92 173.5 -92 309.5v687h281v-607c0 -94.667 16 -165.834 48 -213.501s80 -71.5 144 -71.5c68 0 122.833 29.167 164.5 87.5
s62.5 133.166 62.5 224.499v580h281v-840c0 -46 0.666992 -89.167 2 -129.5s3.33301 -77.833 6 -112.5h-268c-4 48 -7 90 -9 126s-3 65.667 -3 89h-5z" />
    <glyph glyph-name="v" unicode="v" horiz-adv-x="1139" 
d="M1130 1082l-399 -1082h-336l-387 1082h297l189 -605c5.33301 -16.667 13.833 -45.834 25.5 -87.501l45.5 -162.5l16.5 56l27.5 92l26 84l201 623h294z" />
    <glyph glyph-name="w" unicode="w" horiz-adv-x="1593" 
d="M745 658l-174 -658h-297l-280 1082h264l138 -640l20 -93l20 -94c6.66699 32 12.667 64 18 96s12.333 63.667 21 95l170 636h301l166 -636c4.66699 -17.333 10.5 -41.833 17.5 -73.5s14.833 -70.834 23.5 -117.501l21.5 95.5l20.5 95.5l142 636h260l-284 -1082h-297
l-172 660c-4 15.333 -10 41.5 -18 78.5s-17.667 84.833 -29 143.5l-25 -112c-8 -37.333 -17 -74.666 -27 -111.999z" />
    <glyph glyph-name="x" unicode="x" horiz-adv-x="1139" 
d="M567 392l-254 -392h-299l396 559l-377 523h303l231 -354l230 354h305l-377 -520l399 -562h-305z" />
    <glyph glyph-name="y" unicode="y" horiz-adv-x="1139" 
d="M283 -425c-68.667 0 -127.667 4.33203 -177 12.999v200c37.333 -5.33301 69.666 -8 96.999 -8c65.333 0 114.166 17.667 146.499 53s63.833 94.666 94.5 177.999l-428 1071h297l170 -507c13.333 -36.667 28.333 -82.667 45 -138s35.334 -120.666 56.001 -195.999l44 170
c14 52 29.333 105.333 46 160l160 511h294l-428 -1139c-17.333 -46 -35.666 -86.667 -54.999 -122s-39 -66.666 -59 -93.999c-40.667 -55.333 -85 -94.5 -133 -117.5s-104.667 -34.5 -170 -34.5z" />
    <glyph glyph-name="z" unicode="z" horiz-adv-x="1024" 
d="M950 205v-205h-868v199l509 680h-468v203h778v-201l-506 -676h555z" />
    <glyph glyph-name="braceleft" unicode="{" horiz-adv-x="797" 
d="M557 -425c-89.333 0 -160.833 26.168 -214.5 78.501s-80.5 125.833 -80.5 220.5v328c0 76 -18.333 132.833 -55 170.5s-94.667 57.167 -174 58.5v195c80.667 3.33301 139 23.833 175 61.5s54 94.167 54 169.5v328c0 97.333 26.167 171.5 78.5 222.5
s124.5 76.5 216.5 76.5h197v-190h-58c-60.667 0 -104.5 -17.333 -131.5 -52s-40.5 -87 -40.5 -157v-301c0 -63.333 -19.167 -118 -57.5 -164s-88.166 -75.333 -149.499 -88v-4c63.333 -14.667 113.666 -44.834 150.999 -90.501s56 -99.5 56 -161.5v-301
c0 -70.667 13.5 -123.167 40.5 -157.5s70.833 -51.5 131.5 -51.5h58v-191h-197z" />
    <glyph glyph-name="bar" unicode="|" horiz-adv-x="573" 
d="M418 1484v-1939h-262v1939h262z" />
    <glyph glyph-name="braceright" unicode="}" horiz-adv-x="797" 
d="M43 -234l57 -0.000976562c62 0 106.167 17.167 132.5 51.5s39.5 86.833 39.5 157.5v301c0 61.333 18.833 115 56.5 161s87.834 76.333 150.501 91v4c-60.667 12.667 -110.334 41.834 -149.001 87.501s-58 100.5 -58 164.5v301c0 70 -13.167 122.333 -39.5 157
s-70.5 52 -132.5 52h-57v190h197c92 0 164.167 -25.5 216.5 -76.5s78.5 -125.167 78.5 -222.5v-328c0 -74.667 18.333 -131 55 -169s95.334 -58.667 176.001 -62v-195c-80.667 -1.33301 -139.334 -21.333 -176.001 -60s-55 -95 -55 -169v-328
c0 -94 -26.667 -167.333 -80 -220s-125 -79 -215 -79h-197v191z" />
    <glyph glyph-name="asciitilde" unicode="~" horiz-adv-x="1196" 
d="M852 516c-50 0 -99.166 7 -147.499 21s-97.5 29.667 -147.5 47c-90.667 31.333 -164.334 47 -221.001 47c-47.333 0 -90.833 -7.16699 -130.5 -21.5s-81.167 -36.5 -124.5 -66.5v213c75.333 56 165.666 84 270.999 84c69.333 0 150 -15.667 242 -47
c44 -15.333 81.167 -27.833 111.5 -37.5s53.833 -16.5 70.5 -20.5s33 -7 49 -9s31.333 -3 46 -3c88.667 0 171.334 30.667 248.001 92v-219c-42.667 -29.333 -83.5 -50 -122.5 -62s-87.167 -18 -144.5 -18z" />
    <glyph glyph-name="nbspace" unicode="&#xa0;" horiz-adv-x="569" 
 />
    <glyph glyph-name="exclamdown" unicode="&#xa1;" horiz-adv-x="682" 
d="M488 1082v-270h-288v270h288zM194 -327l32 981h230l32 -981h-294z" />
    <glyph glyph-name="cent" unicode="&#xa2;" horiz-adv-x="1139" 
d="M588 340c58.667 0 107.834 18.165 147.501 54.498s64.167 87.833 73.5 154.5l283 -12c-14.667 -102 -59.334 -186.833 -134.001 -254.5s-171.334 -108.5 -290.001 -122.5v-191h-162v189c-143.333 14 -255 66.333 -335 157s-120 214.334 -120 371.001
c0 154.667 39.167 279 117.5 373s190.833 149.333 337.5 166v184h162v-184c112.667 -12.667 205.334 -50.167 278.001 -112.5s118.334 -143.833 137.001 -244.5l-282 -14c-10 60.667 -33.667 107.5 -71 140.5s-85.333 49.5 -144 49.5
c-82.667 0 -145.334 -30.667 -188.001 -92s-64 -146.666 -64 -255.999c0 -116 22.167 -204.333 66.5 -265s106.833 -91 187.5 -91z" />
    <glyph glyph-name="sterling" unicode="&#xa3;" horiz-adv-x="1139" 
d="M1118 363c-20.667 -114.667 -65.999 -203.832 -135.999 -267.499s-155.333 -95.5 -256 -95.5h-694v205c68 38.667 114.5 82 139.5 130s37.5 107 37.5 177v92h-188v170h178v248c0 134 35.667 235.5 107 304.5s177.666 103.5 318.999 103.5
c112.667 0 201.334 -23 266.001 -69s111.667 -120 141 -222l-233 -47c-14 51.333 -34.667 88.666 -62 111.999s-63 35 -107 35c-60.667 0 -104.334 -19.167 -131.001 -57.5s-40 -99.166 -40 -182.499v-225h286v-170h-286v-90c0 -68.667 -13.667 -127.334 -41 -176.001
s-74.333 -91.667 -141 -129h380c69.333 0 121.833 16.5 157.5 49.5s59.167 80.833 70.5 143.5z" />
    <glyph glyph-name="currency" unicode="&#xa4;" horiz-adv-x="1139" 
d="M134 684c0 80.667 20 154.332 60 220.999l-133 133l157 156l131 -133c67.333 39.333 140.666 59 219.999 59c80.667 0 153.667 -19.667 219 -59l135 135l158 -158l-136 -135c40 -66 60 -139 60 -219c0 -79.333 -19.333 -151.666 -58 -216.999l134 -133l-158 -160
l-133 135c-67.333 -39.333 -141 -59 -221 -59c-81.333 0 -154.666 19 -219.999 57l-135 -137l-157 158l135 137c-38.667 65.333 -58 138.333 -58 219zM360 685.998c0 -38 9.33105 -72.8311 27.998 -104.498s43.834 -57 75.501 -76s66.834 -28.5 105.501 -28.5
c38 0 72.667 9.5 104 28.5s56.5 44.5 75.5 76.5s28.5 66.667 28.5 104c0 38.667 -9.33301 73.667 -28 105s-43.667 56.5 -75 75.5s-66.333 28.5 -105 28.5s-73.667 -9.33301 -105 -28s-56.5 -43.834 -75.5 -75.501s-28.5 -66.834 -28.5 -105.501z" />
    <glyph glyph-name="yen" unicode="&#xa5;" horiz-adv-x="1139" 
d="M704 236v-236h-272v236h-336v147h336l2 162h-338v146h276l-364 718h289l270 -596l274 596h289l-364 -718h276v-146h-338v-162h338v-147h-338z" />
    <glyph glyph-name="brokenbar" unicode="&#xa6;" horiz-adv-x="573" 
d="M418 1454v-778h-262v778h262zM418 324v-779h-262v779h262z" />
    <glyph glyph-name="section" unicode="&#xa7;" horiz-adv-x="1139" 
d="M575 1427c129.333 0 233.168 -23.498 311.501 -70.498s126.5 -114.833 144.5 -203.5l-239 -25c-8.66699 41.333 -32 73.166 -70 95.499s-87 33.5 -147 33.5c-74.667 0 -129.5 -9.83301 -164.5 -29.5s-52.5 -51.167 -52.5 -94.5c0 -27.333 9.16699 -50.5 27.5 -69.5
s43.833 -35.5 76.5 -49.5c33.333 -14.667 93.333 -31.667 180 -51c109.333 -24.667 192.333 -51 249 -79c53.333 -27.333 94.166 -61.333 122.499 -102s42.5 -90 42.5 -148c0 -62 -18.333 -116.833 -55 -164.5s-84 -80.5 -142 -98.5c60.667 -26.667 106 -61.167 136 -103.5
s45 -93.166 45 -152.499c0 -111.333 -41.833 -196.5 -125.5 -255.5s-203.167 -88.5 -358.5 -88.5c-148.667 0 -263.167 23.167 -343.5 69.5s-133.5 119.166 -159.5 218.499l237 37c13.333 -53.333 40.5 -92.5 81.5 -117.5s102.5 -37.5 184.5 -37.5
c81.333 0 143 10.833 185 32.5s63 59.167 63 112.5c0 32 -8 58.167 -24 78.5s-41 37.833 -75 52.5c-34.667 15.333 -113.667 37.333 -237 66c-137.333 32.667 -234.5 75 -291.5 127s-85.5 115.333 -85.5 190c0 62 18.333 114.333 55 157s89.334 75.667 158.001 99
c-60 25.333 -106.333 60.666 -139 105.999s-49 96 -49 152c0 99.333 39.167 176.333 117.5 231s192.166 82 341.499 82zM818.002 600.002c0 47.333 -19.665 83.665 -58.998 108.998c-40.667 25.333 -118.334 49 -233.001 71c-64.667 -7.33301 -113 -23.833 -145 -49.5
s-48 -60.167 -48 -103.5c0 -27.333 9 -50.166 27 -68.499s43.667 -34.5 77 -48.5c31.333 -13.333 93.333 -30.666 186 -51.999c65.333 3.33301 114.166 16.833 146.499 40.5s48.5 57.5 48.5 101.5z" />
    <glyph glyph-name="dieresis" unicode="&#xa8;" horiz-adv-x="682" 
d="M667 1418v-219h-217v219h217zM230 1418v-219h-214v219h214z" />
    <glyph glyph-name="copyright" unicode="&#xa9;" horiz-adv-x="1509" 
d="M1478 707c0 -128.667 -31.999 -248.998 -95.999 -360.998c-64.667 -112.667 -153.167 -201.167 -265.5 -265.5s-232.833 -96.5 -361.5 -96.5c-130.667 0 -252.667 33.667 -366 101c-112.667 67.333 -200.334 156.333 -263.001 267s-94 229 -94 355
c0 129.333 32.333 249.666 97 360.999c64.667 112 153 200.333 265 265s232.333 97 361 97c129.333 0 250.333 -32.333 363 -97c112 -64.667 200 -152.834 264 -264.501s96 -232.167 96 -361.5zM1366 707.002c0 109.333 -27.3311 210.667 -81.998 304
s-129.334 167.333 -224.001 222s-196.334 82 -305.001 82c-104.667 0 -203.667 -26 -297 -78s-168.5 -125.167 -225.5 -219.5s-85.5 -197.833 -85.5 -310.5c0 -108.667 27.333 -210.334 82 -305.001c54 -94.667 127.833 -169.334 221.5 -224.001s195.167 -82 304.5 -82
s211.333 27.333 306 82s169.167 129.334 223.5 224.001s81.5 196.334 81.5 305.001zM544.003 709.003c0 -90 19.665 -159.669 58.998 -209.002s94.333 -74 165 -74c92 0 157.333 47.667 196 143l160 -47c-38.667 -83.333 -87 -143.666 -145 -180.999s-128.333 -56 -211 -56
c-128.667 0 -228.167 37 -298.5 111s-105.5 178.333 -105.5 313c0 135.333 34 238.333 102 309s165.667 106 293 106c172.667 0 290.334 -76.333 353.001 -229l-156 -41c-17.333 40.667 -42.166 72.334 -74.499 95.001s-71.5 34 -117.5 34
c-72.667 0 -127.5 -23.333 -164.5 -70s-55.5 -114.667 -55.5 -204z" />
    <glyph glyph-name="ordfeminine" unicode="&#xaa;" horiz-adv-x="758" 
d="M257 725c-64.667 0 -116.166 17.501 -154.499 52.501s-57.5 84.833 -57.5 149.5c0 137.333 94.667 207.666 284 210.999l147 2v42c0 39.333 -8.66699 69 -26 89s-43.333 30 -78 30c-34 0 -60.333 -7.83301 -79 -23.5s-29.667 -39.167 -33 -70.5l-190 9
c12 65.333 44.167 115.5 96.5 150.5s120.5 52.5 204.5 52.5c92 0 162.833 -20.333 212.5 -61s74.5 -98.667 74.5 -174v-237c0 -32 3 -56.333 9 -73s20 -24.667 42 -24c8 0.666992 16.167 1.5 24.5 2.5s16.5 1.83301 24.5 2.5v-109c-42.667 -12 -82.334 -18 -119.001 -18
c-47.333 0 -84.5 12.167 -111.5 36.5s-42.167 56.833 -45.5 97.5h-3c-48 -91.333 -122 -137 -222 -137zM328.001 856.001c40.667 0 75.501 16 104.501 48s43.5 69.667 43.5 113v27l-92 -2c-58.667 -2 -98.334 -11 -119.001 -27s-31 -40.667 -31 -74
c0 -56.667 31.333 -85 94 -85z" />
    <glyph glyph-name="guillemotleft" unicode="&#xab;" horiz-adv-x="1139" 
d="M1047 176v-35h-240l-256 361v71l256 367h238v-37l-254 -366zM588 176v-35h-238l-258 361v71l258 367h236v-37l-254 -366z" />
    <glyph glyph-name="logicalnot" unicode="&#xac;" horiz-adv-x="1196" 
d="M1111 793v-652h-224v428h-803v224h1027z" />
    <glyph glyph-name="registered" unicode="&#xae;" horiz-adv-x="1509" 
d="M1478 707c0 -128.667 -31.999 -248.998 -95.999 -360.998c-64.667 -112.667 -153.167 -201.167 -265.5 -265.5s-232.833 -96.5 -361.5 -96.5c-130.667 0 -252.667 33.667 -366 101c-112.667 67.333 -200.334 156.333 -263.001 267s-94 229 -94 355
c0 129.333 32.333 249.666 97 360.999c64.667 112 153 200.333 265 265s232.333 97 361 97c129.333 0 250.333 -32.333 363 -97c112 -64.667 200 -152.834 264 -264.501s96 -232.167 96 -361.5zM1366 707.002c0 109.333 -27.3311 210.667 -81.998 304
s-129.334 167.333 -224.001 222s-196.334 82 -305.001 82c-104.667 0 -203.667 -26 -297 -78s-168.5 -125.167 -225.5 -219.5s-85.5 -197.833 -85.5 -310.5c0 -108.667 27.333 -210.334 82 -305.001c54 -94.667 127.833 -169.334 221.5 -224.001s195.167 -82 304.5 -82
s211.333 27.333 306 82s169.167 129.334 223.5 224.001s81.5 196.334 81.5 305.001zM628.003 610.003v-313h-178v815h330c102 0 178.333 -21.5 229 -64.5s76 -102.167 76 -177.5c0 -62.667 -16 -113.667 -48 -153s-74 -67.333 -126 -84l213 -336h-201l-178 313h-117z
M905.003 868.003c0 38 -12.5 66.999 -37.5 86.999s-60.5 30 -106.5 30h-133v-246h144c44 0 77.167 11.833 99.5 35.5s33.5 54.834 33.5 93.501z" />
    <glyph glyph-name="overscore" unicode="&#xaf;" horiz-adv-x="1131" 
d="M1148 1546v-94h-1165v94h1165z" />
    <glyph glyph-name="degree" unicode="&#xb0;" horiz-adv-x="819" 
d="M731 1113c0 -57.333 -14.335 -110.168 -43.002 -158.501s-67.167 -87 -115.5 -116s-102.5 -43.5 -162.5 -43.5c-58.667 0 -112.167 14 -160.5 42s-87 65.833 -116 113.5s-43.5 100.834 -43.5 159.501c0 58 14.333 110.833 43 158.5s67.334 85.667 116.001 114
s102.334 42.5 161.001 42.5c60 0 114.167 -14 162.5 -42s86.833 -65.5 115.5 -112.5s43 -99.5 43 -157.5zM572.998 1110c0 46.667 -15.5 85.999 -46.5 117.999s-69.833 48 -116.5 48c-47.333 0 -86.833 -16.167 -118.5 -48.5s-47.5 -71.5 -47.5 -117.5
s16.333 -85.5 49 -118.5s71.667 -49.5 117 -49.5c44.667 0 83 16.333 115 49s48 72.334 48 119.001z" />
    <glyph glyph-name="plusminus" unicode="&#xb1;" horiz-adv-x="1124" 
d="M674 707v-341h-224v341h-401v223h401v340h224v-340h402v-223h-402zM1076 223v-223h-1027v223h1027z" />
    <glyph glyph-name="twosuperior" unicode="&#xb2;" horiz-adv-x="682" 
d="M639 832v-138.001h-586l-2 121c19.333 40.667 46.666 78.5 81.999 113.5s83.333 72.167 144 111.5c57.333 37.333 96.833 68 118.5 92s32.5 49.333 32.5 76c0 30.667 -6.66699 53.5 -20 68.5s-33.666 22.5 -60.999 22.5c-28.667 0 -50.834 -8.16699 -66.501 -24.5
s-25.167 -40.833 -28.5 -73.5l-194 5c8.66699 66 38.334 119.167 89.001 159.5s117.334 60.5 200.001 60.5c87.333 0 155.666 -18.5 204.999 -55.5s74 -88.5 74 -154.5c0 -83.333 -51 -157.666 -153 -222.999l-87 -57c-23.333 -16 -41.333 -29.333 -54 -40
c-26 -20.667 -44.333 -42 -55 -64h362z" />
    <glyph glyph-name="threesuperior" unicode="&#xb3;" horiz-adv-x="682" 
d="M638 895c0 -66 -25 -117.669 -75 -155.002s-121 -56 -213 -56c-90 0 -161.333 17.333 -214 52s-83.334 86.667 -92.001 156l189 12c7.33301 -62 45.333 -93 114 -93c68 0 102 32 102 96c0 62 -46.333 93 -139 93h-56v126h51c42 0 73.667 7.83301 95 23.5
s32 37.834 32 66.501c0 26 -7.66699 46.333 -23 61s-37.333 22 -66 22c-29.333 0 -52.166 -7.5 -68.499 -22.5s-26.166 -37.167 -29.499 -66.5l-186 12c7.33301 62.667 36.5 112.334 87.5 149.001s118.167 55 201.5 55c85.333 0 151.833 -17.167 199.5 -51.5
s71.5 -79.833 71.5 -136.5c0 -42.667 -12.167 -79.167 -36.5 -109.5s-62.833 -50.833 -115.5 -61.5v-2c55.333 -6 97.666 -24.333 126.999 -55s44 -69 44 -115z" />
    <glyph glyph-name="acute" unicode="&#xb4;" horiz-adv-x="682" 
d="M597 1459l-340 -276h-170v31l252 288h258v-43z" />
    <glyph glyph-name="mu1" unicode="&#xb5;" horiz-adv-x="1229" 
d="M134 -426l0.00292969 1508h281v-605c0 -100 14.167 -172.333 42.5 -217s72.5 -67 132.5 -67c59.333 0 103.833 25.333 133.5 76s44.5 129 44.5 235v578h281l-2 -762c0 -60.667 6.83301 -102.5 20.5 -125.5s36.5 -34.5 68.5 -34.5c21.333 0 42 2 62 6v-152
c-34.667 -8.66699 -64.334 -15.167 -89.001 -19.5s-55 -6.5 -91 -6.5c-70.667 0 -122.834 14.833 -156.501 44.5s-53.834 78.167 -60.501 145.5h-6c-22 -74.667 -51.667 -126.334 -89 -155.001s-82.333 -43 -135 -43c-34.667 0 -65.5 8 -92.5 24s-48.167 38 -63.5 66v-496
h-281z" />
    <glyph glyph-name="paragraph" unicode="&#xb6;" horiz-adv-x="1139" 
d="M589 1266l0.000976562 -1530h-155v958c-112.667 0 -201.334 30.833 -266.001 92.5s-97 149.167 -97 262.5c0 112.667 32.833 200.834 98.5 264.501s156.5 95.5 272.5 95.5h629v-143h-131v-1530h-156v1530h-195z" />
    <glyph glyph-name="middot" unicode="&#xb7;" horiz-adv-x="682" 
d="M429 836v-305h-288v305h288z" />
    <glyph glyph-name="cedilla" unicode="&#xb8;" horiz-adv-x="682" 
d="M500 -235c0 -62.667 -25.998 -110 -77.998 -142s-127 -48 -225 -48c-30 0 -63.667 2 -101 6v118c21.333 -4.66699 49.333 -7 84 -7c91.333 0 137 23 137 69c0 23.333 -9.33301 40.666 -28 51.999s-50 17 -94 17c-12.667 0 -23.334 -0.166992 -32.001 -0.5
s-15.334 -0.833008 -20.001 -1.5l62 172h143l-33 -82c62.667 -3.33301 109.167 -18.666 139.5 -45.999s45.5 -63 45.5 -107z" />
    <glyph glyph-name="onesuperior" unicode="&#xb9;" horiz-adv-x="682" 
d="M618 815v-121h-536v121h184v468l-173 -108v122l180 117h175v-599h170z" />
    <glyph glyph-name="ordmasculine" unicode="&#xba;" horiz-adv-x="748" 
d="M713 1073c0 -108 -29.834 -192.999 -89.501 -254.999s-142.5 -93 -248.5 -93c-101.333 0 -181.666 30.667 -240.999 92s-89 146.666 -89 255.999c0 108 29.333 192.667 88 254s140.667 92 246 92c106.667 0 189 -29.667 247 -89s87 -145 87 -257zM512.999 1073
c0 70.667 -9.83105 122.167 -29.498 154.5s-53.834 48.5 -102.501 48.5s-83.834 -16.5 -105.501 -49.5s-32.5 -84.167 -32.5 -153.5c0 -70.667 10.667 -123 32 -157s54.333 -51 99 -51c50 0 85.667 16.833 107 50.5s32 86.167 32 157.5z" />
    <glyph glyph-name="guillemotright" unicode="&#xbb;" horiz-adv-x="1139" 
d="M790 141h-238v35l256 361l-254 366v37h236l258 -367v-71zM333 141h-240v35l256 361l-254 366v37h238l256 -367v-71z" />
    <glyph glyph-name="onequarter" unicode="&#xbc;" horiz-adv-x="1708" 
d="M630 815v-121h-536v121h184v468l-173 -108v122l180 117h175v-599h170zM1439 1409l-895 -1409h-201l895 1409h201zM1508 141v-140h-183v140h-344v148l316 432h211v-440h103v-140h-103zM1329 583l-36.5 -62c-9.66699 -16.667 -19.167 -32 -28.5 -46l-141 -194h202v194
c0 18 0.5 36 1.5 54s1.83301 36 2.5 54z" />
    <glyph glyph-name="onehalf" unicode="&#xbd;" horiz-adv-x="1708" 
d="M630 815v-121h-536v121h184v468l-173 -108v122l180 117h175v-599h170zM1419 1409l-895 -1409h-201l895 1409h201zM1612 137v-138.001h-586l-2 121c19.333 40.667 46.666 78.5 81.999 113.5s83.333 72.167 144 111.5c57.333 37.333 96.833 68 118.5 92
s32.5 49.333 32.5 76c0 30.667 -6.66699 53.5 -20 68.5s-33.666 22.5 -60.999 22.5c-28.667 0 -50.834 -8.16699 -66.501 -24.5s-25.167 -40.833 -28.5 -73.5l-194 5c8.66699 66 38.334 119.167 89.001 159.5s117.334 60.5 200.001 60.5
c87.333 0 155.666 -18.5 204.999 -55.5s74 -88.5 74 -154.5c0 -83.333 -51 -157.666 -153 -222.999l-87 -57c-23.333 -16 -41.333 -29.333 -54 -40c-26 -20.667 -44.333 -42 -55 -64h362z" />
    <glyph glyph-name="threequarters" unicode="&#xbe;" horiz-adv-x="1708" 
d="M1439 1409l-895 -1409h-201l895 1409h201zM1508 141v-140h-183v140h-344v148l316 432h211v-440h103v-140h-103zM1329 583l-36.5 -62c-9.66699 -16.667 -19.167 -32 -28.5 -46l-141 -194h202v194c0 18 0.5 36 1.5 54s1.83301 36 2.5 54zM697 895
c0 -66 -25 -117.669 -75 -155.002s-121 -56 -213 -56c-90 0 -161.333 17.333 -214 52s-83.334 86.667 -92.001 156l189 12c7.33301 -62 45.333 -93 114 -93c68 0 102 32 102 96c0 62 -46.333 93 -139 93h-56v126h51c42 0 73.667 7.83301 95 23.5s32 37.834 32 66.501
c0 26 -7.66699 46.333 -23 61s-37.333 22 -66 22c-29.333 0 -52.166 -7.5 -68.499 -22.5s-26.166 -37.167 -29.499 -66.5l-186 12c7.33301 62.667 36.5 112.334 87.5 149.001s118.167 55 201.5 55c85.333 0 151.833 -17.167 199.5 -51.5s71.5 -79.833 71.5 -136.5
c0 -42.667 -12.167 -79.167 -36.5 -109.5s-62.833 -50.833 -115.5 -61.5v-2c55.333 -6 97.666 -24.333 126.999 -55s44 -69 44 -115z" />
    <glyph glyph-name="questiondown" unicode="&#xbf;" horiz-adv-x="1251" 
d="M809 1082v-270h-289v270h289zM114 56c0 64.667 14.5 122.667 43.5 174s83.167 105.333 162.5 162l77 55c87.333 64 133 133.667 137 209h267c-2.66699 -45.333 -12.167 -87.333 -28.5 -126s-39.5 -74.834 -69.5 -108.501s-67 -65.834 -111 -96.501
c-47.333 -33.333 -85.333 -63.5 -114 -90.5s-49.334 -53.667 -62.001 -80s-19 -55.166 -19 -86.499c0 -58.667 19.167 -105 57.5 -139s92.833 -51 163.5 -51c67.333 0 123.833 19.667 169.5 59s72.5 91.333 80.5 156l285 -12c-18 -135.333 -73.667 -240.666 -167 -315.999
s-214.666 -113 -363.999 -113c-158 0 -282.167 35.833 -372.5 107.5s-135.5 170.5 -135.5 296.5z" />
    <glyph glyph-name="Agrave" unicode="&#xc0;" horiz-adv-x="1479" 
d="M471 360l-125 -360h-295l514 1409h348l512 -1409h-292l-125 360h-537zM739 1192c-6.66699 -26.667 -16 -58.668 -28 -96.001s-20.667 -63.666 -26 -78.999l-148 -435h405l-152 444c-9.33301 27.333 -18 55 -26 83s-16.333 55.667 -25 83zM938 1561v-31h-169l-340 242v43
h258z" />
    <glyph glyph-name="Aacute" unicode="&#xc1;" horiz-adv-x="1479" 
d="M471 360l-125 -360h-295l514 1409h348l512 -1409h-292l-125 360h-537zM739 1192c-6.66699 -26.667 -16 -58.668 -28 -96.001s-20.667 -63.666 -26 -78.999l-148 -435h405l-152 444c-9.33301 27.333 -18 55 -26 83s-16.333 55.667 -25 83zM1083 1772l-340 -242h-170v31
l252 254h258v-43z" />
    <glyph glyph-name="Acircumflex" unicode="&#xc2;" horiz-adv-x="1479" 
d="M471 360l-125 -360h-295l514 1409h348l512 -1409h-292l-125 360h-537zM739 1192c-6.66699 -26.667 -16 -58.668 -28 -96.001s-20.667 -63.666 -26 -78.999l-148 -435h405l-152 444c-9.33301 27.333 -18 55 -26 83s-16.333 55.667 -25 83zM370 1530v29l258 276h229
l250 -276v-29h-159l-203 151h-4l-211 -151h-160z" />
    <glyph glyph-name="Atilde" unicode="&#xc3;" horiz-adv-x="1479" 
d="M471 360l-125 -360h-295l514 1409h348l512 -1409h-292l-125 360h-537zM739 1192c-6.66699 -26.667 -16 -58.668 -28 -96.001s-20.667 -63.666 -26 -78.999l-148 -435h405l-152 444c-9.33301 27.333 -18 55 -26 83s-16.333 55.667 -25 83zM905 1530
c-28.667 0 -57.832 6.83301 -87.499 20.5s-59.167 28.167 -88.5 43.5c-26.667 15.333 -52.5 29 -77.5 41s-47.833 18 -68.5 18c-27.333 0 -48.166 -7.66699 -62.499 -23s-26.166 -48.666 -35.499 -99.999h-137c7.33301 111.333 30.5 188 69.5 230s90.833 63 155.5 63
c27.333 0 55.666 -6.33301 84.999 -19s58 -26.667 86 -42l81 -42.5c25.333 -13 48.333 -19.5 69 -19.5c26.667 0 47.5 8.16699 62.5 24.5s27.167 49.166 36.5 98.499h135c-4.66699 -104.667 -25.834 -179.667 -63.501 -225s-90.834 -68 -159.501 -68z" />
    <glyph glyph-name="Adieresis" unicode="&#xc4;" horiz-adv-x="1479" 
d="M471 360l-125 -360h-295l514 1409h348l512 -1409h-292l-125 360h-537zM739 1192c-6.66699 -26.667 -16 -58.668 -28 -96.001s-20.667 -63.666 -26 -78.999l-148 -435h405l-152 444c-9.33301 27.333 -18 55 -26 83s-16.333 55.667 -25 83zM1065 1749v-219h-197v219h197z
M608 1749v-219h-194v219h194z" />
    <glyph glyph-name="Aring" unicode="&#xc5;" horiz-adv-x="1479" 
d="M471 360l-125 -360h-295l514 1409h348l512 -1409h-292l-125 360h-537zM739 1192c-6.66699 -26.667 -16 -58.668 -28 -96.001s-20.667 -63.666 -26 -78.999l-148 -435h405l-152 444c-9.33301 27.333 -18 55 -26 83s-16.333 55.667 -25 83zM993 1552
c0 -46.667 -11.168 -89.167 -33.501 -127.5s-52.666 -69 -90.999 -92s-81.5 -34.5 -129.5 -34.5c-47.333 0 -90.333 11.5 -129 34.5s-69.167 53.667 -91.5 92s-33.5 80.833 -33.5 127.5s11.5 89.167 34.5 127.5s53.667 69 92 92s80.833 34.5 127.5 34.5
s89.167 -11.5 127.5 -34.5s69 -53.667 92 -92s34.5 -80.833 34.5 -127.5zM865.999 1552c0 34 -12.167 63.333 -36.5 88s-54.5 37 -90.5 37c-34 0 -63.333 -12 -88 -36s-37 -53.667 -37 -89c0 -37.333 12.333 -68 37 -92s54 -36 88 -36c35.333 0 65.333 12.333 90 37
s37 55 37 91z" />
    <glyph glyph-name="AE" unicode="&#xc6;" horiz-adv-x="2048" 
d="M481 360l-172 -360h-305l700 1409h1223v-227h-701v-355h639v-221h-639v-379h742v-227h-1037v360h-450zM583 582h348v610h-61z" />
    <glyph glyph-name="Ccedilla" unicode="&#xc7;" horiz-adv-x="1479" 
d="M795 212c178.667 0 302.331 89.3311 370.998 267.998l257 -97c-55.333 -136 -136.5 -237.167 -243.5 -303.5s-235.167 -99.5 -384.5 -99.5c-150.667 0 -279 28.833 -385 86.5s-186.833 141.167 -242.5 250.5s-83.5 240.666 -83.5 393.999
c0 154.667 26.667 285.334 80 392.001s132 187.834 236 243.501s231.333 83.5 382 83.5c165.333 0 300 -33.167 404 -99.5s177 -163.833 219 -292.5l-260 -71c-22 70.667 -65.167 126.834 -129.5 168.501s-140.166 62.5 -227.499 62.5
c-133.333 0 -234.5 -41.333 -303.5 -124s-103.5 -203.667 -103.5 -363c0 -108 15.833 -199 47.5 -273s78.334 -130.167 140.001 -168.5s137.167 -57.5 226.5 -57.5zM988.997 -235.002c0 -62.667 -25.998 -110 -77.998 -142s-127 -48 -225 -48c-30 0 -63.667 2 -101 6v118
c21.333 -4.66699 49.333 -7 84 -7c91.333 0 137 23 137 69c0 23.333 -9.33301 40.666 -28 51.999s-50 17 -94 17c-12.667 0 -23.334 -0.166992 -32.001 -0.5s-15.334 -0.833008 -20.001 -1.5l62 172h143l-33 -82c62.667 -3.33301 109.167 -18.666 139.5 -45.999
s45.5 -63 45.5 -107z" />
    <glyph glyph-name="Egrave" unicode="&#xc8;" horiz-adv-x="1366" 
d="M1286 228v-228h-1149v1409h1108v-228h-813v-354h752v-228h-752v-371h854zM905 1561v-31h-169l-340 242v43h258z" />
    <glyph glyph-name="Eacute" unicode="&#xc9;" horiz-adv-x="1366" 
d="M1286 228v-228h-1149v1409h1108v-228h-813v-354h752v-228h-752v-371h854zM1027 1772l-340 -242h-170v31l252 254h258v-43z" />
    <glyph glyph-name="Ecircumflex" unicode="&#xca;" horiz-adv-x="1366" 
d="M1286 228v-228h-1149v1409h1108v-228h-813v-354h752v-228h-752v-371h854zM344 1530v29l258 276h229l250 -276v-29h-159l-203 151h-4l-211 -151h-160z" />
    <glyph glyph-name="Edieresis" unicode="&#xcb;" horiz-adv-x="1366" 
d="M1286 228v-228h-1149v1409h1108v-228h-813v-354h752v-228h-752v-371h854zM1037 1749v-219h-197v219h197zM580 1749v-219h-194v219h194z" />
    <glyph glyph-name="Igrave" unicode="&#xcc;" horiz-adv-x="569" 
d="M432 1409v-1409h-295v1409h295zM469 1561v-31h-169l-340 242v43h258z" />
    <glyph glyph-name="Iacute" unicode="&#xcd;" horiz-adv-x="569" 
d="M432 1409v-1409h-295v1409h295zM614 1772l-340 -242h-170v31l252 254h258v-43z" />
    <glyph glyph-name="Icircumflex" unicode="&#xce;" horiz-adv-x="569" 
d="M432 1409v-1409h-295v1409h295zM-85 1530v29l258 276h229l250 -276v-29h-159l-203 151h-4l-211 -151h-160z" />
    <glyph glyph-name="Idieresis" unicode="&#xcf;" horiz-adv-x="569" 
d="M432 1409v-1409h-295v1409h295zM610 1749v-219h-197v219h197zM153 1749v-219h-194v219h194z" />
    <glyph glyph-name="Eth" unicode="&#xd0;" horiz-adv-x="1479" 
d="M1393 715c0 -150 -29.167 -278.332 -87.5 -384.999s-139 -188.334 -242 -245.001s-221.833 -85 -356.5 -85h-570v594h-129v219h129v596h510c237.333 0 421 -59.833 551 -179.5s195 -291.167 195 -514.5zM1096 715.001c0 150 -39.001 264.667 -117.001 344
s-190.667 119 -338 119h-209v-365h356v-219h-356v-363h250c85.333 0 158.833 19.5 220.5 58.5s109.334 94.667 143.001 167s50.5 158.5 50.5 258.5z" />
    <glyph glyph-name="Ntilde" unicode="&#xd1;" horiz-adv-x="1479" 
d="M399 831v-831h-262v1409h337l623 -1094c-12 101.333 -18 193 -18 275v819h262v-1409h-346l-614 1085c6 -52.667 10.5 -100.167 13.5 -142.5s4.5 -79.5 4.5 -111.5zM906 1530c-28.667 0 -57.832 6.83301 -87.499 20.5s-59.167 28.167 -88.5 43.5
c-26.667 15.333 -52.5 29 -77.5 41s-47.833 18 -68.5 18c-27.333 0 -48.166 -7.66699 -62.499 -23s-26.166 -48.666 -35.499 -99.999h-137c7.33301 111.333 30.5 188 69.5 230s90.833 63 155.5 63c27.333 0 55.666 -6.33301 84.999 -19s58 -26.667 86 -42l81 -42.5
c25.333 -13 48.333 -19.5 69 -19.5c26.667 0 47.5 8.16699 62.5 24.5s27.167 49.166 36.5 98.499h135c-4.66699 -104.667 -25.834 -179.667 -63.501 -225s-90.834 -68 -159.501 -68z" />
    <glyph glyph-name="Ograve" unicode="&#xd2;" horiz-adv-x="1593" 
d="M1507 711c0 -146.667 -29.499 -274.833 -88.499 -384.5s-142 -194.834 -249 -255.501s-232.5 -91 -376.5 -91c-147.333 0 -274 29.5 -380 88.5s-187.333 143.167 -244 252.5s-85 239.333 -85 390s28.167 279.667 84.5 387s137.666 189.5 243.999 246.5
s233.833 85.5 382.5 85.5c149.333 0 277 -28.833 383 -86.5s187.333 -140.167 244 -247.5s85 -235.666 85 -384.999zM1206 711.001c0 152 -36.001 271.168 -108.001 357.501s-173 129.5 -303 129.5c-132 0 -234 -42.833 -306 -128.5s-108 -205.167 -108 -358.5
c0 -102.667 16.667 -191.334 50 -266.001s80.833 -132.167 142.5 -172.5s134.834 -60.5 219.501 -60.5c132 0 233.833 43.333 305.5 130s107.5 209.667 107.5 369zM1056 1561v-31h-169l-340 242v43h258z" />
    <glyph glyph-name="Oacute" unicode="&#xd3;" horiz-adv-x="1593" 
d="M1507 711c0 -146.667 -29.499 -274.833 -88.499 -384.5s-142 -194.834 -249 -255.501s-232.5 -91 -376.5 -91c-147.333 0 -274 29.5 -380 88.5s-187.333 143.167 -244 252.5s-85 239.333 -85 390s28.167 279.667 84.5 387s137.666 189.5 243.999 246.5
s233.833 85.5 382.5 85.5c149.333 0 277 -28.833 383 -86.5s187.333 -140.167 244 -247.5s85 -235.666 85 -384.999zM1206 711.001c0 152 -36.001 271.168 -108.001 357.501s-173 129.5 -303 129.5c-132 0 -234 -42.833 -306 -128.5s-108 -205.167 -108 -358.5
c0 -102.667 16.667 -191.334 50 -266.001s80.833 -132.167 142.5 -172.5s134.834 -60.5 219.501 -60.5c132 0 233.833 43.333 305.5 130s107.5 209.667 107.5 369zM1135 1772l-340 -242h-170v31l252 254h258v-43z" />
    <glyph glyph-name="Ocircumflex" unicode="&#xd4;" horiz-adv-x="1593" 
d="M1507 711c0 -146.667 -29.499 -274.833 -88.499 -384.5s-142 -194.834 -249 -255.501s-232.5 -91 -376.5 -91c-147.333 0 -274 29.5 -380 88.5s-187.333 143.167 -244 252.5s-85 239.333 -85 390s28.167 279.667 84.5 387s137.666 189.5 243.999 246.5
s233.833 85.5 382.5 85.5c149.333 0 277 -28.833 383 -86.5s187.333 -140.167 244 -247.5s85 -235.666 85 -384.999zM1206 711.001c0 152 -36.001 271.168 -108.001 357.501s-173 129.5 -303 129.5c-132 0 -234 -42.833 -306 -128.5s-108 -205.167 -108 -358.5
c0 -102.667 16.667 -191.334 50 -266.001s80.833 -132.167 142.5 -172.5s134.834 -60.5 219.501 -60.5c132 0 233.833 43.333 305.5 130s107.5 209.667 107.5 369zM426 1530v29l258 276h229l250 -276v-29h-159l-203 151h-4l-211 -151h-160z" />
    <glyph glyph-name="Otilde" unicode="&#xd5;" horiz-adv-x="1593" 
d="M1507 711c0 -146.667 -29.499 -274.833 -88.499 -384.5s-142 -194.834 -249 -255.501s-232.5 -91 -376.5 -91c-147.333 0 -274 29.5 -380 88.5s-187.333 143.167 -244 252.5s-85 239.333 -85 390s28.167 279.667 84.5 387s137.666 189.5 243.999 246.5
s233.833 85.5 382.5 85.5c149.333 0 277 -28.833 383 -86.5s187.333 -140.167 244 -247.5s85 -235.666 85 -384.999zM1206 711.001c0 152 -36.001 271.168 -108.001 357.501s-173 129.5 -303 129.5c-132 0 -234 -42.833 -306 -128.5s-108 -205.167 -108 -358.5
c0 -102.667 16.667 -191.334 50 -266.001s80.833 -132.167 142.5 -172.5s134.834 -60.5 219.501 -60.5c132 0 233.833 43.333 305.5 130s107.5 209.667 107.5 369zM954 1530c-28.667 0 -57.832 6.83301 -87.499 20.5s-59.167 28.167 -88.5 43.5
c-26.667 15.333 -52.5 29 -77.5 41s-47.833 18 -68.5 18c-27.333 0 -48.166 -7.66699 -62.499 -23s-26.166 -48.666 -35.499 -99.999h-137c7.33301 111.333 30.5 188 69.5 230s90.833 63 155.5 63c27.333 0 55.666 -6.33301 84.999 -19s58 -26.667 86 -42l81 -42.5
c25.333 -13 48.333 -19.5 69 -19.5c26.667 0 47.5 8.16699 62.5 24.5s27.167 49.166 36.5 98.499h135c-4.66699 -104.667 -25.834 -179.667 -63.501 -225s-90.834 -68 -159.501 -68z" />
    <glyph glyph-name="Odieresis" unicode="&#xd6;" horiz-adv-x="1593" 
d="M1507 711c0 -146.667 -29.499 -274.833 -88.499 -384.5s-142 -194.834 -249 -255.501s-232.5 -91 -376.5 -91c-147.333 0 -274 29.5 -380 88.5s-187.333 143.167 -244 252.5s-85 239.333 -85 390s28.167 279.667 84.5 387s137.666 189.5 243.999 246.5
s233.833 85.5 382.5 85.5c149.333 0 277 -28.833 383 -86.5s187.333 -140.167 244 -247.5s85 -235.666 85 -384.999zM1206 711.001c0 152 -36.001 271.168 -108.001 357.501s-173 129.5 -303 129.5c-132 0 -234 -42.833 -306 -128.5s-108 -205.167 -108 -358.5
c0 -102.667 16.667 -191.334 50 -266.001s80.833 -132.167 142.5 -172.5s134.834 -60.5 219.501 -60.5c132 0 233.833 43.333 305.5 130s107.5 209.667 107.5 369zM1120 1749v-219h-197v219h197zM663 1749v-219h-194v219h194z" />
    <glyph glyph-name="multiply" unicode="&#xd7;" horiz-adv-x="1196" 
d="M600 526l-356 -358l-158 158l356 358l-352 352l158 156l352 -350l352 352l158 -158l-352 -354l352 -350l-158 -160z" />
    <glyph glyph-name="Oslash" unicode="&#xd8;" horiz-adv-x="1593" 
d="M1508 711c0 -147.333 -29.332 -275.834 -87.999 -385.501s-141.5 -194.667 -248.5 -255s-233.167 -90.5 -378.5 -90.5c-140.667 0 -260.667 25.667 -360 77l-91 -129l-195 -1l154 218c-144.667 130.667 -217 319.334 -217 566.001c0 150.667 28.167 279.667 84.5 387
s137.666 189.5 243.999 246.5s233.833 85.5 382.5 85.5c131.333 0 249.333 -24.667 354 -74l82 117h193l-142 -203c74.667 -62.667 131 -141.5 169 -236.5s57 -202.5 57 -322.5zM381.001 710.999c0 -136 28.001 -246.667 84.001 -332l539 768
c-60.667 34 -130.334 51 -209.001 51c-132 0 -234 -42.833 -306 -128.5s-108 -205.167 -108 -358.5zM1207 710.999c0 134.667 -28.668 243.667 -86.001 327l-541 -772c60.667 -36.667 131.667 -55 213 -55c132.667 0 234.834 43.5 306.501 130.5s107.5 210.167 107.5 369.5z
" />
    <glyph glyph-name="Ugrave" unicode="&#xd9;" horiz-adv-x="1479" 
d="M723 -20c-129.333 0 -238.667 21.167 -328 63.5s-157 104.333 -203 186s-69 181.167 -69 298.5v881h295v-858c0 -111.333 26.5 -195.833 79.5 -253.5s130.833 -86.5 233.5 -86.5c105.333 0 186.333 30.167 243 90.5s85 146.833 85 259.5v848h295v-866
c0 -118.667 -24.833 -220 -74.5 -304s-121.5 -148.167 -215.5 -192.5s-207.667 -66.5 -341 -66.5zM924.999 1561v-31h-169l-340 242v43h258z" />
    <glyph glyph-name="Uacute" unicode="&#xda;" horiz-adv-x="1479" 
d="M723 -20c-129.333 0 -238.667 21.167 -328 63.5s-157 104.333 -203 186s-69 181.167 -69 298.5v881h295v-858c0 -111.333 26.5 -195.833 79.5 -253.5s130.833 -86.5 233.5 -86.5c105.333 0 186.333 30.167 243 90.5s85 146.833 85 259.5v848h295v-866
c0 -118.667 -24.833 -220 -74.5 -304s-121.5 -148.167 -215.5 -192.5s-207.667 -66.5 -341 -66.5zM1102 1772l-340 -242h-170v31l252 254h258v-43z" />
    <glyph glyph-name="Ucircumflex" unicode="&#xdb;" horiz-adv-x="1479" 
d="M723 -20c-129.333 0 -238.667 21.167 -328 63.5s-157 104.333 -203 186s-69 181.167 -69 298.5v881h295v-858c0 -111.333 26.5 -195.833 79.5 -253.5s130.833 -86.5 233.5 -86.5c105.333 0 186.333 30.167 243 90.5s85 146.833 85 259.5v848h295v-866
c0 -118.667 -24.833 -220 -74.5 -304s-121.5 -148.167 -215.5 -192.5s-207.667 -66.5 -341 -66.5zM367.999 1530v29l258 276h229l250 -276v-29h-159l-203 151h-4l-211 -151h-160z" />
    <glyph glyph-name="Udieresis" unicode="&#xdc;" horiz-adv-x="1479" 
d="M723 -20c-129.333 0 -238.667 21.167 -328 63.5s-157 104.333 -203 186s-69 181.167 -69 298.5v881h295v-858c0 -111.333 26.5 -195.833 79.5 -253.5s130.833 -86.5 233.5 -86.5c105.333 0 186.333 30.167 243 90.5s85 146.833 85 259.5v848h295v-866
c0 -118.667 -24.833 -220 -74.5 -304s-121.5 -148.167 -215.5 -192.5s-207.667 -66.5 -341 -66.5zM1064 1749v-219h-197v219h197zM606.999 1749v-219h-194v219h194z" />
    <glyph glyph-name="Yacute" unicode="&#xdd;" horiz-adv-x="1366" 
d="M831 578v-578h-294v578l-502 831h309l338 -596l342 596h309zM1034 1772l-340 -242h-170v31l252 254h258v-43z" />
    <glyph glyph-name="Thorn" unicode="&#xde;" horiz-adv-x="1366" 
d="M1296 737c0 -88.667 -20.666 -167.167 -61.999 -235.5s-100.333 -121.833 -177 -160.5s-168.334 -58 -275.001 -58h-350v-283h-295v1409h295v-233h338c169.333 0 299.333 -37.833 390 -113.5s136 -184.167 136 -325.5zM999.001 733c0 73.333 -21.833 130.667 -65.5 172
s-109.167 62 -196.5 62h-305v-475h313c80.667 0 143.167 21.167 187.5 63.5s66.5 101.5 66.5 177.5z" />
    <glyph glyph-name="germandbls" unicode="&#xdf;" horiz-adv-x="1251" 
d="M1193 312c0 -108 -33.499 -190.336 -100.499 -247.003s-162.5 -85 -286.5 -85c-98.667 0 -186 14.333 -262 43v206c33.333 -15.333 72.5 -29 117.5 -41s83.167 -18 114.5 -18c54 0 93.333 11.5 118 34.5s37 53.5 37 91.5c0 34.667 -12.667 66.834 -38 96.501
s-69 64.834 -131 105.501c-56.667 36.667 -99 76.834 -127 120.501s-42 90.834 -42 141.501c0 36 9.16699 69.667 27.5 101s46.5 63.666 84.5 96.999c40.667 36 69.334 67.5 86.001 94.5s25 55.5 25 85.5c0 43.333 -15.5 78 -46.5 104s-75.833 39 -134.5 39
c-68.667 0 -121 -21.167 -157 -63.5s-54 -110.5 -54 -204.5v-1013h-281v1007c0 156 42.5 274.5 127.5 355.5s207.5 121.5 367.5 121.5c137.333 0 245.666 -30 324.999 -90s119 -141.667 119 -245c0 -54.667 -11.333 -100.5 -34 -137.5s-48.667 -69.167 -78 -96.5l-50.5 -45
c-17.667 -15.333 -32.5 -30.5 -44.5 -45.5s-18 -29.167 -18 -42.5c0 -10.667 2 -20.5 6 -29.5s17.667 -23 41 -42s63.666 -49.833 120.999 -92.5c112 -82.667 168 -184.667 168 -306z" />
    <glyph glyph-name="agrave" unicode="&#xe0;" horiz-adv-x="1139" 
d="M385 -20c-104.667 0 -186.332 28.502 -244.999 85.502s-88 137.167 -88 240.5c0 112 36.5 197 109.5 255s178.833 88.333 317.5 91l233 4v55c0 70.667 -12.333 123.167 -37 157.5s-65 51.5 -121 51.5c-52 0 -90.167 -11.833 -114.5 -35.5s-39.5 -62.834 -45.5 -117.501
l-293 14c36.667 214 191.667 321 465 321c136.667 0 242 -33.667 316 -101s111 -163 111 -287v-394c0 -60.667 6.83301 -102.5 20.5 -125.5s36.5 -34.5 68.5 -34.5c21.333 0 42 2 62 6v-152c-34.667 -8.66699 -64.334 -15.167 -89.001 -19.5s-55 -6.5 -91 -6.5
c-70.667 0 -122.834 17.333 -156.501 52s-53.834 85.667 -60.501 153h-6c-39.333 -70.667 -88.666 -123.834 -147.999 -159.501s-128.666 -53.5 -207.999 -53.5zM712.002 501.002l-144.001 -1.99902c-66 -3.33301 -112.333 -10.333 -139 -21
c-27.333 -12 -48.166 -30 -62.499 -54s-21.5 -56 -21.5 -96c0 -51.333 11.833 -89.5 35.5 -114.5s55.167 -37.5 94.5 -37.5c44 0 84.333 12 121 36c36 24 64.333 57.167 85 99.5s31 87.166 31 134.499v55zM749.001 1214v-31h-169l-340 276v43h258z" />
    <glyph glyph-name="aacute" unicode="&#xe1;" horiz-adv-x="1139" 
d="M385 -20c-104.667 0 -186.332 28.502 -244.999 85.502s-88 137.167 -88 240.5c0 112 36.5 197 109.5 255s178.833 88.333 317.5 91l233 4v55c0 70.667 -12.333 123.167 -37 157.5s-65 51.5 -121 51.5c-52 0 -90.167 -11.833 -114.5 -35.5s-39.5 -62.834 -45.5 -117.501
l-293 14c36.667 214 191.667 321 465 321c136.667 0 242 -33.667 316 -101s111 -163 111 -287v-394c0 -60.667 6.83301 -102.5 20.5 -125.5s36.5 -34.5 68.5 -34.5c21.333 0 42 2 62 6v-152c-34.667 -8.66699 -64.334 -15.167 -89.001 -19.5s-55 -6.5 -91 -6.5
c-70.667 0 -122.834 17.333 -156.501 52s-53.834 85.667 -60.501 153h-6c-39.333 -70.667 -88.666 -123.834 -147.999 -159.501s-128.666 -53.5 -207.999 -53.5zM712.002 501.002l-144.001 -1.99902c-66 -3.33301 -112.333 -10.333 -139 -21
c-27.333 -12 -48.166 -30 -62.499 -54s-21.5 -56 -21.5 -96c0 -51.333 11.833 -89.5 35.5 -114.5s55.167 -37.5 94.5 -37.5c44 0 84.333 12 121 36c36 24 64.333 57.167 85 99.5s31 87.166 31 134.499v55zM885.001 1459l-340 -276h-170v31l252 288h258v-43z" />
    <glyph glyph-name="acircumflex" unicode="&#xe2;" horiz-adv-x="1139" 
d="M385 -20c-104.667 0 -186.332 28.502 -244.999 85.502s-88 137.167 -88 240.5c0 112 36.5 197 109.5 255s178.833 88.333 317.5 91l233 4v55c0 70.667 -12.333 123.167 -37 157.5s-65 51.5 -121 51.5c-52 0 -90.167 -11.833 -114.5 -35.5s-39.5 -62.834 -45.5 -117.501
l-293 14c36.667 214 191.667 321 465 321c136.667 0 242 -33.667 316 -101s111 -163 111 -287v-394c0 -60.667 6.83301 -102.5 20.5 -125.5s36.5 -34.5 68.5 -34.5c21.333 0 42 2 62 6v-152c-34.667 -8.66699 -64.334 -15.167 -89.001 -19.5s-55 -6.5 -91 -6.5
c-70.667 0 -122.834 17.333 -156.501 52s-53.834 85.667 -60.501 153h-6c-39.333 -70.667 -88.666 -123.834 -147.999 -159.501s-128.666 -53.5 -207.999 -53.5zM712.002 501.002l-144.001 -1.99902c-66 -3.33301 -112.333 -10.333 -139 -21
c-27.333 -12 -48.166 -30 -62.499 -54s-21.5 -56 -21.5 -96c0 -51.333 11.833 -89.5 35.5 -114.5s55.167 -37.5 94.5 -37.5c44 0 84.333 12 121 36c36 24 64.333 57.167 85 99.5s31 87.166 31 134.499v55zM199.001 1183v28l258 318h229l250 -318v-28h-159l-203 192h-4
l-211 -192h-160z" />
    <glyph glyph-name="atilde" unicode="&#xe3;" horiz-adv-x="1139" 
d="M385 -20c-104.667 0 -186.332 28.502 -244.999 85.502s-88 137.167 -88 240.5c0 112 36.5 197 109.5 255s178.833 88.333 317.5 91l233 4v55c0 70.667 -12.333 123.167 -37 157.5s-65 51.5 -121 51.5c-52 0 -90.167 -11.833 -114.5 -35.5s-39.5 -62.834 -45.5 -117.501
l-293 14c36.667 214 191.667 321 465 321c136.667 0 242 -33.667 316 -101s111 -163 111 -287v-394c0 -60.667 6.83301 -102.5 20.5 -125.5s36.5 -34.5 68.5 -34.5c21.333 0 42 2 62 6v-152c-34.667 -8.66699 -64.334 -15.167 -89.001 -19.5s-55 -6.5 -91 -6.5
c-70.667 0 -122.834 17.333 -156.501 52s-53.834 85.667 -60.501 153h-6c-39.333 -70.667 -88.666 -123.834 -147.999 -159.501s-128.666 -53.5 -207.999 -53.5zM712.002 501.002l-144.001 -1.99902c-66 -3.33301 -112.333 -10.333 -139 -21
c-27.333 -12 -48.166 -30 -62.499 -54s-21.5 -56 -21.5 -96c0 -51.333 11.833 -89.5 35.5 -114.5s55.167 -37.5 94.5 -37.5c44 0 84.333 12 121 36c36 24 64.333 57.167 85 99.5s31 87.166 31 134.499v55zM719.001 1183c-26 0 -52.668 5.83203 -80.001 17.499
s-54.666 24.834 -81.999 39.501l-85 45c-27.333 14 -52.333 21 -75 21c-27.333 0 -48.166 -7.66699 -62.499 -23s-26.166 -48.666 -35.499 -99.999h-137c7.33301 114.667 30.5 192.167 69.5 232.5s90.833 60.5 155.5 60.5c30 0 60.667 -7.16699 92 -21.5
s62 -29.833 92 -46.5c26 -14.667 50.667 -27.5 74 -38.5s44.333 -16.5 63 -16.5c26.667 0 47.5 8.16699 62.5 24.5s27.167 49.166 36.5 98.499h135c-4.66699 -104.667 -25.834 -179.667 -63.501 -225s-90.834 -68 -159.501 -68z" />
    <glyph glyph-name="adieresis" unicode="&#xe4;" horiz-adv-x="1139" 
d="M385 -20c-104.667 0 -186.332 28.502 -244.999 85.502s-88 137.167 -88 240.5c0 112 36.5 197 109.5 255s178.833 88.333 317.5 91l233 4v55c0 70.667 -12.333 123.167 -37 157.5s-65 51.5 -121 51.5c-52 0 -90.167 -11.833 -114.5 -35.5s-39.5 -62.834 -45.5 -117.501
l-293 14c36.667 214 191.667 321 465 321c136.667 0 242 -33.667 316 -101s111 -163 111 -287v-394c0 -60.667 6.83301 -102.5 20.5 -125.5s36.5 -34.5 68.5 -34.5c21.333 0 42 2 62 6v-152c-34.667 -8.66699 -64.334 -15.167 -89.001 -19.5s-55 -6.5 -91 -6.5
c-70.667 0 -122.834 17.333 -156.501 52s-53.834 85.667 -60.501 153h-6c-39.333 -70.667 -88.666 -123.834 -147.999 -159.501s-128.666 -53.5 -207.999 -53.5zM712.002 501.002l-144.001 -1.99902c-66 -3.33301 -112.333 -10.333 -139 -21
c-27.333 -12 -48.166 -30 -62.499 -54s-21.5 -56 -21.5 -96c0 -51.333 11.833 -89.5 35.5 -114.5s55.167 -37.5 94.5 -37.5c44 0 84.333 12 121 36c36 24 64.333 57.167 85 99.5s31 87.166 31 134.499v55zM882.001 1418v-219h-217v219h217zM445.001 1418v-219h-214v219h214z
" />
    <glyph glyph-name="aring" unicode="&#xe5;" horiz-adv-x="1139" 
d="M385 -20c-104.667 0 -186.332 28.502 -244.999 85.502s-88 137.167 -88 240.5c0 112 36.5 197 109.5 255s178.833 88.333 317.5 91l233 4v55c0 70.667 -12.333 123.167 -37 157.5s-65 51.5 -121 51.5c-52 0 -90.167 -11.833 -114.5 -35.5s-39.5 -62.834 -45.5 -117.501
l-293 14c36.667 214 191.667 321 465 321c136.667 0 242 -33.667 316 -101s111 -163 111 -287v-394c0 -60.667 6.83301 -102.5 20.5 -125.5s36.5 -34.5 68.5 -34.5c21.333 0 42 2 62 6v-152c-34.667 -8.66699 -64.334 -15.167 -89.001 -19.5s-55 -6.5 -91 -6.5
c-70.667 0 -122.834 17.333 -156.501 52s-53.834 85.667 -60.501 153h-6c-39.333 -70.667 -88.666 -123.834 -147.999 -159.501s-128.666 -53.5 -207.999 -53.5zM712.002 501.002l-144.001 -1.99902c-66 -3.33301 -112.333 -10.333 -139 -21
c-27.333 -12 -48.166 -30 -62.499 -54s-21.5 -56 -21.5 -96c0 -51.333 11.833 -89.5 35.5 -114.5s55.167 -37.5 94.5 -37.5c44 0 84.333 12 121 36c36 24 64.333 57.167 85 99.5s31 87.166 31 134.499v55zM813.001 1431c0 -46.667 -11.168 -89.167 -33.501 -127.5
s-52.666 -69 -90.999 -92s-81.5 -34.5 -129.5 -34.5c-47.333 0 -90.333 11.5 -129 34.5s-69.167 53.667 -91.5 92s-33.5 80.833 -33.5 127.5s11.5 89.167 34.5 127.5s53.667 69 92 92s80.833 34.5 127.5 34.5s89.167 -11.5 127.5 -34.5s69 -53.667 92 -92
s34.5 -80.833 34.5 -127.5zM686 1431c0 34 -12.167 63.333 -36.5 88s-54.5 37 -90.5 37c-34 0 -63.333 -12 -88 -36s-37 -53.667 -37 -89c0 -37.333 12.333 -68 37 -92s54 -36 88 -36c35.333 0 65.333 12.333 90 37s37 55 37 91z" />
    <glyph glyph-name="ae" unicode="&#xe6;" horiz-adv-x="1821" 
d="M1720 274c-76.667 -196 -232.33 -294 -466.997 -294c-206.667 0 -351.334 76.333 -434.001 229c-44.667 -76.667 -101.334 -134 -170.001 -172s-149.667 -57 -243 -57c-107.333 0 -190.833 28.667 -250.5 86s-89.5 137.333 -89.5 240
c0 223.333 146.667 338.666 440 345.999l240 4v55c0 72 -13.333 124.833 -40 158.5s-69.334 50.5 -128.001 50.5c-56.667 0 -97.667 -12.333 -123 -37s-41 -63.334 -47 -116.001l-293 14c17.333 104.667 65.5 184.334 144.5 239.001s187.833 82 326.5 82
c144.667 0 255.667 -35.667 333 -107c87.333 71.333 200 107 338 107c155.333 0 274 -51.5 356 -154.5s123 -253.833 123 -452.5v-19h-694c0 -97.333 19.667 -173 59 -227s94.666 -81 165.999 -81c49.333 0 89.833 10.833 121.5 32.5s53.834 53.834 66.501 96.501zM1464 663
c-5.33301 87.333 -26.333 152.833 -63 196.5s-86 65.5 -148 65.5c-66 0 -116.833 -23 -152.5 -69s-54.5 -110.333 -56.5 -193h420zM359.004 328c0 -51.333 12.499 -89.5 37.499 -114.5s58.167 -37.5 99.5 -37.5c46 0 88.333 13 127 39s68.834 60.667 90.501 104
s32.5 89 32.5 137v45l-152 -2c-68.667 -2.66699 -117.667 -9.66699 -147 -21c-28.667 -12 -50.5 -30 -65.5 -54s-22.5 -56 -22.5 -96z" />
    <glyph glyph-name="ccedilla" unicode="&#xe7;" horiz-adv-x="1139" 
d="M594 -20c-164 0 -290.666 48.8291 -379.999 146.496s-134 233.834 -134 408.501c0 178.667 45 317.834 135 417.501s217.667 149.5 383 149.5c127.333 0 232.666 -32 315.999 -96s135.666 -152.333 156.999 -265l-283 -14c-8 55.333 -28 99.5 -60 132.5
s-77.333 49.5 -136 49.5c-72.667 0 -127 -30.167 -163 -90.5s-54 -151.166 -54 -272.499c0 -124.667 18.5 -218.167 55.5 -280.5s92.167 -93.5 165.5 -93.5c53.333 0 98 16.833 134 50.5s58.333 83.834 67 150.501l282 -13c-10 -76 -36.833 -142.5 -80.5 -199.5
s-100.167 -101.333 -169.5 -133s-147.666 -47.5 -234.999 -47.5zM791.001 -235.004c0 -62.667 -25.998 -110 -77.998 -142s-127 -48 -225 -48c-30 0 -63.667 2 -101 6v118c21.333 -4.66699 49.333 -7 84 -7c91.333 0 137 23 137 69c0 23.333 -9.33301 40.666 -28 51.999
s-50 17 -94 17c-12.667 0 -23.334 -0.166992 -32.001 -0.5s-15.334 -0.833008 -20.001 -1.5l62 172h143l-33 -82c62.667 -3.33301 109.167 -18.666 139.5 -45.999s45.5 -63 45.5 -107z" />
    <glyph glyph-name="egrave" unicode="&#xe8;" horiz-adv-x="1139" 
d="M375 487c0 -105.333 19.499 -184.834 58.499 -238.501s94.5 -80.5 166.5 -80.5c49.333 0 89.833 10.833 121.5 32.5s53.834 53.834 66.501 96.501l265 -23c-76.667 -196 -232.334 -294 -467.001 -294c-162.667 0 -287.667 48.167 -375 144.5s-131 236.833 -131 421.5
c0 178.667 44.333 316 133 412s214.334 144 377.001 144c155.333 0 274 -51.5 356 -154.5s123 -253.833 123 -452.5v-8h-694zM796.999 662.999c-5.33301 87.333 -26.333 152.833 -63 196.5s-86 65.5 -148 65.5c-66 0 -116.833 -23 -152.5 -69s-54.5 -110.333 -56.5 -193h420
zM795.999 1214v-31h-169l-340 276v43h258z" />
    <glyph glyph-name="eacute" unicode="&#xe9;" horiz-adv-x="1139" 
d="M375 487c0 -105.333 19.499 -184.834 58.499 -238.501s94.5 -80.5 166.5 -80.5c49.333 0 89.833 10.833 121.5 32.5s53.834 53.834 66.501 96.501l265 -23c-76.667 -196 -232.334 -294 -467.001 -294c-162.667 0 -287.667 48.167 -375 144.5s-131 236.833 -131 421.5
c0 178.667 44.333 316 133 412s214.334 144 377.001 144c155.333 0 274 -51.5 356 -154.5s123 -253.833 123 -452.5v-8h-694zM796.999 662.999c-5.33301 87.333 -26.333 152.833 -63 196.5s-86 65.5 -148 65.5c-66 0 -116.833 -23 -152.5 -69s-54.5 -110.333 -56.5 -193h420
zM927.999 1459l-340 -276h-170v31l252 288h258v-43z" />
    <glyph glyph-name="ecircumflex" unicode="&#xea;" horiz-adv-x="1139" 
d="M375 487c0 -105.333 19.499 -184.834 58.499 -238.501s94.5 -80.5 166.5 -80.5c49.333 0 89.833 10.833 121.5 32.5s53.834 53.834 66.501 96.501l265 -23c-76.667 -196 -232.334 -294 -467.001 -294c-162.667 0 -287.667 48.167 -375 144.5s-131 236.833 -131 421.5
c0 178.667 44.333 316 133 412s214.334 144 377.001 144c155.333 0 274 -51.5 356 -154.5s123 -253.833 123 -452.5v-8h-694zM796.999 662.999c-5.33301 87.333 -26.333 152.833 -63 196.5s-86 65.5 -148 65.5c-66 0 -116.833 -23 -152.5 -69s-54.5 -110.333 -56.5 -193h420
zM222.999 1183v28l258 318h229l250 -318v-28h-159l-203 192h-4l-211 -192h-160z" />
    <glyph glyph-name="edieresis" unicode="&#xeb;" horiz-adv-x="1139" 
d="M375 487c0 -105.333 19.499 -184.834 58.499 -238.501s94.5 -80.5 166.5 -80.5c49.333 0 89.833 10.833 121.5 32.5s53.834 53.834 66.501 96.501l265 -23c-76.667 -196 -232.334 -294 -467.001 -294c-162.667 0 -287.667 48.167 -375 144.5s-131 236.833 -131 421.5
c0 178.667 44.333 316 133 412s214.334 144 377.001 144c155.333 0 274 -51.5 356 -154.5s123 -253.833 123 -452.5v-8h-694zM796.999 662.999c-5.33301 87.333 -26.333 152.833 -63 196.5s-86 65.5 -148 65.5c-66 0 -116.833 -23 -152.5 -69s-54.5 -110.333 -56.5 -193h420
zM910.999 1418v-219h-217v219h217zM473.999 1418v-219h-214v219h214z" />
    <glyph glyph-name="igrave" unicode="&#xec;" horiz-adv-x="569" 
d="M426 1082v-1082h-281v1082h281zM445 1214v-31h-169l-340 276v43h258z" />
    <glyph glyph-name="iacute" unicode="&#xed;" horiz-adv-x="569" 
d="M426 1082v-1082h-281v1082h281zM624 1459l-340 -276h-170v31l252 288h258v-43z" />
    <glyph glyph-name="icircumflex" unicode="&#xee;" horiz-adv-x="569" 
d="M426 1082v-1082h-281v1082h281zM-83 1183v28l258 318h229l250 -318v-28h-159l-203 192h-4l-211 -192h-160z" />
    <glyph glyph-name="idieresis" unicode="&#xef;" horiz-adv-x="569" 
d="M426 1082v-1082h-281v1082h281zM611 1418v-219h-217v219h217zM174 1418v-219h-214v219h214z" />
    <glyph glyph-name="eth" unicode="&#xf0;" horiz-adv-x="1251" 
d="M623 -18c-167.333 0 -299.665 44.333 -396.998 133s-146 210 -146 364c0 154.667 48.167 275.667 144.5 363s230.5 131 402.5 131c69.333 0 123.666 -10.667 162.999 -32c-42.667 90 -92.667 168.333 -150 235l-292 -122v184l166 70
c-29.333 23.333 -65.5 49.833 -108.5 79.5s-92.833 61.834 -149.5 96.501h293c64.667 -32 118 -63.333 160 -94l268 113v-188l-121 -49c105.333 -106.667 184.166 -220.334 236.499 -341.001s78.5 -248.667 78.5 -384c0 -176 -48.167 -313.167 -144.5 -411.5
s-230.833 -147.5 -403.5 -147.5zM877.001 477c0 106.667 -20.999 183.832 -62.999 231.499s-103 71.5 -183 71.5c-85.333 0 -149.333 -25.167 -192 -75.5s-64 -126.166 -64 -227.499c0 -98.667 20.667 -174.167 62 -226.5s101.666 -78.5 180.999 -78.5
c83.333 0 147.333 24 192 72s67 125.667 67 233z" />
    <glyph glyph-name="ntilde" unicode="&#xf1;" horiz-adv-x="1251" 
d="M424 580l0.000976562 -580h-281v840c0 58 -0.833008 105.5 -2.5 142.5s-3.5 70.167 -5.5 99.5h268c1.33301 -8 3 -26.833 5 -56.5s3.83301 -60 5.5 -91s2.5 -53.5 2.5 -67.5h4c38 82.667 85.667 142.667 143 180s125.666 56 204.999 56
c114.667 0 202.667 -35.333 264 -106s92 -174 92 -310v-687h-280v607c0 95.333 -16 166.666 -48 213.999s-80.333 71 -145 71c-68 0 -122.833 -29.167 -164.5 -87.5s-62.5 -133.166 -62.5 -224.499zM809.001 1183c-26 0 -52.668 5.83203 -80.001 17.499
s-54.666 24.834 -81.999 39.501l-85 45c-27.333 14 -52.333 21 -75 21c-27.333 0 -48.166 -7.66699 -62.499 -23s-26.166 -48.666 -35.499 -99.999h-137c7.33301 114.667 30.5 192.167 69.5 232.5s90.833 60.5 155.5 60.5c30 0 60.667 -7.16699 92 -21.5
s62 -29.833 92 -46.5c26 -14.667 50.667 -27.5 74 -38.5s44.333 -16.5 63 -16.5c26.667 0 47.5 8.16699 62.5 24.5s27.167 49.166 36.5 98.499h135c-4.66699 -104.667 -25.834 -179.667 -63.501 -225s-90.834 -68 -159.501 -68z" />
    <glyph glyph-name="ograve" unicode="&#xf2;" horiz-adv-x="1251" 
d="M1171 542c0 -175.333 -48.667 -312.833 -146 -412.5s-232 -149.5 -404 -149.5c-168.667 0 -301 50 -397 150s-144 237.333 -144 412c0 174 48 310.833 144 410.5s230.333 149.5 403 149.5c176.667 0 311.5 -48.167 404.5 -144.5s139.5 -234.833 139.5 -415.5zM877 542
c0 128.667 -21.001 222 -63.001 280s-103 87 -183 87c-85.333 0 -149.333 -30.5 -192 -91.5s-64 -152.833 -64 -275.5c0 -120.667 20.833 -212.5 62.5 -275.5s101.834 -94.5 180.501 -94.5c86.667 0 151.5 30.833 194.5 92.5s64.5 154.167 64.5 277.5zM836.999 1214v-31
h-169l-340 276v43h258z" />
    <glyph glyph-name="oacute" unicode="&#xf3;" horiz-adv-x="1251" 
d="M1171 542c0 -175.333 -48.667 -312.833 -146 -412.5s-232 -149.5 -404 -149.5c-168.667 0 -301 50 -397 150s-144 237.333 -144 412c0 174 48 310.833 144 410.5s230.333 149.5 403 149.5c176.667 0 311.5 -48.167 404.5 -144.5s139.5 -234.833 139.5 -415.5zM877 542
c0 128.667 -21.001 222 -63.001 280s-103 87 -183 87c-85.333 0 -149.333 -30.5 -192 -91.5s-64 -152.833 -64 -275.5c0 -120.667 20.833 -212.5 62.5 -275.5s101.834 -94.5 180.501 -94.5c86.667 0 151.5 30.833 194.5 92.5s64.5 154.167 64.5 277.5zM974.999 1459
l-340 -276h-170v31l252 288h258v-43z" />
    <glyph glyph-name="ocircumflex" unicode="&#xf4;" horiz-adv-x="1251" 
d="M1171 542c0 -175.333 -48.667 -312.833 -146 -412.5s-232 -149.5 -404 -149.5c-168.667 0 -301 50 -397 150s-144 237.333 -144 412c0 174 48 310.833 144 410.5s230.333 149.5 403 149.5c176.667 0 311.5 -48.167 404.5 -144.5s139.5 -234.833 139.5 -415.5zM877 542
c0 128.667 -21.001 222 -63.001 280s-103 87 -183 87c-85.333 0 -149.333 -30.5 -192 -91.5s-64 -152.833 -64 -275.5c0 -120.667 20.833 -212.5 62.5 -275.5s101.834 -94.5 180.501 -94.5c86.667 0 151.5 30.833 194.5 92.5s64.5 154.167 64.5 277.5zM255.999 1183v28
l258 318h229l250 -318v-28h-159l-203 192h-4l-211 -192h-160z" />
    <glyph glyph-name="otilde" unicode="&#xf5;" horiz-adv-x="1251" 
d="M1171 542c0 -175.333 -48.667 -312.833 -146 -412.5s-232 -149.5 -404 -149.5c-168.667 0 -301 50 -397 150s-144 237.333 -144 412c0 174 48 310.833 144 410.5s230.333 149.5 403 149.5c176.667 0 311.5 -48.167 404.5 -144.5s139.5 -234.833 139.5 -415.5zM877 542
c0 128.667 -21.001 222 -63.001 280s-103 87 -183 87c-85.333 0 -149.333 -30.5 -192 -91.5s-64 -152.833 -64 -275.5c0 -120.667 20.833 -212.5 62.5 -275.5s101.834 -94.5 180.501 -94.5c86.667 0 151.5 30.833 194.5 92.5s64.5 154.167 64.5 277.5zM790.999 1183
c-26 0 -52.668 5.83203 -80.001 17.499s-54.666 24.834 -81.999 39.501l-85 45c-27.333 14 -52.333 21 -75 21c-27.333 0 -48.166 -7.66699 -62.499 -23s-26.166 -48.666 -35.499 -99.999h-137c7.33301 114.667 30.5 192.167 69.5 232.5s90.833 60.5 155.5 60.5
c30 0 60.667 -7.16699 92 -21.5s62 -29.833 92 -46.5c26 -14.667 50.667 -27.5 74 -38.5s44.333 -16.5 63 -16.5c26.667 0 47.5 8.16699 62.5 24.5s27.167 49.166 36.5 98.499h135c-4.66699 -104.667 -25.834 -179.667 -63.501 -225s-90.834 -68 -159.501 -68z" />
    <glyph glyph-name="odieresis" unicode="&#xf6;" horiz-adv-x="1251" 
d="M1171 542c0 -175.333 -48.667 -312.833 -146 -412.5s-232 -149.5 -404 -149.5c-168.667 0 -301 50 -397 150s-144 237.333 -144 412c0 174 48 310.833 144 410.5s230.333 149.5 403 149.5c176.667 0 311.5 -48.167 404.5 -144.5s139.5 -234.833 139.5 -415.5zM877 542
c0 128.667 -21.001 222 -63.001 280s-103 87 -183 87c-85.333 0 -149.333 -30.5 -192 -91.5s-64 -152.833 -64 -275.5c0 -120.667 20.833 -212.5 62.5 -275.5s101.834 -94.5 180.501 -94.5c86.667 0 151.5 30.833 194.5 92.5s64.5 154.167 64.5 277.5zM950.999 1418v-219
h-217v219h217zM513.999 1418v-219h-214v219h214z" />
    <glyph glyph-name="divide" unicode="&#xf7;" horiz-adv-x="1124" 
d="M680 1194v-233h-238v233h238zM1076 793v-224h-1027v224h1027zM680 403v-233h-238v233h238z" />
    <glyph glyph-name="oslash" unicode="&#xf8;" horiz-adv-x="1251" 
d="M1171 542c0 -175.333 -48.667 -312.834 -146 -412.501s-232 -149.5 -404 -149.5c-127.333 0 -235.333 29.667 -324 89l-113 -124h-183l197 215c-78.667 96.667 -118 224 -118 382c0 174 48 310.833 144 410.5s230.333 149.5 403 149.5c132.667 0 242.667 -27.667 330 -83
l101 114h184l-184 -206c75.333 -95.333 113 -223.666 113 -384.999zM375 541.999c0 -60 5.66699 -114.333 17 -163l407 461c-40 46 -96 69 -168 69c-85.333 0 -149.333 -30.5 -192 -91.5s-64 -152.833 -64 -275.5zM877 541.999c0 64.667 -5.33301 118.667 -16 162l-407 -460
c41.333 -48 96 -72 164 -72c86.667 0 151.5 30.833 194.5 92.5s64.5 154.167 64.5 277.5z" />
    <glyph glyph-name="ugrave" unicode="&#xf9;" horiz-adv-x="1251" 
d="M831 215c-37.333 -82 -84.833 -141.665 -142.5 -178.998s-126.167 -56 -205.5 -56c-114.667 0 -202.667 35.167 -264 105.5s-92 173.5 -92 309.5v687h281v-607c0 -94.667 16 -165.834 48 -213.501s80 -71.5 144 -71.5c68 0 122.833 29.167 164.5 87.5
s62.5 133.166 62.5 224.499v580h281v-840c0 -46 0.666992 -89.167 2 -129.5s3.33301 -77.833 6 -112.5h-268c-4 48 -7 90 -9 126s-3 65.667 -3 89h-5zM792 1214v-31h-169l-340 276v43h258z" />
    <glyph glyph-name="uacute" unicode="&#xfa;" horiz-adv-x="1251" 
d="M831 215c-37.333 -82 -84.833 -141.665 -142.5 -178.998s-126.167 -56 -205.5 -56c-114.667 0 -202.667 35.167 -264 105.5s-92 173.5 -92 309.5v687h281v-607c0 -94.667 16 -165.834 48 -213.501s80 -71.5 144 -71.5c68 0 122.833 29.167 164.5 87.5
s62.5 133.166 62.5 224.499v580h281v-840c0 -46 0.666992 -89.167 2 -129.5s3.33301 -77.833 6 -112.5h-268c-4 48 -7 90 -9 126s-3 65.667 -3 89h-5zM973 1459l-340 -276h-170v31l252 288h258v-43z" />
    <glyph glyph-name="ucircumflex" unicode="&#xfb;" horiz-adv-x="1251" 
d="M831 215c-37.333 -82 -84.833 -141.665 -142.5 -178.998s-126.167 -56 -205.5 -56c-114.667 0 -202.667 35.167 -264 105.5s-92 173.5 -92 309.5v687h281v-607c0 -94.667 16 -165.834 48 -213.501s80 -71.5 144 -71.5c68 0 122.833 29.167 164.5 87.5
s62.5 133.166 62.5 224.499v580h281v-840c0 -46 0.666992 -89.167 2 -129.5s3.33301 -77.833 6 -112.5h-268c-4 48 -7 90 -9 126s-3 65.667 -3 89h-5zM252 1183v28l258 318h229l250 -318v-28h-159l-203 192h-4l-211 -192h-160z" />
    <glyph glyph-name="udieresis" unicode="&#xfc;" horiz-adv-x="1251" 
d="M831 215c-37.333 -82 -84.833 -141.665 -142.5 -178.998s-126.167 -56 -205.5 -56c-114.667 0 -202.667 35.167 -264 105.5s-92 173.5 -92 309.5v687h281v-607c0 -94.667 16 -165.834 48 -213.501s80 -71.5 144 -71.5c68 0 122.833 29.167 164.5 87.5
s62.5 133.166 62.5 224.499v580h281v-840c0 -46 0.666992 -89.167 2 -129.5s3.33301 -77.833 6 -112.5h-268c-4 48 -7 90 -9 126s-3 65.667 -3 89h-5zM949 1418v-219h-217v219h217zM512 1418v-219h-214v219h214z" />
    <glyph glyph-name="yacute" unicode="&#xfd;" horiz-adv-x="1139" 
d="M283 -425c-68.667 0 -127.667 4.33203 -177 12.999v200c37.333 -5.33301 69.666 -8 96.999 -8c65.333 0 114.166 17.667 146.499 53s63.833 94.666 94.5 177.999l-428 1071h297l170 -507c13.333 -36.667 28.333 -82.667 45 -138s35.334 -120.666 56.001 -195.999l44 170
c14 52 29.333 105.333 46 160l160 511h294l-428 -1139c-17.333 -46 -35.666 -86.667 -54.999 -122s-39 -66.666 -59 -93.999c-40.667 -55.333 -85 -94.5 -133 -117.5s-104.667 -34.5 -170 -34.5zM923 1459l-340 -276h-170v31l252 288h258v-43z" />
    <glyph glyph-name="thorn" unicode="&#xfe;" horiz-adv-x="1251" 
d="M424 -10v-415.001h-281v1909h281v-462c0 -28 -0.5 -56 -1.5 -84s-1.83301 -56 -2.5 -84h4c31.333 66.667 76 116.5 134 149.5s128.667 49.5 212 49.5c127.333 0 225.333 -46.833 294 -140.5s103 -224.5 103 -392.5c0 -171.333 -36.167 -304.166 -108.5 -398.499
s-174.5 -141.5 -306.5 -141.5c-156.667 0 -266 64 -328 192h-6c4 -20 6 -80.667 6 -182zM874 519.999c0 114.667 -18.5 199.667 -55.5 255s-92.833 83 -167.5 83c-75.333 0 -132.666 -30.5 -171.999 -91.5s-59 -145.833 -59 -254.5s19.833 -192.5 59.5 -251.5
s96.167 -88.5 169.5 -88.5c75.333 0 131.666 29 168.999 87s56 145 56 261z" />
    <glyph glyph-name="ydieresis" unicode="&#xff;" horiz-adv-x="1139" 
d="M283 -425c-68.667 0 -127.667 4.33203 -177 12.999v200c37.333 -5.33301 69.666 -8 96.999 -8c65.333 0 114.166 17.667 146.499 53s63.833 94.666 94.5 177.999l-428 1071h297l170 -507c13.333 -36.667 28.333 -82.667 45 -138s35.334 -120.666 56.001 -195.999l44 170
c14 52 29.333 105.333 46 160l160 511h294l-428 -1139c-17.333 -46 -35.666 -86.667 -54.999 -122s-39 -66.666 -59 -93.999c-40.667 -55.333 -85 -94.5 -133 -117.5s-104.667 -34.5 -170 -34.5zM908 1418v-219h-217v219h217zM471 1418v-219h-214v219h214z" />
    <glyph glyph-name="Amacron" unicode="&#x100;" horiz-adv-x="1479" 
d="M471 360l-125 -360h-295l514 1409h348l512 -1409h-292l-125 360h-537zM739 1192c-6.66699 -26.667 -16 -58.668 -28 -96.001s-20.667 -63.666 -26 -78.999l-148 -435h405l-152 444c-9.33301 27.333 -18 55 -26 83s-16.333 55.667 -25 83zM432 1705h612v-168h-612v168z
" />
    <glyph glyph-name="amacron" unicode="&#x101;" horiz-adv-x="1139" 
d="M393 -20c-104.667 0 -186.332 28.502 -244.999 85.502s-88 137.167 -88 240.5c0 112 36.5 197 109.5 255s178.833 88.333 317.5 91l233 4v55c0 70.667 -12.333 123.167 -37 157.5s-65 51.5 -121 51.5c-52 0 -90.167 -11.833 -114.5 -35.5s-39.5 -62.834 -45.5 -117.501
l-293 14c36.667 214 191.667 321 465 321c136.667 0 242 -33.667 316 -101s111 -163 111 -287v-394c0 -60.667 6.83301 -102.5 20.5 -125.5s36.5 -34.5 68.5 -34.5c21.333 0 42 2 62 6v-152c-34.667 -8.66699 -64.334 -15.167 -89.001 -19.5s-55 -6.5 -91 -6.5
c-70.667 0 -122.834 17.333 -156.501 52s-53.834 85.667 -60.501 153h-6c-39.333 -70.667 -88.666 -123.834 -147.999 -159.501s-128.666 -53.5 -207.999 -53.5zM720.002 501.002l-144.001 -1.99902c-66 -3.33301 -112.333 -10.333 -139 -21
c-27.333 -12 -48.166 -30 -62.499 -54s-21.5 -56 -21.5 -96c0 -51.333 11.833 -89.5 35.5 -114.5s55.167 -37.5 94.5 -37.5c44 0 84.333 12 121 36c36 24 64.333 57.167 85 99.5s31 87.166 31 134.499v55zM279.001 1371h612v-168h-612v168z" />
    <glyph glyph-name="Abreve" unicode="&#x102;" horiz-adv-x="1479" 
d="M471 360l-125 -360h-295l514 1409h348l512 -1409h-292l-125 360h-537zM739 1192c-6.66699 -26.667 -16 -58.668 -28 -96.001s-20.667 -63.666 -26 -78.999l-148 -435h405l-152 444c-9.33301 27.333 -18 55 -26 83s-16.333 55.667 -25 83zM737 1520
c-96.667 0 -177.667 27.001 -243 81.001s-101.666 123 -108.999 207h163c10 -41.333 32.667 -74.333 68 -99s76.333 -37 123 -37c48 0 89.333 12.167 124 36.5s56.667 57.5 66 99.5h164c-12.667 -88.667 -50.834 -158.834 -114.501 -210.501s-144.167 -77.5 -241.5 -77.5z
" />
    <glyph glyph-name="abreve" unicode="&#x103;" horiz-adv-x="1139" 
d="M393 -20c-104.667 0 -186.332 28.502 -244.999 85.502s-88 137.167 -88 240.5c0 112 36.5 197 109.5 255s178.833 88.333 317.5 91l233 4v55c0 70.667 -12.333 123.167 -37 157.5s-65 51.5 -121 51.5c-52 0 -90.167 -11.833 -114.5 -35.5s-39.5 -62.834 -45.5 -117.501
l-293 14c36.667 214 191.667 321 465 321c136.667 0 242 -33.667 316 -101s111 -163 111 -287v-394c0 -60.667 6.83301 -102.5 20.5 -125.5s36.5 -34.5 68.5 -34.5c21.333 0 42 2 62 6v-152c-34.667 -8.66699 -64.334 -15.167 -89.001 -19.5s-55 -6.5 -91 -6.5
c-70.667 0 -122.834 17.333 -156.501 52s-53.834 85.667 -60.501 153h-6c-39.333 -70.667 -88.666 -123.834 -147.999 -159.501s-128.666 -53.5 -207.999 -53.5zM720.002 501.002l-144.001 -1.99902c-66 -3.33301 -112.333 -10.333 -139 -21
c-27.333 -12 -48.166 -30 -62.499 -54s-21.5 -56 -21.5 -96c0 -51.333 11.833 -89.5 35.5 -114.5s55.167 -37.5 94.5 -37.5c44 0 84.333 12 121 36c36 24 64.333 57.167 85 99.5s31 87.166 31 134.499v55zM579.001 1183c-100.667 0 -182.834 30.333 -246.501 91
s-99.167 138 -106.5 232h163c10.667 -51.333 33.334 -91.833 68.001 -121.5s75.667 -44.5 123 -44.5s88.5 14.5 123.5 43.5s57.167 69.833 66.5 122.5h164c-12 -98.667 -48.667 -177.167 -110 -235.5s-143 -87.5 -245 -87.5z" />
    <glyph glyph-name="Aogonek" unicode="&#x104;" horiz-adv-x="1479" 
d="M471 360l-125 -360h-295l514 1409h348l512 -1409h-292l-125 360h-537zM739 1192c-6.66699 -26.667 -16 -58.668 -28 -96.001s-20.667 -63.666 -26 -78.999l-148 -435h405l-152 444c-9.33301 27.333 -18 55 -26 83s-16.333 55.667 -25 83zM1413 -381.001
c-42 -22 -92.333 -33.002 -151 -33.002c-74 0 -132 18 -174 54s-63 84.667 -63 146c0 50 14.5 97.333 43.5 142s67.167 79.334 114.5 104.001h153c-42 -28 -74 -61.167 -96 -99.5s-33 -75.166 -33 -110.499c0 -28 8.16699 -50.5 24.5 -67.5s39.5 -25.5 69.5 -25.5
c36 0 73.333 9 112 27v-137z" />
    <glyph glyph-name="aogonek" unicode="&#x105;" horiz-adv-x="1139" 
d="M393 -20c-104.667 0 -186.332 28.502 -244.999 85.502s-88 137.167 -88 240.5c0 112 36.5 197 109.5 255s178.833 88.333 317.5 91l233 4v55c0 70.667 -12.333 123.167 -37 157.5s-65 51.5 -121 51.5c-52 0 -90.167 -11.833 -114.5 -35.5s-39.5 -62.834 -45.5 -117.501
l-293 14c36.667 214 191.667 321 465 321c136.667 0 242 -33.667 316 -101s111 -163 111 -287v-394c0 -60.667 6.83301 -102.5 20.5 -125.5s36.5 -34.5 68.5 -34.5c21.333 0 42 2 62 6v-152c-34.667 -8.66699 -64.334 -15.167 -89.001 -19.5s-55 -6.5 -91 -6.5
c-70.667 0 -122.834 17.333 -156.501 52s-53.834 85.667 -60.501 153h-6c-39.333 -70.667 -88.666 -123.834 -147.999 -159.501s-128.666 -53.5 -207.999 -53.5zM720.002 501.002l-144.001 -1.99902c-66 -3.33301 -112.333 -10.333 -139 -21
c-27.333 -12 -48.166 -30 -62.499 -54s-21.5 -56 -21.5 -96c0 -51.333 11.833 -89.5 35.5 -114.5s55.167 -37.5 94.5 -37.5c44 0 84.333 12 121 36c36 24 64.333 57.167 85 99.5s31 87.166 31 134.499v55zM1073 -391.997c-42 -22 -92.333 -33.002 -151 -33.002
c-74 0 -132 18 -174 54s-63 84.667 -63 146c0 50 14.5 97.333 43.5 142s67.167 79.334 114.5 104.001h153c-42 -28 -74 -61.167 -96 -99.5s-33 -75.166 -33 -110.499c0 -28 8.16699 -50.5 24.5 -67.5s39.5 -25.5 69.5 -25.5c36 0 73.333 9 112 27v-137z" />
    <glyph glyph-name="Cacute" unicode="&#x106;" horiz-adv-x="1479" 
d="M795 212c178.667 0 302.331 89.3311 370.998 267.998l257 -97c-55.333 -136 -136.5 -237.167 -243.5 -303.5s-235.167 -99.5 -384.5 -99.5c-150.667 0 -279 28.833 -385 86.5s-186.833 141.167 -242.5 250.5s-83.5 240.666 -83.5 393.999
c0 154.667 26.667 285.334 80 392.001s132 187.834 236 243.501s231.333 83.5 382 83.5c165.333 0 300 -33.167 404 -99.5s177 -163.833 219 -292.5l-260 -71c-22 70.667 -65.167 126.834 -129.5 168.501s-140.166 62.5 -227.499 62.5
c-133.333 0 -234.5 -41.333 -303.5 -124s-103.5 -203.667 -103.5 -363c0 -108 15.833 -199 47.5 -273s78.334 -130.167 140.001 -168.5s137.167 -57.5 226.5 -57.5zM1162 1772l-340 -242h-170v31l252 254h258v-43z" />
    <glyph glyph-name="cacute" unicode="&#x107;" horiz-adv-x="1139" 
d="M594 -20c-164 0 -290.666 48.8291 -379.999 146.496s-134 233.834 -134 408.501c0 178.667 45 317.834 135 417.501s217.667 149.5 383 149.5c127.333 0 232.666 -32 315.999 -96s135.666 -152.333 156.999 -265l-283 -14c-8 55.333 -28 99.5 -60 132.5
s-77.333 49.5 -136 49.5c-72.667 0 -127 -30.167 -163 -90.5s-54 -151.166 -54 -272.499c0 -124.667 18.5 -218.167 55.5 -280.5s92.167 -93.5 165.5 -93.5c53.333 0 98 16.833 134 50.5s58.333 83.834 67 150.501l282 -13c-10 -76 -36.833 -142.5 -80.5 -199.5
s-100.167 -101.333 -169.5 -133s-147.666 -47.5 -234.999 -47.5zM956.001 1459l-340 -276h-170v31l252 288h258v-43z" />
    <glyph glyph-name="Ccircumflex" unicode="&#x108;" horiz-adv-x="1479" 
d="M795 212c178.667 0 302.331 89.3311 370.998 267.998l257 -97c-55.333 -136 -136.5 -237.167 -243.5 -303.5s-235.167 -99.5 -384.5 -99.5c-150.667 0 -279 28.833 -385 86.5s-186.833 141.167 -242.5 250.5s-83.5 240.666 -83.5 393.999
c0 154.667 26.667 285.334 80 392.001s132 187.834 236 243.501s231.333 83.5 382 83.5c165.333 0 300 -33.167 404 -99.5s177 -163.833 219 -292.5l-260 -71c-22 70.667 -65.167 126.834 -129.5 168.501s-140.166 62.5 -227.499 62.5
c-133.333 0 -234.5 -41.333 -303.5 -124s-103.5 -203.667 -103.5 -363c0 -108 15.833 -199 47.5 -273s78.334 -130.167 140.001 -168.5s137.167 -57.5 226.5 -57.5zM432.997 1530v29l258 276h229l250 -276v-29h-159l-203 151h-4l-211 -151h-160z" />
    <glyph glyph-name="ccircumflex" unicode="&#x109;" horiz-adv-x="1139" 
d="M594 -20c-164 0 -290.666 48.8291 -379.999 146.496s-134 233.834 -134 408.501c0 178.667 45 317.834 135 417.501s217.667 149.5 383 149.5c127.333 0 232.666 -32 315.999 -96s135.666 -152.333 156.999 -265l-283 -14c-8 55.333 -28 99.5 -60 132.5
s-77.333 49.5 -136 49.5c-72.667 0 -127 -30.167 -163 -90.5s-54 -151.166 -54 -272.499c0 -124.667 18.5 -218.167 55.5 -280.5s92.167 -93.5 165.5 -93.5c53.333 0 98 16.833 134 50.5s58.333 83.834 67 150.501l282 -13c-10 -76 -36.833 -142.5 -80.5 -199.5
s-100.167 -101.333 -169.5 -133s-147.666 -47.5 -234.999 -47.5zM230.001 1183v28l258 318h229l250 -318v-28h-159l-203 192h-4l-211 -192h-160z" />
    <glyph glyph-name="Cdotaccent" unicode="&#x10a;" horiz-adv-x="1479" 
d="M795 212c178.667 0 302.331 89.3311 370.998 267.998l257 -97c-55.333 -136 -136.5 -237.167 -243.5 -303.5s-235.167 -99.5 -384.5 -99.5c-150.667 0 -279 28.833 -385 86.5s-186.833 141.167 -242.5 250.5s-83.5 240.666 -83.5 393.999
c0 154.667 26.667 285.334 80 392.001s132 187.834 236 243.501s231.333 83.5 382 83.5c165.333 0 300 -33.167 404 -99.5s177 -163.833 219 -292.5l-260 -71c-22 70.667 -65.167 126.834 -129.5 168.501s-140.166 62.5 -227.499 62.5
c-133.333 0 -234.5 -41.333 -303.5 -124s-103.5 -203.667 -103.5 -363c0 -108 15.833 -199 47.5 -273s78.334 -130.167 140.001 -168.5s137.167 -57.5 226.5 -57.5zM926.997 1754v-207h-281v207h281z" />
    <glyph glyph-name="cdotaccent" unicode="&#x10b;" horiz-adv-x="1139" 
d="M594 -20c-164 0 -290.666 48.8291 -379.999 146.496s-134 233.834 -134 408.501c0 178.667 45 317.834 135 417.501s217.667 149.5 383 149.5c127.333 0 232.666 -32 315.999 -96s135.666 -152.333 156.999 -265l-283 -14c-8 55.333 -28 99.5 -60 132.5
s-77.333 49.5 -136 49.5c-72.667 0 -127 -30.167 -163 -90.5s-54 -151.166 -54 -272.499c0 -124.667 18.5 -218.167 55.5 -280.5s92.167 -93.5 165.5 -93.5c53.333 0 98 16.833 134 50.5s58.333 83.834 67 150.501l282 -13c-10 -76 -36.833 -142.5 -80.5 -199.5
s-100.167 -101.333 -169.5 -133s-147.666 -47.5 -234.999 -47.5zM741.001 1484v-207h-281v207h281z" />
    <glyph glyph-name="Ccaron" unicode="&#x10c;" horiz-adv-x="1479" 
d="M795 212c178.667 0 302.331 89.3311 370.998 267.998l257 -97c-55.333 -136 -136.5 -237.167 -243.5 -303.5s-235.167 -99.5 -384.5 -99.5c-150.667 0 -279 28.833 -385 86.5s-186.833 141.167 -242.5 250.5s-83.5 240.666 -83.5 393.999
c0 154.667 26.667 285.334 80 392.001s132 187.834 236 243.501s231.333 83.5 382 83.5c165.333 0 300 -33.167 404 -99.5s177 -163.833 219 -292.5l-260 -71c-22 70.667 -65.167 126.834 -129.5 168.501s-140.166 62.5 -227.499 62.5
c-133.333 0 -234.5 -41.333 -303.5 -124s-103.5 -203.667 -103.5 -363c0 -108 15.833 -199 47.5 -273s78.334 -130.167 140.001 -168.5s137.167 -57.5 226.5 -57.5zM1150 1806l-250 -276h-229l-258 276v29h160l211 -152h4l203 152h159v-29z" />
    <glyph glyph-name="ccaron" unicode="&#x10d;" horiz-adv-x="1139" 
d="M594 -20c-164 0 -290.666 48.8291 -379.999 146.496s-134 233.834 -134 408.501c0 178.667 45 317.834 135 417.501s217.667 149.5 383 149.5c127.333 0 232.666 -32 315.999 -96s135.666 -152.333 156.999 -265l-283 -14c-8 55.333 -28 99.5 -60 132.5
s-77.333 49.5 -136 49.5c-72.667 0 -127 -30.167 -163 -90.5s-54 -151.166 -54 -272.499c0 -124.667 18.5 -218.167 55.5 -280.5s92.167 -93.5 165.5 -93.5c53.333 0 98 16.833 134 50.5s58.333 83.834 67 150.501l282 -13c-10 -76 -36.833 -142.5 -80.5 -199.5
s-100.167 -101.333 -169.5 -133s-147.666 -47.5 -234.999 -47.5zM951.001 1500l-250 -317h-229l-258 317v29h160l211 -193h4l203 193h159v-29z" />
    <glyph glyph-name="Dcaron" unicode="&#x10e;" horiz-adv-x="1479" 
d="M1393 715c0 -150.667 -29.167 -279.333 -87.5 -386s-139 -188.167 -242 -244.5s-221.833 -84.5 -356.5 -84.5h-570v1409h510c237.333 0 421 -59.833 551 -179.5s195 -291.167 195 -514.5zM1096 715.001c0 151.333 -39.334 266.832 -118.001 346.499
s-191 119.5 -337 119.5h-209v-953h250c84.667 0 157.834 19.833 219.501 59.5s109.5 95.834 143.5 168.501s51 159 51 259zM1068 1806l-250 -276h-229l-258 276v29h160l211 -152h4l203 152h159v-29z" />
    <glyph glyph-name="dcaron" unicode="&#x10f;" horiz-adv-x="1472" 
d="M844 0c-1.33301 6.66699 -3.33398 20.667 -6.00098 42s-4.83398 44.666 -6.50098 69.999s-2.5 46.666 -2.5 63.999h-4c-30.667 -65.333 -74.667 -114.333 -132 -147s-128.666 -49 -213.999 -49c-126 0 -223.333 49.167 -292 147.5s-103 235.833 -103 412.5
c0 179.333 36.167 317.833 108.5 415.5s174.833 146.5 307.5 146.5c76.667 0 142.834 -16 198.501 -48s98.5 -79.667 128.5 -143h2l-2 178v395h281v-1248c0 -33.333 0.666992 -69.666 2 -108.999s3.33301 -81.666 6 -126.999h-272zM376.999 540
c0 -122.667 18.5 -214.667 55.5 -276s92.167 -92 165.5 -92c74 0 131.333 32.5 172 97.5s61 157.5 61 277.5c0 116.667 -19.5 206.5 -58.5 269.5s-96.5 94.5 -172.5 94.5c-75.333 0 -131.333 -30.5 -168 -91.5s-55 -154.167 -55 -279.5zM1473 1338
c0 -48.667 -7.16699 -92.667 -21.5 -132s-38.5 -79 -72.5 -119h-137c62.667 66.667 94 130 94 190h-108v207h245v-146z" />
    <glyph glyph-name="Dcroat" unicode="&#x110;" horiz-adv-x="1479" 
d="M1393 715c0 -150 -29.167 -278.332 -87.5 -384.999s-139 -188.334 -242 -245.001s-221.833 -85 -356.5 -85h-570v594h-129v219h129v596h510c237.333 0 421 -59.833 551 -179.5s195 -291.167 195 -514.5zM1096 715.001c0 150 -39.001 264.667 -117.001 344
s-190.667 119 -338 119h-209v-365h356v-219h-356v-363h250c85.333 0 158.833 19.5 220.5 58.5s109.334 94.667 143.001 167s50.5 158.5 50.5 258.5z" />
    <glyph glyph-name="dcroat" unicode="&#x111;" horiz-adv-x="1251" 
d="M827 1345l0.000976562 139h282v-139h132v-170h-132v-939c0 -33.333 0.666992 -69.666 2 -108.999s3.33301 -81.666 6 -126.999h-272c-1.33301 6.66699 -3.33301 20.667 -6 42s-4.83398 44.666 -6.50098 69.999s-2.5 46.666 -2.5 63.999h-4
c-30.667 -65.333 -74.834 -114.333 -132.501 -147s-129.167 -49 -214.5 -49c-125.333 0 -222.5 47.167 -291.5 141.5s-103.5 227.5 -103.5 399.5c0 173.333 36 306.833 108 400.5s174.667 140.5 308 140.5c76.667 0 142.834 -16 198.501 -48s98.5 -79.667 128.5 -143h2
l-2 178v126h-286v170h286zM377.001 522c0 -116.667 18.501 -204.165 55.501 -262.498s92.167 -87.5 165.5 -87.5c75.333 0 133 31.167 173 93.5s60 150.166 60 263.499c0 111.333 -19.333 196.666 -58 255.999s-96.334 89 -173.001 89c-75.333 0 -131.333 -28.333 -168 -85
s-55 -145.667 -55 -267z" />
    <glyph glyph-name="Emacron" unicode="&#x112;" horiz-adv-x="1366" 
d="M1286 228v-228h-1149v1409h1108v-228h-813v-354h752v-228h-752v-371h854zM386 1705h612v-168h-612v168z" />
    <glyph glyph-name="emacron" unicode="&#x113;" horiz-adv-x="1139" 
d="M375 487c0 -105.333 19.499 -184.834 58.499 -238.501s94.5 -80.5 166.5 -80.5c49.333 0 89.833 10.833 121.5 32.5s53.834 53.834 66.501 96.501l265 -23c-76.667 -196 -232.334 -294 -467.001 -294c-162.667 0 -287.667 48.167 -375 144.5s-131 236.833 -131 421.5
c0 178.667 44.333 316 133 412s214.334 144 377.001 144c155.333 0 274 -51.5 356 -154.5s123 -253.833 123 -452.5v-8h-694zM796.999 662.999c-5.33301 87.333 -26.333 152.833 -63 196.5s-86 65.5 -148 65.5c-66 0 -116.833 -23 -152.5 -69s-54.5 -110.333 -56.5 -193h420
zM280.999 1371h612v-168h-612v168z" />
    <glyph glyph-name="Ebreve" unicode="&#x114;" horiz-adv-x="1366" 
d="M1286 228v-228h-1149v1409h1108v-228h-813v-354h752v-228h-752v-371h854zM700 1520c-96.667 0 -177.667 27.001 -243 81.001s-101.666 123 -108.999 207h163c10 -41.333 32.667 -74.333 68 -99s76.333 -37 123 -37c48 0 89.333 12.167 124 36.5s56.667 57.5 66 99.5h164
c-12.667 -88.667 -50.834 -158.834 -114.501 -210.501s-144.167 -77.5 -241.5 -77.5z" />
    <glyph glyph-name="ebreve" unicode="&#x115;" horiz-adv-x="1139" 
d="M375 487c0 -105.333 19.499 -184.834 58.499 -238.501s94.5 -80.5 166.5 -80.5c49.333 0 89.833 10.833 121.5 32.5s53.834 53.834 66.501 96.501l265 -23c-76.667 -196 -232.334 -294 -467.001 -294c-162.667 0 -287.667 48.167 -375 144.5s-131 236.833 -131 421.5
c0 178.667 44.333 316 133 412s214.334 144 377.001 144c155.333 0 274 -51.5 356 -154.5s123 -253.833 123 -452.5v-8h-694zM796.999 662.999c-5.33301 87.333 -26.333 152.833 -63 196.5s-86 65.5 -148 65.5c-66 0 -116.833 -23 -152.5 -69s-54.5 -110.333 -56.5 -193h420
zM567.999 1183c-100.667 0 -182.834 30.333 -246.501 91s-99.167 138 -106.5 232h163c10.667 -51.333 33.334 -91.833 68.001 -121.5s75.667 -44.5 123 -44.5s88.5 14.5 123.5 43.5s57.167 69.833 66.5 122.5h164c-12 -98.667 -48.667 -177.167 -110 -235.5
s-143 -87.5 -245 -87.5z" />
    <glyph glyph-name="Edotaccent" unicode="&#x116;" horiz-adv-x="1366" 
d="M1286 228v-228h-1149v1409h1108v-228h-813v-354h752v-228h-752v-371h854zM846 1754v-207h-281v207h281z" />
    <glyph glyph-name="edotaccent" unicode="&#x117;" horiz-adv-x="1139" 
d="M375 487c0 -105.333 19.499 -184.834 58.499 -238.501s94.5 -80.5 166.5 -80.5c49.333 0 89.833 10.833 121.5 32.5s53.834 53.834 66.501 96.501l265 -23c-76.667 -196 -232.334 -294 -467.001 -294c-162.667 0 -287.667 48.167 -375 144.5s-131 236.833 -131 421.5
c0 178.667 44.333 316 133 412s214.334 144 377.001 144c155.333 0 274 -51.5 356 -154.5s123 -253.833 123 -452.5v-8h-694zM796.999 662.999c-5.33301 87.333 -26.333 152.833 -63 196.5s-86 65.5 -148 65.5c-66 0 -116.833 -23 -152.5 -69s-54.5 -110.333 -56.5 -193h420
zM721.999 1484v-207h-281v207h281z" />
    <glyph glyph-name="Eogonek" unicode="&#x118;" horiz-adv-x="1366" 
d="M1286 228v-228h-1149v1409h1108v-228h-813v-354h752v-228h-752v-371h854zM1213 -392c-42 -22 -92.333 -33.002 -151 -33.002c-74 0 -132 18 -174 54s-63 84.667 -63 146c0 50 14.5 97.333 43.5 142s67.167 79.334 114.5 104.001h153c-42 -28 -74 -61.167 -96 -99.5
s-33 -75.166 -33 -110.499c0 -28 8.16699 -50.5 24.5 -67.5s39.5 -25.5 69.5 -25.5c36 0 73.333 9 112 27v-137z" />
    <glyph glyph-name="eogonek" unicode="&#x119;" horiz-adv-x="1139" 
d="M375 487c0 -105.333 19.499 -184.834 58.499 -238.501s94.5 -80.5 166.5 -80.5c49.333 0 89.833 10.833 121.5 32.5s53.834 53.834 66.501 96.501l265 -23c-76.667 -196 -232.334 -294 -467.001 -294c-162.667 0 -287.667 48.167 -375 144.5s-131 236.833 -131 421.5
c0 178.667 44.333 316 133 412s214.334 144 377.001 144c155.333 0 274 -51.5 356 -154.5s123 -253.833 123 -452.5v-8h-694zM796.999 662.999c-5.33301 87.333 -26.333 152.833 -63 196.5s-86 65.5 -148 65.5c-66 0 -116.833 -23 -152.5 -69s-54.5 -110.333 -56.5 -193h420
zM926.999 -375.001c-42 -22 -92.333 -33.002 -151 -33.002c-74 0 -132 18 -174 54s-63 84.667 -63 146c0 50 14.5 97.333 43.5 142s67.167 79.334 114.5 104.001h153c-42 -28 -74 -61.167 -96 -99.5s-33 -75.166 -33 -110.499c0 -28 8.16699 -50.5 24.5 -67.5
s39.5 -25.5 69.5 -25.5c36 0 73.333 9 112 27v-137z" />
    <glyph glyph-name="Ecaron" unicode="&#x11a;" horiz-adv-x="1366" 
d="M1286 228v-228h-1149v1409h1108v-228h-813v-354h752v-228h-752v-371h854zM1077 1806l-250 -276h-229l-258 276v29h160l211 -152h4l203 152h159v-29z" />
    <glyph glyph-name="ecaron" unicode="&#x11b;" horiz-adv-x="1139" 
d="M375 487c0 -105.333 19.499 -184.834 58.499 -238.501s94.5 -80.5 166.5 -80.5c49.333 0 89.833 10.833 121.5 32.5s53.834 53.834 66.501 96.501l265 -23c-76.667 -196 -232.334 -294 -467.001 -294c-162.667 0 -287.667 48.167 -375 144.5s-131 236.833 -131 421.5
c0 178.667 44.333 316 133 412s214.334 144 377.001 144c155.333 0 274 -51.5 356 -154.5s123 -253.833 123 -452.5v-8h-694zM796.999 662.999c-5.33301 87.333 -26.333 152.833 -63 196.5s-86 65.5 -148 65.5c-66 0 -116.833 -23 -152.5 -69s-54.5 -110.333 -56.5 -193h420
zM952.999 1500l-250 -317h-229l-258 317v29h160l211 -193h4l203 193h159v-29z" />
    <glyph glyph-name="Gcircumflex" unicode="&#x11c;" horiz-adv-x="1593" 
d="M806 211c76.667 0 151.002 11.167 223.002 33.5s127.667 50.833 167 85.5v195h-344v218h614v-518c-74.667 -76.667 -171.834 -136.667 -291.501 -180s-245.167 -65 -376.5 -65c-152.667 0 -282.167 28.5 -388.5 85.5s-187.166 140 -242.499 249s-83 241.167 -83 396.5
c0 232 62 409.833 186 533.5s302.333 185.5 535 185.5c165.333 0 300.666 -30.5 405.999 -91.5s180.333 -152.833 225 -275.5l-272 -82c-29.333 71.333 -75.333 125.333 -138 162s-136.334 55 -221.001 55c-138.667 0 -244 -42 -316 -126s-108 -204.333 -108 -361
c0 -159.333 37.167 -282.5 111.5 -369.5s178.833 -130.5 313.5 -130.5zM428.002 1530v29l258 276h229l250 -276v-29h-159l-203 151h-4l-211 -151h-160z" />
    <glyph glyph-name="gcircumflex" unicode="&#x11d;" horiz-adv-x="1251" 
d="M596 -434c-132 0 -238.166 25.167 -318.499 75.5s-129.833 122.166 -148.5 215.499l281 33c10 -43.333 31.5 -77.333 64.5 -102s76.167 -37 129.5 -37c78 0 135 24 171 72s54 119.333 54 214l2 164h-2c-30.667 -66.667 -75 -116.5 -133 -149.5s-129.667 -49.5 -215 -49.5
c-126 0 -223.667 47.333 -293 142s-104 230 -104 406c0 176.667 35.667 313 107 409s175 144 311 144c78.667 0 145.167 -16.167 199.5 -48.5s96.833 -81.166 127.5 -146.499h5c0 16 0.666992 36 2 60s3.16602 47 5.49902 69s4.5 37 6.5 45h266c-4 -72 -6 -155.333 -6 -250
v-799c0 -154 -43.667 -270.333 -131 -349s-214.333 -118 -381 -118zM831.001 556c0 111.333 -19.833 198.167 -59.5 260.5s-96.167 93.5 -169.5 93.5c-74.667 0 -130.834 -30 -168.501 -90s-56.5 -150 -56.5 -270c0 -117.333 18.5 -205.5 55.5 -264.5
s92.833 -88.5 167.5 -88.5s131.834 31.167 171.501 93.5s59.5 150.833 59.5 265.5zM233.001 1183v28l258 318h229l250 -318v-28h-159l-203 192h-4l-211 -192h-160z" />
    <glyph glyph-name="Gbreve" unicode="&#x11e;" horiz-adv-x="1593" 
d="M806 211c76.667 0 151.002 11.167 223.002 33.5s127.667 50.833 167 85.5v195h-344v218h614v-518c-74.667 -76.667 -171.834 -136.667 -291.501 -180s-245.167 -65 -376.5 -65c-152.667 0 -282.167 28.5 -388.5 85.5s-187.166 140 -242.499 249s-83 241.167 -83 396.5
c0 232 62 409.833 186 533.5s302.333 185.5 535 185.5c165.333 0 300.666 -30.5 405.999 -91.5s180.333 -152.833 225 -275.5l-272 -82c-29.333 71.333 -75.333 125.333 -138 162s-136.334 55 -221.001 55c-138.667 0 -244 -42 -316 -126s-108 -204.333 -108 -361
c0 -159.333 37.167 -282.5 111.5 -369.5s178.833 -130.5 313.5 -130.5zM808.002 1520c-96.667 0 -177.667 27.001 -243 81.001s-101.666 123 -108.999 207h163c10 -41.333 32.667 -74.333 68 -99s76.333 -37 123 -37c48 0 89.333 12.167 124 36.5s56.667 57.5 66 99.5h164
c-12.667 -88.667 -50.834 -158.834 -114.501 -210.501s-144.167 -77.5 -241.5 -77.5z" />
    <glyph glyph-name="gbreve" unicode="&#x11f;" horiz-adv-x="1251" 
d="M596 -434c-132 0 -238.166 25.167 -318.499 75.5s-129.833 122.166 -148.5 215.499l281 33c10 -43.333 31.5 -77.333 64.5 -102s76.167 -37 129.5 -37c78 0 135 24 171 72s54 119.333 54 214l2 164h-2c-30.667 -66.667 -75 -116.5 -133 -149.5s-129.667 -49.5 -215 -49.5
c-126 0 -223.667 47.333 -293 142s-104 230 -104 406c0 176.667 35.667 313 107 409s175 144 311 144c78.667 0 145.167 -16.167 199.5 -48.5s96.833 -81.166 127.5 -146.499h5c0 16 0.666992 36 2 60s3.16602 47 5.49902 69s4.5 37 6.5 45h266c-4 -72 -6 -155.333 -6 -250
v-799c0 -154 -43.667 -270.333 -131 -349s-214.333 -118 -381 -118zM831.001 556c0 111.333 -19.833 198.167 -59.5 260.5s-96.167 93.5 -169.5 93.5c-74.667 0 -130.834 -30 -168.501 -90s-56.5 -150 -56.5 -270c0 -117.333 18.5 -205.5 55.5 -264.5
s92.833 -88.5 167.5 -88.5s131.834 31.167 171.501 93.5s59.5 150.833 59.5 265.5zM606.001 1183c-100.667 0 -182.834 30.333 -246.501 91s-99.167 138 -106.5 232h163c10.667 -51.333 33.334 -91.833 68.001 -121.5s75.667 -44.5 123 -44.5s88.5 14.5 123.5 43.5
s57.167 69.833 66.5 122.5h164c-12 -98.667 -48.667 -177.167 -110 -235.5s-143 -87.5 -245 -87.5z" />
    <glyph glyph-name="Gdotaccent" unicode="&#x120;" horiz-adv-x="1593" 
d="M806 211c76.667 0 151.002 11.167 223.002 33.5s127.667 50.833 167 85.5v195h-344v218h614v-518c-74.667 -76.667 -171.834 -136.667 -291.501 -180s-245.167 -65 -376.5 -65c-152.667 0 -282.167 28.5 -388.5 85.5s-187.166 140 -242.499 249s-83 241.167 -83 396.5
c0 232 62 409.833 186 533.5s302.333 185.5 535 185.5c165.333 0 300.666 -30.5 405.999 -91.5s180.333 -152.833 225 -275.5l-272 -82c-29.333 71.333 -75.333 125.333 -138 162s-136.334 55 -221.001 55c-138.667 0 -244 -42 -316 -126s-108 -204.333 -108 -361
c0 -159.333 37.167 -282.5 111.5 -369.5s178.833 -130.5 313.5 -130.5zM948.002 1754v-207h-281v207h281z" />
    <glyph glyph-name="gdotaccent" unicode="&#x121;" horiz-adv-x="1251" 
d="M596 -434c-132 0 -238.166 25.167 -318.499 75.5s-129.833 122.166 -148.5 215.499l281 33c10 -43.333 31.5 -77.333 64.5 -102s76.167 -37 129.5 -37c78 0 135 24 171 72s54 119.333 54 214l2 164h-2c-30.667 -66.667 -75 -116.5 -133 -149.5s-129.667 -49.5 -215 -49.5
c-126 0 -223.667 47.333 -293 142s-104 230 -104 406c0 176.667 35.667 313 107 409s175 144 311 144c78.667 0 145.167 -16.167 199.5 -48.5s96.833 -81.166 127.5 -146.499h5c0 16 0.666992 36 2 60s3.16602 47 5.49902 69s4.5 37 6.5 45h266c-4 -72 -6 -155.333 -6 -250
v-799c0 -154 -43.667 -270.333 -131 -349s-214.333 -118 -381 -118zM831.001 556c0 111.333 -19.833 198.167 -59.5 260.5s-96.167 93.5 -169.5 93.5c-74.667 0 -130.834 -30 -168.501 -90s-56.5 -150 -56.5 -270c0 -117.333 18.5 -205.5 55.5 -264.5
s92.833 -88.5 167.5 -88.5s131.834 31.167 171.501 93.5s59.5 150.833 59.5 265.5zM766.001 1484v-207h-281v207h281z" />
    <glyph glyph-name="Gcommaaccent" unicode="&#x122;" horiz-adv-x="1593" 
d="M806 211c76.667 0 151.002 11.167 223.002 33.5s127.667 50.833 167 85.5v195h-344v218h614v-518c-74.667 -76.667 -171.834 -136.667 -291.501 -180s-245.167 -65 -376.5 -65c-152.667 0 -282.167 28.5 -388.5 85.5s-187.166 140 -242.499 249s-83 241.167 -83 396.5
c0 232 62 409.833 186 533.5s302.333 185.5 535 185.5c165.333 0 300.666 -30.5 405.999 -91.5s180.333 -152.833 225 -275.5l-272 -82c-29.333 71.333 -75.333 125.333 -138 162s-136.334 55 -221.001 55c-138.667 0 -244 -42 -316 -126s-108 -204.333 -108 -361
c0 -159.333 37.167 -282.5 111.5 -369.5s178.833 -130.5 313.5 -130.5zM938.002 -204c0 -48.667 -7.16699 -92.498 -21.5 -131.498s-38.5 -78.833 -72.5 -119.5h-137c31.333 33.333 54.833 64.166 70.5 92.499s23.5 54.166 23.5 77.499h-108v207h245v-126z" />
    <glyph glyph-name="gcommaaccent" unicode="&#x123;" horiz-adv-x="1251" 
d="M596 -434c-132 0 -238.166 25.167 -318.499 75.5s-129.833 122.166 -148.5 215.499l281 33c10 -43.333 31.5 -77.333 64.5 -102s76.167 -37 129.5 -37c78 0 135 24 171 72s54 119.333 54 214l2 164h-2c-30.667 -66.667 -75 -116.5 -133 -149.5s-129.667 -49.5 -215 -49.5
c-126 0 -223.667 47.333 -293 142s-104 230 -104 406c0 176.667 35.667 313 107 409s175 144 311 144c78.667 0 145.167 -16.167 199.5 -48.5s96.833 -81.166 127.5 -146.499h5c0 16 0.666992 36 2 60s3.16602 47 5.49902 69s4.5 37 6.5 45h266c-4 -72 -6 -155.333 -6 -250
v-799c0 -154 -43.667 -270.333 -131 -349s-214.333 -118 -381 -118zM831.001 556c0 111.333 -19.833 198.167 -59.5 260.5s-96.167 93.5 -169.5 93.5c-74.667 0 -130.834 -30 -168.501 -90s-56.5 -150 -56.5 -270c0 -117.333 18.5 -205.5 55.5 -264.5
s92.833 -88.5 167.5 -88.5s131.834 31.167 171.501 93.5s59.5 150.833 59.5 265.5zM496.001 1358c0 58 7.33203 106.5 21.999 145.5s35.334 74.167 62.001 105.5h147c-62.667 -66.667 -94 -130 -94 -190h108v-207h-245v146z" />
    <glyph glyph-name="Hcircumflex" unicode="&#x124;" horiz-adv-x="1479" 
d="M432 604v-604h-295v1409h295v-561h614v561h295v-1409h-295v604h-614zM376 1530v29l258 276h229l250 -276v-29h-159l-203 151h-4l-211 -151h-160z" />
    <glyph glyph-name="hcircumflex" unicode="&#x125;" horiz-adv-x="1251" 
d="M420 866c38 82.667 85.668 142.666 143.001 179.999s125.666 56 204.999 56c114.667 0 202.667 -35.333 264 -106s92 -174 92 -310v-686h-280v606c0 95.333 -16 166.666 -48 213.999s-80.333 71 -145 71c-68 0 -122.833 -29.167 -164.5 -87.5
s-62.5 -133.166 -62.5 -224.499v-579h-281v1484h281v-405c0 -24 -0.333008 -48 -1 -72s-1.5 -47.667 -2.5 -71s-2.5 -46.666 -4.5 -69.999h4zM275.001 1609v29l258 276h229l250 -276v-29h-159l-203 151h-4l-211 -151h-160z" />
    <glyph glyph-name="Hbar" unicode="&#x126;" horiz-adv-x="1479" 
d="M432 604v-604h-295v1045h-123v170h123v194h295v-194h625v194h284v-194h124v-170h-124v-1045h-284v604h-625zM432 848h625v197h-625v-197z" />
    <glyph glyph-name="hbar" unicode="&#x127;" horiz-adv-x="1251" 
d="M420 826c38 82.667 85.668 142.666 143.001 179.999s125.666 56 204.999 56c114.667 0 202.667 -35.333 264 -106s92 -174 92 -310v-646h-280v566c0 95.333 -16 166.666 -48 213.999s-80.333 71 -145 71c-68 0 -122.833 -29.167 -164.5 -87.5
s-62.5 -133.166 -62.5 -224.499v-539h-281v1175h-133v170h133v139h281v-139h306v-170h-306v-136c0 -24 -0.333008 -48 -1 -72s-1.5 -47.667 -2.5 -71s-2.5 -46.666 -4.5 -69.999h4z" />
    <glyph glyph-name="Itilde" unicode="&#x128;" horiz-adv-x="569" 
d="M432 1409v-1409h-295v1409h295zM454 1530c-28.667 0 -57.832 6.83301 -87.499 20.5s-59.167 28.167 -88.5 43.5c-26.667 15.333 -52.5 29 -77.5 41s-47.833 18 -68.5 18c-27.333 0 -48.166 -7.66699 -62.499 -23s-26.166 -48.666 -35.499 -99.999h-137
c7.33301 111.333 30.5 188 69.5 230s90.833 63 155.5 63c27.333 0 55.666 -6.33301 84.999 -19s58 -26.667 86 -42l81 -42.5c25.333 -13 48.333 -19.5 69 -19.5c26.667 0 47.5 8.16699 62.5 24.5s27.167 49.166 36.5 98.499h135
c-4.66699 -104.667 -25.834 -179.667 -63.501 -225s-90.834 -68 -159.501 -68z" />
    <glyph glyph-name="itilde" unicode="&#x129;" horiz-adv-x="569" 
d="M426 1082v-1082h-281v1082h281zM454 1183c-26 0 -52.668 5.83203 -80.001 17.499s-54.666 24.834 -81.999 39.501l-85 45c-27.333 14 -52.333 21 -75 21c-27.333 0 -48.166 -7.66699 -62.499 -23s-26.166 -48.666 -35.499 -99.999h-137
c7.33301 114.667 30.5 192.167 69.5 232.5s90.833 60.5 155.5 60.5c30 0 60.667 -7.16699 92 -21.5s62 -29.833 92 -46.5c26 -14.667 50.667 -27.5 74 -38.5s44.333 -16.5 63 -16.5c26.667 0 47.5 8.16699 62.5 24.5s27.167 49.166 36.5 98.499h135
c-4.66699 -104.667 -25.834 -179.667 -63.501 -225s-90.834 -68 -159.501 -68z" />
    <glyph glyph-name="Imacron" unicode="&#x12a;" horiz-adv-x="569" 
d="M432 1409v-1409h-295v1409h295zM-20 1705h612v-168h-612v168z" />
    <glyph glyph-name="imacron" unicode="&#x12b;" horiz-adv-x="569" 
d="M426 1082v-1082h-281v1082h281zM-20 1371h612v-168h-612v168z" />
    <glyph glyph-name="Ibreve" unicode="&#x12c;" horiz-adv-x="569" 
d="M432 1409v-1409h-295v1409h295zM284 1520c-96.667 0 -177.667 27.001 -243 81.001s-101.666 123 -108.999 207h163c10 -41.333 32.667 -74.333 68 -99s76.333 -37 123 -37c48 0 89.333 12.167 124 36.5s56.667 57.5 66 99.5h164
c-12.667 -88.667 -50.834 -158.834 -114.501 -210.501s-144.167 -77.5 -241.5 -77.5z" />
    <glyph glyph-name="ibreve" unicode="&#x12d;" horiz-adv-x="569" 
d="M426 1082v-1082h-281v1082h281zM286 1183c-100.667 0 -182.834 30.333 -246.501 91s-99.167 138 -106.5 232h163c10.667 -51.333 33.334 -91.833 68.001 -121.5s75.667 -44.5 123 -44.5s88.5 14.5 123.5 43.5s57.167 69.833 66.5 122.5h164
c-12 -98.667 -48.667 -177.167 -110 -235.5s-143 -87.5 -245 -87.5z" />
    <glyph glyph-name="Iogonek" unicode="&#x12e;" horiz-adv-x="569" 
d="M432 1409v-1409h-295v1409h295zM476 -392c-42 -22 -92.333 -33.002 -151 -33.002c-74 0 -132 18 -174 54s-63 84.667 -63 146c0 50 14.5 97.333 43.5 142s67.167 79.334 114.5 104.001h153c-42 -28 -74 -61.167 -96 -99.5s-33 -75.166 -33 -110.499
c0 -28 8.16699 -50.5 24.5 -67.5s39.5 -25.5 69.5 -25.5c36 0 73.333 9 112 27v-137z" />
    <glyph glyph-name="iogonek" unicode="&#x12f;" horiz-adv-x="569" 
d="M424 1484v-207h-281v207h281zM424 1082v-1082h-281v1082h281zM457 -392c-42 -22 -92.333 -33.002 -151 -33.002c-74 0 -132 18 -174 54s-63 84.667 -63 146c0 50 14.5 97.333 43.5 142s67.167 79.334 114.5 104.001h153c-42 -28 -74 -61.167 -96 -99.5
s-33 -75.166 -33 -110.499c0 -28 8.16699 -50.5 24.5 -67.5s39.5 -25.5 69.5 -25.5c36 0 73.333 9 112 27v-137z" />
    <glyph glyph-name="Idotaccent" unicode="&#x130;" horiz-adv-x="569" 
d="M432 1409v-1409h-295v1409h295zM427 1754v-207h-281v207h281z" />
    <glyph glyph-name="dotlessi" unicode="&#x131;" horiz-adv-x="569" 
d="M426 1082v-1082h-281v1082h281z" />
    <glyph glyph-name="IJ" unicode="&#x132;" horiz-adv-x="1607" 
d="M432 1409v-1409h-295v1409h295zM992 -20c-146 0 -258.167 31.6689 -336.5 95.002s-130.5 165.666 -156.5 306.999l293 43c12 -72.667 34.333 -126.5 67 -161.5s77.667 -52.5 135 -52.5c58.667 0 103.167 19.667 133.5 59s45.5 95.666 45.5 168.999v739h-281v231h575v-963
c0 -146.667 -41.667 -261 -125 -343s-200 -123 -350 -123z" />
    <glyph glyph-name="ij" unicode="&#x133;" horiz-adv-x="1139" 
d="M424 1484v-207h-281v207h281zM424 1082v-1082h-281v1082h281zM994 1484v-207h-281v207h281zM707 -425c-66 0 -122.667 2.99902 -170 8.99902v198c8.66699 -0.666992 17.167 -1.5 25.5 -2.5s16.833 -1.5 25.5 -1.5c48 0 80.833 10.5 98.5 31.5s26.5 64.5 26.5 130.5v1142
h281v-1210c0 -95.333 -24.167 -168.666 -72.5 -219.999s-119.833 -77 -214.5 -77z" />
    <glyph glyph-name="Jcircumflex" unicode="&#x134;" horiz-adv-x="1139" 
d="M524 -20c-146 0 -258.167 31.6689 -336.5 95.002s-130.5 165.666 -156.5 306.999l293 43c12 -72.667 34.333 -126.5 67 -161.5s77.667 -52.5 135 -52.5c58.667 0 103.167 19.667 133.5 59s45.5 95.666 45.5 168.999v739h-281v231h575v-963
c0 -146.667 -41.667 -261 -125 -343s-200 -123 -350 -123zM321 1530v29l258 276h229l250 -276v-29h-159l-203 151h-4l-211 -151h-160z" />
    <glyph glyph-name="jcircumflex" unicode="&#x135;" horiz-adv-x="569" 
d="M281 1375l-211 -192h-160v28l258 318h229l250 -318v-28h-159l-203 192h-4zM138 -425c-66 0 -122.667 2.99902 -170 8.99902v198l51 -4c48 0 80.833 10.5 98.5 31.5s26.5 64.5 26.5 130.5v1142h281v-1210c0 -95.333 -24.167 -168.666 -72.5 -219.999
s-119.833 -77 -214.5 -77z" />
    <glyph glyph-name="Kcommaaccent" unicode="&#x136;" horiz-adv-x="1479" 
d="M432 514v-514h-295v1409h295v-639l635 639h344l-602 -596l651 -813h-348l-506 647zM875 -204c0 -48.667 -7.16699 -92.498 -21.5 -131.498s-38.5 -78.833 -72.5 -119.5h-137c31.333 33.333 54.833 64.166 70.5 92.499s23.5 54.166 23.5 77.499h-108v207h245v-126z" />
    <glyph glyph-name="kcommaaccent" unicode="&#x137;" horiz-adv-x="1139" 
d="M424 406v-406h-281v1484h281v-850l386 448h302l-380 -422l409 -660h-307l-289 490zM725 -204c0 -48.667 -7.16699 -92.498 -21.5 -131.498s-38.5 -78.833 -72.5 -119.5h-137c31.333 33.333 54.833 64.166 70.5 92.499s23.5 54.166 23.5 77.499h-108v207h245v-126z" />
    <glyph glyph-name="kgreenlandic" unicode="&#x138;" horiz-adv-x="1139" 
d="M424 406v-406h-281v1082h281v-448l386 448h302l-380 -422l409 -660h-307l-289 490z" />
    <glyph glyph-name="Lacute" unicode="&#x139;" horiz-adv-x="1251" 
d="M1188 228v-228h-1051v1409h295v-1181h756zM770 1772l-340 -242h-170v31l252 254h258v-43z" />
    <glyph glyph-name="lacute" unicode="&#x13a;" horiz-adv-x="569" 
d="M424 1484v-1484h-281v1484h281zM616 1851l-340 -242h-170v31l252 254h258v-43z" />
    <glyph glyph-name="Lcommaaccent" unicode="&#x13b;" horiz-adv-x="1251" 
d="M1188 228v-228h-1051v1409h295v-1181h756zM757 -204c0 -48.667 -7.16699 -92.498 -21.5 -131.498s-38.5 -78.833 -72.5 -119.5h-137c31.333 33.333 54.833 64.166 70.5 92.499s23.5 54.166 23.5 77.499h-108v207h245v-126z" />
    <glyph glyph-name="lcommaaccent" unicode="&#x13c;" horiz-adv-x="569" 
d="M424 1484v-1484h-281v1484h281zM406 -204c0 -48.667 -7.16699 -92.498 -21.5 -131.498s-38.5 -78.833 -72.5 -119.5h-137c31.333 33.333 54.833 64.166 70.5 92.499s23.5 54.166 23.5 77.499h-108v207h245v-126z" />
    <glyph glyph-name="Lcaron" unicode="&#x13d;" horiz-adv-x="1251" 
d="M1188 228v-228h-1051v1409h295v-1181h756zM984 1263c0 -48.667 -7.16699 -92.667 -21.5 -132s-38.5 -79 -72.5 -119h-137c62.667 66.667 94 130 94 190h-108v207h245v-146z" />
    <glyph glyph-name="lcaron" unicode="&#x13e;" horiz-adv-x="789" 
d="M424 1484v-1484h-281v1484h281zM790 1338c0 -48.667 -7.16699 -92.667 -21.5 -132s-38.5 -79 -72.5 -119h-137c62.667 66.667 94 130 94 190h-108v207h245v-146z" />
    <glyph glyph-name="Ldot" unicode="&#x13f;" horiz-adv-x="1251" 
d="M1188 228v-228h-1051v1409h295v-1181h756zM950 858v-207h-281v207h281z" />
    <glyph glyph-name="ldot" unicode="&#x140;" horiz-adv-x="981" 
d="M424 1484v-1484h-281v1484h281zM881 858v-207h-281v207h281z" />
    <glyph glyph-name="Lslash" unicode="&#x141;" horiz-adv-x="1251" 
d="M136 0l1 483l-137 -65v225l137 66v700h295v-559l307 147v-223l-307 -147v-396h756v-231h-1052z" />
    <glyph glyph-name="lslash" unicode="&#x142;" horiz-adv-x="569" 
d="M143 0v561l-125 -69v215l125 69v708h281v-552l129 74v-213l-129 -76v-717h-281z" />
    <glyph glyph-name="Nacute" unicode="&#x143;" horiz-adv-x="1479" 
d="M399 831v-831h-262v1409h337l623 -1094c-12 101.333 -18 193 -18 275v819h262v-1409h-346l-614 1085c6 -52.667 10.5 -100.167 13.5 -142.5s4.5 -79.5 4.5 -111.5zM1084 1772l-340 -242h-170v31l252 254h258v-43z" />
    <glyph glyph-name="nacute" unicode="&#x144;" horiz-adv-x="1251" 
d="M424 580l0.000976562 -580h-281v840c0 58 -0.833008 105.5 -2.5 142.5s-3.5 70.167 -5.5 99.5h268c1.33301 -8 3 -26.833 5 -56.5s3.83301 -60 5.5 -91s2.5 -53.5 2.5 -67.5h4c38 82.667 85.667 142.667 143 180s125.666 56 204.999 56
c114.667 0 202.667 -35.333 264 -106s92 -174 92 -310v-687h-280v607c0 95.333 -16 166.666 -48 213.999s-80.333 71 -145 71c-68 0 -122.833 -29.167 -164.5 -87.5s-62.5 -133.166 -62.5 -224.499zM985.001 1459l-340 -276h-170v31l252 288h258v-43z" />
    <glyph glyph-name="Ncommaaccent" unicode="&#x145;" horiz-adv-x="1479" 
d="M399 831v-831h-262v1409h337l623 -1094c-12 101.333 -18 193 -18 275v819h262v-1409h-346l-614 1085c6 -52.667 10.5 -100.167 13.5 -142.5s4.5 -79.5 4.5 -111.5zM856 -204c0 -48.667 -7.16699 -92.498 -21.5 -131.498s-38.5 -78.833 -72.5 -119.5h-137
c31.333 33.333 54.833 64.166 70.5 92.499s23.5 54.166 23.5 77.499h-108v207h245v-126z" />
    <glyph glyph-name="ncommaaccent" unicode="&#x146;" horiz-adv-x="1251" 
d="M424 580l0.000976562 -580h-281v840c0 58 -0.833008 105.5 -2.5 142.5s-3.5 70.167 -5.5 99.5h268c1.33301 -8 3 -26.833 5 -56.5s3.83301 -60 5.5 -91s2.5 -53.5 2.5 -67.5h4c38 82.667 85.667 142.667 143 180s125.666 56 204.999 56
c114.667 0 202.667 -35.333 264 -106s92 -174 92 -310v-687h-280v607c0 95.333 -16 166.666 -48 213.999s-80.333 71 -145 71c-68 0 -122.833 -29.167 -164.5 -87.5s-62.5 -133.166 -62.5 -224.499zM759.001 -204c0 -48.667 -7.16699 -92.498 -21.5 -131.498
s-38.5 -78.833 -72.5 -119.5h-137c31.333 33.333 54.833 64.166 70.5 92.499s23.5 54.166 23.5 77.499h-108v207h245v-126z" />
    <glyph glyph-name="Ncaron" unicode="&#x147;" horiz-adv-x="1479" 
d="M399 831v-831h-262v1409h337l623 -1094c-12 101.333 -18 193 -18 275v819h262v-1409h-346l-614 1085c6 -52.667 10.5 -100.167 13.5 -142.5s4.5 -79.5 4.5 -111.5zM1102 1806l-250 -276h-229l-258 276v29h160l211 -152h4l203 152h159v-29z" />
    <glyph glyph-name="ncaron" unicode="&#x148;" horiz-adv-x="1251" 
d="M424 580l0.000976562 -580h-281v840c0 58 -0.833008 105.5 -2.5 142.5s-3.5 70.167 -5.5 99.5h268c1.33301 -8 3 -26.833 5 -56.5s3.83301 -60 5.5 -91s2.5 -53.5 2.5 -67.5h4c38 82.667 85.667 142.667 143 180s125.666 56 204.999 56
c114.667 0 202.667 -35.333 264 -106s92 -174 92 -310v-687h-280v607c0 95.333 -16 166.666 -48 213.999s-80.333 71 -145 71c-68 0 -122.833 -29.167 -164.5 -87.5s-62.5 -133.166 -62.5 -224.499zM979.001 1500l-250 -317h-229l-258 317v29h160l211 -193h4l203 193h159
v-29z" />
    <glyph glyph-name="napostrophe" unicode="&#x149;" horiz-adv-x="1451" 
d="M624 580l0.000976562 -580h-281v840c0 58 -0.833008 105.5 -2.5 142.5s-3.5 70.167 -5.5 99.5h268c1.33301 -8 3 -26.833 5 -56.5s3.83301 -60 5.5 -91s2.5 -53.5 2.5 -67.5h4c38 82.667 85.667 142.667 143 180s125.666 56 204.999 56
c114.667 0 202.667 -35.333 264 -106s92 -174 92 -310v-687h-280v607c0 95.333 -16 166.666 -48 213.999s-80.333 71 -145 71c-68 0 -122.833 -29.167 -164.5 -87.5s-62.5 -133.166 -62.5 -224.499zM269.001 1214c0 -80.667 -8.16699 -150.667 -24.5 -210
s-44.5 -117 -84.5 -173h-182c87.333 112.667 131 218.667 131 318h-127v260h287v-195z" />
    <glyph glyph-name="Eng" unicode="&#x14a;" horiz-adv-x="1481" 
d="M904 -20c-88 0 -161.828 13.168 -221.495 39.501s-114.167 72.5 -163.5 138.5l202 171c34.667 -45.333 65.667 -76.166 93 -92.499s56.666 -24.5 87.999 -24.5c81.333 0 132.333 44.333 153 133c10.667 43.333 16 112.666 16 207.999v295c0 124 -21.333 213.667 -64 269
s-112.334 83 -209.001 83c-64.667 0 -125.334 -16.333 -182.001 -49s-101.5 -77 -134.5 -133s-49.5 -115.667 -49.5 -179v-839h-295v1092l-4 317h288c3.33301 -40.667 6 -81.834 8 -123.501s3 -84.167 3 -127.5h4c44 84.667 108.667 151 194 199s180 72 284 72
c155.333 0 267.666 -43 336.999 -129s104 -223 104 -411v-347c0 -133.333 -15.833 -241.333 -47.5 -324s-80.834 -143 -147.501 -181s-152 -57 -256 -57z" />
    <glyph glyph-name="eng" unicode="&#x14b;" horiz-adv-x="1251" 
d="M837 -425c-66 0 -122.665 2.99805 -169.998 8.99805v198l51 -4c49.333 0 82.666 10.833 99.999 32.5s26 64.834 26 129.501v667c0 95.333 -16 166.666 -48 213.999s-80.333 71 -145 71c-68 0 -122.833 -29.167 -164.5 -87.5s-62.5 -133.166 -62.5 -224.499v-580h-281v840
c0 58 -0.833008 105.5 -2.5 142.5s-3.5 70.167 -5.5 99.5h268c1.33301 -8 3 -26.833 5 -56.5s3.83301 -60 5.5 -91s2.5 -53.5 2.5 -67.5h4c38 82.667 85.667 142.667 143 180s125.666 56 204.999 56c114.667 0 202.667 -35.333 264 -106s92 -174 92 -310v-815
c0 -95.333 -24.167 -168.666 -72.5 -219.999s-119.833 -77 -214.5 -77z" />
    <glyph glyph-name="Omacron" unicode="&#x14c;" horiz-adv-x="1593" 
d="M1507 711c0 -146.667 -29.499 -274.833 -88.499 -384.5s-142 -194.834 -249 -255.501s-232.5 -91 -376.5 -91c-147.333 0 -274 29.5 -380 88.5s-187.333 143.167 -244 252.5s-85 239.333 -85 390s28.167 279.667 84.5 387s137.666 189.5 243.999 246.5
s233.833 85.5 382.5 85.5c149.333 0 277 -28.833 383 -86.5s187.333 -140.167 244 -247.5s85 -235.666 85 -384.999zM1206 711.001c0 152 -36.001 271.168 -108.001 357.501s-173 129.5 -303 129.5c-132 0 -234 -42.833 -306 -128.5s-108 -205.167 -108 -358.5
c0 -102.667 16.667 -191.334 50 -266.001s80.833 -132.167 142.5 -172.5s134.834 -60.5 219.501 -60.5c132 0 233.833 43.333 305.5 130s107.5 209.667 107.5 369zM490 1705h612v-168h-612v168z" />
    <glyph glyph-name="omacron" unicode="&#x14d;" horiz-adv-x="1251" 
d="M1171 542c0 -175.333 -48.667 -312.833 -146 -412.5s-232 -149.5 -404 -149.5c-168.667 0 -301 50 -397 150s-144 237.333 -144 412c0 174 48 310.833 144 410.5s230.333 149.5 403 149.5c176.667 0 311.5 -48.167 404.5 -144.5s139.5 -234.833 139.5 -415.5zM877 542
c0 128.667 -21.001 222 -63.001 280s-103 87 -183 87c-85.333 0 -149.333 -30.5 -192 -91.5s-64 -152.833 -64 -275.5c0 -120.667 20.833 -212.5 62.5 -275.5s101.834 -94.5 180.501 -94.5c86.667 0 151.5 30.833 194.5 92.5s64.5 154.167 64.5 277.5zM323.999 1371h612
v-168h-612v168z" />
    <glyph glyph-name="Obreve" unicode="&#x14e;" horiz-adv-x="1593" 
d="M1507 711c0 -146.667 -29.499 -274.833 -88.499 -384.5s-142 -194.834 -249 -255.501s-232.5 -91 -376.5 -91c-147.333 0 -274 29.5 -380 88.5s-187.333 143.167 -244 252.5s-85 239.333 -85 390s28.167 279.667 84.5 387s137.666 189.5 243.999 246.5
s233.833 85.5 382.5 85.5c149.333 0 277 -28.833 383 -86.5s187.333 -140.167 244 -247.5s85 -235.666 85 -384.999zM1206 711.001c0 152 -36.001 271.168 -108.001 357.501s-173 129.5 -303 129.5c-132 0 -234 -42.833 -306 -128.5s-108 -205.167 -108 -358.5
c0 -102.667 16.667 -191.334 50 -266.001s80.833 -132.167 142.5 -172.5s134.834 -60.5 219.501 -60.5c132 0 233.833 43.333 305.5 130s107.5 209.667 107.5 369zM784 1520c-96.667 0 -177.667 27.001 -243 81.001s-101.666 123 -108.999 207h163
c10 -41.333 32.667 -74.333 68 -99s76.333 -37 123 -37c48 0 89.333 12.167 124 36.5s56.667 57.5 66 99.5h164c-12.667 -88.667 -50.834 -158.834 -114.501 -210.501s-144.167 -77.5 -241.5 -77.5z" />
    <glyph glyph-name="obreve" unicode="&#x14f;" horiz-adv-x="1251" 
d="M1171 542c0 -175.333 -48.667 -312.833 -146 -412.5s-232 -149.5 -404 -149.5c-168.667 0 -301 50 -397 150s-144 237.333 -144 412c0 174 48 310.833 144 410.5s230.333 149.5 403 149.5c176.667 0 311.5 -48.167 404.5 -144.5s139.5 -234.833 139.5 -415.5zM877 542
c0 128.667 -21.001 222 -63.001 280s-103 87 -183 87c-85.333 0 -149.333 -30.5 -192 -91.5s-64 -152.833 -64 -275.5c0 -120.667 20.833 -212.5 62.5 -275.5s101.834 -94.5 180.501 -94.5c86.667 0 151.5 30.833 194.5 92.5s64.5 154.167 64.5 277.5zM631.999 1183
c-100.667 0 -182.834 30.333 -246.501 91s-99.167 138 -106.5 232h163c10.667 -51.333 33.334 -91.833 68.001 -121.5s75.667 -44.5 123 -44.5s88.5 14.5 123.5 43.5s57.167 69.833 66.5 122.5h164c-12 -98.667 -48.667 -177.167 -110 -235.5s-143 -87.5 -245 -87.5z" />
    <glyph glyph-name="Ohungarumlaut" unicode="&#x150;" horiz-adv-x="1593" 
d="M1507 711c0 -146.667 -29.499 -274.833 -88.499 -384.5s-142 -194.834 -249 -255.501s-232.5 -91 -376.5 -91c-147.333 0 -274 29.5 -380 88.5s-187.333 143.167 -244 252.5s-85 239.333 -85 390s28.167 279.667 84.5 387s137.666 189.5 243.999 246.5
s233.833 85.5 382.5 85.5c149.333 0 277 -28.833 383 -86.5s187.333 -140.167 244 -247.5s85 -235.666 85 -384.999zM1206 711.001c0 152 -36.001 271.168 -108.001 357.501s-173 129.5 -303 129.5c-132 0 -234 -42.833 -306 -128.5s-108 -205.167 -108 -358.5
c0 -102.667 16.667 -191.334 50 -266.001s80.833 -132.167 142.5 -172.5s134.834 -60.5 219.501 -60.5c132 0 233.833 43.333 305.5 130s107.5 209.667 107.5 369zM479 1530v34l215 252h235v-43l-318 -243h-132zM885 1530v34l215 252h235v-43l-318 -243h-132z" />
    <glyph glyph-name="ohungarumlaut" unicode="&#x151;" horiz-adv-x="1251" 
d="M1171 542c0 -175.333 -48.667 -312.833 -146 -412.5s-232 -149.5 -404 -149.5c-168.667 0 -301 50 -397 150s-144 237.333 -144 412c0 174 48 310.833 144 410.5s230.333 149.5 403 149.5c176.667 0 311.5 -48.167 404.5 -144.5s139.5 -234.833 139.5 -415.5zM877 542
c0 128.667 -21.001 222 -63.001 280s-103 87 -183 87c-85.333 0 -149.333 -30.5 -192 -91.5s-64 -152.833 -64 -275.5c0 -120.667 20.833 -212.5 62.5 -275.5s101.834 -94.5 180.501 -94.5c86.667 0 151.5 30.833 194.5 92.5s64.5 154.167 64.5 277.5zM292.999 1184v34
l225 266h235v-43l-318 -257h-142zM698.999 1184v34l225 266h235v-43l-318 -257h-142z" />
    <glyph glyph-name="OE" unicode="&#x152;" horiz-adv-x="2048" 
d="M992 0c-25.333 -1.33301 -56 -3.33301 -92 -6s-71.667 -4 -107 -4c-148 0 -275 28.833 -381 86.5s-187.167 140.167 -243.5 247.5s-84.5 236.333 -84.5 387s28.167 278.667 84.5 384s137.5 185.833 243.5 241.5s233.667 83.5 383 83.5c23.333 0 52 -1 86 -3
s73 -4.66699 117 -8h929v-227h-667v-355h606v-221h-606v-379h708v-227h-976zM963 1169c-23.333 6.66699 -49.001 11.501 -77.001 14.501s-58.333 4.5 -91 4.5c-133.333 0 -235.666 -41.5 -306.999 -124.5s-107 -200.5 -107 -352.5c0 -152.667 36.5 -272.334 109.5 -359.001
s173.833 -130 302.5 -130c38.667 0 72.167 1.66699 100.5 5s51.5 8.33301 69.5 15v927z" />
    <glyph glyph-name="oe" unicode="&#x153;" horiz-adv-x="1933" 
d="M1173 476c0 -97.333 19.6689 -173.001 59.002 -227.001s94.666 -81 165.999 -81c49.333 0 89.833 10.833 121.5 32.5s53.834 53.834 66.501 96.501l265 -23c-76.667 -196 -232.334 -294 -467.001 -294c-158.667 0 -281.667 53 -369 159c-96 -106 -227.333 -159 -394 -159
c-168.667 0 -301 50 -397 150s-144 237.333 -144 412c0 174 48 310.833 144 410.5s230.333 149.5 403 149.5c170.667 0 302 -51 394 -153c89.333 102 211.666 153 366.999 153s274 -51.5 356 -154.5s123 -253.833 123 -452.5v-19h-694zM877.002 541.999
c0 128.667 -21.001 222 -63.001 280s-103 87 -183 87c-85.333 0 -149.333 -30.5 -192 -91.5s-64 -152.833 -64 -275.5c0 -120.667 20.833 -212.5 62.5 -275.5s101.834 -94.5 180.501 -94.5c86.667 0 151.5 30.833 194.5 92.5s64.5 154.167 64.5 277.5zM1384 924.999
c-66 0 -116.833 -23 -152.5 -69s-54.5 -110.333 -56.5 -193h420c-5.33301 87.333 -26.333 152.833 -63 196.5s-86 65.5 -148 65.5z" />
    <glyph glyph-name="Racute" unicode="&#x154;" horiz-adv-x="1479" 
d="M432 535v-534.999h-295v1409h704c168 0 297.667 -36.167 389 -108.5s137 -176.166 137 -311.499c0 -98.667 -28 -183.834 -84 -255.501s-131.667 -118.834 -227 -141.501l381 -592h-332l-327 535h-346zM1070 977.001c0 67.333 -21.668 118.001 -65.001 152.001
s-108.333 51 -195 51h-378v-416h386c82.667 0 145.334 18.667 188.001 56s64 89.666 64 156.999zM1058 1772l-340 -242h-170v31l252 254h258v-43z" />
    <glyph glyph-name="racute" unicode="&#x155;" horiz-adv-x="797" 
d="M424 531l0.00292969 -531h-281v828c0 59.333 -0.833008 108.833 -2.5 148.5s-3.5 74.834 -5.5 105.501h268c1.33301 -6 2.66602 -19.333 3.99902 -40s2.66602 -43.834 3.99902 -69.501s2.5 -49.834 3.5 -72.501s1.5 -39 1.5 -49h4c26.667 74.667 51 128.334 73 161.001
c21.333 31.333 46.666 54.333 75.999 69s66 22 110 22c36 0 65 -5 87 -15v-235c-44.667 10 -84.667 15 -120 15c-70 0 -124.5 -28.333 -163.5 -85s-58.5 -140.667 -58.5 -252zM779.003 1459l-340 -276h-170v31l252 288h258v-43z" />
    <glyph glyph-name="Rcommaaccent" unicode="&#x156;" horiz-adv-x="1479" 
d="M432 535v-534.999h-295v1409h704c168 0 297.667 -36.167 389 -108.5s137 -176.166 137 -311.499c0 -98.667 -28 -183.834 -84 -255.501s-131.667 -118.834 -227 -141.501l381 -592h-332l-327 535h-346zM1070 977.001c0 67.333 -21.668 118.001 -65.001 152.001
s-108.333 51 -195 51h-378v-416h386c82.667 0 145.334 18.667 188.001 56s64 89.666 64 156.999zM864.999 -203.998c0 -48.667 -7.16699 -92.498 -21.5 -131.498s-38.5 -78.833 -72.5 -119.5h-137c31.333 33.333 54.833 64.166 70.5 92.499s23.5 54.166 23.5 77.499h-108
v207h245v-126z" />
    <glyph glyph-name="rcommaaccent" unicode="&#x157;" horiz-adv-x="797" 
d="M424 531l0.00292969 -531h-281v828c0 59.333 -0.833008 108.833 -2.5 148.5s-3.5 74.834 -5.5 105.501h268c1.33301 -6 2.66602 -19.333 3.99902 -40s2.66602 -43.834 3.99902 -69.501s2.5 -49.834 3.5 -72.501s1.5 -39 1.5 -49h4c26.667 74.667 51 128.334 73 161.001
c21.333 31.333 46.666 54.333 75.999 69s66 22 110 22c36 0 65 -5 87 -15v-235c-44.667 10 -84.667 15 -120 15c-70 0 -124.5 -28.333 -163.5 -85s-58.5 -140.667 -58.5 -252zM405.003 -204c0 -48.667 -7.16699 -92.498 -21.5 -131.498s-38.5 -78.833 -72.5 -119.5h-137
c31.333 33.333 54.833 64.166 70.5 92.499s23.5 54.166 23.5 77.499h-108v207h245v-126z" />
    <glyph glyph-name="Rcaron" unicode="&#x158;" horiz-adv-x="1479" 
d="M432 535v-534.999h-295v1409h704c168 0 297.667 -36.167 389 -108.5s137 -176.166 137 -311.499c0 -98.667 -28 -183.834 -84 -255.501s-131.667 -118.834 -227 -141.501l381 -592h-332l-327 535h-346zM1070 977.001c0 67.333 -21.668 118.001 -65.001 152.001
s-108.333 51 -195 51h-378v-416h386c82.667 0 145.334 18.667 188.001 56s64 89.666 64 156.999zM1068 1806l-250 -276h-229l-258 276v29h160l211 -152h4l203 152h159v-29z" />
    <glyph glyph-name="rcaron" unicode="&#x159;" horiz-adv-x="797" 
d="M424 531l0.00292969 -531h-281v828c0 59.333 -0.833008 108.833 -2.5 148.5s-3.5 74.834 -5.5 105.501h268c1.33301 -6 2.66602 -19.333 3.99902 -40s2.66602 -43.834 3.99902 -69.501s2.5 -49.834 3.5 -72.501s1.5 -39 1.5 -49h4c26.667 74.667 51 128.334 73 161.001
c21.333 31.333 46.666 54.333 75.999 69s66 22 110 22c36 0 65 -5 87 -15v-235c-44.667 10 -84.667 15 -120 15c-70 0 -124.5 -28.333 -163.5 -85s-58.5 -140.667 -58.5 -252zM793.003 1500l-250 -317h-229l-258 317v29h160l211 -193h4l203 193h159v-29z" />
    <glyph glyph-name="Sacute" unicode="&#x15a;" horiz-adv-x="1366" 
d="M1286 406c0 -138 -51.1699 -243.501 -153.503 -316.501s-252.5 -109.5 -450.5 -109.5c-356.667 0 -564.334 129 -623.001 387l285 47c19.333 -74.667 57 -128.834 113 -162.501s133.667 -50.5 233 -50.5c103.333 0 180.666 15.667 231.999 47s77 78.333 77 141
c0 40 -11.667 73 -35 99s-56.666 47.667 -99.999 65c-21.333 8.66699 -52.666 18.167 -93.999 28.5s-92.666 21.833 -153.999 34.5c-70.667 16.667 -126 30.834 -166 42.501s-72 23 -96 34s-47.333 23.167 -70 36.5c-50 30 -89 70 -117 120s-42 112.333 -42 187
c0 127.333 47.833 224.833 143.5 292.5s234.834 101.5 417.501 101.5c174.667 0 305.834 -27.333 393.501 -82s144.167 -145 169.5 -271l-286 -39c-14.667 60.667 -44.5 106.334 -89.5 137.001s-109.5 46 -193.5 46c-89.333 0 -156.333 -14 -201 -42s-67 -70 -67 -126
c0 -36.667 9.5 -66.667 28.5 -90s47.167 -43.333 84.5 -60c35.333 -16 111 -36.333 227 -61c67.333 -14.667 125.333 -28.5 174 -41.5s87.667 -25.5 117 -37.5c29.333 -12.667 55.5 -26 78.5 -40s42.833 -29 59.5 -45c34 -32.667 60 -71.5 78 -116.5s27 -96.833 27 -155.5z
M1065 1772l-340 -242h-170v31l252 254h258v-43z" />
    <glyph glyph-name="sacute" unicode="&#x15b;" horiz-adv-x="1139" 
d="M1055 316c0 -104.667 -42.8301 -186.839 -128.497 -246.506s-204.167 -89.5 -355.5 -89.5c-148.667 0 -262.5 23.5 -341.5 70.5s-131.5 120.167 -157.5 219.5l247 37c14 -51.333 38.167 -87.666 72.5 -108.999s94.166 -32 179.499 -32c78.667 0 136 10 172 30
s54 51.333 54 94c0 34.667 -14.5 62.167 -43.5 82.5s-78.167 37.5 -147.5 51.5c-52.667 10.667 -99.834 21 -141.501 31s-77.334 19.833 -107.001 29.5s-53.834 18.834 -72.501 27.501c-55.333 27.333 -97.5 62.333 -126.5 105s-43.5 95.334 -43.5 158.001
c0 103.333 39.833 183.833 119.5 241.5s192.5 86.5 338.5 86.5c128.667 0 232.167 -25 310.5 -75s127.166 -122.333 146.499 -217l-249 -26c-8 44 -27.667 76.833 -59 98.5s-81 32.5 -149 32.5c-66.667 0 -116.667 -8.5 -150 -25.5s-50 -45.5 -50 -85.5
c0 -31.333 12.833 -56.166 38.5 -74.499s68.834 -33.5 129.501 -45.5c84.667 -17.333 159.834 -35.166 225.501 -53.499s118.5 -40.166 158.5 -65.499c39.333 -25.333 70.833 -57.833 94.5 -97.5s35.5 -90.5 35.5 -152.5zM910.003 1459l-340 -276h-170v31l252 288h258v-43z
" />
    <glyph glyph-name="Scircumflex" unicode="&#x15c;" horiz-adv-x="1366" 
d="M1286 406c0 -138 -51.1699 -243.501 -153.503 -316.501s-252.5 -109.5 -450.5 -109.5c-356.667 0 -564.334 129 -623.001 387l285 47c19.333 -74.667 57 -128.834 113 -162.501s133.667 -50.5 233 -50.5c103.333 0 180.666 15.667 231.999 47s77 78.333 77 141
c0 40 -11.667 73 -35 99s-56.666 47.667 -99.999 65c-21.333 8.66699 -52.666 18.167 -93.999 28.5s-92.666 21.833 -153.999 34.5c-70.667 16.667 -126 30.834 -166 42.501s-72 23 -96 34s-47.333 23.167 -70 36.5c-50 30 -89 70 -117 120s-42 112.333 -42 187
c0 127.333 47.833 224.833 143.5 292.5s234.834 101.5 417.501 101.5c174.667 0 305.834 -27.333 393.501 -82s144.167 -145 169.5 -271l-286 -39c-14.667 60.667 -44.5 106.334 -89.5 137.001s-109.5 46 -193.5 46c-89.333 0 -156.333 -14 -201 -42s-67 -70 -67 -126
c0 -36.667 9.5 -66.667 28.5 -90s47.167 -43.333 84.5 -60c35.333 -16 111 -36.333 227 -61c67.333 -14.667 125.333 -28.5 174 -41.5s87.667 -25.5 117 -37.5c29.333 -12.667 55.5 -26 78.5 -40s42.833 -29 59.5 -45c34 -32.667 60 -71.5 78 -116.5s27 -96.833 27 -155.5z
M341.997 1530v29l258 276h229l250 -276v-29h-159l-203 151h-4l-211 -151h-160z" />
    <glyph glyph-name="scircumflex" unicode="&#x15d;" horiz-adv-x="1139" 
d="M1055 316c0 -104.667 -42.8301 -186.839 -128.497 -246.506s-204.167 -89.5 -355.5 -89.5c-148.667 0 -262.5 23.5 -341.5 70.5s-131.5 120.167 -157.5 219.5l247 37c14 -51.333 38.167 -87.666 72.5 -108.999s94.166 -32 179.499 -32c78.667 0 136 10 172 30
s54 51.333 54 94c0 34.667 -14.5 62.167 -43.5 82.5s-78.167 37.5 -147.5 51.5c-52.667 10.667 -99.834 21 -141.501 31s-77.334 19.833 -107.001 29.5s-53.834 18.834 -72.501 27.501c-55.333 27.333 -97.5 62.333 -126.5 105s-43.5 95.334 -43.5 158.001
c0 103.333 39.833 183.833 119.5 241.5s192.5 86.5 338.5 86.5c128.667 0 232.167 -25 310.5 -75s127.166 -122.333 146.499 -217l-249 -26c-8 44 -27.667 76.833 -59 98.5s-81 32.5 -149 32.5c-66.667 0 -116.667 -8.5 -150 -25.5s-50 -45.5 -50 -85.5
c0 -31.333 12.833 -56.166 38.5 -74.499s68.834 -33.5 129.501 -45.5c84.667 -17.333 159.834 -35.166 225.501 -53.499s118.5 -40.166 158.5 -65.499c39.333 -25.333 70.833 -57.833 94.5 -97.5s35.5 -90.5 35.5 -152.5zM198.003 1183v28l258 318h229l250 -318v-28h-159
l-203 192h-4l-211 -192h-160z" />
    <glyph glyph-name="Scedilla" unicode="&#x15e;" horiz-adv-x="1366" 
d="M1286 406c0 -138 -51.1699 -243.501 -153.503 -316.501s-252.5 -109.5 -450.5 -109.5c-356.667 0 -564.334 129 -623.001 387l285 47c19.333 -74.667 57 -128.834 113 -162.501s133.667 -50.5 233 -50.5c103.333 0 180.666 15.667 231.999 47s77 78.333 77 141
c0 40 -11.667 73 -35 99s-56.666 47.667 -99.999 65c-21.333 8.66699 -52.666 18.167 -93.999 28.5s-92.666 21.833 -153.999 34.5c-70.667 16.667 -126 30.834 -166 42.501s-72 23 -96 34s-47.333 23.167 -70 36.5c-50 30 -89 70 -117 120s-42 112.333 -42 187
c0 127.333 47.833 224.833 143.5 292.5s234.834 101.5 417.501 101.5c174.667 0 305.834 -27.333 393.501 -82s144.167 -145 169.5 -271l-286 -39c-14.667 60.667 -44.5 106.334 -89.5 137.001s-109.5 46 -193.5 46c-89.333 0 -156.333 -14 -201 -42s-67 -70 -67 -126
c0 -36.667 9.5 -66.667 28.5 -90s47.167 -43.333 84.5 -60c35.333 -16 111 -36.333 227 -61c67.333 -14.667 125.333 -28.5 174 -41.5s87.667 -25.5 117 -37.5c29.333 -12.667 55.5 -26 78.5 -40s42.833 -29 59.5 -45c34 -32.667 60 -71.5 78 -116.5s27 -96.833 27 -155.5z
M921.997 -235.001c0 -62.667 -25.998 -110 -77.998 -142s-127 -48 -225 -48c-30 0 -63.667 2 -101 6v118c21.333 -4.66699 49.333 -7 84 -7c91.333 0 137 23 137 69c0 23.333 -9.33301 40.666 -28 51.999s-50 17 -94 17c-12.667 0 -23.334 -0.166992 -32.001 -0.5
s-15.334 -0.833008 -20.001 -1.5l62 172h143l-33 -82c62.667 -3.33301 109.167 -18.666 139.5 -45.999s45.5 -63 45.5 -107z" />
    <glyph glyph-name="scedilla" unicode="&#x15f;" horiz-adv-x="1139" 
d="M1055 316c0 -104.667 -42.8301 -186.839 -128.497 -246.506s-204.167 -89.5 -355.5 -89.5c-148.667 0 -262.5 23.5 -341.5 70.5s-131.5 120.167 -157.5 219.5l247 37c14 -51.333 38.167 -87.666 72.5 -108.999s94.166 -32 179.499 -32c78.667 0 136 10 172 30
s54 51.333 54 94c0 34.667 -14.5 62.167 -43.5 82.5s-78.167 37.5 -147.5 51.5c-52.667 10.667 -99.834 21 -141.501 31s-77.334 19.833 -107.001 29.5s-53.834 18.834 -72.501 27.501c-55.333 27.333 -97.5 62.333 -126.5 105s-43.5 95.334 -43.5 158.001
c0 103.333 39.833 183.833 119.5 241.5s192.5 86.5 338.5 86.5c128.667 0 232.167 -25 310.5 -75s127.166 -122.333 146.499 -217l-249 -26c-8 44 -27.667 76.833 -59 98.5s-81 32.5 -149 32.5c-66.667 0 -116.667 -8.5 -150 -25.5s-50 -45.5 -50 -85.5
c0 -31.333 12.833 -56.166 38.5 -74.499s68.834 -33.5 129.501 -45.5c84.667 -17.333 159.834 -35.166 225.501 -53.499s118.5 -40.166 158.5 -65.499c39.333 -25.333 70.833 -57.833 94.5 -97.5s35.5 -90.5 35.5 -152.5zM786.003 -235.005
c0 -62.667 -25.998 -110 -77.998 -142s-127 -48 -225 -48c-30 0 -63.667 2 -101 6v118c21.333 -4.66699 49.333 -7 84 -7c91.333 0 137 23 137 69c0 23.333 -9.33301 40.666 -28 51.999s-50 17 -94 17c-12.667 0 -23.334 -0.166992 -32.001 -0.5
s-15.334 -0.833008 -20.001 -1.5l62 172h143l-33 -82c62.667 -3.33301 109.167 -18.666 139.5 -45.999s45.5 -63 45.5 -107z" />
    <glyph glyph-name="Scaron" unicode="&#x160;" horiz-adv-x="1366" 
d="M1286 406c0 -138 -51.1699 -243.501 -153.503 -316.501s-252.5 -109.5 -450.5 -109.5c-356.667 0 -564.334 129 -623.001 387l285 47c19.333 -74.667 57 -128.834 113 -162.501s133.667 -50.5 233 -50.5c103.333 0 180.666 15.667 231.999 47s77 78.333 77 141
c0 40 -11.667 73 -35 99s-56.666 47.667 -99.999 65c-21.333 8.66699 -52.666 18.167 -93.999 28.5s-92.666 21.833 -153.999 34.5c-70.667 16.667 -126 30.834 -166 42.501s-72 23 -96 34s-47.333 23.167 -70 36.5c-50 30 -89 70 -117 120s-42 112.333 -42 187
c0 127.333 47.833 224.833 143.5 292.5s234.834 101.5 417.501 101.5c174.667 0 305.834 -27.333 393.501 -82s144.167 -145 169.5 -271l-286 -39c-14.667 60.667 -44.5 106.334 -89.5 137.001s-109.5 46 -193.5 46c-89.333 0 -156.333 -14 -201 -42s-67 -70 -67 -126
c0 -36.667 9.5 -66.667 28.5 -90s47.167 -43.333 84.5 -60c35.333 -16 111 -36.333 227 -61c67.333 -14.667 125.333 -28.5 174 -41.5s87.667 -25.5 117 -37.5c29.333 -12.667 55.5 -26 78.5 -40s42.833 -29 59.5 -45c34 -32.667 60 -71.5 78 -116.5s27 -96.833 27 -155.5z
M1056 1806l-250 -276h-229l-258 276v29h160l211 -152h4l203 152h159v-29z" />
    <glyph glyph-name="scaron" unicode="&#x161;" horiz-adv-x="1139" 
d="M1055 316c0 -104.667 -42.8301 -186.839 -128.497 -246.506s-204.167 -89.5 -355.5 -89.5c-148.667 0 -262.5 23.5 -341.5 70.5s-131.5 120.167 -157.5 219.5l247 37c14 -51.333 38.167 -87.666 72.5 -108.999s94.166 -32 179.499 -32c78.667 0 136 10 172 30
s54 51.333 54 94c0 34.667 -14.5 62.167 -43.5 82.5s-78.167 37.5 -147.5 51.5c-52.667 10.667 -99.834 21 -141.501 31s-77.334 19.833 -107.001 29.5s-53.834 18.834 -72.501 27.501c-55.333 27.333 -97.5 62.333 -126.5 105s-43.5 95.334 -43.5 158.001
c0 103.333 39.833 183.833 119.5 241.5s192.5 86.5 338.5 86.5c128.667 0 232.167 -25 310.5 -75s127.166 -122.333 146.499 -217l-249 -26c-8 44 -27.667 76.833 -59 98.5s-81 32.5 -149 32.5c-66.667 0 -116.667 -8.5 -150 -25.5s-50 -45.5 -50 -85.5
c0 -31.333 12.833 -56.166 38.5 -74.499s68.834 -33.5 129.501 -45.5c84.667 -17.333 159.834 -35.166 225.501 -53.499s118.5 -40.166 158.5 -65.499c39.333 -25.333 70.833 -57.833 94.5 -97.5s35.5 -90.5 35.5 -152.5zM942.003 1500l-250 -317h-229l-258 317v29h160
l211 -193h4l203 193h159v-29z" />
    <glyph glyph-name="Tcommaaccent" unicode="&#x162;" horiz-adv-x="1251" 
d="M773 1181v-1181h-295v1181h-455v228h1206v-228h-456zM850 -235c0 -62.667 -25.998 -110 -77.998 -142s-127 -48 -225 -48c-30 0 -63.667 2 -101 6v118c21.333 -4.66699 49.333 -7 84 -7c91.333 0 137 23 137 69c0 23.333 -9.33301 40.666 -28 51.999s-50 17 -94 17
c-12.667 0 -23.334 -0.166992 -32.001 -0.5s-15.334 -0.833008 -20.001 -1.5l62 172h143l-33 -82c62.667 -3.33301 109.167 -18.666 139.5 -45.999s45.5 -63 45.5 -107z" />
    <glyph glyph-name="tcommaaccent" unicode="&#x163;" horiz-adv-x="682" 
d="M657 16c-68 -22.667 -146.999 -34 -236.999 -34c-82.667 0 -146.334 22.5 -191.001 67.5s-67 113.167 -67 204.5v638h-137v190h151l88 254h176v-254h205v-190h-205v-562c0 -52.667 10 -91.5 30 -116.5s51 -37.5 93 -37.5c20 0 51.333 4.66699 94 14v-174zM638.001 -235
c0 -62.667 -25.998 -110 -77.998 -142s-127 -48 -225 -48c-30 0 -63.667 2 -101 6v118c21.333 -4.66699 49.333 -7 84 -7c91.333 0 137 23 137 69c0 23.333 -9.33301 40.666 -28 51.999s-50 17 -94 17c-12.667 0 -23.334 -0.166992 -32.001 -0.5
s-15.334 -0.833008 -20.001 -1.5l62 172h143l-33 -82c62.667 -3.33301 109.167 -18.666 139.5 -45.999s45.5 -63 45.5 -107z" />
    <glyph glyph-name="Tcaron" unicode="&#x164;" horiz-adv-x="1251" 
d="M773 1181v-1181h-295v1181h-455v228h1206v-228h-456zM999 1806l-250 -276h-229l-258 276v29h160l211 -152h4l203 152h159v-29z" />
    <glyph glyph-name="tcaron" unicode="&#x165;" horiz-adv-x="981" 
d="M657 16c-68 -22.667 -146.999 -34 -236.999 -34c-82.667 0 -146.334 22.5 -191.001 67.5s-67 113.167 -67 204.5v638h-137v190h151l88 254h176v-254h205v-190h-205v-562c0 -52.667 10 -91.5 30 -116.5s51 -37.5 93 -37.5c20 0 51.333 4.66699 94 14v-174zM981.001 1338
c0 -48.667 -7.16699 -92.667 -21.5 -132s-38.5 -79 -72.5 -119h-137c62.667 66.667 94 130 94 190h-108v207h245v-146z" />
    <glyph glyph-name="Tbar" unicode="&#x166;" horiz-adv-x="1251" 
d="M773 626v-626h-295v626h-227v190h227v365h-455v228h1206v-228h-456v-365h228v-190h-228z" />
    <glyph glyph-name="tbar" unicode="&#x167;" horiz-adv-x="682" 
d="M420 -18c-82.667 0 -146.333 22.5 -191 67.5s-67 113.167 -67 204.5v219h-127v190h127v229h-137v190h151l88 254h176v-254h205v-190h-205v-229h185v-190h-185v-143c0 -52.667 10 -91.5 30 -116.5s51 -37.5 93 -37.5c20 0 51.333 4.66699 94 14v-174
c-68 -22.667 -147 -34 -237 -34z" />
    <glyph glyph-name="Utilde" unicode="&#x168;" horiz-adv-x="1479" 
d="M723 -20c-129.333 0 -238.667 21.167 -328 63.5s-157 104.333 -203 186s-69 181.167 -69 298.5v881h295v-858c0 -111.333 26.5 -195.833 79.5 -253.5s130.833 -86.5 233.5 -86.5c105.333 0 186.333 30.167 243 90.5s85 146.833 85 259.5v848h295v-866
c0 -118.667 -24.833 -220 -74.5 -304s-121.5 -148.167 -215.5 -192.5s-207.667 -66.5 -341 -66.5zM904.999 1530c-28.667 0 -57.832 6.83301 -87.499 20.5s-59.167 28.167 -88.5 43.5c-26.667 15.333 -52.5 29 -77.5 41s-47.833 18 -68.5 18
c-27.333 0 -48.166 -7.66699 -62.499 -23s-26.166 -48.666 -35.499 -99.999h-137c7.33301 111.333 30.5 188 69.5 230s90.833 63 155.5 63c27.333 0 55.666 -6.33301 84.999 -19s58 -26.667 86 -42l81 -42.5c25.333 -13 48.333 -19.5 69 -19.5
c26.667 0 47.5 8.16699 62.5 24.5s27.167 49.166 36.5 98.499h135c-4.66699 -104.667 -25.834 -179.667 -63.501 -225s-90.834 -68 -159.501 -68z" />
    <glyph glyph-name="utilde" unicode="&#x169;" horiz-adv-x="1251" 
d="M831 215c-37.333 -82 -84.833 -141.665 -142.5 -178.998s-126.167 -56 -205.5 -56c-114.667 0 -202.667 35.167 -264 105.5s-92 173.5 -92 309.5v687h281v-607c0 -94.667 16 -165.834 48 -213.501s80 -71.5 144 -71.5c68 0 122.833 29.167 164.5 87.5
s62.5 133.166 62.5 224.499v580h281v-840c0 -46 0.666992 -89.167 2 -129.5s3.33301 -77.833 6 -112.5h-268c-4 48 -7 90 -9 126s-3 65.667 -3 89h-5zM786 1183c-26 0 -52.668 5.83203 -80.001 17.499s-54.666 24.834 -81.999 39.501l-85 45c-27.333 14 -52.333 21 -75 21
c-27.333 0 -48.166 -7.66699 -62.499 -23s-26.166 -48.666 -35.499 -99.999h-137c7.33301 114.667 30.5 192.167 69.5 232.5s90.833 60.5 155.5 60.5c30 0 60.667 -7.16699 92 -21.5s62 -29.833 92 -46.5c26 -14.667 50.667 -27.5 74 -38.5s44.333 -16.5 63 -16.5
c26.667 0 47.5 8.16699 62.5 24.5s27.167 49.166 36.5 98.499h135c-4.66699 -104.667 -25.834 -179.667 -63.501 -225s-90.834 -68 -159.501 -68z" />
    <glyph glyph-name="Umacron" unicode="&#x16a;" horiz-adv-x="1479" 
d="M723 -20c-129.333 0 -238.667 21.167 -328 63.5s-157 104.333 -203 186s-69 181.167 -69 298.5v881h295v-858c0 -111.333 26.5 -195.833 79.5 -253.5s130.833 -86.5 233.5 -86.5c105.333 0 186.333 30.167 243 90.5s85 146.833 85 259.5v848h295v-866
c0 -118.667 -24.833 -220 -74.5 -304s-121.5 -148.167 -215.5 -192.5s-207.667 -66.5 -341 -66.5zM432.999 1700h612v-168h-612v168z" />
    <glyph glyph-name="umacron" unicode="&#x16b;" horiz-adv-x="1251" 
d="M831 215c-37.333 -82 -84.833 -141.665 -142.5 -178.998s-126.167 -56 -205.5 -56c-114.667 0 -202.667 35.167 -264 105.5s-92 173.5 -92 309.5v687h281v-607c0 -94.667 16 -165.834 48 -213.501s80 -71.5 144 -71.5c68 0 122.833 29.167 164.5 87.5
s62.5 133.166 62.5 224.499v580h281v-840c0 -46 0.666992 -89.167 2 -129.5s3.33301 -77.833 6 -112.5h-268c-4 48 -7 90 -9 126s-3 65.667 -3 89h-5zM312 1371h612v-168h-612v168z" />
    <glyph glyph-name="Ubreve" unicode="&#x16c;" horiz-adv-x="1479" 
d="M723 -20c-129.333 0 -238.667 21.167 -328 63.5s-157 104.333 -203 186s-69 181.167 -69 298.5v881h295v-858c0 -111.333 26.5 -195.833 79.5 -253.5s130.833 -86.5 233.5 -86.5c105.333 0 186.333 30.167 243 90.5s85 146.833 85 259.5v848h295v-866
c0 -118.667 -24.833 -220 -74.5 -304s-121.5 -148.167 -215.5 -192.5s-207.667 -66.5 -341 -66.5zM736.999 1520c-96.667 0 -177.667 27.001 -243 81.001s-101.666 123 -108.999 207h163c10 -41.333 32.667 -74.333 68 -99s76.333 -37 123 -37c48 0 89.333 12.167 124 36.5
s56.667 57.5 66 99.5h164c-12.667 -88.667 -50.834 -158.834 -114.501 -210.501s-144.167 -77.5 -241.5 -77.5z" />
    <glyph glyph-name="ubreve" unicode="&#x16d;" horiz-adv-x="1251" 
d="M831 215c-37.333 -82 -84.833 -141.665 -142.5 -178.998s-126.167 -56 -205.5 -56c-114.667 0 -202.667 35.167 -264 105.5s-92 173.5 -92 309.5v687h281v-607c0 -94.667 16 -165.834 48 -213.501s80 -71.5 144 -71.5c68 0 122.833 29.167 164.5 87.5
s62.5 133.166 62.5 224.499v580h281v-840c0 -46 0.666992 -89.167 2 -129.5s3.33301 -77.833 6 -112.5h-268c-4 48 -7 90 -9 126s-3 65.667 -3 89h-5zM623 1183c-100.667 0 -182.834 30.333 -246.501 91s-99.167 138 -106.5 232h163
c10.667 -51.333 33.334 -91.833 68.001 -121.5s75.667 -44.5 123 -44.5s88.5 14.5 123.5 43.5s57.167 69.833 66.5 122.5h164c-12 -98.667 -48.667 -177.167 -110 -235.5s-143 -87.5 -245 -87.5z" />
    <glyph glyph-name="Uring" unicode="&#x16e;" horiz-adv-x="1479" 
d="M723 -20c-129.333 0 -238.667 21.167 -328 63.5s-157 104.333 -203 186s-69 181.167 -69 298.5v881h295v-858c0 -111.333 26.5 -195.833 79.5 -253.5s130.833 -86.5 233.5 -86.5c105.333 0 186.333 30.167 243 90.5s85 146.833 85 259.5v848h295v-866
c0 -118.667 -24.833 -220 -74.5 -304s-121.5 -148.167 -215.5 -192.5s-207.667 -66.5 -341 -66.5zM993.999 1724c0 -46.667 -11.168 -89.167 -33.501 -127.5s-52.666 -69 -90.999 -92s-81.5 -34.5 -129.5 -34.5c-47.333 0 -90.333 11.5 -129 34.5s-69.167 53.667 -91.5 92
s-33.5 80.833 -33.5 127.5s11.5 89.167 34.5 127.5s53.667 69 92 92s80.833 34.5 127.5 34.5s89.167 -11.5 127.5 -34.5s69 -53.667 92 -92s34.5 -80.833 34.5 -127.5zM866.998 1724c0 34 -12.167 63.333 -36.5 88s-54.5 37 -90.5 37c-34 0 -63.333 -12 -88 -36
s-37 -53.667 -37 -89c0 -37.333 12.333 -68 37 -92s54 -36 88 -36c35.333 0 65.333 12.333 90 37s37 55 37 91z" />
    <glyph glyph-name="uring" unicode="&#x16f;" horiz-adv-x="1251" 
d="M831 215c-37.333 -82 -84.833 -141.665 -142.5 -178.998s-126.167 -56 -205.5 -56c-114.667 0 -202.667 35.167 -264 105.5s-92 173.5 -92 309.5v687h281v-607c0 -94.667 16 -165.834 48 -213.501s80 -71.5 144 -71.5c68 0 122.833 29.167 164.5 87.5
s62.5 133.166 62.5 224.499v580h281v-840c0 -46 0.666992 -89.167 2 -129.5s3.33301 -77.833 6 -112.5h-268c-4 48 -7 90 -9 126s-3 65.667 -3 89h-5zM875 1390c0 -46.667 -11.168 -89.167 -33.501 -127.5s-52.666 -69 -90.999 -92s-81.5 -34.5 -129.5 -34.5
c-47.333 0 -90.333 11.5 -129 34.5s-69.167 53.667 -91.5 92s-33.5 80.833 -33.5 127.5s11.5 89.167 34.5 127.5s53.667 69 92 92s80.833 34.5 127.5 34.5s89.167 -11.5 127.5 -34.5s69 -53.667 92 -92s34.5 -80.833 34.5 -127.5zM747.999 1390
c0 34 -12.167 63.333 -36.5 88s-54.5 37 -90.5 37c-34 0 -63.333 -12 -88 -36s-37 -53.667 -37 -89c0 -37.333 12.333 -68 37 -92s54 -36 88 -36c35.333 0 65.333 12.333 90 37s37 55 37 91z" />
    <glyph glyph-name="Uhungarumlaut" unicode="&#x170;" horiz-adv-x="1479" 
d="M723 -20c-129.333 0 -238.667 21.167 -328 63.5s-157 104.333 -203 186s-69 181.167 -69 298.5v881h295v-858c0 -111.333 26.5 -195.833 79.5 -253.5s130.833 -86.5 233.5 -86.5c105.333 0 186.333 30.167 243 90.5s85 146.833 85 259.5v848h295v-866
c0 -118.667 -24.833 -220 -74.5 -304s-121.5 -148.167 -215.5 -192.5s-207.667 -66.5 -341 -66.5zM392.999 1530v34l215 252h235v-43l-318 -243h-132zM798.999 1530v34l215 252h235v-43l-318 -243h-132z" />
    <glyph glyph-name="uhungarumlaut" unicode="&#x171;" horiz-adv-x="1251" 
d="M831 215c-37.333 -82 -84.833 -141.665 -142.5 -178.998s-126.167 -56 -205.5 -56c-114.667 0 -202.667 35.167 -264 105.5s-92 173.5 -92 309.5v687h281v-607c0 -94.667 16 -165.834 48 -213.501s80 -71.5 144 -71.5c68 0 122.833 29.167 164.5 87.5
s62.5 133.166 62.5 224.499v580h281v-840c0 -46 0.666992 -89.167 2 -129.5s3.33301 -77.833 6 -112.5h-268c-4 48 -7 90 -9 126s-3 65.667 -3 89h-5zM257 1184v34l225 266h235v-43l-318 -257h-142zM663 1184v34l225 266h235v-43l-318 -257h-142z" />
    <glyph glyph-name="Uogonek" unicode="&#x172;" horiz-adv-x="1479" 
d="M723 -20c-129.333 0 -238.667 21.167 -328 63.5s-157 104.333 -203 186s-69 181.167 -69 298.5v881h295v-858c0 -111.333 26.5 -195.833 79.5 -253.5s130.833 -86.5 233.5 -86.5c105.333 0 186.333 30.167 243 90.5s85 146.833 85 259.5v848h295v-866
c0 -118.667 -24.833 -220 -74.5 -304s-121.5 -148.167 -215.5 -192.5s-207.667 -66.5 -341 -66.5zM1008 -392c-42 -22 -92.333 -33.002 -151 -33.002c-74 0 -132 18 -174 54s-63 84.667 -63 146c0 50 14.5 97.333 43.5 142s67.167 79.334 114.5 104.001h153
c-42 -28 -74 -61.167 -96 -99.5s-33 -75.166 -33 -110.499c0 -28 8.16699 -50.5 24.5 -67.5s39.5 -25.5 69.5 -25.5c36 0 73.333 9 112 27v-137z" />
    <glyph glyph-name="uogonek" unicode="&#x173;" horiz-adv-x="1251" 
d="M831 215c-37.333 -82 -84.833 -141.665 -142.5 -178.998s-126.167 -56 -205.5 -56c-114.667 0 -202.667 35.167 -264 105.5s-92 173.5 -92 309.5v687h281v-607c0 -94.667 16 -165.834 48 -213.501s80 -71.5 144 -71.5c68 0 122.833 29.167 164.5 87.5
s62.5 133.166 62.5 224.499v580h281v-840c0 -46 0.666992 -89.167 2 -129.5s3.33301 -77.833 6 -112.5h-268c-4 48 -7 90 -9 126s-3 65.667 -3 89h-5zM1109 -391.998c-42 -22 -92.333 -33.002 -151 -33.002c-74 0 -132 18 -174 54s-63 84.667 -63 146
c0 50 14.5 97.333 43.5 142s67.167 79.334 114.5 104.001h153c-42 -28 -74 -61.167 -96 -99.5s-33 -75.166 -33 -110.499c0 -28 8.16699 -50.5 24.5 -67.5s39.5 -25.5 69.5 -25.5c36 0 73.333 9 112 27v-137z" />
    <glyph glyph-name="Wcircumflex" unicode="&#x174;" horiz-adv-x="1933" 
d="M909 834l-194.003 -834h-350l-363 1409h299l196 -863c8.66699 -36.667 18.167 -79 28.5 -127s18.833 -94.667 25.5 -140c6.66699 31.333 12.834 61.833 18.501 91.5l17.5 88c6 29 12.333 57.833 19 86.5l199 864h330l197 -833c6.66699 -28 14.834 -68.667 24.501 -122
s18.834 -111.666 27.501 -174.999l23.5 102.5l21 89c7 29.667 14.5 63.5 22.5 101.5l181 837h299l-364 -1409h-350l-191 815c-11.333 48 -22 97 -32 147s-19 101.333 -27 154c-5.33301 -28.667 -12 -62.334 -20 -101.001l-22.5 -108zM599.997 1530v29l258 276h229l250 -276
v-29h-159l-203 151h-4l-211 -151h-160z" />
    <glyph glyph-name="wcircumflex" unicode="&#x175;" horiz-adv-x="1593" 
d="M745 658l-174 -658h-297l-280 1082h264l138 -640l20 -93l20 -94c6.66699 32 12.667 64 18 96s12.333 63.667 21 95l170 636h301l166 -636c4.66699 -17.333 10.5 -41.833 17.5 -73.5s14.833 -70.834 23.5 -117.501l21.5 95.5l20.5 95.5l142 636h260l-284 -1082h-297
l-172 660c-4 15.333 -10 41.5 -18 78.5s-17.667 84.833 -29 143.5l-25 -112c-8 -37.333 -17 -74.666 -27 -111.999zM429 1183v28l258 318h229l250 -318v-28h-159l-203 192h-4l-211 -192h-160z" />
    <glyph glyph-name="Ycircumflex" unicode="&#x176;" horiz-adv-x="1366" 
d="M831 578v-578h-294v578l-502 831h309l338 -596l342 596h309zM316 1530v29l258 276h229l250 -276v-29h-159l-203 151h-4l-211 -151h-160z" />
    <glyph glyph-name="ycircumflex" unicode="&#x177;" horiz-adv-x="1139" 
d="M283 -425c-68.667 0 -127.667 4.33203 -177 12.999v200c37.333 -5.33301 69.666 -8 96.999 -8c65.333 0 114.166 17.667 146.499 53s63.833 94.666 94.5 177.999l-428 1071h297l170 -507c13.333 -36.667 28.333 -82.667 45 -138s35.334 -120.666 56.001 -195.999l44 170
c14 52 29.333 105.333 46 160l160 511h294l-428 -1139c-17.333 -46 -35.666 -86.667 -54.999 -122s-39 -66.666 -59 -93.999c-40.667 -55.333 -85 -94.5 -133 -117.5s-104.667 -34.5 -170 -34.5zM212 1183v28l258 318h229l250 -318v-28h-159l-203 192h-4l-211 -192h-160z
" />
    <glyph glyph-name="Ydieresis" unicode="&#x178;" horiz-adv-x="1366" 
d="M831 578v-578h-294v578l-502 831h309l338 -596l342 596h309zM1004 1749v-219h-197v219h197zM547 1749v-219h-194v219h194z" />
    <glyph glyph-name="Zacute" unicode="&#x179;" horiz-adv-x="1251" 
d="M1192 231v-231h-1131v209l762 969h-686v231h1014v-205l-762 -973h803zM983 1772l-340 -242h-170v31l252 254h258v-43z" />
    <glyph glyph-name="zacute" unicode="&#x17a;" horiz-adv-x="1024" 
d="M950 205v-205h-868v199l509 680h-468v203h778v-201l-506 -676h555zM846 1459l-340 -276h-170v31l252 288h258v-43z" />
    <glyph glyph-name="Zdotaccent" unicode="&#x17b;" horiz-adv-x="1251" 
d="M1192 231v-231h-1131v209l762 969h-686v231h1014v-205l-762 -973h803zM777 1754v-207h-281v207h281z" />
    <glyph glyph-name="zdotaccent" unicode="&#x17c;" horiz-adv-x="1024" 
d="M950 205v-205h-868v199l509 680h-468v203h778v-201l-506 -676h555zM670 1484v-207h-281v207h281z" />
    <glyph glyph-name="Zcaron" unicode="&#x17d;" horiz-adv-x="1251" 
d="M1192 231v-231h-1131v209l762 969h-686v231h1014v-205l-762 -973h803zM1011 1806l-250 -276h-229l-258 276v29h160l211 -152h4l203 152h159v-29z" />
    <glyph glyph-name="zcaron" unicode="&#x17e;" horiz-adv-x="1024" 
d="M950 205v-205h-868v199l509 680h-468v203h778v-201l-506 -676h555zM880 1500l-250 -317h-229l-258 317v29h160l211 -193h4l203 193h159v-29z" />
    <glyph glyph-name="longs" unicode="&#x17f;" horiz-adv-x="569" 
d="M422 1167v-1167h-280v1195c0 98 26 170.667 78 218s131 71 237 71c54.667 0 114 -5.33301 178 -16v-181c-26.667 6 -54 9 -82 9c-48 0 -81.833 -9.5 -101.5 -28.5s-29.5 -52.5 -29.5 -100.5z" />
    <glyph glyph-name="uni0180" unicode="&#x180;" horiz-adv-x="1251" 
d="M1167 525c0 -176 -35.501 -310.833 -106.501 -404.5s-173.833 -140.5 -308.5 -140.5c-77.333 0 -144.166 16.833 -200.499 50.5s-98.833 81.5 -127.5 143.5h-2c0 -15.333 -0.666992 -35.333 -2 -60s-3 -47.834 -5 -69.501s-4.33301 -36.5 -7 -44.5h-273
c2.66699 31.333 4.66699 67.5 6 108.5s2 87.167 2 138.5v928h-133v170h133v139h281v-139h310v-170h-310v-145c0 -29.333 -0.5 -58.666 -1.5 -87.999s-1.83301 -58.666 -2.5 -87.999h4c31.333 69.333 76 121.333 134 156s128.667 52 212 52
c129.333 0 227.833 -45.833 295.5 -137.5s101.5 -224.834 101.5 -399.501zM873.999 525c0 118.667 -17.667 205.334 -53 260.001s-91.333 82 -168 82c-80 0 -138.833 -29.833 -176.5 -89.5s-56.5 -146.834 -56.5 -261.501c0 -111.333 18.5 -196.5 55.5 -255.5
s95.5 -88.5 175.5 -88.5c77.333 0 133.833 28.667 169.5 86s53.5 146.333 53.5 267z" />
    <glyph glyph-name="uni0181" unicode="&#x181;" horiz-adv-x="1713" 
d="M1623 402c0 -128 -48 -227.001 -144 -297.001s-229.333 -105 -400 -105h-705v1195h-28c-44.667 0 -78 -9.16699 -100 -27.5s-33 -45.833 -33 -82.5c0 -35.333 10.333 -80 31 -134l-214 -17c-20 70 -30 137 -30 201c0 84.667 30.5 151.5 91.5 200.5
s141.833 73.5 242.5 73.5h685c348.667 0 523 -118 523 -354c0 -80 -22.167 -147.5 -66.5 -202.5s-111.833 -92.167 -202.5 -111.5c114 -13.333 200.833 -49.166 260.5 -107.499s89.5 -135.5 89.5 -231.5zM1245 1015c0 63.333 -20.332 108.333 -60.999 135
s-100.334 40 -179.001 40h-336v-349h338c83.333 0 143.833 14.5 181.5 43.5s56.5 72.5 56.5 130.5zM1327 424.999c0 132 -94.667 198 -284 198h-374v-404h385c94 0 163 17.167 207 51.5s66 85.833 66 154.5z" />
    <glyph glyph-name="uni0182" unicode="&#x182;" horiz-adv-x="1472" 
d="M1390 431c0 -84.667 -21 -159.5 -63 -224.5s-102 -115.667 -180 -152s-170.667 -54.5 -278 -54.5h-732v1409h1061v-227h-766v-341h469c158 0 279 -35.833 363 -107.5s126 -172.5 126 -302.5zM1091 425c0 62 -23 110.5 -69 145.5s-115 52.5 -207 52.5h-383v-404h389
c90 0 157.5 17.167 202.5 51.5s67.5 85.833 67.5 154.5z" />
    <glyph glyph-name="uni0183" unicode="&#x183;" horiz-adv-x="1251" 
d="M1167 525c0 -172 -36.501 -305.833 -109.501 -401.5s-174.833 -143.5 -305.5 -143.5c-77.333 0 -144.166 16.833 -200.499 50.5s-98.833 81.5 -127.5 143.5h-2c0 -15.333 -0.666992 -35.333 -2 -60s-3 -47.834 -5 -69.501s-4.33301 -36.5 -7 -44.5h-273
c2.66699 31.333 4.66699 67.5 6 108.5s2 87.167 2 138.5v1237h742v-213h-461v-241c0 -29.333 -0.5 -58.666 -1.5 -87.999s-1.83301 -58.666 -2.5 -87.999h4c31.333 69.333 76 121.333 134 156s128.667 52 212 52c125.333 0 222.833 -46.833 292.5 -140.5
s104.5 -225.834 104.5 -396.501zM873.999 525c0 114 -18.501 199.499 -55.501 256.499s-92.167 85.5 -165.5 85.5c-74 0 -131.333 -30.167 -172 -90.5s-61 -147.166 -61 -260.499c0 -108.667 19.833 -193.167 59.5 -253.5s96.834 -90.5 171.501 -90.5s130.5 29.5 167.5 88.5
s55.5 147.167 55.5 264.5z" />
    <glyph glyph-name="uni0184" unicode="&#x184;" horiz-adv-x="1472" 
d="M1390 431c0 -85.333 -20.334 -160.333 -61.001 -225s-100.667 -115.167 -180 -151.5s-172.666 -54.5 -279.999 -54.5h-732v1003l-137 143v36l357 227h75v-568h469c158 0 279 -35.833 363 -107.5s126 -172.5 126 -302.5zM1091 425c0 62 -23 110.5 -69 145.5
s-115 52.5 -207 52.5h-383v-404h389c90 0 157.5 17.167 202.5 51.5s67.5 85.833 67.5 154.5z" />
    <glyph glyph-name="uni0185" unicode="&#x185;" horiz-adv-x="1251" 
d="M1167 545c0 -178.667 -35.834 -317.501 -107.501 -416.501s-174.167 -148.5 -307.5 -148.5c-77.333 0 -144.166 16.833 -200.499 50.5s-98.833 81.5 -127.5 143.5h-2c0 -15.333 -0.666992 -35.333 -2 -60s-3 -47.834 -5 -69.501s-4.33301 -36.5 -7 -44.5h-273
c2.66699 31.333 4.66699 67.5 6 108.5s2 87.167 2 138.5v850l-143 143v36l349 208h75v-414c0 -29.333 -0.333008 -58.666 -1 -87.999s-1.66699 -58.666 -3 -87.999h4c31.333 69.333 76 121.333 134 156s128.667 52 212 52c128 0 226.167 -48.5 294.5 -145.5
s102.5 -234.167 102.5 -411.5zM873.999 544.999c0 122.667 -18 213.667 -54 273s-91.667 89 -167 89c-76 0 -133.833 -31.833 -173.5 -95.5s-59.5 -155.5 -59.5 -275.5c0 -114.667 19.5 -204 58.5 -268s96.5 -96 172.5 -96c74.667 0 130.5 31 167.5 93
s55.5 155.333 55.5 280z" />
    <glyph glyph-name="uni0186" unicode="&#x186;" horiz-adv-x="1479" 
d="M691 212c133.333 0 234.502 41.3359 303.502 124.003s103.5 203.667 103.5 363c0 108 -15.833 199.167 -47.5 273.5s-78.334 130.5 -140.001 168.5s-137.167 57 -226.5 57c-178.667 0 -302.334 -89.333 -371.001 -268l-257 97c55.333 136 136.5 237.167 243.5 303.5
s235.167 99.5 384.5 99.5c151.333 0 279.833 -28.833 385.5 -86.5s186.334 -141 242.001 -250s83.5 -240.5 83.5 -394.5c0 -154.667 -26.667 -285.334 -80 -392.001s-131.833 -187.834 -235.5 -243.501s-231.167 -83.5 -382.5 -83.5c-165.333 0 -300 33.167 -404 99.5
s-177 163.833 -219 292.5l260 71c22 -70.667 65.167 -126.834 129.5 -168.501s140.166 -62.5 227.499 -62.5z" />
    <glyph glyph-name="uni0187" unicode="&#x187;" horiz-adv-x="1479" 
d="M1145 967c-22 70.667 -65.1699 126.832 -129.503 168.499s-140.166 62.5 -227.499 62.5c-133.333 0 -234.5 -41.333 -303.5 -124s-103.5 -203.667 -103.5 -363c0 -108 15.833 -199 47.5 -273s78.334 -130.167 140.001 -168.5s137.167 -57.5 226.5 -57.5
c84.667 0 158 21 220 63s112.333 110.333 151 205l257 -97c-54 -134.667 -134.667 -235.5 -242 -302.5s-236 -100.5 -386 -100.5c-150.667 0 -279 28.833 -385 86.5s-186.833 141.167 -242.5 250.5s-83.5 240.666 -83.5 393.999c0 154.667 26.667 285.334 80 392.001
s132 187.834 236 243.501s231.333 83.5 382 83.5c141.333 0 260.333 -24.333 357 -73v60c0 94.667 27.667 166.667 83 216s132.333 74 231 74c48.667 0 99.334 -5.66699 152.001 -17v-204c-38.667 8 -68 12 -88 12c-39.333 0 -67.833 -11.5 -85.5 -34.5
s-26.5 -58.5 -26.5 -106.5v-319z" />
    <glyph glyph-name="uni0188" unicode="&#x188;" horiz-adv-x="1139" 
d="M788 727c-8 55.333 -28.001 99.4971 -60.001 132.497s-77.333 49.5 -136 49.5c-72.667 0 -127 -30.167 -163 -90.5s-54 -151.166 -54 -272.499c0 -124.667 18.5 -218.167 55.5 -280.5s92.167 -93.5 165.5 -93.5c53.333 0 98 16.833 134 50.5s58.333 83.834 67 150.501
l282 -13c-10 -74 -36.333 -139.5 -79 -196.5s-98.667 -101.833 -168 -134.5s-148.666 -49 -237.999 -49c-164 0 -290.667 48.833 -380 146.5s-134 233.834 -134 408.501c0 178.667 45 317.834 135 417.501s217.667 149.5 383 149.5c76.667 0 148 -12.667 214 -38
c5.33301 87.333 34.166 153.166 86.499 197.499s125.833 66.5 220.5 66.5c48.667 0 99.334 -5.66699 152.001 -17v-201c-38.667 8 -68 12 -88 12c-39.333 0 -67.833 -11.5 -85.5 -34.5s-26.5 -58.5 -26.5 -106.5v-240z" />
    <glyph glyph-name="uni0189" unicode="&#x189;" horiz-adv-x="1479" 
d="M1393 715c0 -150 -29.167 -278.332 -87.5 -384.999s-139 -188.334 -242 -245.001s-221.833 -85 -356.5 -85h-570v594h-129v219h129v596h510c237.333 0 421 -59.833 551 -179.5s195 -291.167 195 -514.5zM1096 715.001c0 150 -39.001 264.667 -117.001 344
s-190.667 119 -338 119h-209v-365h356v-219h-356v-363h250c85.333 0 158.833 19.5 220.5 58.5s109.334 94.667 143.001 167s50.5 158.5 50.5 258.5z" />
    <glyph glyph-name="uni018A" unicode="&#x18a;" horiz-adv-x="1715" 
d="M1630 715c0 -146 -28.3311 -272.667 -84.998 -380c-56.667 -108.667 -137.334 -191.667 -242.001 -249s-224.334 -86 -359.001 -86h-570v1195h-28c-44.667 0 -78 -9.16699 -100 -27.5s-33 -45.833 -33 -82.5c0 -35.333 10.333 -80 31 -134l-214 -17
c-20 70 -30 137 -30 201c0 84.667 30.5 151.5 91.5 200.5s141.833 73.5 242.5 73.5h550c237.333 0 421 -60.167 551 -180.5s195 -291.5 195 -513.5zM1333 715c0 151.333 -39.334 266.832 -118.001 346.499s-191 119.5 -337 119.5h-209v-953h250
c84.667 0 157.834 19.833 219.501 59.5s109.5 95.834 143.5 168.501s51 159 51 259z" />
    <glyph glyph-name="uni018B" unicode="&#x18b;" horiz-adv-x="1472" 
d="M88 431c0 130 42.168 230.833 126.501 302.5s205.166 107.5 362.499 107.5h469v341h-766v227h1061v-1409h-732c-159.333 0 -286 38.667 -380 116s-141 182.333 -141 315zM387.001 425c0 -68.667 22.5 -120.167 67.5 -154.5s112.5 -51.5 202.5 -51.5h389v404h-383
c-92 0 -161 -17.5 -207 -52.5s-69 -83.5 -69 -145.5z" />
    <glyph glyph-name="uni018C" unicode="&#x18c;" horiz-adv-x="1251" 
d="M84 525c0 170 34.834 302.001 104.501 396.001s167.167 141 292.5 141c83.333 0 154 -17.333 212 -52s102.667 -86.667 134 -156h4c-0.666992 29.333 -1.5 58.666 -2.5 87.999s-1.5 58.666 -1.5 87.999v241h-461v213h742v-1237c0 -51.333 0.666992 -97.5 2 -138.5
s3.33301 -77.167 6 -108.5h-273c-2 7.33301 -4.16699 21.833 -6.5 43.5s-4.16602 44.834 -5.49902 69.501s-2 45 -2 61h-2c-30.667 -63.333 -73.834 -111.5 -129.501 -144.5s-121.834 -49.5 -198.501 -49.5c-130 0 -231.667 47.833 -305 143.5s-110 229.5 -110 401.5z
M377.001 525.001c0 -117.333 18.499 -205.501 55.499 -264.501s92.833 -88.5 167.5 -88.5s131.834 30.333 171.501 91s59.5 145 59.5 253c0 112.667 -20.167 199.334 -60.5 260.001s-97.833 91 -172.5 91c-73.333 0 -128.5 -28.5 -165.5 -85.5s-55.5 -142.5 -55.5 -256.5z
" />
    <glyph glyph-name="uni018D" unicode="&#x18d;" horiz-adv-x="1242" 
d="M1171 552c0 -148 -37.168 -269.667 -111.501 -365s-180.166 -154.666 -317.499 -177.999l347 -253v-180h-923v203h537l-415 299c-64 46 -114.667 108.333 -152 187s-56 174.334 -56 287.001c0 111.333 22 208.166 66 290.499s106.833 146.166 188.5 191.499
s179.167 68 292.5 68c176 0 310.667 -47.167 404 -141.5s140 -230.5 140 -408.5zM876.999 552c0 119.333 -20.499 208.665 -61.499 267.998s-102.5 89 -184.5 89c-85.333 0 -149.333 -29.667 -192 -89s-64 -148.666 -64 -267.999c0 -117.333 21.167 -206.666 63.5 -267.999
s102.166 -92 179.499 -92c86.667 0 151.5 30 194.5 90s64.5 150 64.5 270z" />
    <glyph glyph-name="uni018E" unicode="&#x18e;" horiz-adv-x="1366" 
d="M1229 1409v-1409h-1149v228h854v371h-752v228h752v354h-813v228h1108z" />
    <glyph glyph-name="uni018F" unicode="&#x18f;" horiz-adv-x="1487" 
d="M1091 848c-12.667 112 -48.334 199.499 -107.001 262.499s-139.334 94.5 -242.001 94.5c-81.333 0 -147.166 -17 -197.499 -51s-90.166 -86.333 -119.499 -157l-264 73c43.333 120 113.5 210 210.5 270s220.833 90 371.5 90c158 0 290.333 -37.667 397 -113
c84.667 -59.333 149.667 -140.333 195 -243s68 -223.667 68 -363c0 -147.333 -26.667 -276.333 -80 -387s-130 -195.667 -230 -255s-217.333 -89 -352 -89c-136.667 0 -254.334 29.333 -353.001 88c-98 58 -173.167 142.167 -225.5 252.5s-78.5 240.5 -78.5 390.5
c0 25.333 0.833008 49.333 2.5 72s3.83398 44.334 6.50098 65.001h998zM741 205.999c107.333 0 191.333 34.833 252 104.5s95 170.5 103 302.5h-710c8 -130 43.333 -230.333 106 -301s145.667 -106 249 -106z" />
    <glyph glyph-name="uni018F" unicode="&#x4d8;" horiz-adv-x="1487" 
d="M1091 848c-12.667 112 -48.334 199.499 -107.001 262.499s-139.334 94.5 -242.001 94.5c-81.333 0 -147.166 -17 -197.499 -51s-90.166 -86.333 -119.499 -157l-264 73c43.333 120 113.5 210 210.5 270s220.833 90 371.5 90c158 0 290.333 -37.667 397 -113
c84.667 -59.333 149.667 -140.333 195 -243s68 -223.667 68 -363c0 -147.333 -26.667 -276.333 -80 -387s-130 -195.667 -230 -255s-217.333 -89 -352 -89c-136.667 0 -254.334 29.333 -353.001 88c-98 58 -173.167 142.167 -225.5 252.5s-78.5 240.5 -78.5 390.5
c0 25.333 0.833008 49.333 2.5 72s3.83398 44.334 6.50098 65.001h998zM741 205.999c107.333 0 191.333 34.833 252 104.5s95 170.5 103 302.5h-710c8 -130 43.333 -230.333 106 -301s145.667 -106 249 -106z" />
    <glyph glyph-name="uni0190" unicode="&#x190;" horiz-adv-x="1283" 
d="M635 -20c-112.667 0 -209.498 17.002 -290.498 51.002s-143 82.5 -186 145.5s-64.5 137.5 -64.5 223.5c0 88 28 160.667 84 218s133.333 93.333 232 108c-186.667 46.667 -280 154.667 -280 324c0 74.667 21.167 140.5 63.5 197.5s101.833 101.5 178.5 133.5
s166.334 48 269.001 48c145.333 0 263.666 -32 354.999 -96s159.666 -163 204.999 -297l-268 -61c-24.667 79.333 -60.834 138.666 -108.501 177.999s-107.167 59 -178.5 59c-72 0 -128.5 -16 -169.5 -48s-61.5 -78.333 -61.5 -139c0 -130.667 98.333 -196 295 -196h59v-227
h-59c-112.667 0 -195.5 -14.833 -248.5 -44.5s-79.5 -78.167 -79.5 -145.5c0 -64.667 22.333 -114.834 67 -150.501s110 -53.5 196 -53.5c158 0 267.333 84.333 328 253l264 -93c-45.333 -131.333 -117.5 -228.833 -216.5 -292.5s-227.5 -95.5 -385.5 -95.5z" />
    <glyph glyph-name="uni0191" unicode="&#x191;" horiz-adv-x="1251" 
d="M432 -32c0 -130.667 -28.5 -228.834 -85.5 -294.501s-142.833 -98.5 -257.5 -98.5c-47.333 0 -102.333 6.66699 -165 20v220c43.333 -8.66699 75 -13 95 -13c43.333 0 73.833 12.833 91.5 38.5s26.5 64.834 26.5 117.501v1451h1039v-228h-744v-436h721v-228h-721v-549z
" />
    <glyph glyph-name="florin" unicode="&#x192;" horiz-adv-x="1139" 
d="M885 1277c-14.667 4.66699 -32.668 8.66797 -54.001 12.001s-38.666 5 -51.999 5c-37.333 0 -64.5 -9 -81.5 -27s-25.5 -51.333 -25.5 -100v-85h213v-190h-213v-1317h-280v1317h-158v190h158v113c0 100 25.5 173.167 76.5 219.5s128.833 69.5 233.5 69.5
c33.333 0 66.5 -2.33301 99.5 -7s60.833 -11.334 83.5 -20.001v-180z" />
    <glyph glyph-name="uni0193" unicode="&#x193;" horiz-adv-x="1593" 
d="M1164 981c-29.333 71.333 -75.334 125.333 -138.001 162s-136.334 55 -221.001 55c-138.667 0 -244 -42 -316 -126s-108 -204.333 -108 -361c0 -159.333 37.167 -282.5 111.5 -369.5s178.833 -130.5 313.5 -130.5c76.667 0 151 11.167 223 33.5s127.667 50.833 167 85.5
v195h-344v218h614v-518c-74.667 -76.667 -171.834 -136.667 -291.501 -180s-245.167 -65 -376.5 -65c-152.667 0 -282.167 28.5 -388.5 85.5s-187.166 140 -242.499 249s-83 241.167 -83 396.5c0 232 62 409.833 186 533.5s302.333 185.5 535 185.5
c144.667 0 266.334 -24 365.001 -72v59c0 94.667 27.667 166.667 83 216s132.333 74 231 74c48.667 0 99.334 -5.66699 152.001 -17v-204c-38.667 8 -68 12 -88 12c-39.333 0 -67.833 -11.5 -85.5 -34.5s-26.5 -58.5 -26.5 -106.5v-294z" />
    <glyph glyph-name="uni0194" unicode="&#x194;" horiz-adv-x="1304" 
d="M14 1409l308 -0.000976562l334 -866l331 866h305l-488 -1139c34 -61.333 62.333 -115 85 -161s39.334 -83.667 50.001 -113c21.333 -60 32 -109 32 -147c0 -88.667 -27.5 -156.5 -82.5 -203.5s-132.5 -70.5 -232.5 -70.5c-98.667 0 -175.667 24.167 -231 72.5
s-83 115.833 -83 202.5c0 42 10 91 30 147c9.33301 28 25.166 64.833 47.499 110.5s50.833 99.834 85.5 162.501zM734 -121.001c0 24.667 -5.66895 54.668 -17.002 90.001s-31.666 77.333 -60.999 126c-24.667 -42.667 -43.667 -82.334 -57 -119.001s-20 -68.667 -20 -96
c0 -32 7.16699 -55.5 21.5 -70.5s32.833 -22.5 55.5 -22.5s41.334 7.33301 56.001 22s22 38 22 70z" />
    <glyph glyph-name="uni0195" unicode="&#x195;" horiz-adv-x="1906" 
d="M1314 -20c-160 0 -278.333 38.832 -355 116.499s-115 197.5 -115 359.5v150c0 95.333 -16 166.666 -48 213.999s-80.333 71 -145 71c-68 0 -122.833 -29.167 -164.5 -87.5s-62.5 -133.166 -62.5 -224.499v-579h-281v1484h281v-405c0 -24 -0.333008 -48 -1 -72
s-1.5 -47.667 -2.5 -71s-2.5 -46.666 -4.5 -69.999h4c38 82.667 85.667 142.667 143 180s125.666 56 204.999 56c114.667 0 202.667 -35.333 264 -106s92 -174 92 -310v-238c0 -88 15.833 -152.833 47.5 -194.5s79.167 -62.5 142.5 -62.5s111 21.5 143 64.5
s48 107.167 48 192.5v634h280v-626c0 -158.667 -39.167 -277.667 -117.5 -357s-196.166 -119 -353.499 -119z" />
    <glyph glyph-name="uni0196" unicode="&#x196;" horiz-adv-x="569" 
d="M199 0c-19.333 20.667 -34.5 53.3311 -45.5 97.998s-16.5 90.667 -16.5 138v1248h282v-1257c0 -43.333 7.33301 -85.666 22 -126.999s34 -74.666 58 -99.999h-300z" />
    <glyph glyph-name="uni0197" unicode="&#x197;" horiz-adv-x="569" 
d="M143 0v599h-133v228h133v657h281v-657h135v-228h-135v-599h-281z" />
    <glyph glyph-name="uni0198" unicode="&#x198;" horiz-adv-x="1479" 
d="M432 514v-514h-295v1409h295v-639l463 470c44 44 84.5 80 121.5 108s74.833 48.667 113.5 62s81.667 20 129 20c28.667 0 54.834 -2 78.501 -6s45.5 -8.66699 65.5 -14v-220c-17.333 3.33301 -34.333 6.33301 -51 9s-32.334 4 -47.001 4
c-34 0 -66.667 -7.16699 -98 -21.5s-64.333 -38.5 -99 -72.5l-299 -296l651 -813h-348l-506 647z" />
    <glyph glyph-name="uni0199" unicode="&#x199;" horiz-adv-x="1139" 
d="M834 0l-289.001 490.001l-121 -84v-406h-281v1203c0 92 29.167 163.333 87.5 214s138.833 76 241.5 76c62.667 0 123.334 -5.66699 182.001 -17v-201c-12 3.33301 -30.5 6.16602 -55.5 8.49902s-44.5 3.5 -58.5 3.5c-77.333 0 -116 -47 -116 -141v-512l386 448h302
l-380 -422l409 -660h-307z" />
    <glyph glyph-name="uni019A" unicode="&#x19a;" horiz-adv-x="569" 
d="M143 0v639h-123v187h123v658h281v-658h125v-187h-125v-639h-281z" />
    <glyph glyph-name="uni019B" unicode="&#x19b;" horiz-adv-x="1139" 
d="M54 1159l284 121l-82 204h298l37 -96l181 78l74 -173l-187 -80l469 -1213h-294l-265 797l-256 -797h-297l408 1071l-15 35l-281 -120z" />
    <glyph glyph-name="uni019C" unicode="&#x19c;" horiz-adv-x="2031" 
d="M1163 1409v-933.001c0 -98.667 16.333 -170.834 49 -216.501s82.667 -68.5 150 -68.5c73.333 0 131.166 29.167 173.499 87.5s63.5 133.166 63.5 224.499v906h295v-1409h-288l-12 169h-4c-38 -67.333 -86.667 -115.666 -146 -144.999s-126.333 -44 -201 -44
c-168.667 0 -280 67 -334 201c-47.333 -73.333 -101.666 -125.166 -162.999 -155.499s-138 -45.5 -230 -45.5c-120.667 0 -214 35.833 -280 107.5s-99 174.5 -99 308.5v1013h295v-933c0 -99.333 16.667 -171.666 50 -216.999s83.333 -68 150 -68
c70.667 0 127.667 27.667 171 83s65 127.333 65 216v919h295z" />
    <glyph glyph-name="uni019D" unicode="&#x19d;" horiz-adv-x="1479" 
d="M399 -52c0 -132.667 -23.833 -228.001 -71.5 -286.001s-127.167 -87 -238.5 -87c-47.333 0 -102.333 6.66699 -165 20v230c43.333 -8.66699 75 -13 95 -13c43.333 0 73.833 12.833 91.5 38.5s26.5 64.834 26.5 117.501v1441h337l623 -1094c-12 101.333 -18 193 -18 275
v819h262v-1409h-346l-614 1085c6 -52.667 10.5 -100.167 13.5 -142.5s4.5 -79.5 4.5 -111.5v-883z" />
    <glyph glyph-name="uni019E" unicode="&#x19e;" horiz-adv-x="1251" 
d="M1124 687l0.000976562 -1111h-280v1031c0 95.333 -16 166.666 -48 213.999s-80.333 71 -145 71c-68 0 -122.833 -29.167 -164.5 -87.5s-62.5 -133.166 -62.5 -224.499v-580h-281v840c0 46 -0.666992 89.167 -2 129.5s-3.33301 77.833 -6 112.5h268
c1.33301 -8 3 -26.833 5 -56.5s3.83301 -60 5.5 -91s2.5 -53.5 2.5 -67.5h4c38 82.667 85.667 142.667 143 180s125.666 56 204.999 56c114.667 0 202.667 -35.333 264 -106s92 -174 92 -310z" />
    <glyph glyph-name="uni019F" unicode="&#x19f;" horiz-adv-x="1593" 
d="M1507 711c0 -146.667 -28.9971 -275.667 -86.9971 -387s-141 -196.5 -249 -255.5s-234 -88.5 -378 -88.5c-145.333 0 -272 29.333 -380 88c-104.667 58 -185.667 141.833 -243 251.5s-86 240.167 -86 391.5c0 150.667 28.167 279.667 84.5 387
s137.666 189.5 243.999 246.5s233.833 85.5 382.5 85.5c147.333 0 274.666 -28.667 381.999 -86c107.333 -58 189.166 -141.5 245.499 -250.5s84.5 -236.5 84.5 -382.5zM795.003 1198c-110.667 0 -201.001 -30.833 -271.001 -92.5s-114 -149.167 -132 -262.5h802
c-18 110.667 -61.667 197.5 -131 260.5s-158.666 94.5 -267.999 94.5zM793.002 212c116.667 0 210.168 34.833 280.501 104.5s112.166 167.5 125.499 293.5h-812c14 -122 56.833 -218.833 128.5 -290.5s164.167 -107.5 277.5 -107.5z" />
    <glyph glyph-name="Ohorn" unicode="&#x1a0;" horiz-adv-x="1747" 
d="M1507 711c0 -146.667 -28.998 -275.669 -86.998 -387.002s-141 -196.5 -249 -255.5s-234 -88.5 -378 -88.5c-147.333 0 -274 29.5 -380 88.5s-187.333 143.167 -244 252.5s-85 239.333 -85 390s28.167 279.667 84.5 387s137.666 189.5 243.999 246.5
s233.833 85.5 382.5 85.5c182 0 333 -43.667 453 -131s198.333 -211.333 235 -372c41.333 21.333 72.166 50.5 92.499 87.5s30.5 81.833 30.5 134.5h-125v260h263v-210c0 -106.667 -20 -194 -60 -262s-100.333 -116.667 -181 -146c0.666992 -13.333 1.5 -26.666 2.5 -39.999
s1.5 -26.666 1.5 -39.999zM1206 710.998c0 152 -36.001 271.168 -108.001 357.501s-173 129.5 -303 129.5c-132 0 -234 -42.833 -306 -128.5s-108 -205.167 -108 -358.5c0 -102.667 16.667 -191.334 50 -266.001s80.833 -132.167 142.5 -172.5s134.834 -60.5 219.501 -60.5
c132 0 233.833 43.333 305.5 130s107.5 209.667 107.5 369z" />
    <glyph glyph-name="ohorn" unicode="&#x1a1;" horiz-adv-x="1456" 
d="M1166 454c-10 -100 -38.332 -185.333 -84.999 -256s-109 -124.667 -187 -162s-169 -56 -273 -56c-168.667 0 -301 50 -397 150s-144 237.333 -144 412c0 174 48 310.833 144 410.5s230.333 149.5 403 149.5c170 0 301.167 -44.167 393.5 -132.5
s142.166 -215.833 149.499 -382.5c98.667 36.667 148 115 148 235h-125v260h263v-210c0 -114 -23.333 -205.833 -70 -275.5s-120 -117.167 -220 -142.5zM877.001 542c0 128.667 -21.001 222 -63.001 280s-103 87 -183 87c-85.333 0 -149.333 -30.5 -192 -91.5
s-64 -152.833 -64 -275.5c0 -120.667 20.833 -212.5 62.5 -275.5s101.834 -94.5 180.501 -94.5c88 0 153.167 30.5 195.5 91.5s63.5 153.833 63.5 278.5z" />
    <glyph glyph-name="uni01A2" unicode="&#x1a2;" horiz-adv-x="1816" 
d="M1384 -425l0.00195312 1606h-192v-1098c-46.667 -29.333 -108.834 -53.833 -186.501 -73.5s-153.834 -29.5 -228.501 -29.5c-148 0 -273.667 28.833 -377 86.5s-181.833 140.834 -235.5 249.501s-80.5 240.334 -80.5 395.001s26.667 285.334 80 392.001
s132 187.834 236 243.501s231.333 83.5 382 83.5c131.333 0 253 -27.667 365 -83l446 78h73v-1850h-282zM910.002 1188c-40 10 -80.668 15 -122.001 15c-132.667 0 -233.667 -42 -303 -126s-104 -206 -104 -366c0 -108 15.833 -199.5 47.5 -274.5s78.334 -132 140.001 -171
s137.167 -58.5 226.5 -58.5c40.667 0 79 4.66699 115 14v967z" />
    <glyph glyph-name="uni01A3" unicode="&#x1a3;" horiz-adv-x="1523" 
d="M1379 1102l0.00195312 -1527h-253v1302h-168v-810c-42.667 -28 -94.334 -49.5 -155.001 -64.5s-124.667 -22.5 -192 -22.5c-166 0 -296 49.5 -390 148.5s-141 236.833 -141 413.5c0 176 46.5 313.333 139.5 412s225.5 148 397.5 148
c63.333 0 122.166 -7.33301 176.499 -22s104.833 -36.667 151.5 -66l357 88h77zM700.002 184v715c-22 6.66699 -47.333 10 -76 10c-86 0 -148.833 -29.667 -188.5 -89s-59.5 -152 -59.5 -278c0 -121.333 19.833 -213.333 59.5 -276s98.167 -94 175.5 -94
c31.333 0 61 4 89 12z" />
    <glyph glyph-name="uni01A4" unicode="&#x1a4;" horiz-adv-x="1601" 
d="M1007 1409c168.667 0 298.5 -38.833 389.5 -116.5s136.5 -187.5 136.5 -329.5c0 -92 -21 -173 -63 -243s-101.333 -124.833 -178 -164.5s-167.667 -59.5 -273 -59.5h-350v-496h-295v1195h-28c-44.667 0 -78 -9.16699 -100 -27.5s-33 -45.833 -33 -82.5
c0 -35.333 10.333 -80 31 -134l-214 -17c-20 70 -30 137 -30 201c0 84.667 30.5 151.5 91.5 200.5s141.833 73.5 242.5 73.5h673zM1236 958c0 148 -87.333 222 -262 222h-305v-457h313c81.333 0 144 20.167 188 60.5s66 98.5 66 174.5z" />
    <glyph glyph-name="uni01A5" unicode="&#x1a5;" horiz-adv-x="1251" 
d="M1167 546c0 -180.667 -36.168 -320.166 -108.501 -418.499s-174.5 -147.5 -306.5 -147.5c-77.333 0 -144.5 17 -201.5 51s-99.167 81 -126.5 141h-6c4 -20 6 -80.667 6 -182v-415h-281v1628c0 91.333 29.167 162.5 87.5 213.5s139.5 76.5 243.5 76.5
c32.667 0 69.334 -2 110.001 -6s68.667 -7.66699 84 -11v-211c-12 3.33301 -30.5 6.16602 -55.5 8.49902s-44.5 3.5 -58.5 3.5c-89.333 0 -134 -44.333 -134 -133v-241h4c31.333 66.667 76 116.5 134 149.5s128.667 49.5 212 49.5c125.333 0 222.833 -48.167 292.5 -144.5
s104.5 -233.5 104.5 -411.5zM873.999 546.001c0 121.333 -18.498 212.333 -55.498 273s-92.833 91 -167.5 91s-131.834 -32.667 -171.501 -98s-59.5 -156.666 -59.5 -273.999c0 -116.667 19.667 -206.834 59 -270.501s96 -95.5 170 -95.5
c75.333 0 131.666 31.167 168.999 93.5s56 155.833 56 280.5z" />
    <glyph glyph-name="uni01A6" unicode="&#x1a6;" horiz-adv-x="1366" 
d="M958 416l381 -745.999h-319l-330 689h-258v-359h-295v1409h295v-176h311c168 0 297.667 -36.167 389 -108.5s137 -176.166 137 -311.499c0 -98.667 -28 -183.834 -84 -255.501s-131.667 -118.834 -227 -141.501zM972 801.001c0 67.333 -21.668 118.001 -65.001 152.001
s-108.333 51 -195 51h-280v-416h288c82.667 0 145.334 18.667 188.001 56s64 89.666 64 156.999z" />
    <glyph glyph-name="uni01A7" unicode="&#x1a7;" horiz-adv-x="1366" 
d="M80 406c0 82 15.498 148.165 46.498 198.498s71.833 90.5 122.5 120.5c51.333 30 108.5 53.333 171.5 70s127.5 32.334 193.5 47.001c115.333 24.667 191 45 227 61c37.333 16 65.5 35.833 84.5 59.5s28.5 53.834 28.5 90.501c0 112 -89.333 168 -268 168
c-84 0 -148.5 -15.333 -193.5 -46s-74.833 -76.334 -89.5 -137.001l-286 39c25.333 125.333 82.5 215.5 171.5 270.5s221.833 82.5 398.5 82.5c180.667 0 318.167 -33.333 412.5 -100s141.5 -164.667 141.5 -294c0 -52 -6.66699 -97.167 -20 -135.5s-32 -71.5 -56 -99.5
c-24 -28.667 -52.833 -53.167 -86.5 -73.5s-71.834 -38.166 -114.501 -53.499c-21.333 -7.33301 -49.833 -16 -85.5 -26s-78.5 -20.667 -128.5 -32l-71.5 -16.5l-71.5 -16.5c-81.333 -18.667 -141.666 -43.667 -180.999 -75s-59 -71 -59 -119c0 -125.333 103 -188 309 -188
c66.667 0 123.334 7.33301 170.001 22s84.5 37.667 113.5 69s49.833 72 62.5 122l285 -47c-28.667 -128.667 -95.667 -225.334 -201 -290.001s-248.666 -97 -429.999 -97c-196.667 0 -345.167 36.333 -445.5 109s-150.5 178.334 -150.5 317.001z" />
    <glyph glyph-name="uni01A8" unicode="&#x1a8;" horiz-adv-x="1139" 
d="M84 316c0 66.667 14.8311 121.833 44.498 165.5s72.834 79.5 129.501 107.5c28.667 14 71.334 29 128.001 45s127.667 32.667 213 50c60.667 12 103.667 27.333 129 46s38 43.667 38 75c0 40 -16.667 68.5 -50 85.5s-83.333 25.5 -150 25.5c-68 0 -117.667 -11 -149 -33
s-51 -54.667 -59 -98l-249 26c19.333 94 68.833 166.167 148.5 216.5s184.5 75.5 314.5 75.5c144.667 0 256.167 -28.5 334.5 -85.5s117.5 -137.833 117.5 -242.5c0 -64 -15 -117.667 -45 -161s-74 -78.333 -132 -105c-19.333 -8.66699 -43.833 -17.667 -73.5 -27
s-64.334 -18.833 -104.001 -28.5s-84.834 -19.5 -135.501 -29.5c-70 -14 -119.5 -31.167 -148.5 -51.5s-43.5 -47.833 -43.5 -82.5c0 -43.333 18.167 -74.833 54.5 -94.5s93.5 -29.5 171.5 -29.5c84.667 0 144.334 10.5 179.001 31.5s59 57.5 73 109.5l247 -37
c-25.333 -98.667 -78 -171.667 -158 -219s-195 -71 -345 -71c-149.333 0 -266.666 29.5 -351.999 88.5s-128 141.5 -128 247.5z" />
    <glyph glyph-name="uni01A9" unicode="&#x1a9;" horiz-adv-x="1229" 
d="M1167 228v-228h-1077v234l448 507l-431 435v233h999v-228h-697l371 -373v-134l-394 -446h781z" />
    <glyph glyph-name="uni01AA" unicode="&#x1aa;" horiz-adv-x="737" 
d="M24 1286c0 62.667 21 112.335 63 149.002s98.667 55 170 55c111.333 0 194.833 -32.333 250.5 -97s83.5 -160.334 83.5 -287.001v-1174c0 -94 39.667 -141 119 -141c12.667 0 31.834 1.16699 57.501 3.5s44.5 5.16602 56.5 8.49902v-211
c-46.667 -11.333 -107.334 -17 -182.001 -17c-109.333 0 -191.5 27.5 -246.5 82.5s-82.5 137.167 -82.5 246.5v1201c-14.667 -7.33301 -30 -12.833 -46 -16.5s-32.667 -5.5 -50 -5.5c-59.333 0 -106.333 18.667 -141 56s-52 86.333 -52 147zM144 1286
c0 -26.667 8.5 -47.834 25.5 -63.501s37.5 -23.5 61.5 -23.5s44.333 7.83301 61 23.5s25 36.834 25 63.501s-8.33301 47.834 -25 63.501s-37 23.5 -61 23.5s-44.5 -7.83301 -61.5 -23.5s-25.5 -36.834 -25.5 -63.501z" />
    <glyph glyph-name="uni01AB" unicode="&#x1ab;" horiz-adv-x="682" 
d="M657 -122c0 -95.333 -25.332 -169.667 -75.999 -223s-128 -80 -232 -80c-48.667 0 -104.334 6.66699 -167.001 20v201c48 -10 84.667 -15 110 -15c78.667 0 118 47 118 141v60c-79.333 2 -140.5 25.5 -183.5 70.5s-64.5 112.167 -64.5 201.5v638h-137v190h151l88 254h176
v-254h205v-190h-205v-562c0 -52.667 10 -91.5 30 -116.5s51 -37.5 93 -37.5c20 0 51.333 4.66699 94 14v-312z" />
    <glyph glyph-name="uni01AC" unicode="&#x1ac;" horiz-adv-x="1251" 
d="M773 1181l-0.000976562 -1181h-295v1181h-132c-44.667 0 -78 -8 -100 -24s-33 -40 -33 -72c0 -35.333 10.333 -80 31 -134l-214 -17c-20 70 -30 137 -30 201c0 84 27.833 150.667 83.5 200s132.834 74 231.501 74h914v-228h-456z" />
    <glyph glyph-name="uni01AD" unicode="&#x1ad;" horiz-adv-x="682" 
d="M657 16c-68 -22.667 -147 -34 -237 -34c-82.667 0 -146.334 22.5 -191.001 67.5s-67 113.167 -67 204.5v638h-137v190h134v121c0 92 29.167 163.333 87.5 214s138.833 76 241.5 76c62.667 0 123.334 -5.66699 182.001 -17v-201c-12 3.33301 -30.5 6.16602 -55.5 8.49902
s-44.5 3.5 -58.5 3.5c-40.667 0 -70.167 -11.667 -88.5 -35s-27.5 -58.666 -27.5 -105.999v-64h205v-190h-205v-562c0 -52.667 10 -91.5 30 -116.5s51 -37.5 93 -37.5c20 0 51.333 4.66699 94 14v-174z" />
    <glyph glyph-name="uni01AE" unicode="&#x1ae;" horiz-adv-x="1251" 
d="M986 -405c-62.667 -13.333 -117.667 -19.999 -165 -19.999c-115.333 0 -201.333 31.333 -258 94s-85 161 -85 295v1217h-455v228h1206v-228h-456v-1223c0 -52.667 9 -91.834 27 -117.501s48.333 -38.5 91 -38.5c20 0 51.667 4.33301 95 13v-220z" />
    <glyph glyph-name="Uhorn" unicode="&#x1af;" horiz-adv-x="1699" 
d="M715 -20c-128 0 -236 20.8311 -324 62.498s-154.667 103.334 -200 185.001s-68 181.834 -68 300.501v881h295v-858c0 -113.333 25.5 -198.333 76.5 -255s127.167 -85 228.5 -85c104.667 0 184.334 30.167 239.001 90.5s82 146.833 82 259.5v848h295v-512
c71.333 9.33301 126.166 35.833 164.499 79.5s57.5 101.167 57.5 172.5h-125v260h263v-210c0 -125.333 -28.667 -224.833 -86 -298.5s-148.666 -120.167 -273.999 -139.5v-218c0 -119.333 -24.5 -221 -73.5 -305s-119.833 -148 -212.5 -192s-205.334 -66 -338.001 -66z" />
    <glyph glyph-name="uhorn" unicode="&#x1b0;" horiz-adv-x="1483" 
d="M831 215c-35.333 -78.667 -81.999 -137.495 -139.999 -176.495s-127.333 -58.5 -208 -58.5c-114.667 0 -202.667 35.333 -264 106s-92 173.667 -92 309v687h281v-607c0 -94.667 16 -165.834 48 -213.501s80 -71.5 144 -71.5c68 0 122.833 29.167 164.5 87.5
s62.5 133.166 62.5 224.499v580h281v-521c73.333 8 131.166 35.167 173.499 81.5s63.5 106.166 63.5 179.499h-125v260h263v-210c0 -130.667 -31 -232.334 -93 -305.001s-156 -117.667 -282 -135v-190c0 -58 0.833008 -105.5 2.5 -142.5s3.5 -70.167 5.5 -99.5h-268
c-1.33301 11.333 -3 30.166 -5 56.499s-3.5 54.333 -4.5 84l-2.5 74.5h-5z" />
    <glyph glyph-name="uni01B1" unicode="&#x1b1;" horiz-adv-x="1642" 
d="M821 -22c-138 0 -258.666 25.165 -361.999 75.498s-183.5 121.333 -240.5 213s-85.5 199.167 -85.5 322.5c0 135.333 34.833 252.333 104.5 351s178.167 182.334 325.5 251.001c-42.667 -3.33301 -79.667 -6 -111 -8s-57 -3 -77 -3h-270v228h650v-309
c-108.667 -53.333 -190.334 -117.5 -245.001 -192.5s-82 -165.833 -82 -272.5c0 -133.333 35 -237.333 105 -312s166.333 -112 289 -112s219.167 37.333 289.5 112s105.5 178.667 105.5 312c0 105.333 -26.833 195.833 -80.5 271.5s-134.834 140.167 -243.501 193.5v309h644
v-228h-268c-19.333 0 -44.5 1 -75.5 3s-67.833 4.66699 -110.5 8c144.667 -68.667 251.834 -152.167 321.501 -250.5s104.5 -215.166 104.5 -350.499c0 -122 -28.5 -229 -85.5 -321s-137.167 -163.5 -240.5 -214.5s-224 -76.5 -362 -76.5z" />
    <glyph glyph-name="uni01B2" unicode="&#x1b2;" horiz-adv-x="1479" 
d="M683 -20c-180.667 0 -319.166 46.666 -415.499 139.999s-144.5 229.333 -144.5 408v881h295v-858c0 -110 22.167 -194.167 66.5 -252.5s110.5 -87.5 198.5 -87.5c90.667 0 163.167 24.333 217.5 73s93.5 126.334 117.5 233.001s36 246.667 36 420
c0 89.333 -14.5 155.666 -43.5 198.999s-74.167 65 -135.5 65c-30.667 0 -67.667 -4.33301 -111 -13v220c61.333 13.333 138.666 20 231.999 20c114 0 201.167 -40.5 261.5 -121.5s90.5 -199.167 90.5 -354.5c0 -319.333 -55 -560.666 -165 -723.999
c-112 -165.333 -278.667 -248 -500 -248z" />
    <glyph glyph-name="uni01B3" unicode="&#x1b3;" horiz-adv-x="1577" 
d="M682 813l240.995 425.998c37.333 66.667 76.833 115.167 118.5 145.5s90.834 45.5 147.501 45.5c52.667 0 103.834 -10.667 153.501 -32s97.834 -53.666 144.501 -96.999l-109 -185c-23.333 20.667 -45.666 36.167 -66.999 46.5s-41.666 15.5 -60.999 15.5
c-24.667 0 -45.5 -6.66699 -62.5 -20s-34.5 -34.666 -52.5 -63.999l-304 -516v-578h-294v578l-502 831h309z" />
    <glyph glyph-name="uni01B4" unicode="&#x1b4;" horiz-adv-x="1139" 
d="M283 -425c-68.667 0 -127.667 4.33105 -177 12.998v200c37.333 -5.33301 69.666 -8 96.999 -8c58.667 0 104.334 13.833 137.001 41.5s61.334 74.834 86.001 141.501l18 48l-428 1071h297l170 -507c4 -11.333 10.667 -32.166 20 -62.499l30.5 -100.5l30.5 -102.5
l20 -68.5l90 330l210 657c29.333 93.333 68.833 160.833 118.5 202.5s109.167 62.5 178.5 62.5c83.333 0 165.333 -24.667 246 -74l-95 -196c-36.667 24 -73.334 36 -110.001 36c-29.333 0 -52.5 -9.83301 -69.5 -29.5s-30.833 -45.167 -41.5 -76.5l-411 -1210
c-31.333 -92 -66.5 -164.833 -105.5 -218.5s-84 -92 -135 -115s-109.833 -34.5 -176.5 -34.5z" />
    <glyph glyph-name="uni01B5" unicode="&#x1b5;" horiz-adv-x="1251" 
d="M1192 231v-231h-1131v209l337 429h-346v197h501l270 343h-686v231h1014v-205l-289 -369h295v-197h-450l-318 -407h803z" />
    <glyph glyph-name="uni01B6" unicode="&#x1b6;" horiz-adv-x="1024" 
d="M967 205v-205h-899v199l214 257h-218v177h348l196 246h-499v203h809v-201l-203 -248h217v-177h-352l-199 -251h586z" />
    <glyph glyph-name="uni01B7" unicode="&#x1b7;" horiz-adv-x="1251" 
d="M593 -434c-143.333 0 -261.168 30.332 -353.501 90.999s-163.5 155.334 -213.5 284.001l258 101c36 -87.333 77.833 -149.833 125.5 -187.5s105.834 -56.5 174.501 -56.5c98 0 173.5 32.333 226.5 97s79.5 158 79.5 280c0 113.333 -33.833 199.833 -101.5 259.5
s-168.167 89.5 -301.5 89.5h-128v231l417 423h-690v231h1050v-205l-474 -467c162.667 -8 289.5 -60.5 380.5 -157.5s136.5 -228.167 136.5 -393.5c0 -124 -23.667 -233.333 -71 -328c-48 -94 -116.667 -166.167 -206 -216.5s-192.333 -75.5 -309 -75.5z" />
    <glyph glyph-name="uni01B8" unicode="&#x1b8;" horiz-adv-x="1251" 
d="M658 -434c-121.333 0 -225.835 24.5 -313.502 73.5s-155 118.5 -202 208.5s-70.5 197 -70.5 321c0 112 21.5 209.667 64.5 293s103.333 148.833 181 196.5s168.167 73.834 271.5 78.501l-474 467v205h1050v-231h-690l417 -423v-231h-128
c-134 0 -234.667 -29.833 -302 -89.5s-101 -146.167 -101 -259.5c0 -81.333 11.833 -150 35.5 -206s58.334 -98.5 104.001 -127.5s101.167 -43.5 166.5 -43.5c68.667 0 127 19 175 57s89.667 100.333 125 187l258 -101c-50 -128.667 -121.167 -223.334 -213.5 -284.001
s-210.166 -91 -353.499 -91z" />
    <glyph glyph-name="uni01B9" unicode="&#x1b9;" horiz-adv-x="1078" 
d="M569 -241c58 0 106.167 15.8281 144.5 47.4951s60.833 82.834 67.5 153.501l277 -13c-16 -121.333 -67.167 -215.166 -153.5 -281.499s-198.833 -99.5 -337.5 -99.5c-108 0 -201.5 19.833 -280.5 59.5s-139.833 95.834 -182.5 168.501s-64 158.334 -64 257.001
c0 133.333 37 240.333 111 321s178.333 127.667 313 141l-364 374v195h902v-203h-565l336 -356v-189h-102c-122 0 -210 -24.167 -264 -72.5s-81 -124.166 -81 -227.499c0 -60.667 9 -111.5 27 -152.5s45 -71.667 81 -92s81 -30.5 135 -30.5z" />
    </font>
</defs>
</svg>
