<?xml version="1.0" standalone="no"?>
<!DOCTYPE svg PUBLIC "-//W3C//DTD SVG 1.1//EN" "http://www.w3.org/Graphics/SVG/1.1/DTD/svg11.dtd" >
<svg>
<metadata>
Created by FontForge 20090914 at Wed Dec  8 02:53:04 2021
 By www-data
Copyright 2020 The Arimo Project Authors (https://github.com/googlefonts/arimo)
</metadata>
<defs>
<font id="Arimo-Medium" horiz-adv-x="0" >
  <font-face 
    font-family="Arimo Medium"
    font-weight="500"
    font-stretch="normal"
    units-per-em="2048"
    panose-1="2 11 6 4 2 2 2 2 2 4"
    ascent="1638"
    descent="-410"
    x-height="1082"
    cap-height="1409"
    bbox="-987 -797 5728 2136"
    underline-thickness="150"
    underline-position="-142"
    unicode-range="U+000D-U+FFFD"
  />
<missing-glyph horiz-adv-x="1536" 
d="M1330 1409v-1409h-1125v1409h1125zM281 76h973v1257h-973v-1257z" />
    <glyph glyph-name=".notdef" horiz-adv-x="1536" 
d="M1330 1409v-1409h-1125v1409h1125zM281 76h973v1257h-973v-1257z" />
    <glyph glyph-name=".null" 
 />
    <glyph glyph-name=".null" 
 />
    <glyph glyph-name="nonmarkingreturn" unicode="&#xd;" horiz-adv-x="569" 
 />
    <glyph glyph-name="space" unicode=" " horiz-adv-x="569" 
 />
    <glyph glyph-name="exclam" unicode="!" horiz-adv-x="607" 
d="M418 1409l-27 -1002h-175l-27 1002h229zM413 224v-224h-225v224h225z" />
    <glyph glyph-name="quotedbl" unicode="&#x22;" horiz-adv-x="808" 
d="M705 1409l-24 -466h-168l-22 466h214zM317 1409l-24 -466h-167l-23 466h214z" />
    <glyph glyph-name="numbersign" unicode="#" horiz-adv-x="1139" 
d="M328 399l-83 -399h-124l82 399h-185v122h212l76 356h-237v122h262l87 400h124l-86 -400h345l86 400h126l-87 -400h195v-122h-221l-75 -356h245v-122h-270l-86 -399h-126l84 399h-344zM356 521h344l75 356h-342z" />
    <glyph glyph-name="dollar" unicode="$" horiz-adv-x="1139" 
d="M519 20c-142.667 6 -254.834 39.335 -336.501 100.002s-134.5 150.334 -158.5 269.001l198 40c15.333 -78 47 -136.167 95 -174.5s115.333 -60.5 202 -66.5v461c-34.667 8.66699 -68.167 17.5 -100.5 26.5s-61.666 18.5 -87.999 28.5s-48.5 19.667 -66.5 29
c-62.667 34.667 -108.834 76.334 -138.501 125.001s-44.5 109.667 -44.5 183c0 105.333 37.833 187.666 113.5 246.999s183.834 91.666 324.501 96.999v132h119v-132c82.667 -4 152.834 -17.333 210.501 -40s104.834 -57.334 141.501 -104.001s65 -108.667 85 -186l-204 -35
c-12 61.333 -36.5 109 -73.5 143s-90.167 54.667 -159.5 62v-414c44.667 -10.667 86.167 -21.5 124.5 -32.5s74.166 -22.833 107.499 -35.5c83.333 -34.667 143.666 -79 180.999 -133s56 -123.667 56 -209c0 -113.333 -40.333 -203.333 -121 -270
s-196.667 -103.334 -348 -110.001v-166h-119v165zM283 1043c0 -36.667 7.33301 -67 22 -91c15.333 -26 38.333 -47.333 69 -64s79 -34 145 -52v391c-157.333 -8.66699 -236 -70 -236 -184zM906 399.002c0 40 -7.66699 72.832 -23 98.499s-38 46.834 -68 63.501
c-29.333 16.667 -88.333 36.667 -177 60v-434c86.667 6 153 26.833 199 62.5s69 85.5 69 149.5z" />
    <glyph glyph-name="percent" unicode="%" horiz-adv-x="1821" 
d="M399 1422c217.333 0 326.001 -148.667 326.001 -446c0 -145.333 -27.833 -256.833 -83.5 -334.5s-138.167 -116.5 -247.5 -116.5c-108.667 0 -190.5 38.5 -245.5 115.5s-82.5 188.833 -82.5 335.5c0 149.333 26.667 261 80 335s137.666 111 252.999 111zM1459 1409
l-924 -1409h-172l922 1409h174zM554.001 976c0 113.333 -11.833 195.5 -35.5 246.5s-63.5 76.5 -119.5 76.5c-60 0 -102.333 -25.167 -127 -75.5s-37 -132.833 -37 -247.5c0 -112 12.5 -193.833 37.5 -245.5s66.5 -77.5 124.5 -77.5c54.667 0 94.5 26.167 119.5 78.5
s37.5 133.833 37.5 244.5zM1754 433c0 -144 -28.001 -254.333 -84.001 -331s-138.333 -115 -247 -115s-190.5 37.667 -245.5 113s-82.5 186.333 -82.5 333c0 151.333 26.5 264.333 79.5 339s137.167 112 252.5 112c112.667 0 195.334 -38.167 248.001 -114.5
s79 -188.5 79 -336.5zM1584 433c0 115.333 -11.999 198.333 -35.999 249s-64.333 76 -121 76c-58 0 -99.5 -25.167 -124.5 -75.5s-37.5 -133.5 -37.5 -249.5c0 -111.333 12.5 -192.666 37.5 -243.999s65.833 -77 122.5 -77c55.333 0 95.666 26.167 120.999 78.5
s38 133.166 38 242.499z" />
    <glyph glyph-name="ampersand" unicode="&#x26;" horiz-adv-x="1404" 
d="M78 376c0 91.333 28.0029 172.504 84.0029 243.504s141.667 132.5 257 184.5c-22.667 44.667 -41.334 93.667 -56.001 147s-22 102.666 -22 147.999c0 101.333 31.167 179.666 93.5 234.999s150.833 83 265.5 83c104.667 0 188.334 -25.833 251.001 -77.5
s94 -121.834 94 -210.501c0 -48.667 -11.333 -93.334 -34 -134.001s-57.667 -79.334 -105 -116.001c-29.333 -22 -65.833 -44.667 -109.5 -68s-95.167 -47.666 -154.5 -72.999c70.667 -129.333 163 -258 277 -386c73.333 109.333 128.666 240.666 165.999 393.999l167 -52
c-42.667 -160.667 -111.334 -311.667 -206.001 -453c61.333 -59.333 127.333 -89 198 -89c46.667 0 85.667 5.33301 117 16v-158c-36 -14.667 -82 -22 -138 -22c-58 0 -113.167 10.5 -165.5 31.5s-99.833 52.167 -142.5 93.5c-106.667 -88.667 -231.667 -133 -375 -133
c-146.667 0 -260.334 34.833 -341.001 104.5s-121 166.834 -121 291.501zM869.003 1128c0 44.667 -15.333 81.168 -46 109.501s-72.334 42.5 -125.001 42.5c-59.333 0 -104.666 -16.333 -135.999 -49s-47 -77 -47 -133c0 -68.667 20.333 -144.334 61 -227.001
c82 33.333 141.667 62.333 179 87c38 24 66.5 49.833 85.5 77.5s28.5 58.5 28.5 92.5zM793.003 227.005c-62.667 72 -119.169 143.834 -169.502 215.501s-95.166 143.167 -134.499 214.5c-142.667 -62.667 -214 -155.667 -214 -279c0 -75.333 24.333 -135.333 73 -180
s115.334 -67 200.001 -67c46 0 90.667 8.66699 134 26s80.333 40.666 111 69.999z" />
    <glyph glyph-name="quotesingle" unicode="'" horiz-adv-x="423" 
d="M319 1409l-24 -466h-167l-22 466h213z" />
    <glyph glyph-name="parenleft" unicode="(" horiz-adv-x="682" 
d="M464 -424c-79.333 94 -144.498 190.171 -195.498 288.504s-88.667 202.166 -113 311.499s-36.5 227 -36.5 353c0 128 12.167 246.667 36.5 356s62.166 213.166 113.499 311.499s116.333 194.166 195 287.499h209c-118 -143.333 -204.333 -292 -259 -446
s-82 -323.333 -82 -508c0 -122 11.833 -237.333 35.5 -346s60.667 -212.834 111 -312.501s115.166 -198.167 194.499 -295.5h-209z" />
    <glyph glyph-name="parenright" unicode=")" horiz-adv-x="682" 
d="M9 -424c79.333 96.667 144.167 194.834 194.5 294.501s87.333 203.667 111 312s35.5 224.166 35.5 347.499c0 185.333 -27.333 354.833 -82 508.5s-141 302.167 -259 445.5h209c80 -94 145.333 -190.167 196 -288.5s88.167 -202 112.5 -311s36.5 -226.5 36.5 -352.5
c0 -127.333 -12.167 -245.833 -36.5 -355.5s-61.833 -213.667 -112.5 -312s-116 -194.5 -196 -288.5h-209z" />
    <glyph glyph-name="asterisk" unicode="*" horiz-adv-x="797" 
d="M689 764l-141 -88l-148 256l-154 -255l-141 89l189 236l-270 69l53 155l257 -106l-14 289h163l-15 -288l254 103l53 -153l-271 -69z" />
    <glyph glyph-name="plus" unicode="+" horiz-adv-x="1196" 
d="M684 595v-421h-173v421h-416v172h416v421h173v-421h417v-172h-417z" />
    <glyph glyph-name="comma" unicode="," horiz-adv-x="569" 
d="M401 56c0 -74 -7.16699 -137 -21.5 -189s-36.5 -101 -66.5 -147h-144c34 46 60.333 93 79 141s28 94.333 28 139h-102v248h227v-192z" />
    <glyph glyph-name="hyphen" unicode="-" horiz-adv-x="682" 
d="M594 634v-188h-507v188h507z" />
    <glyph glyph-name="hyphen" unicode="&#xad;" horiz-adv-x="682" 
d="M594 634v-188h-507v188h507z" />
    <glyph glyph-name="period" unicode="." horiz-adv-x="569" 
d="M397 248v-248h-226v248h226z" />
    <glyph glyph-name="slash" unicode="/" horiz-adv-x="569" 
d="M562 1484l-366 -1511h-189l371 1511h184z" />
    <glyph glyph-name="zero" unicode="0" horiz-adv-x="1139" 
d="M1058 705c0 -236 -41.333 -415.833 -124 -539.5s-205.334 -185.5 -368.001 -185.5c-161.333 0 -282.666 61.333 -363.999 184s-122 303 -122 541c0 244 39.167 425.833 117.5 545.5s203.5 179.5 375.5 179.5c166 0 288.333 -60.833 367 -182.5s118 -302.5 118 -542.5z
M842 705c0 132.667 -8.66602 239.667 -25.999 321s-45.833 140.5 -85.5 177.5s-92.5 55.5 -158.5 55.5c-67.333 0 -121.5 -18.333 -162.5 -55s-70.333 -95.667 -88 -177s-26.5 -188.666 -26.5 -321.999c0 -130.667 9.16699 -236.834 27.5 -318.501
s47.666 -141.167 87.999 -178.5s92.833 -56 157.5 -56c97.333 0 167.333 44.333 210 133s64 228.667 64 420z" />
    <glyph glyph-name="one" unicode="1" horiz-adv-x="1139" 
d="M1053 172v-172h-906v172h356v1043l-325 -222v187l340 229h199v-1237h336z" />
    <glyph glyph-name="two" unicode="2" horiz-adv-x="1139" 
d="M1043 179l0.000976562 -179.004h-951v150c31.333 70 69.333 133.5 114 190.5s94.167 110.333 148.5 160s110.5 97.5 168.5 143.5c34 26.667 64.667 52.5 92 77.5s51.333 48.5 72 70.5c35.333 36.667 63.5 74.334 84.5 113.001s31.5 81.334 31.5 128.001
c0 72 -20.333 127.333 -61 166s-98 58 -172 58c-71.333 0 -128.833 -19.333 -172.5 -58s-69.834 -94 -78.501 -166l-217 17c14 118.667 62 211.667 144 279s189.667 101 323 101c145.333 0 257 -33.833 335 -101.5s117 -163.5 117 -287.5c0 -60 -13.167 -117.333 -39.5 -172
s-63.5 -108 -111.5 -160c-29.333 -31.333 -67.5 -67.166 -114.5 -107.499l-162.5 -134.5c-66.667 -54 -121.5 -104.167 -164.5 -150.5s-74.167 -92.166 -93.5 -137.499h708z" />
    <glyph glyph-name="three" unicode="3" horiz-adv-x="1139" 
d="M1054 390c0 -130.667 -42.002 -231.834 -126.002 -303.501s-203.667 -107.5 -359 -107.5c-145.333 0 -261.333 33 -348 99s-137.667 163 -153 291l219 20c22 -156.667 116 -235 282 -235c82.667 0 147.5 20.5 194.5 61.5s70.5 102.167 70.5 183.5
c0 72 -27.333 128 -82 168s-134 60 -238 60h-100v179h96c92.667 0 163.834 19.833 213.501 59.5s74.5 95.167 74.5 166.5c0 69.333 -20.167 124.166 -60.5 164.499s-99.833 60.5 -178.5 60.5c-72.667 0 -131.167 -19 -175.5 -57s-70.166 -91.333 -77.499 -160l-214 16
c13.333 117.333 61.833 209 145.5 275s191.834 99 324.501 99c143.333 0 254.833 -33 334.5 -99s119.5 -157.667 119.5 -275c0 -89.333 -25.333 -162.166 -76 -218.499s-124.334 -94.166 -221.001 -113.499v-4c106.667 -12 189.167 -47.5 247.5 -106.5
s87.5 -133.5 87.5 -223.5z" />
    <glyph glyph-name="four" unicode="4" horiz-adv-x="1139" 
d="M901 308v-308h-203v308h-656v164l628 937h231v-936h194v-165h-194zM229 473h469v528c0 32.667 0.5 66 1.5 100s2.5 63.333 4.5 88c-13.333 -26 -26.333 -49.5 -39 -70.5s-26 -41.833 -40 -62.5z" />
    <glyph glyph-name="five" unicode="5" horiz-adv-x="1139" 
d="M1063 462c0 -148.667 -44.999 -266.166 -134.999 -352.499s-214.333 -129.5 -373 -129.5c-134.667 0 -243 29.667 -325 89s-133.333 145.333 -154 258l215 22c17.333 -66 48.5 -115.333 93.5 -148s103.167 -49 174.5 -49c88 0 157.167 27 207.5 81s75.5 129 75.5 225
c0 83.333 -25 150.666 -75 201.999s-117.667 77 -203 77c-45.333 0 -87.333 -7.66699 -126 -23s-76.334 -40.333 -113.001 -75h-208l47 770h817v-172h-622l-26 -416c74.667 60 167.667 90 279 90c91.333 0 170.833 -18.667 238.5 -56s120 -89.5 157 -156.5
s55.5 -145.833 55.5 -236.5z" />
    <glyph glyph-name="six" unicode="6" horiz-adv-x="1139" 
d="M1054 461c0 -149.333 -40.833 -266.833 -122.5 -352.5s-194.5 -128.5 -338.5 -128.5c-161.333 0 -284.833 58.667 -370.5 176s-128.5 289.333 -128.5 516c0 246.667 44.167 434.667 132.5 564s214.5 194 378.5 194c110.667 0 199.834 -24.833 267.501 -74.5
s115.5 -124.5 143.5 -224.5l-203 -33c-31.333 107.333 -102 161 -212 161c-93.333 0 -166 -44.5 -218 -133.5s-78 -219.5 -78 -391.5c32 57.333 76.667 101 134 131s122.666 45 195.999 45c128.667 0 230.667 -40.5 306 -121.5s113 -190.167 113 -327.5zM838 453
c0 94.667 -22.8311 167.498 -68.498 218.498s-108.834 76.5 -189.501 76.5c-76.667 0 -138.5 -23 -185.5 -69s-70.5 -108.333 -70.5 -187c0 -66.667 11.167 -125.667 33.5 -177s53.166 -91.666 92.499 -120.999s84.666 -44 135.999 -44
c78.667 0 140.334 26.833 185.001 80.5s67 127.834 67 222.501z" />
    <glyph glyph-name="seven" unicode="7" horiz-adv-x="1139" 
d="M1040 1237l-182.499 -292.498c-53 -88.333 -96.167 -169.5 -129.5 -243.5c-53.333 -114.667 -94 -229.167 -122 -343.5s-42 -233.5 -42 -357.5h-223c0 98 10.333 195.167 31 291.5s53.667 197.5 99 303.5c38 89.333 86.667 185.666 146 288.999
s132.666 218.666 219.999 345.999h-738v179h941v-172z" />
    <glyph glyph-name="eight" unicode="8" horiz-adv-x="1139" 
d="M1059 394c0 -130.667 -42.1689 -232.334 -126.502 -305.001s-205.166 -109 -362.499 -109c-154 0 -274 35.833 -360 107.5s-129 173.167 -129 304.5c0 91.333 26.167 168.166 78.5 230.499s120.5 100.5 204.5 114.5v4c-76.667 17.333 -137.5 55.833 -182.5 115.5
s-67.5 129.167 -67.5 208.5c0 110 40.333 198.333 121 265s191 100 331 100c143.333 0 255.5 -32.667 336.5 -98s121.5 -155 121.5 -269c0 -79.333 -22.667 -148.666 -68 -207.999s-106.666 -96.666 -183.999 -111.999v-4c90 -14.667 160.333 -52.5 211 -113.5
s76 -138.167 76 -231.5zM802.998 1051c0 149.333 -79 224 -237 224c-156 0 -234 -74.667 -234 -224c0 -76 20.333 -133.667 61 -173s99 -59 175 -59c77.333 0 135.833 18.167 175.5 54.5s59.5 95.5 59.5 177.5zM836.998 413c0 82.667 -23.5 145 -70.5 187
s-113.833 63 -200.5 63c-84 0 -149.167 -22.333 -195.5 -67s-69.5 -107 -69.5 -187c0 -92 22.667 -160.5 68 -205.5s113 -67.5 203 -67.5s156.667 22 200 66s65 114.333 65 211z" />
    <glyph glyph-name="nine" unicode="9" horiz-adv-x="1139" 
d="M1049 731c0 -244.667 -44.666 -431.001 -133.999 -559.001s-216.333 -192 -381 -192c-114.667 0 -205.834 24.333 -273.501 73s-116.167 126.334 -145.5 233.001l203 31c32.667 -111.333 105.667 -167 219 -167c94.667 0 168 44.667 220 134s79 218 81 386
c-26 -56.667 -70.167 -101.834 -132.5 -135.501s-130.5 -50.5 -204.5 -50.5c-83.333 0 -156 19.5 -218 58.5s-110 93.833 -144 164.5s-51 154 -51 250c0 147.333 41.833 263 125.5 347s200.5 126 350.5 126c160.667 0 281.667 -58.167 363 -174.5s122 -291.166 122 -524.499
zM819.001 912.999c0 104.667 -23.6689 188.499 -71.002 251.499s-110.666 94.5 -189.999 94.5c-78.667 0 -140.5 -27.167 -185.5 -81.5s-67.5 -128.166 -67.5 -221.499c0 -94.667 22.5 -169.667 67.5 -225s106.5 -83 184.5 -83c48 0 91.833 11.167 131.5 33.5
s71.334 53.5 95.001 93.5s35.5 86 35.5 138z" />
    <glyph glyph-name="colon" unicode=":" horiz-adv-x="607" 
d="M416 1066v-232h-226v232h226zM416 232v-232h-226v232h226z" />
    <glyph glyph-name="semicolon" unicode=";" horiz-adv-x="607" 
d="M419 1066v-232h-226v232h226zM419 56c0 -74 -7 -137 -21 -189s-36.333 -101 -67 -147h-143c34.667 48 61.167 95.667 79.5 143s27.5 93 27.5 137h-102v232h226v-176z" />
    <glyph glyph-name="semicolon" unicode="&#x37e;" horiz-adv-x="607" 
d="M419 1066v-232h-226v232h226zM419 56c0 -74 -7 -137 -21 -189s-36.333 -101 -67 -147h-143c34.667 48 61.167 95.667 79.5 143s27.5 93 27.5 137h-102v232h226v-176z" />
    <glyph glyph-name="less" unicode="&#x3c;" horiz-adv-x="1196" 
d="M1102 322v-178l-1006 409v244l1006 409v-179l-850 -352z" />
    <glyph glyph-name="equal" unicode="=" horiz-adv-x="1196" 
d="M1101 1024v-173h-1006v173h1006zM1101 499v-173h-1006v173h1006z" />
    <glyph glyph-name="greater" unicode="&#x3e;" horiz-adv-x="1196" 
d="M1102 553l-1006 -409v178l849 353l-849 352v179l1006 -409v-244z" />
    <glyph glyph-name="question" unicode="?" horiz-adv-x="1176" 
d="M1086 1030c0 -72 -15.4961 -134 -46.4961 -186s-86.833 -107.667 -167.5 -167l-79 -57c-92.667 -66.667 -139.667 -142.334 -141 -227.001h-206c2 56 13 104.5 33 145.5s46.167 77 78.5 108s67.5 60.167 105.5 87.5c41.333 29.333 77.666 57.333 108.999 84
s55.666 56 72.999 88s26 70.333 26 115c0 70 -23.667 125.333 -71 166s-114 61 -200 61c-84.667 0 -152.834 -22.167 -204.501 -66.5s-81.834 -104.166 -90.501 -179.499l-218 12c18 132.667 71.333 235.167 160 307.5s205.667 108.5 351 108.5
c151.333 0 270.5 -35.333 357.5 -106s130.5 -168.667 130.5 -294zM664.004 224v-224h-226v224h226z" />
    <glyph glyph-name="at" unicode="@" horiz-adv-x="2052" 
d="M1894 745c0 -123.333 -19.6689 -235.001 -59.002 -335.001c-40 -100 -95.167 -177.667 -165.5 -233s-148.166 -83 -233.499 -83c-64.667 0 -114.5 14.833 -149.5 44.5s-52.5 73.167 -52.5 130.5c0.666992 11.333 1.16699 22.833 1.5 34.5s1.16602 23.167 2.49902 34.5h-6
c-40.667 -78 -93.5 -138.167 -158.5 -180.5s-134.167 -63.5 -207.5 -63.5c-104.667 0 -185.834 34 -243.501 102s-86.5 162.333 -86.5 283c0 108.667 21.667 210.334 65 305.001s103.333 169.5 180 224.5s162 82.5 256 82.5c140.667 0 237 -59.667 289 -179h6l39 157h156
l-116 -506c-24.667 -109.333 -37 -192.333 -37 -249c0 -32 7.16699 -55.5 21.5 -70.5s33.833 -22.5 58.5 -22.5c53.333 0 103 23 149 69c46.667 46 83.334 108.833 110.001 188.5s40 167.834 40 264.501c0 118 -25.667 223 -77 315
c-51.333 91.333 -125.166 161.666 -221.499 210.999s-208.833 74 -337.5 74c-160.667 0 -303 -35.333 -427 -106c-123.333 -71.333 -220.166 -173.666 -290.499 -306.999s-105.5 -283 -105.5 -449c0 -129.333 26.667 -243 80 -341c52 -98.667 127 -173.834 225 -225.501
s212.667 -77.5 344 -77.5c96.667 0 194.5 12.667 293.5 38s200.5 65.666 304.5 120.999l57 -115c-101.333 -60 -207.5 -104.667 -318.5 -134s-224.167 -44 -339.5 -44c-159.333 0 -299 32 -419 96c-120 63.333 -212.5 154.333 -277.5 273s-97.5 255 -97.5 409
c0 186.667 42 356.667 126 510c83.333 152.667 198.833 271.334 346.5 356.001s313.167 127 496.5 127c160.667 0 299.667 -30 417 -90c117.333 -60.667 207 -146 269 -256s93 -237.667 93 -383zM1274 737.999c0 66.667 -21.168 120.5 -63.501 161.5s-98.5 61.5 -168.5 61.5
c-66 0 -124.667 -21 -176 -63s-91.666 -100.667 -120.999 -176s-44 -155.666 -44 -240.999c0 -78.667 16 -140.5 48 -185.5s81 -67.5 147 -67.5c49.333 0 96.833 14.333 142.5 43s86.167 68 121.5 118c24.667 34.667 45.5 74.167 62.5 118.5s29.833 87.166 38.5 128.499
s13 75.333 13 102z" />
    <glyph glyph-name="A" unicode="A" horiz-adv-x="1404" 
d="M400 395l-150 -395h-230l554 1409h261l548 -1409h-227l-149 395h-607zM703 1241c-10 -34 -22.167 -72.501 -36.5 -115.501s-26.833 -78.5 -37.5 -106.5l-169 -451h487l-172 458c-9.33301 24.667 -20.333 55.834 -33 93.501z" />
    <glyph glyph-name="B" unicode="B" horiz-adv-x="1404" 
d="M1301 399c0 -126.667 -46.5 -224.835 -139.5 -294.502s-222.167 -104.5 -387.5 -104.5h-616v1409h556c167.333 0 293.333 -29 378 -87s127 -144.333 127 -259c0 -82 -23 -151.167 -69 -207.5s-112.333 -94.166 -199 -113.499
c112.667 -13.333 199.167 -50.166 259.5 -110.499s90.5 -137.833 90.5 -232.5zM992 1034c0 72 -24 123.333 -72 154s-118.333 46 -211 46h-326v-414h327c96 0 167 17.667 213 53s69 89 69 161zM1073 415.999c0 154.667 -109.333 232 -328 232h-362v-473h376
c109.333 0 189 20.167 239 60.5s75 100.5 75 180.5z" />
    <glyph glyph-name="C" unicode="C" horiz-adv-x="1479" 
d="M798 162c191.333 0 331.67 94.998 421.003 284.998l189 -85c-56.667 -126 -137.834 -221.167 -243.501 -285.5s-229.834 -96.5 -372.501 -96.5c-145.333 0 -269.833 29.333 -373.5 88s-183.167 142.834 -238.5 252.501s-83 239.834 -83 390.501
c0 151.333 27.167 280.666 81.5 387.999s133 189.333 236 246s227.167 85 372.5 85c155.333 0 283.833 -30.667 385.5 -92s175.5 -151.666 221.5 -270.999l-208 -64c-28.667 78 -77.834 138.5 -147.501 181.5s-152.167 64.5 -247.5 64.5
c-148.667 0 -263.334 -47.333 -344.001 -142s-121 -226.667 -121 -396c0 -112.667 18.833 -210 56.5 -292s91.834 -145.333 162.501 -190s155 -67 253 -67z" />
    <glyph glyph-name="D" unicode="D" horiz-adv-x="1479" 
d="M1385 718c0 -149.333 -29.001 -277.668 -87.001 -385.001s-138.5 -189.666 -241.5 -246.999s-222.167 -86 -357.5 -86h-541v1409h480c238.667 0 422.834 -59.833 552.501 -179.5s194.5 -290.167 194.5 -511.5zM1158 717.998c0 166.667 -45 293.832 -135 381.499
s-219.667 131.5 -389 131.5h-251v-1053h293c98 0 183 22 255 66s127.833 106.333 167.5 187s59.5 176.334 59.5 287.001z" />
    <glyph glyph-name="E" unicode="E" horiz-adv-x="1366" 
d="M1281 180v-180h-1123v1409h1082v-180h-857v-419h796v-179h-796v-451h898z" />
    <glyph glyph-name="F" unicode="F" horiz-adv-x="1251" 
d="M383 553v-553h-225v1409h1013v-180h-788v-495h765v-181h-765z" />
    <glyph glyph-name="G" unicode="G" horiz-adv-x="1593" 
d="M811 160c86.667 0 168.5 13.1689 245.5 39.502s138.5 61.166 184.5 104.499v234h-395v180h603v-497c-74.667 -76 -168.167 -135.167 -280.5 -177.5s-232.5 -63.5 -360.5 -63.5c-148.667 0 -276 29.333 -382 88s-187.333 142.667 -244 252s-85 239.666 -85 390.999
c0 230 61.5 407.333 184.5 532s297.167 187 522.5 187c159.333 0 289 -27.667 389 -83s175 -142.333 225 -261l-212 -63c-36.667 77.333 -88.834 134.333 -156.501 171s-150.5 55 -248.5 55c-154.667 0 -272.667 -46.833 -354 -140.5s-122 -226.167 -122 -397.5
c0 -172 42.833 -306.833 128.5 -404.5s204.834 -146.5 357.501 -146.5z" />
    <glyph glyph-name="H" unicode="H" horiz-adv-x="1479" 
d="M383 637v-637h-225v1409h225v-584h713v584h226v-1409h-226v637h-713z" />
    <glyph glyph-name="I" unicode="I" horiz-adv-x="569" 
d="M397 1409v-1409h-225v1409h225z" />
    <glyph glyph-name="J" unicode="J" horiz-adv-x="1062" 
d="M479 -20c-128 0 -228.668 31.168 -302.001 93.501s-121.666 158.166 -144.999 287.499l222 35c12 -76 37.5 -134.333 76.5 -175s89.167 -61 150.5 -61c65.333 0 116.5 22.5 153.5 67.5s55.5 110.5 55.5 196.5v804h-275v181h499v-980c0 -140 -38.5 -249.833 -115.5 -329.5
s-183.5 -119.5 -319.5 -119.5z" />
    <glyph glyph-name="K" unicode="K" horiz-adv-x="1404" 
d="M383 531v-531h-225v1409h225v-684l665 684h264l-600 -607l670 -802h-274l-544 669z" />
    <glyph glyph-name="L" unicode="L" horiz-adv-x="1176" 
d="M1110 180v-180h-952v1409h225v-1229h727z" />
    <glyph glyph-name="M" unicode="M" horiz-adv-x="1706" 
d="M358 911l0.000976562 -911h-200v1409h299l334 -914c12.667 -40.667 25 -83.5 37 -128.5s21.333 -81.5 28 -109.5c5.33301 20.667 12.166 45.667 20.499 75l25.5 86l20 64l332 927h294v-1409h-202v911c0 41.333 0.833008 88.333 2.5 141s4.16699 106.667 7.5 162
l-52 -182.5c-15.333 -52.333 -29.333 -95.5 -42 -129.5l-327 -902h-160l-330 902l-95 312l5.5 -164.5c1.66699 -50.333 2.5 -96.5 2.5 -138.5z" />
    <glyph glyph-name="N" unicode="N" horiz-adv-x="1479" 
d="M358 901v-901h-200v1409h260l716 -1170c-9.33301 121.333 -14 215 -14 281v889h202v-1409h-269l-707 1162l8 -136c2.66699 -43.333 4 -85 4 -125z" />
    <glyph glyph-name="O" unicode="O" horiz-adv-x="1593" 
d="M1499 711c0 -149.333 -28.833 -278.666 -86.5 -387.999s-139.167 -193.833 -244.5 -253.5s-230 -89.5 -374 -89.5c-144.667 0 -269.5 29.333 -374.5 88s-185.667 142.667 -242 252s-84.5 239.666 -84.5 390.999c0 150.667 27.833 279.5 83.5 386.5s136 189.167 241 246.5
s231.167 86 378.5 86c146 0 271.5 -28.5 376.5 -85.5s185.667 -139 242 -246s84.5 -236.167 84.5 -387.5zM1269 711c0 167.333 -41.333 298.833 -124 394.5s-199 143.5 -349 143.5c-151.333 0 -268.333 -47.167 -351 -141.5s-124 -226.5 -124 -396.5
c0 -112.667 18.833 -210.167 56.5 -292.5s92 -145.833 163 -190.5s155.5 -67 253.5 -67c152.667 0 270 47.833 352 143.5s123 231.167 123 406.5z" />
    <glyph glyph-name="P" unicode="P" horiz-adv-x="1366" 
d="M1271 978c0 -90 -20.166 -168.5 -60.499 -235.5s-97.333 -119 -171 -156s-161.5 -55.5 -263.5 -55.5h-393v-531h-225v1409h606c161.333 0 286.166 -37.667 374.499 -113s132.5 -181.333 132.5 -318zM1044 975c0 170.667 -102 255.999 -306 255.999h-355v-523h363
c98 0 172.167 22.333 222.5 67s75.5 111.334 75.5 200.001z" />
    <glyph glyph-name="Q" unicode="Q" horiz-adv-x="1593" 
d="M1499 711c0 -130 -22.002 -245.334 -66.002 -346.001s-107.167 -182.5 -189.5 -245.5s-181.5 -103.833 -297.5 -122.5c26 -78 60.667 -134.333 104 -169s100 -52 170 -52c38.667 0 77.334 4 116.001 12l-1 -156c-68 -16 -134.333 -24 -199 -24
c-103.333 0 -188.5 29 -255.5 87s-121.5 155 -163.5 291c-132 8.66699 -244.5 43.667 -337.5 105s-164 144.833 -213 250.5s-73.5 228.834 -73.5 369.501c0 150.667 27.833 279.5 83.5 386.5s136 189.167 241 246.5s231.167 86 378.5 86c148.667 0 275.334 -29 380.001 -87
s184.667 -140.667 240 -248s83 -235.333 83 -384zM1269 710.999c0 167.333 -41.335 298.833 -124.002 394.5s-199 143.5 -349 143.5c-151.333 0 -268.333 -47.167 -351 -141.5s-124 -226.5 -124 -396.5c0 -112.667 18.833 -210.167 56.5 -292.5s91.834 -146 162.501 -191
s155.334 -67.5 254.001 -67.5c152.667 0 270 48 352 144s123 231.667 123 407z" />
    <glyph glyph-name="R" unicode="R" horiz-adv-x="1479" 
d="M383 568l-0.000976562 -568h-225v1409h676c162 0 287 -35.667 375 -107s132 -172 132 -302c0 -102.667 -29.667 -189.667 -89 -261s-140.666 -117 -243.999 -137l394 -602h-258l-353 568h-408zM1114 995c0 77.333 -25.832 136 -77.499 176s-126.834 60 -225.501 60h-428
v-486h436c94.667 0 167.5 22 218.5 66s76.5 105.333 76.5 184z" />
    <glyph glyph-name="S" unicode="S" horiz-adv-x="1366" 
d="M1277 395c0 -132.667 -50.9951 -235.002 -152.995 -307.002s-247.667 -108 -437 -108c-347.333 0 -549 122.667 -605 368l218 40c20.667 -81.333 63.5 -140.833 128.5 -178.5s153.833 -56.5 266.5 -56.5c116.667 0 205.834 19.333 267.501 58s92.5 95.667 92.5 171
c0 44 -10.833 80 -32.5 108s-52.5 51 -92.5 69c-32.667 15.333 -73.334 29 -122.001 41s-104.667 25 -168 39c-72.667 16.667 -132.334 32.167 -179.001 46.5s-84.667 29.333 -114 45s-55.333 32.167 -78 49.5c-38.667 30.667 -68.5 67.834 -89.5 111.501
s-31.5 95.5 -31.5 155.5c0 123.333 46.667 218 140 284s227.666 99 402.999 99c165.333 0 290.833 -25.5 376.5 -76.5s143.834 -136.833 174.501 -257.5l-220 -35c-18.667 70 -54.834 121.333 -108.501 154s-128.834 49 -225.501 49c-104.667 0 -184.334 -17 -239.001 -51
s-82 -85 -82 -153c0 -41.333 10.833 -75.333 32.5 -102s53.167 -49.334 94.5 -68.001c39.333 -18 122.333 -41 249 -69c58 -13.333 112.667 -26.666 164 -39.999s97.666 -29 138.999 -47c28 -11.333 54.167 -24.833 78.5 -40.5s45.5 -33.167 63.5 -52.5
c28 -30 49.833 -65.167 65.5 -105.5s23.5 -87.166 23.5 -140.499z" />
    <glyph glyph-name="T" unicode="T" horiz-adv-x="1251" 
d="M738 1229v-1229h-225v1229h-475v180h1174v-180h-474z" />
    <glyph glyph-name="U" unicode="U" horiz-adv-x="1479" 
d="M728 -20c-120 0 -223.5 21.333 -310.5 64s-154 104 -201 184s-70.5 176.333 -70.5 289v892h226v-873c0 -123.333 30.667 -216.833 92 -280.5s150 -95.5 266 -95.5c120 0 212.833 33.167 278.5 99.5s98.5 162.5 98.5 288.5v861h225v-875
c0 -115.333 -24.333 -214.333 -73 -297s-118.167 -146.167 -208.5 -190.5s-197.833 -66.5 -322.5 -66.5z" />
    <glyph glyph-name="V" unicode="V" horiz-adv-x="1366" 
d="M1355 1409l-556 -1409h-231l-557 1409h236l357 -963c14 -36.667 27.333 -76.5 40 -119.5l41 -135.5l43.5 147c13 42.667 25.167 78.667 36.5 108l355 963h235z" />
    <glyph glyph-name="W" unicode="W" horiz-adv-x="1933" 
d="M901 871l-228 -871.002h-269l-397 1409h232l234 -884c13.333 -50 26.166 -102.167 38.499 -156.5s23.833 -108.833 34.5 -163.5l21 95.5l25 112c8.66699 37.667 16.667 70.834 24 99.501l237 897h232l229 -862c14.667 -57.333 28.5 -115.166 41.5 -173.499
s24.5 -114.5 34.5 -168.5l28.5 119.5l28 113c9 35 16.167 64.167 21.5 87.5l227 884h233l-398 -1409h-269l-226 868c-9.33301 34.667 -19.5 77 -30.5 127l-36.5 174c-5.33301 -32.667 -12.666 -69.167 -21.999 -109.5l-26.5 -112z" />
    <glyph glyph-name="X" unicode="X" horiz-adv-x="1366" 
d="M687 598l-406 -598h-244l520 735l-479 674h244l366 -535l358 535h244l-464 -669l505 -740h-244z" />
    <glyph glyph-name="Y" unicode="Y" horiz-adv-x="1366" 
d="M795 582v-582h-225v582l-528 827h243l398 -646l399 646h243z" />
    <glyph glyph-name="Z" unicode="Z" horiz-adv-x="1251" 
d="M1189 181v-181h-1125v165l826 1063h-752v181h1006v-161l-826 -1067h871z" />
    <glyph glyph-name="bracketleft" unicode="[" horiz-adv-x="607" 
d="M588 -275v-150h-452v1909h452v-149h-248v-1610h248z" />
    <glyph glyph-name="backslash" unicode="\" horiz-adv-x="569" 
d="M192 1484l371 -1511h-189l-367 1511h185z" />
    <glyph glyph-name="bracketright" unicode="]" horiz-adv-x="607" 
d="M471 1484v-1909h-452v150h248v1610h-248v149h452z" />
    <glyph glyph-name="asciicircum" unicode="^" horiz-adv-x="1039" 
d="M22 620l375 789h243l378 -789h-186l-315 673l-312 -673h-183z" />
    <glyph glyph-name="underscore" unicode="_" horiz-adv-x="1139" 
d="M1160 -242v-113h-1187v113h1187z" />
    <glyph glyph-name="grave" unicode="`" horiz-adv-x="682" 
d="M545 1219v-24h-119l-333 277v34h224z" />
    <glyph glyph-name="a" unicode="a" horiz-adv-x="1139" 
d="M407 -20c-107.333 0 -189 28.667 -245 86s-84 136.333 -84 237c0 112 36.667 197.667 110 257s188 91 344 95l239 4v57c0 82.667 -16.5 142.334 -49.5 179.001s-85.5 55 -157.5 55c-71.333 0 -123.166 -13 -155.499 -39s-52.166 -68.333 -59.499 -127l-223 16
c32.667 201.333 181 302 445 302c136 0 239.167 -32 309.5 -96s105.5 -156 105.5 -276v-442c0 -56 7 -96.833 21 -122.5s39.333 -38.5 76 -38.5c20 0 40 2.33301 60 7v-125c-26.667 -6.66699 -51.834 -11.667 -75.501 -15s-49.167 -5 -76.5 -5
c-68 0 -117.833 17.5 -149.5 52.5s-49.834 88.5 -54.501 160.5h-6c-44 -78.667 -96.167 -135.334 -156.5 -170.001s-132.833 -52 -217.5 -52zM771 523l-179 -2.99902c-78 -2 -136 -10.333 -174 -25c-38.667 -14.667 -68.167 -37 -88.5 -67s-30.5 -69.667 -30.5 -119
c0 -56.667 14.5 -99.834 43.5 -129.501s69.5 -44.5 121.5 -44.5c59.333 0 112 14 158 42s82.333 66.5 109 115.5s40 99.833 40 152.5v78z" />
    <glyph glyph-name="b" unicode="b" horiz-adv-x="1176" 
d="M1091 546c0 -185.333 -34.001 -326 -102.001 -422s-168.667 -144 -302 -144c-80 0 -147.5 15.5 -202.5 46.5s-98.833 78.833 -131.5 143.5h-2c0 -14 -0.666992 -33.5 -2 -58.5s-2.66602 -48.333 -3.99902 -70s-3 -35.5 -5 -41.5h-207c2 22.667 3.66699 53.167 5 91.5
s2 84.833 2 139.5v1253h213v-420c0 -24 -0.333008 -49.5 -1 -76.5s-1.66699 -55.167 -3 -84.5h4c32.667 69.333 77 119.833 133 151.5s125 47.5 207 47.5c134 0 233.833 -46.833 299.5 -140.5s98.5 -232.167 98.5 -415.5zM866.999 542
c0 141.333 -19.3311 243.667 -57.998 307s-100.334 95 -185.001 95c-93.333 0 -162 -33.667 -206 -101s-66 -171.333 -66 -312c0 -132.667 21.667 -232.167 65 -298.5s111.666 -99.5 204.999 -99.5c85.333 0 147.5 32.667 186.5 98s58.5 169 58.5 311z" />
    <glyph glyph-name="c" unicode="c" horiz-adv-x="1062" 
d="M567 -20c-156 0 -275.336 48.167 -358.003 144.5s-124 234.833 -124 415.5s41.667 319.5 125 416.5s202.333 145.5 357 145.5c116 0 212.167 -29.833 288.5 -89.5s124.5 -141.834 144.5 -246.501l-218 -14c-8.66699 58.667 -31 105.334 -67 140.001s-87.333 52 -154 52
c-87.333 0 -151.333 -31.167 -192 -93.5s-61 -163.833 -61 -304.5c0 -137.333 21.333 -239.5 64 -306.5s106.667 -100.5 192 -100.5c60.667 0 111.334 17.167 152.001 51.5s65.667 86.5 75 156.5l215 -12c-9.33301 -72 -33.666 -134.5 -72.999 -187.5
s-90.166 -94.167 -152.499 -123.5s-133.5 -44 -213.5 -44z" />
    <glyph glyph-name="d" unicode="d" horiz-adv-x="1176" 
d="M838 0c-1.33301 7.33301 -3 21.333 -5 42s-3.66699 43.334 -5 68.001s-2 46.334 -2 65.001h-4c-32 -68 -76 -117.5 -132 -148.5s-125.333 -46.5 -208 -46.5c-132.667 0 -232 47 -298 141s-99 232.667 -99 416c0 186 34.167 326.667 102.5 422s168.833 143 301.5 143
c80.667 0 148.5 -15.333 203.5 -46s98.5 -78.334 130.5 -143.001h2l-2 140v431h214v-1257c0 -48.667 0.5 -91.834 1.5 -129.501s2.5 -70.167 4.5 -97.5h-205zM309 541c0 -141.333 19.5 -244 58.5 -308s100.833 -96 185.5 -96c92.667 0 161 34.333 205 103s66 172.667 66 312
c0 134 -21.833 233.833 -65.5 299.5s-111.5 98.5 -203.5 98.5c-86 0 -148.5 -32.5 -187.5 -97.5s-58.5 -168.833 -58.5 -311.5z" />
    <glyph glyph-name="e" unicode="e" horiz-adv-x="1139" 
d="M309 498c0 -118 23.6699 -208.335 71.0029 -271.002s115.666 -94 204.999 -94c68.667 0 124 14 166 42s70.667 65 86 111l193 -37c-68.667 -179.333 -218.334 -269 -449.001 -269c-161.333 0 -284.333 47.833 -369 143.5s-127 236.834 -127 423.501
c0 178.667 42.667 315.834 128 411.501s206.666 143.5 363.999 143.5c158 0 277.167 -49.167 357.5 -147.5s120.5 -244.5 120.5 -438.5v-18h-746zM840.003 647.998c-8 105.333 -34.167 182.667 -78.5 232s-106.833 74 -187.5 74c-80 0 -143 -27 -189 -81
s-70.667 -129 -74 -225h529z" />
    <glyph glyph-name="f" unicode="f" horiz-adv-x="607" 
d="M398 931v-931.001h-213v931h-154v151h154v119c0 98.667 23.167 170.334 69.5 215.001s116.833 67 211.5 67c51.333 0 99.333 -4.66699 144 -14v-151c-30 5.33301 -57 8 -81 8c-46.667 0 -80.167 -11 -100.5 -33s-30.5 -61.333 -30.5 -118v-93h212v-151h-212z" />
    <glyph glyph-name="g" unicode="g" horiz-adv-x="1176" 
d="M564 -428c-122.667 0 -220.664 23.832 -293.997 71.499s-120 115.5 -140 203.5l215 28c11.333 -47.333 36.166 -84.166 74.499 -110.499s88.5 -39.5 150.5 -39.5c85.333 0 149 25.5 191 76.5s63 127.167 63 228.5l1 171h-2c-32.667 -68.667 -78.5 -120.167 -137.5 -154.5
s-129.167 -51.5 -210.5 -51.5c-130.667 0 -228.334 45.167 -293.001 135.5s-97 227.833 -97 412.5c0 186 34.333 325.333 103 418s171 139 307 139c77.333 0 143.833 -17 199.5 -51s98.834 -83.333 129.501 -148h3c0 14 0.666992 34.5 2 61.5s3.16602 52.5 5.49902 76.5
s4.16602 38.333 5.49902 43h203c-4 -48 -6 -125.667 -6 -233v-817c0 -152.667 -39.667 -267.5 -119 -344.5s-197.333 -115.5 -354 -115.5zM825.003 545.999c0 124.667 -24.5 222.667 -73.5 294s-113.5 107 -193.5 107c-86 0 -149.333 -32.333 -190 -97
s-61 -166.667 -61 -306c0 -138 19.333 -238.333 58 -301s102 -94 190 -94c82 0 147.5 35.167 196.5 105.5s73.5 167.5 73.5 291.5z" />
    <glyph glyph-name="h" unicode="h" horiz-adv-x="1176" 
d="M351 887c38.667 74.667 85.666 129.167 140.999 163.5s124 51.5 206 51.5c116.667 0 203.667 -32.167 261 -96.5s86 -163.166 86 -296.499v-709h-214v659c0 97.333 -16.667 168.333 -50 213s-87.666 67 -162.999 67c-78.667 0 -142 -29.333 -190 -88
s-72 -136.334 -72 -233.001v-618h-214v1484h214v-392c0 -26 -0.5 -52.833 -1.5 -80.5s-2 -52.667 -3 -75s-2.16699 -38.833 -3.5 -49.5h3z" />
    <glyph glyph-name="i" unicode="i" horiz-adv-x="493" 
d="M353 1484v-184h-214v184h214zM353 1082v-1082h-214v1082h214z" />
    <glyph glyph-name="j" unicode="j" horiz-adv-x="493" 
d="M353 1484v-184h-214v184h214zM97 -425c-56.667 0 -103.667 3 -141 9v159l29 -4c9.33301 -1.33301 19 -2 29 -2c46.667 0 79.167 11.5 97.5 34.5s27.5 68.833 27.5 137.5v1173h214v-1214c0 -100 -21.333 -173.833 -64 -221.5s-106.667 -71.5 -192 -71.5z" />
    <glyph glyph-name="k" unicode="k" horiz-adv-x="1062" 
d="M353 392v-392h-213v1484h213v-901l446 499h241l-419 -451l444 -631h-243l-340 493z" />
    <glyph glyph-name="l" unicode="l" horiz-adv-x="493" 
d="M353 1484v-1484h-213v1484h213z" />
    <glyph glyph-name="m" unicode="m" horiz-adv-x="1744" 
d="M355 611l0.000976562 -610.998h-213v847c0 62 -0.5 111.833 -1.5 149.5s-2.5 66.167 -4.5 85.5h202c1.33301 -12.667 2.83301 -31 4.5 -55s3 -48.833 4 -74.5s1.5 -47.5 1.5 -65.5h3c37.333 78.667 81.333 134.167 132 166.5s112 48.5 184 48.5
c82 0 147.333 -17.333 196 -52s82 -89 100 -163h4c37.333 76.667 82.166 131.667 134.499 165s116.833 50 193.5 50c108 0 187.833 -31.667 239.5 -95s77.5 -162.333 77.5 -297v-710h-212v660c0 101.333 -14 173.166 -42 215.499s-76 63.5 -144 63.5
c-70.667 0 -126.667 -28.167 -168 -84.5s-62 -135.833 -62 -238.5v-616h-212v660c0 101.333 -14.167 173.166 -42.5 215.499s-76.5 63.5 -144.5 63.5c-70 0 -125.833 -29.167 -167.5 -87.5s-62.5 -138.5 -62.5 -240.5z" />
    <glyph glyph-name="n" unicode="n" horiz-adv-x="1176" 
d="M356 611l0.00195312 -611.001h-214v847c0 62 -0.5 111.833 -1.5 149.5s-2.5 66.167 -4.5 85.5h202c1.33301 -11.333 2.66602 -28.333 3.99902 -51s2.5 -47 3.5 -73s1.83301 -49.667 2.5 -71h3c40.667 77.333 88.667 132.5 144 165.5s123 49.5 203 49.5
c117.333 0 204.5 -32 261.5 -96s85.5 -162.667 85.5 -296v-710h-214v660c0 100.667 -16.333 172.334 -49 215.001s-87.334 64 -164.001 64c-80 0 -143.667 -29.5 -191 -88.5s-71 -138.833 -71 -239.5z" />
    <glyph glyph-name="o" unicode="o" horiz-adv-x="1176" 
d="M1092 542c0 -184.667 -44 -324.5 -132 -419.5s-213.333 -142.5 -376 -142.5c-162 0 -285.833 48.833 -371.5 146.5s-128.5 236.167 -128.5 415.5c0 182.667 43 321.667 129 417s211.667 143 377 143c168.667 0 294.5 -46.333 377.5 -139s124.5 -233 124.5 -421zM868 542
c0 142.667 -21.666 246.167 -64.999 310.5s-113.333 96.5 -210 96.5c-98.667 0 -170.834 -33.167 -216.501 -99.5s-68.5 -168.833 -68.5 -307.5c0 -135.333 22.5 -237.333 67.5 -306s113.5 -103 205.5 -103c101.333 0 174.5 33.333 219.5 100s67.5 169.667 67.5 309z" />
    <glyph glyph-name="p" unicode="p" horiz-adv-x="1176" 
d="M1091 546c0 -186 -34.168 -326.833 -102.501 -422.5s-168.833 -143.5 -301.5 -143.5c-163.333 0 -274.333 63 -333 189h-5c2.66699 -9.33301 4 -67.333 4 -174v-420h-213v1277c0 54 -0.666992 100.167 -2 138.5s-3 68.833 -5 91.5h207
c1.33301 -4.66699 2.83301 -17.834 4.5 -39.501s3.16699 -45.5 4.5 -71.5s2 -47.333 2 -64h4c31.333 66.667 74.333 115.834 129 147.501s124.334 47.5 209.001 47.5c131.333 0 230.5 -45.833 297.5 -137.5s100.5 -231.167 100.5 -418.5zM866.999 543
c0 141.333 -19.668 243.666 -59.001 306.999s-101 95 -185 95c-90.667 0 -158.5 -33.667 -203.5 -101s-67.5 -171.666 -67.5 -312.999c0 -133.333 21.667 -233 65 -299s111.333 -99 204 -99c84.667 0 146.834 32.167 186.501 96.5s59.5 168.833 59.5 313.5z" />
    <glyph glyph-name="q" unicode="q" horiz-adv-x="1176" 
d="M85 537c0 185.333 34.334 325.834 103.001 421.501s169.334 143.5 302.001 143.5c80.667 0 148.167 -15 202.5 -45s98.5 -78.333 132.5 -145c0 16 0.666992 37.5 2 64.5s3.16602 52 5.49902 75s4.16602 36.167 5.49902 39.5h205c-2 -24.667 -3.5 -60.334 -4.5 -107.001
s-1.5 -104 -1.5 -172v-1237h-213v443l4 161h-2c-34 -70 -78.5 -120.667 -133.5 -152s-125.167 -47 -210.5 -47c-133.333 0 -232.833 47.333 -298.5 142s-98.5 233 -98.5 415zM824.001 551.001c0 132.667 -21.668 232.168 -65.001 298.501s-111.333 99.5 -204 99.5
c-85.333 0 -147.666 -32.833 -186.999 -98.5s-59 -168.834 -59 -309.501c0 -141.333 19.667 -244 59 -308s101 -96 185 -96c92.667 0 161 35 205 105s66 173 66 309z" />
    <glyph glyph-name="r" unicode="r" horiz-adv-x="720" 
d="M356 553l-0.000976562 -552.998h-214v829c0 45.333 -0.5 88.666 -1.5 129.999s-2.5 82.333 -4.5 123h202l4 -69c1.33301 -23.333 2.33301 -45.333 3 -66s1.33398 -38.834 2.00098 -54.501s1 -27.167 1 -34.5h4c22 68 44.667 119.667 68 155
c22.667 32.667 49 55.667 79 69s67 20 111 20c28 0 53.667 -3.66699 77 -11v-189c-30 8 -64.667 12 -104 12c-72.667 0 -128.667 -30.833 -168 -92.5s-59 -151.167 -59 -268.5z" />
    <glyph glyph-name="s" unicode="s" horiz-adv-x="1062" 
d="M985 305c0 -103.333 -39.9971 -183.334 -119.997 -240.001s-191.333 -85 -334 -85c-139.333 0 -246.5 22.667 -321.5 68s-124.167 115.666 -147.5 210.999l188 33c15.333 -55.333 44.666 -95.666 87.999 -120.999s107.666 -38 192.999 -38c87.333 0 151 12.667 191 38
s60 64 60 116c0 40 -14.5 72.167 -43.5 96.5s-76.833 44.833 -143.5 61.5l-170.5 44c-44.333 12 -79.666 22.833 -105.999 32.5s-47.5 18.834 -63.5 27.501c-48 26 -85 58.333 -111 97s-39 86.334 -39 143.001c0 100 36.667 176.833 110 230.5s179.333 80.5 318 80.5
c122.667 0 220.5 -22.333 293.5 -67s118.833 -113.667 137.5 -207l-191 -22c-9.33301 46.667 -33.833 82.167 -73.5 106.5s-95.167 36.5 -166.5 36.5c-76.667 0 -133.334 -11 -170.001 -33s-55 -56.333 -55 -103c0 -34.667 11.5 -63 34.5 -85s65.5 -40 127.5 -54
c83.333 -19.333 161.166 -40 233.499 -62s125.833 -45 160.5 -69c38.667 -26.667 68.5 -58.834 89.5 -96.501s31.5 -84.167 31.5 -139.5z" />
    <glyph glyph-name="t" unicode="t" horiz-adv-x="607" 
d="M588 11c-61.333 -18.667 -127.999 -28 -199.999 -28c-75.333 0 -132.5 21.167 -171.5 63.5s-58.5 105.833 -58.5 190.5v694h-129v151h138l65 246h139v-246h201v-151h-201v-642c0 -52.667 9 -90.167 27 -112.5s48 -33.5 90 -33.5c21.333 0 54.666 4.66699 99.999 14v-146z
" />
    <glyph glyph-name="u" unicode="u" horiz-adv-x="1176" 
d="M825 195c-40 -77.333 -87.665 -132.503 -142.998 -165.503s-123.333 -49.5 -204 -49.5c-117.333 0 -204.5 31.333 -261.5 94s-85.5 162 -85.5 298v710h214v-660c0 -103.333 16.667 -175.666 50 -216.999s87.666 -62 162.999 -62c80.667 0 144.5 29.5 191.5 88.5
s70.5 138.833 70.5 239.5v611h214v-847c0 -57.333 0.5 -105.666 1.5 -144.999s2.83301 -69.333 5.5 -90h-203c-2 18 -3.83301 42.333 -5.5 73s-2.83398 71.334 -3.50098 122.001h-4z" />
    <glyph glyph-name="v" unicode="v" horiz-adv-x="1062" 
d="M1055 1082l-403.001 -1082h-254l-391 1082h227l222 -671c4.66699 -14.667 12.834 -42.167 24.501 -82.5l45.5 -158.5c6.66699 20 14.167 44.167 22.5 72.5l25.5 86c8.66699 29 16.667 54.167 24 75.5l231 678h226z" />
    <glyph glyph-name="w" unicode="w" horiz-adv-x="1517" 
d="M718 729l-189 -728.999h-238l-295 1082h207l170 -713l19 -84.5c7.33301 -32.333 14.333 -65.833 21 -100.5l20.5 95c7 31.333 14.5 62.666 22.5 93.999l188 709h229l182 -707l21 -88l23 -103l22 99l21 94l176 705h204l-302 -1082h-238l-183 730
c-6 24 -12.167 51.5 -18.5 82.5l-21.5 104.5l-18 -87.5c-7.33301 -35.667 -15 -69.167 -23 -100.5z" />
    <glyph glyph-name="x" unicode="x" horiz-adv-x="1062" 
d="M529 427l-280 -427h-229l389 557l-371 525h234l257 -399l255 399h236l-370 -523l393 -559h-236z" />
    <glyph glyph-name="y" unicode="y" horiz-adv-x="1062" 
d="M222 -425c-55.333 0 -102.67 4.00098 -142.003 12.001v156c29.333 -4 58.666 -6 87.999 -6c59.333 0 110.333 19.667 153 59s81.334 109.666 116.001 210.999l-428 1075h227l208 -568c16 -40.667 33 -88.167 51 -142.5s34 -107.833 48 -160.5l49 150.5l48 146.5l191 574
h225l-420 -1101c-20.667 -53.333 -41.167 -100.333 -61.5 -141s-40.166 -74.667 -59.499 -102c-39.333 -56.667 -82.666 -98 -129.999 -124s-101.666 -39 -162.999 -39z" />
    <glyph glyph-name="z" unicode="z" horiz-adv-x="1024" 
d="M931 161v-161h-848v158l573 764h-537v160h782v-158l-573 -763h603z" />
    <glyph glyph-name="braceleft" unicode="{" horiz-adv-x="722" 
d="M528 -425c-86.667 0 -154.167 25.833 -202.5 77.5s-72.5 124.167 -72.5 217.5v350c0 77.333 -17.667 135 -53 173s-90.666 58.333 -165.999 61v150c75.333 2.66699 130.666 23.167 165.999 61.5s53 95.833 53 172.5v351c0 95.333 23.5 168.333 70.5 219
s115.167 76 204.5 76h155v-149h-61c-60.667 0 -104 -17.667 -130 -53s-39 -88.666 -39 -159.999v-338c0 -62.667 -18.167 -117 -54.5 -163s-84.5 -75.667 -144.5 -89v-3c60.667 -14 109 -43.667 145 -89s54 -100 54 -164v-338c0 -70.667 13 -123.834 39 -159.501
s69.333 -53.5 130 -53.5h61v-150h-155z" />
    <glyph glyph-name="bar" unicode="|" horiz-adv-x="546" 
d="M372 1484v-1925h-198v1925h198z" />
    <glyph glyph-name="braceright" unicode="}" horiz-adv-x="722" 
d="M37 -275l59 0.00195312c61.333 0 105.166 17.833 131.499 53.5s39.5 88.834 39.5 159.501v338c0 64 17.833 118.833 53.5 164.5s83.5 75.167 143.5 88.5v3c-58 13.333 -105.333 42.5 -142 87.5s-55 99.833 -55 164.5v338c0 71.333 -13.167 124.666 -39.5 159.999
s-70.166 53 -131.499 53h-59v149h154c88.667 0 156.5 -25.333 203.5 -76s70.5 -123.667 70.5 -219v-351c0 -76 17.833 -133.333 53.5 -172s91.834 -59.334 168.501 -62.001v-150c-76.667 -2 -132.834 -22.333 -168.501 -61s-53.5 -96.334 -53.5 -173.001v-350
c0 -92.667 -24.167 -165 -72.5 -217s-115.5 -78 -201.5 -78h-154v150z" />
    <glyph glyph-name="asciitilde" unicode="~" horiz-adv-x="1196" 
d="M847 541c-47.333 0 -95.1699 7.16797 -143.503 21.501s-97.166 30.166 -146.499 47.499c-87.333 30.667 -160 46 -218 46c-46 0 -88.5 -7 -127.5 -21s-80.167 -36.333 -123.5 -67v166c74.667 56 163.334 84 266.001 84c47.333 0 100 -8 158 -24l90.5 -27.5l98.5 -31.5
c19.333 -6.66699 45 -14 77 -22s60.667 -12 86 -12c86.667 0 168.334 30.667 245.001 92v-172c-40 -28.667 -79.5 -49.167 -118.5 -61.5s-86.833 -18.5 -143.5 -18.5z" />
    <glyph glyph-name="nbspace" unicode="&#xa0;" horiz-adv-x="569" 
 />
    <glyph glyph-name="exclamdown" unicode="&#xa1;" horiz-adv-x="682" 
d="M456 1082v-224h-225v224h225zM226 -327l27 1002h175l27 -1002h-229z" />
    <glyph glyph-name="cent" unicode="&#xa2;" horiz-adv-x="1139" 
d="M593 298c62.667 0 114.835 17.668 156.502 53.001s67.5 88 77.5 158l216 -12c-13.333 -98 -53.666 -178.5 -120.999 -241.5s-153.333 -99.833 -258 -110.5v-176h-137v175c-136 12.667 -240 65.834 -312 159.501s-108 223.5 -108 389.5c0 164 35.667 293.667 107 389
s175.666 149.333 312.999 162v165h137v-165c101.333 -10.667 184 -44.834 248 -102.501s105.333 -134.167 124 -229.5l-218 -14c-9.33301 60 -32.833 107.333 -70.5 142s-89.834 52 -156.501 52c-90.667 0 -157.334 -31.333 -200.001 -94s-64 -162.334 -64 -299.001
c0 -134.667 22.5 -235.167 67.5 -301.5s111.167 -99.5 198.5 -99.5z" />
    <glyph glyph-name="sterling" unicode="&#xa3;" horiz-adv-x="1139" 
d="M1109 328c-14.667 -104.667 -53.1641 -185.502 -115.497 -242.502s-142.5 -85.5 -240.5 -85.5h-696v171c62 33.333 106.667 75.833 134 127.5s41 115.834 41 192.501v127h-186v143h183v269c0 131.333 34.833 230.833 104.5 298.5s171.5 101.5 305.5 101.5
c102.667 0 187 -21.167 253 -63.5s111.667 -104.5 137 -186.5l-194 -54c-14 45.333 -37.833 80.333 -71.5 105s-73.834 37 -120.501 37c-70.667 0 -122.834 -19.167 -156.501 -57.5s-50.5 -99.166 -50.5 -182.499v-267h367v-143h-367v-114
c0 -76 -14.833 -142.667 -44.5 -200s-72.834 -101.333 -129.501 -132h449c62 0 110.167 15.167 144.5 45.5s56.5 75.5 66.5 135.5z" />
    <glyph glyph-name="currency" unicode="&#xa4;" horiz-adv-x="1139" 
d="M136 684c0 88 23.999 168.667 71.999 242l-111 111l122 120l109 -111c72.667 49.333 153.667 74 243 74c87.333 0 167.333 -24.333 240 -73l110 110l122 -123l-109 -109c48.667 -74.667 73 -155 73 -241c0 -88 -24.667 -168 -74 -240l111 -111l-120 -124l-112 113
c-73.333 -48 -153.666 -72 -240.999 -72c-90 0 -170.333 24 -241 72l-115 -115l-121 122l113 114c-47.333 72.667 -71 153 -71 241zM313.999 686c0 -47.333 11.6689 -90.333 35.002 -129s54.5 -69.5 93.5 -92.5s81.833 -34.5 128.5 -34.5s89.334 11.5 128.001 34.5
s69.667 53.833 93 92.5s35 81.667 35 129s-11.667 90.5 -35 129.5s-54.333 70 -93 93s-81.334 34.5 -128.001 34.5s-89.334 -11.5 -128.001 -34.5s-69.834 -53.833 -93.501 -92.5s-35.5 -82 -35.5 -130z" />
    <glyph glyph-name="yen" unicode="&#xa5;" horiz-adv-x="1139" 
d="M673 281v-281h-209v281h-366v133h366l2 157h-368v132h305l-402 706h229l338 -630l341 630h229l-403 -706h306v-132h-368v-157h368v-133h-368z" />
    <glyph glyph-name="brokenbar" unicode="&#xa6;" horiz-adv-x="546" 
d="M372 1474v-778h-198v778h198zM372 338v-779h-198v779h198z" />
    <glyph glyph-name="section" unicode="&#xa7;" horiz-adv-x="1139" 
d="M584 1465c120 0 216.669 -22.6699 290.002 -68.0029s119 -111 137 -197l-187 -21c-8.66699 46.667 -33.334 82.167 -74.001 106.5s-96 36.5 -166 36.5c-80.667 0 -141.167 -12.167 -181.5 -36.5s-60.5 -59.5 -60.5 -105.5c0 -30 9.83301 -56 29.5 -78
s47.167 -41 82.5 -57c36.667 -16.667 97.667 -35 183 -55c100 -23.333 177.667 -49 233 -77c52.667 -28 93.334 -61.833 122.001 -101.5s43 -87.167 43 -142.5c0 -64.667 -19.333 -121.667 -58 -171s-90 -82.333 -154 -99c70 -30 121.167 -66.5 153.5 -109.5
s48.5 -94.5 48.5 -154.5c0 -102.667 -39.5 -182.667 -118.5 -240s-191.167 -86 -336.5 -86c-142.667 0 -251.667 22.5 -327 67.5s-125 114.833 -149 209.5l187 33c13.333 -57.333 41.833 -99.333 85.5 -126s111.5 -40 203.5 -40c87.333 0 154.166 13.333 200.499 40
s69.5 67.334 69.5 122.001c0 36 -9.83301 65.833 -29.5 89.5s-49.167 44.5 -88.5 62.5c-38.667 18 -112.334 40 -221.001 66c-132 30.667 -226.5 72 -283.5 124s-85.5 115.333 -85.5 190c0 60.667 19.833 114.5 59.5 161.5s94.167 81.167 163.5 102.5
c-62.667 22.667 -111.667 56.334 -147 101.001s-53 95.667 -53 153c0 94.667 36.5 168.334 109.5 221.001s179.5 79 319.5 79zM850.002 641.997c0 48 -22 87.667 -66 119c-44.667 32 -125 60.667 -241 86c-70 -5.33301 -124.667 -24 -164 -56s-59 -74 -59 -126
c0 -30.667 9.66699 -57.167 29 -79.5s46.666 -41.833 81.999 -58.5s97 -36 185 -58c74.667 2 132.334 18.167 173.001 48.5s61 71.833 61 124.5z" />
    <glyph glyph-name="dieresis" unicode="&#xa8;" horiz-adv-x="682" 
d="M624 1408v-196h-181v196h181zM217 1408v-196h-182v196h182z" />
    <glyph glyph-name="copyright" unicode="&#xa9;" horiz-adv-x="1509" 
d="M1477 707c0 -128.667 -31.999 -248.998 -95.999 -360.998c-64.667 -112.667 -153.167 -201.167 -265.5 -265.5s-232.833 -96.5 -361.5 -96.5c-130.667 0 -252.667 33.667 -366 101c-112.667 67.333 -200.334 156.333 -263.001 267s-94 229 -94 355
c0 129.333 32.333 249.666 97 360.999c64.667 112 153 200.333 265 265s232.333 97 361 97c129.333 0 250.333 -32.333 363 -97c112 -64.667 200 -152.834 264 -264.501s96 -232.167 96 -361.5zM1379 707.002c0 111.333 -28.001 215.001 -84.001 311.001
c-55.333 94.667 -131.333 170 -228 226s-201 84 -313 84c-109.333 0 -212 -27.333 -308 -82s-172.167 -130.167 -228.5 -226.5s-84.5 -200.5 -84.5 -312.5s28 -216 84 -312c55.333 -96 130.833 -171.833 226.5 -227.5s199.167 -83.5 310.5 -83.5
c112 0 216.333 27.667 313 83c96.667 56 172.834 132.167 228.501 228.5s83.5 200.166 83.5 311.499zM513 709.003c0 -98.667 22.333 -175.333 67 -230s106.667 -82 186 -82c100.667 0 174.334 50.667 221.001 152l130 -39c-40.667 -81.333 -89.5 -139.833 -146.5 -175.5
s-125.167 -53.5 -204.5 -53.5c-126.667 0 -224.834 37.5 -294.501 112.5s-104.5 180.167 -104.5 315.5s33.667 239.333 101 312s164 109 290 109c166 0 281 -72 345 -216l-128 -35c-20 44 -48.333 77.333 -85 100s-79.667 34 -129 34c-80.667 0 -142.167 -25.667 -184.5 -77
s-63.5 -127 -63.5 -227z" />
    <glyph glyph-name="ordfeminine" unicode="&#xaa;" horiz-adv-x="758" 
d="M259 676c-69.333 0 -124.502 18.6699 -165.502 56.0029s-61.5 89.666 -61.5 156.999c0 151.333 101 228.666 303 231.999l168 3v54c0 49.333 -10.667 85.5 -32 108.5s-56 34.5 -104 34.5c-40.667 0 -73.167 -9.16699 -97.5 -27.5s-39.166 -49.5 -44.499 -93.5l-162 9
c10.667 69.333 42.5 123.166 95.5 161.499s122.167 57.5 207.5 57.5c94.667 0 167.167 -20.667 217.5 -62s75.5 -102.333 75.5 -183v-285c0 -36 4 -62.333 12 -79s23.667 -25 47 -25c6.66699 0 13.834 0.666992 21.501 2s15.5 3 23.5 5v-106
c-36 -9.33301 -67.667 -14 -95 -14c-48.667 0 -86.5 12.5 -113.5 37.5s-41.833 58.5 -44.5 100.5h-4c-48 -95.333 -130.333 -143 -247 -143zM308.998 793.003c53.333 0 99 18.5 137 55.5s57 80.167 57 129.5v53l-123 -4c-72 -3.33301 -120.833 -15 -146.5 -35
s-38.5 -50 -38.5 -90c0 -72.667 38 -109 114 -109z" />
    <glyph glyph-name="guillemotleft" unicode="&#xab;" horiz-adv-x="1139" 
d="M1053 172v-31h-193l-311 364v65l311 370h191v-33l-310 -370zM588 172v-31h-192l-310 364v65l310 370h190v-33l-308 -370z" />
    <glyph glyph-name="logicalnot" unicode="&#xac;" horiz-adv-x="1196" 
d="M1100 767v-600h-171v428h-834v172h1005z" />
    <glyph glyph-name="registered" unicode="&#xae;" horiz-adv-x="1509" 
d="M1477 707c0 -128.667 -31.999 -248.998 -95.999 -360.998c-64.667 -112.667 -153.167 -201.167 -265.5 -265.5s-232.833 -96.5 -361.5 -96.5c-130.667 0 -252.667 33.667 -366 101c-112.667 67.333 -200.334 156.333 -263.001 267s-94 229 -94 355
c0 129.333 32.333 249.666 97 360.999c64.667 112 153 200.333 265 265s232.333 97 361 97c129.333 0 250.333 -32.333 363 -97c112 -64.667 200 -152.834 264 -264.501s96 -232.167 96 -361.5zM1379 707.002c0 111.333 -28.001 215.001 -84.001 311.001
c-55.333 94.667 -131.333 170 -228 226s-201 84 -313 84c-109.333 0 -212 -27.333 -308 -82s-172.167 -130.167 -228.5 -226.5s-84.5 -200.5 -84.5 -312.5s28 -216 84 -312c55.333 -96 130.833 -171.833 226.5 -227.5s199.167 -83.5 310.5 -83.5
c112 0 216.333 27.667 313 83c96.667 56 172.834 132.167 228.501 228.5s83.5 200.166 83.5 311.499zM606 620.003l-0.000976562 -328h-144v825h315c96.667 0 170.334 -21.167 221.001 -63.5s76 -100.5 76 -174.5c0 -66.667 -17 -120.167 -51 -160.5
s-78.333 -67.5 -133 -81.5l218 -345h-164l-192 328h-146zM928.999 877.003c0 43.333 -14.668 76.332 -44.001 98.999s-69.666 34 -120.999 34h-158v-283h169c50.667 0 89 13.333 115 40s39 63.334 39 110.001z" />
    <glyph glyph-name="overscore" unicode="&#xaf;" horiz-adv-x="1131" 
d="M1148 1546v-94h-1165v94h1165z" />
    <glyph glyph-name="degree" unicode="&#xb0;" horiz-adv-x="819" 
d="M708 1134c0 -54 -13.5 -103.502 -40.5 -148.502s-63 -80.833 -108 -107.5s-95.167 -40 -150.5 -40c-54 0 -103.667 13.333 -149 40s-81.5 62.334 -108.5 107.001s-40.5 94 -40.5 148s13.333 103.5 40 148.5s62.667 80.667 108 107s95.333 39.5 150 39.5
c56 0 106.5 -13 151.5 -39s80.833 -61.167 107.5 -105.5s40 -94.166 40 -149.499zM582 1133c0 49.333 -16.498 91 -49.498 125s-74.167 51 -123.5 51c-48.667 0 -89.834 -17.167 -123.501 -51.5s-50.5 -75.833 -50.5 -124.5c0 -48 17.167 -89.333 51.5 -124
s75.166 -52 122.499 -52c48 0 88.833 17.167 122.5 51.5s50.5 75.833 50.5 124.5z" />
    <glyph glyph-name="plusminus" unicode="&#xb1;" horiz-adv-x="1124" 
d="M649 689v-377h-173v377h-416v171h416v376h173v-376h416v-171h-416zM1065 171v-171h-1005v171h1005z" />
    <glyph glyph-name="twosuperior" unicode="&#xb2;" horiz-adv-x="682" 
d="M642 728v-121h-596l-2 109c20.667 44 51.167 86.333 91.5 127s94.5 84 162.5 130c62 42.667 106.333 80.5 133 113.5s40 66.833 40 101.5c0 38 -10 67.833 -30 89.5s-51 32.5 -93 32.5c-40 0 -72.333 -10.833 -97 -32.5s-39.334 -53.167 -44.001 -94.5l-154 7
c8.66699 69.333 39.334 125.5 92.001 168.5s121.667 64.5 207 64.5s152.833 -19.833 202.5 -59.5s74.5 -95.167 74.5 -166.5c0 -92.667 -59 -180.667 -177 -264l-98 -71.5c-26.667 -20.333 -47.667 -37.5 -63 -51.5c-32 -28 -53.667 -55.333 -65 -82h416z" />
    <glyph glyph-name="threesuperior" unicode="&#xb3;" horiz-adv-x="682" 
d="M641 828c0 -73.333 -25.6689 -130.497 -77.002 -171.497s-123.666 -61.5 -216.999 -61.5c-94 0 -167.333 18.5 -220 55.5s-84 92.167 -94 165.5l153 13c10.667 -81.333 64 -122 160 -122c93.333 0 140 43.667 140 131c0 81.333 -57.333 122 -172 122h-59v115h55
c49.333 0 87.833 10.5 115.5 31.5s41.5 50.833 41.5 89.5c0 35.333 -10.833 63.166 -32.5 83.499s-53.167 30.5 -94.5 30.5c-40 0 -72 -10.333 -96 -31s-38 -50.334 -42 -89.001l-152 12c8.66699 69.333 38.834 123.5 90.501 162.5s119.834 58.5 204.501 58.5
c86 0 153.333 -19 202 -57s73 -88.333 73 -151c0 -47.333 -13.5 -88.333 -40.5 -123s-69.5 -58 -127.5 -70v-2c59.333 -6 105.666 -25.833 138.999 -59.5s50 -77.834 50 -132.501z" />
    <glyph glyph-name="acute" unicode="&#xb4;" horiz-adv-x="682" 
d="M530 1472l-334 -277h-119v24l229 287h224v-34z" />
    <glyph glyph-name="mu1" unicode="&#xb5;" horiz-adv-x="1196" 
d="M138 -425l-0.00195312 1507h214v-659c0 -94.667 16.667 -164.834 50 -210.501s86.333 -68.5 159 -68.5c76.667 0 136.167 27.667 178.5 83s63.5 136.666 63.5 243.999v611h214l-1 -798c0 -54 6.33301 -92.5 19 -115.5s33.667 -34.5 63 -34.5c18 0 37 2.33301 57 7v-136
c-26 -7.33301 -49.5 -12.833 -70.5 -16.5s-42.833 -5.5 -65.5 -5.5c-64 0 -112.167 15.333 -144.5 46s-50.5 79.334 -54.5 146.001h-4c-31.333 -68 -69.666 -117.5 -114.999 -148.5s-98.333 -46.5 -159 -46.5c-41.333 0 -78.666 7.16699 -111.999 21.5
s-59.333 34.833 -78 61.5v-488h-214z" />
    <glyph glyph-name="paragraph" unicode="&#xb6;" horiz-adv-x="1113" 
d="M566 1293v-1557h-127v958c-112 0 -200.333 30.833 -265 92.5s-97 149.167 -97 262.5c0 112.667 32.833 200.834 98.5 264.501s156.167 95.5 271.5 95.5h585v-116h-129v-1557h-127v1557h-210z" />
    <glyph glyph-name="middot" unicode="&#xb7;" horiz-adv-x="682" 
d="M435 723v-249h-226v249h226z" />
    <glyph glyph-name="cedilla" unicode="&#xb8;" horiz-adv-x="682" 
d="M489 -247c0 -61.333 -24 -107.333 -72 -138s-118.667 -46 -212 -46c-37.333 0 -68.666 1.66699 -93.999 5v104c29.333 -4 58 -6 86 -6c95.333 0 143 25.667 143 77c0 24.667 -10.333 43.167 -31 55.5s-53.334 18.5 -98.001 18.5c-14 0 -25.5 -0.166992 -34.5 -0.5
s-15.833 -0.833008 -20.5 -1.5l64 179h119l-37 -94c62.667 -2.66699 109.5 -17.5 140.5 -44.5s46.5 -63.167 46.5 -108.5z" />
    <glyph glyph-name="onesuperior" unicode="&#xb9;" horiz-adv-x="682" 
d="M631 718v-111h-550v111h202v570l-193 -128v120l200 131h141v-693h200z" />
    <glyph glyph-name="ordmasculine" unicode="&#xba;" horiz-adv-x="748" 
d="M720 1052c0 -119.333 -29.5 -211.833 -88.5 -277.5s-145.167 -98.5 -258.5 -98.5c-108.667 0 -192.5 32.5 -251.5 97.5s-88.5 157.833 -88.5 278.5c0 120 29.5 212.667 88.5 278s144.167 98 255.5 98c112.667 0 198 -31.667 256 -95s87 -157 87 -281zM554 1052
c0 92 -13.499 158 -40.499 198s-71.5 60 -133.5 60c-64.667 0 -110.834 -20.5 -138.501 -61.5s-41.5 -106.5 -41.5 -196.5c0 -88 13.667 -153.333 41 -196s71 -64 131 -64c66 0 112.833 21 140.5 63s41.5 107.667 41.5 197z" />
    <glyph glyph-name="guillemotright" unicode="&#xbb;" horiz-adv-x="1139" 
d="M742 141h-191v31l310 365l-308 370v33h189l311 -370v-65zM280 141h-194v31l311 365l-309 370v33h192l308 -370v-65z" />
    <glyph glyph-name="onequarter" unicode="&#xbc;" horiz-adv-x="1708" 
d="M619 718v-111h-550v111h202v570l-193 -128v120l200 131h141v-693h200zM1393 1409l-883 -1409h-166l886 1409h163zM1505 167v-165h-149v165h-385v123l363 516h171v-517h108v-122h-108zM1359 671l-32 -57c-12 -20.667 -26.667 -43.667 -44 -69l-180 -256h253v257
c0 20.667 0.333008 41.5 1 62.5z" />
    <glyph glyph-name="onehalf" unicode="&#xbd;" horiz-adv-x="1708" 
d="M619 718v-111h-550v111h202v570l-193 -128v120l200 131h141v-693h200zM1387 1409l-883 -1409h-166l886 1409h163zM1640 122v-121h-596l-2 109c20.667 44 51.167 86.333 91.5 127s94.5 84 162.5 130c62 42.667 106.333 80.5 133 113.5s40 66.833 40 101.5
c0 38 -10 67.833 -30 89.5s-51 32.5 -93 32.5c-40 0 -72.333 -10.833 -97 -32.5s-39.334 -53.167 -44.001 -94.5l-154 7c8.66699 69.333 39.334 125.5 92.001 168.5s121.667 64.5 207 64.5s152.833 -19.833 202.5 -59.5s74.5 -95.167 74.5 -166.5
c0 -92.667 -59 -180.667 -177 -264l-98 -71.5c-26.667 -20.333 -47.667 -37.5 -63 -51.5c-32 -28 -53.667 -55.333 -65 -82h416z" />
    <glyph glyph-name="threequarters" unicode="&#xbe;" horiz-adv-x="1708" 
d="M1407 1409l-883 -1409h-166l886 1409h163zM1505 167v-165h-149v165h-385v123l363 516h171v-517h108v-122h-108zM1359 671l-32 -57c-12 -20.667 -26.667 -43.667 -44 -69l-180 -256h253v257c0 20.667 0.333008 41.5 1 62.5zM691 828
c0 -73.333 -25.6689 -130.497 -77.002 -171.497s-123.666 -61.5 -216.999 -61.5c-94 0 -167.333 18.5 -220 55.5s-84 92.167 -94 165.5l153 13c10.667 -81.333 64 -122 160 -122c93.333 0 140 43.667 140 131c0 81.333 -57.333 122 -172 122h-59v115h55
c49.333 0 87.833 10.5 115.5 31.5s41.5 50.833 41.5 89.5c0 35.333 -10.833 63.166 -32.5 83.499s-53.167 30.5 -94.5 30.5c-40 0 -72 -10.333 -96 -31s-38 -50.334 -42 -89.001l-152 12c8.66699 69.333 38.834 123.5 90.501 162.5s119.834 58.5 204.501 58.5
c86 0 153.333 -19 202 -57s73 -88.333 73 -151c0 -47.333 -13.5 -88.333 -40.5 -123s-69.5 -58 -127.5 -70v-2c59.333 -6 105.666 -25.833 138.999 -59.5s50 -77.834 50 -132.501z" />
    <glyph glyph-name="questiondown" unicode="&#xbf;" horiz-adv-x="1251" 
d="M774 1082v-224h-227v224h227zM125 52c0 72 16 134.333 48 187s87.667 108 167 166l80 57c91.333 66.667 138 142.334 140 227.001h206c-2 -56 -13 -104.333 -33 -145s-46 -76.5 -78 -107.5s-67.333 -60.167 -106 -87.5c-41.333 -29.333 -77.5 -57.333 -108.5 -84
s-55.333 -56.167 -73 -88.5s-26.5 -70.833 -26.5 -115.5c0 -70 23.667 -125.333 71 -166s113.666 -61 198.999 -61c84.667 0 152.834 22.167 204.501 66.5s82.167 104.166 91.5 179.499l217 -12c-17.333 -132.667 -70.5 -235.167 -159.5 -307.5
s-205.833 -108.5 -350.5 -108.5c-152 0 -271.5 35.333 -358.5 106s-130.5 168.667 -130.5 294z" />
    <glyph glyph-name="Agrave" unicode="&#xc0;" horiz-adv-x="1404" 
d="M400 395l-150 -395h-230l554 1409h261l548 -1409h-227l-149 395h-607zM703 1241c-10 -34 -22.167 -72.501 -36.5 -115.501s-26.833 -78.5 -37.5 -106.5l-169 -451h487l-172 458c-9.33301 24.667 -20.333 55.834 -33 93.501zM889 1554v-24h-132l-320 225v34h224z" />
    <glyph glyph-name="Aacute" unicode="&#xc1;" horiz-adv-x="1404" 
d="M400 395l-150 -395h-230l554 1409h261l548 -1409h-227l-149 395h-607zM703 1241c-10 -34 -22.167 -72.501 -36.5 -115.501s-26.833 -78.5 -37.5 -106.5l-169 -451h487l-172 458c-9.33301 24.667 -20.333 55.834 -33 93.501zM1009 1755l-320 -225h-133v24l229 235h224v-34
z" />
    <glyph glyph-name="Acircumflex" unicode="&#xc2;" horiz-adv-x="1404" 
d="M400 395l-150 -395h-230l554 1409h261l548 -1409h-227l-149 395h-607zM703 1241c-10 -34 -22.167 -72.501 -36.5 -115.501s-26.833 -78.5 -37.5 -106.5l-169 -451h487l-172 458c-9.33301 24.667 -20.333 55.834 -33 93.501zM358 1530v23l242 252h212l233 -252v-23h-123
l-214 143h-2l-225 -143h-123z" />
    <glyph glyph-name="Atilde" unicode="&#xc3;" horiz-adv-x="1404" 
d="M400 395l-150 -395h-230l554 1409h261l548 -1409h-227l-149 395h-607zM703 1241c-10 -34 -22.167 -72.501 -36.5 -115.501s-26.833 -78.5 -37.5 -106.5l-169 -451h487l-172 458c-9.33301 24.667 -20.333 55.834 -33 93.501zM863 1530c-26 0 -52.667 6.00098 -80 18.001
s-54.333 25.333 -81 40l-79 42.5c-25.333 13 -49 19.5 -71 19.5c-33.333 0 -58.5 -9.33301 -75.5 -28s-28.833 -49.334 -35.5 -92.001h-107c10 106 33.333 178.5 70 217.5s83.667 58.5 141 58.5c28 0 56.5 -6.5 85.5 -19.5s57.167 -27.5 84.5 -43.5l74.5 -39
c23.667 -12 45.5 -18 65.5 -18c31.333 0 56 9.33301 74 28s30.333 49.334 37 92.001h106c-8.66699 -100.667 -30.5 -171.834 -65.5 -213.501s-82.833 -62.5 -143.5 -62.5z" />
    <glyph glyph-name="Adieresis" unicode="&#xc4;" horiz-adv-x="1404" 
d="M400 395l-150 -395h-230l554 1409h261l548 -1409h-227l-149 395h-607zM703 1241c-10 -34 -22.167 -72.501 -36.5 -115.501s-26.833 -78.5 -37.5 -106.5l-169 -451h487l-172 458c-9.33301 24.667 -20.333 55.834 -33 93.501zM999 1726v-196h-174v196h174zM586 1726v-196
h-175v196h175z" />
    <glyph glyph-name="Aring" unicode="&#xc5;" horiz-adv-x="1404" 
d="M400 395l-150 -395h-230l554 1409h261l548 -1409h-227l-149 395h-607zM703 1241c-10 -34 -22.167 -72.501 -36.5 -115.501s-26.833 -78.5 -37.5 -106.5l-169 -451h487l-172 458c-9.33301 24.667 -20.333 55.834 -33 93.501zM950 1548
c0 -44.667 -10.999 -85.667 -32.999 -123s-51.5 -67.166 -88.5 -89.499s-78.5 -33.5 -124.5 -33.5c-45.333 0 -86.666 11.167 -123.999 33.5s-67 52.166 -89 89.499s-33 78.333 -33 123c0 46 11.167 87.5 33.5 124.5s52.166 66.5 89.499 88.5s78.333 33 123 33
s85.667 -11.167 123 -33.5s67.166 -52 89.499 -89s33.5 -78.167 33.5 -123.5zM836.001 1548c0 36.667 -12.8291 67.667 -38.4961 93s-56.834 38 -93.501 38s-67.834 -12.667 -93.501 -38s-38.5 -56.333 -38.5 -93s12.667 -68.167 38 -94.5s56.666 -39.5 93.999 -39.5
s68.666 13.167 93.999 39.5s38 57.833 38 94.5z" />
    <glyph glyph-name="AE" unicode="&#xc6;" horiz-adv-x="2048" 
d="M441 395l-189 -395h-235l691 1409h1214v-180h-740v-419h679v-177h-679v-453h781v-180h-1007v395h-515zM522 568h434v671h-121z" />
    <glyph glyph-name="Ccedilla" unicode="&#xc7;" horiz-adv-x="1479" 
d="M798 162c191.333 0 331.67 94.998 421.003 284.998l189 -85c-56.667 -126 -137.834 -221.167 -243.501 -285.5s-229.834 -96.5 -372.501 -96.5c-145.333 0 -269.833 29.333 -373.5 88s-183.167 142.834 -238.5 252.501s-83 239.834 -83 390.501
c0 151.333 27.167 280.666 81.5 387.999s133 189.333 236 246s227.167 85 372.5 85c155.333 0 283.833 -30.667 385.5 -92s175.5 -151.666 221.5 -270.999l-208 -64c-28.667 78 -77.834 138.5 -147.501 181.5s-152.167 64.5 -247.5 64.5
c-148.667 0 -263.334 -47.333 -344.001 -142s-121 -226.667 -121 -396c0 -112.667 18.833 -210 56.5 -292s91.834 -145.333 162.501 -190s155 -67 253 -67zM992.004 -247.002c0 -61.333 -24 -107.333 -72 -138s-118.667 -46 -212 -46c-37.333 0 -68.666 1.66699 -93.999 5
v104c29.333 -4 58 -6 86 -6c95.333 0 143 25.667 143 77c0 24.667 -10.333 43.167 -31 55.5s-53.334 18.5 -98.001 18.5c-14 0 -25.5 -0.166992 -34.5 -0.5s-15.833 -0.833008 -20.5 -1.5l64 179h119l-37 -94c62.667 -2.66699 109.5 -17.5 140.5 -44.5
s46.5 -63.167 46.5 -108.5z" />
    <glyph glyph-name="Egrave" unicode="&#xc8;" horiz-adv-x="1366" 
d="M1281 180v-180h-1123v1409h1082v-180h-857v-419h796v-179h-796v-451h898zM868 1554v-24h-132l-320 225v34h224z" />
    <glyph glyph-name="Eacute" unicode="&#xc9;" horiz-adv-x="1366" 
d="M1281 180v-180h-1123v1409h1082v-180h-857v-419h796v-179h-796v-451h898zM993 1755l-320 -225h-133v24l229 235h224v-34z" />
    <glyph glyph-name="Ecircumflex" unicode="&#xca;" horiz-adv-x="1366" 
d="M1281 180v-180h-1123v1409h1082v-180h-857v-419h796v-179h-796v-451h898zM365 1530v23l242 252h212l233 -252v-23h-123l-214 143h-2l-225 -143h-123z" />
    <glyph glyph-name="Edieresis" unicode="&#xcb;" horiz-adv-x="1366" 
d="M1281 180v-180h-1123v1409h1082v-180h-857v-419h796v-179h-796v-451h898zM998 1726v-196h-174v196h174zM585 1726v-196h-175v196h175z" />
    <glyph glyph-name="Igrave" unicode="&#xcc;" horiz-adv-x="569" 
d="M397 1409v-1409h-225v1409h225zM445 1554v-24h-132l-320 225v34h224z" />
    <glyph glyph-name="Iacute" unicode="&#xcd;" horiz-adv-x="569" 
d="M397 1409v-1409h-225v1409h225zM582 1755l-320 -225h-133v24l229 235h224v-34z" />
    <glyph glyph-name="Icircumflex" unicode="&#xce;" horiz-adv-x="569" 
d="M397 1409v-1409h-225v1409h225zM-59 1530v23l242 252h212l233 -252v-23h-123l-214 143h-2l-225 -143h-123z" />
    <glyph glyph-name="Idieresis" unicode="&#xcf;" horiz-adv-x="569" 
d="M397 1409v-1409h-225v1409h225zM579 1726v-196h-174v196h174zM166 1726v-196h-175v196h175z" />
    <glyph glyph-name="Eth" unicode="&#xd0;" horiz-adv-x="1479" 
d="M1385 718c0 -150 -29.001 -278.5 -87.001 -385.5s-138.5 -189.167 -241.5 -246.5s-222.167 -86 -357.5 -86h-541v629h-146v176h146v604h480c238.667 0 422.834 -59.833 552.501 -179.5s194.5 -290.167 194.5 -511.5zM1158 718c0 166 -44.833 292.831 -134.5 380.498
s-219.5 131.5 -389.5 131.5h-251v-425h390v-176h-390v-450h293c99.333 0 185 21.833 257 65.5s127.5 105.834 166.5 186.501s58.5 176.334 58.5 287.001z" />
    <glyph glyph-name="Ntilde" unicode="&#xd1;" horiz-adv-x="1479" 
d="M358 901v-901h-200v1409h260l716 -1170c-9.33301 121.333 -14 215 -14 281v889h202v-1409h-269l-707 1162l8 -136c2.66699 -43.333 4 -85 4 -125zM908 1530c-26 0 -52.667 6.00098 -80 18.001s-54.333 25.333 -81 40l-79 42.5c-25.333 13 -49 19.5 -71 19.5
c-33.333 0 -58.5 -9.33301 -75.5 -28s-28.833 -49.334 -35.5 -92.001h-107c10 106 33.333 178.5 70 217.5s83.667 58.5 141 58.5c28 0 56.5 -6.5 85.5 -19.5s57.167 -27.5 84.5 -43.5l74.5 -39c23.667 -12 45.5 -18 65.5 -18c31.333 0 56 9.33301 74 28
s30.333 49.334 37 92.001h106c-8.66699 -100.667 -30.5 -171.834 -65.5 -213.501s-82.833 -62.5 -143.5 -62.5z" />
    <glyph glyph-name="Ograve" unicode="&#xd2;" horiz-adv-x="1593" 
d="M1499 711c0 -149.333 -28.833 -278.666 -86.5 -387.999s-139.167 -193.833 -244.5 -253.5s-230 -89.5 -374 -89.5c-144.667 0 -269.5 29.333 -374.5 88s-185.667 142.667 -242 252s-84.5 239.666 -84.5 390.999c0 150.667 27.833 279.5 83.5 386.5s136 189.167 241 246.5
s231.167 86 378.5 86c146 0 271.5 -28.5 376.5 -85.5s185.667 -139 242 -246s84.5 -236.167 84.5 -387.5zM1269 711c0 167.333 -41.333 298.833 -124 394.5s-199 143.5 -349 143.5c-151.333 0 -268.333 -47.167 -351 -141.5s-124 -226.5 -124 -396.5
c0 -112.667 18.833 -210.167 56.5 -292.5s92 -145.833 163 -190.5s155.5 -67 253.5 -67c152.667 0 270 47.833 352 143.5s123 231.167 123 406.5zM997 1554v-24h-132l-320 225v34h224z" />
    <glyph glyph-name="Oacute" unicode="&#xd3;" horiz-adv-x="1593" 
d="M1499 711c0 -149.333 -28.833 -278.666 -86.5 -387.999s-139.167 -193.833 -244.5 -253.5s-230 -89.5 -374 -89.5c-144.667 0 -269.5 29.333 -374.5 88s-185.667 142.667 -242 252s-84.5 239.666 -84.5 390.999c0 150.667 27.833 279.5 83.5 386.5s136 189.167 241 246.5
s231.167 86 378.5 86c146 0 271.5 -28.5 376.5 -85.5s185.667 -139 242 -246s84.5 -236.167 84.5 -387.5zM1269 711c0 167.333 -41.333 298.833 -124 394.5s-199 143.5 -349 143.5c-151.333 0 -268.333 -47.167 -351 -141.5s-124 -226.5 -124 -396.5
c0 -112.667 18.833 -210.167 56.5 -292.5s92 -145.833 163 -190.5s155.5 -67 253.5 -67c152.667 0 270 47.833 352 143.5s123 231.167 123 406.5zM1075 1755l-320 -225h-133v24l229 235h224v-34z" />
    <glyph glyph-name="Ocircumflex" unicode="&#xd4;" horiz-adv-x="1593" 
d="M1499 711c0 -149.333 -28.833 -278.666 -86.5 -387.999s-139.167 -193.833 -244.5 -253.5s-230 -89.5 -374 -89.5c-144.667 0 -269.5 29.333 -374.5 88s-185.667 142.667 -242 252s-84.5 239.666 -84.5 390.999c0 150.667 27.833 279.5 83.5 386.5s136 189.167 241 246.5
s231.167 86 378.5 86c146 0 271.5 -28.5 376.5 -85.5s185.667 -139 242 -246s84.5 -236.167 84.5 -387.5zM1269 711c0 167.333 -41.333 298.833 -124 394.5s-199 143.5 -349 143.5c-151.333 0 -268.333 -47.167 -351 -141.5s-124 -226.5 -124 -396.5
c0 -112.667 18.833 -210.167 56.5 -292.5s92 -145.833 163 -190.5s155.5 -67 253.5 -67c152.667 0 270 47.833 352 143.5s123 231.167 123 406.5zM455 1530v23l242 252h212l233 -252v-23h-123l-214 143h-2l-225 -143h-123z" />
    <glyph glyph-name="Otilde" unicode="&#xd5;" horiz-adv-x="1593" 
d="M1499 711c0 -149.333 -28.833 -278.666 -86.5 -387.999s-139.167 -193.833 -244.5 -253.5s-230 -89.5 -374 -89.5c-144.667 0 -269.5 29.333 -374.5 88s-185.667 142.667 -242 252s-84.5 239.666 -84.5 390.999c0 150.667 27.833 279.5 83.5 386.5s136 189.167 241 246.5
s231.167 86 378.5 86c146 0 271.5 -28.5 376.5 -85.5s185.667 -139 242 -246s84.5 -236.167 84.5 -387.5zM1269 711c0 167.333 -41.333 298.833 -124 394.5s-199 143.5 -349 143.5c-151.333 0 -268.333 -47.167 -351 -141.5s-124 -226.5 -124 -396.5
c0 -112.667 18.833 -210.167 56.5 -292.5s92 -145.833 163 -190.5s155.5 -67 253.5 -67c152.667 0 270 47.833 352 143.5s123 231.167 123 406.5zM945 1530c-26 0 -52.667 6.00098 -80 18.001s-54.333 25.333 -81 40l-79 42.5c-25.333 13 -49 19.5 -71 19.5
c-33.333 0 -58.5 -9.33301 -75.5 -28s-28.833 -49.334 -35.5 -92.001h-107c10 106 33.333 178.5 70 217.5s83.667 58.5 141 58.5c28 0 56.5 -6.5 85.5 -19.5s57.167 -27.5 84.5 -43.5l74.5 -39c23.667 -12 45.5 -18 65.5 -18c31.333 0 56 9.33301 74 28
s30.333 49.334 37 92.001h106c-8.66699 -100.667 -30.5 -171.834 -65.5 -213.501s-82.833 -62.5 -143.5 -62.5z" />
    <glyph glyph-name="Odieresis" unicode="&#xd6;" horiz-adv-x="1593" 
d="M1499 711c0 -149.333 -28.833 -278.666 -86.5 -387.999s-139.167 -193.833 -244.5 -253.5s-230 -89.5 -374 -89.5c-144.667 0 -269.5 29.333 -374.5 88s-185.667 142.667 -242 252s-84.5 239.666 -84.5 390.999c0 150.667 27.833 279.5 83.5 386.5s136 189.167 241 246.5
s231.167 86 378.5 86c146 0 271.5 -28.5 376.5 -85.5s185.667 -139 242 -246s84.5 -236.167 84.5 -387.5zM1269 711c0 167.333 -41.333 298.833 -124 394.5s-199 143.5 -349 143.5c-151.333 0 -268.333 -47.167 -351 -141.5s-124 -226.5 -124 -396.5
c0 -112.667 18.833 -210.167 56.5 -292.5s92 -145.833 163 -190.5s155.5 -67 253.5 -67c152.667 0 270 47.833 352 143.5s123 231.167 123 406.5zM1088 1726v-196h-174v196h174zM675 1726v-196h-175v196h175z" />
    <glyph glyph-name="multiply" unicode="&#xd7;" horiz-adv-x="1196" 
d="M600 562l-356 -356l-121 123l355 355l-352 352l122 121l351 -352l350 351l123 -123l-351 -350l352 -351l-120 -123z" />
    <glyph glyph-name="Oslash" unicode="&#xd8;" horiz-adv-x="1593" 
d="M1499 711c0 -146.667 -28.667 -274.832 -86 -384.499s-138.833 -194.834 -244.5 -255.501s-230.5 -91 -374.5 -91c-156.667 0 -288.667 33.333 -396 100l-110 -139l-192 -1l185 234c-125.333 128.667 -188 307.667 -188 537c0 150.667 27.833 279.5 83.5 386.5
s136 189.167 241 246.5s231.167 86 378.5 86c154 0 285.333 -32.667 394 -98l108 136h193l-182 -229c63.333 -62.667 110.833 -138.5 142.5 -227.5s47.5 -189.167 47.5 -300.5zM321 711.002c0 -147.333 31.666 -268.333 94.999 -363l651 825
c-75.333 50.667 -165.666 76 -270.999 76c-151.333 0 -268.333 -47.167 -351 -141.5s-124 -226.5 -124 -396.5zM1269 711.002c0 144 -31.333 262 -94 354l-653 -826c74 -52.667 164.667 -79 272 -79c152.667 0 270 48 352 144s123 231.667 123 407z" />
    <glyph glyph-name="Ugrave" unicode="&#xd9;" horiz-adv-x="1479" 
d="M728 -20c-120 0 -223.5 21.333 -310.5 64s-154 104 -201 184s-70.5 176.333 -70.5 289v892h226v-873c0 -123.333 30.667 -216.833 92 -280.5s150 -95.5 266 -95.5c120 0 212.833 33.167 278.5 99.5s98.5 162.5 98.5 288.5v861h225v-875
c0 -115.333 -24.333 -214.333 -73 -297s-118.167 -146.167 -208.5 -190.5s-197.833 -66.5 -322.5 -66.5zM926 1554v-24h-132l-320 225v34h224z" />
    <glyph glyph-name="Uacute" unicode="&#xda;" horiz-adv-x="1479" 
d="M728 -20c-120 0 -223.5 21.333 -310.5 64s-154 104 -201 184s-70.5 176.333 -70.5 289v892h226v-873c0 -123.333 30.667 -216.833 92 -280.5s150 -95.5 266 -95.5c120 0 212.833 33.167 278.5 99.5s98.5 162.5 98.5 288.5v861h225v-875
c0 -115.333 -24.333 -214.333 -73 -297s-118.167 -146.167 -208.5 -190.5s-197.833 -66.5 -322.5 -66.5zM1027 1755l-320 -225h-133v24l229 235h224v-34z" />
    <glyph glyph-name="Ucircumflex" unicode="&#xdb;" horiz-adv-x="1479" 
d="M728 -20c-120 0 -223.5 21.333 -310.5 64s-154 104 -201 184s-70.5 176.333 -70.5 289v892h226v-873c0 -123.333 30.667 -216.833 92 -280.5s150 -95.5 266 -95.5c120 0 212.833 33.167 278.5 99.5s98.5 162.5 98.5 288.5v861h225v-875
c0 -115.333 -24.333 -214.333 -73 -297s-118.167 -146.167 -208.5 -190.5s-197.833 -66.5 -322.5 -66.5zM395 1530v23l242 252h212l233 -252v-23h-123l-214 143h-2l-225 -143h-123z" />
    <glyph glyph-name="Udieresis" unicode="&#xdc;" horiz-adv-x="1479" 
d="M728 -20c-120 0 -223.5 21.333 -310.5 64s-154 104 -201 184s-70.5 176.333 -70.5 289v892h226v-873c0 -123.333 30.667 -216.833 92 -280.5s150 -95.5 266 -95.5c120 0 212.833 33.167 278.5 99.5s98.5 162.5 98.5 288.5v861h225v-875
c0 -115.333 -24.333 -214.333 -73 -297s-118.167 -146.167 -208.5 -190.5s-197.833 -66.5 -322.5 -66.5zM1032 1726v-196h-174v196h174zM619 1726v-196h-175v196h175z" />
    <glyph glyph-name="Yacute" unicode="&#xdd;" horiz-adv-x="1366" 
d="M795 582v-582h-225v582l-528 827h243l398 -646l399 646h243zM985 1755l-320 -225h-133v24l229 235h224v-34z" />
    <glyph glyph-name="Thorn" unicode="&#xde;" horiz-adv-x="1366" 
d="M1271 736c0 -86 -20.001 -162.5 -60.001 -229.5s-97 -119.5 -171 -157.5s-162 -57 -264 -57h-393v-292h-225v1409h225v-246h381c162.667 0 287.834 -37.167 375.501 -111.5s131.5 -179.5 131.5 -315.5zM1044 732c0 84 -25.5 149.332 -76.5 195.999s-127.5 70 -229.5 70
h-355v-542h363c94.667 0 168 24.333 220 73s78 116.334 78 203.001z" />
    <glyph glyph-name="germandbls" unicode="&#xdf;" horiz-adv-x="1251" 
d="M1176 301c0 -102.667 -32.1699 -181.834 -96.5029 -237.501s-154.833 -83.5 -271.5 -83.5c-109.333 0 -201.333 15.667 -276 47l-1 178c34 -18 76.333 -33.5 127 -46.5s96.334 -19.5 137.001 -19.5c59.333 0 104 13.5 134 40.5s45 64.167 45 111.5
c0 40 -13.667 76.333 -41 109s-73 68.667 -137 108c-60 36 -104.667 76 -134 120s-44 93.667 -44 149c0 38.667 9.33301 74.334 28 107.001s46.334 64.667 83.001 96c39.333 33.333 67.666 63.833 84.999 91.5s26 57.5 26 89.5c0 48.667 -20 87.667 -60 117s-94 44 -162 44
c-88.667 0 -154.5 -24.833 -197.5 -74.5s-64.5 -126.167 -64.5 -229.5v-1018h-214v1020c0 153.333 40.333 269 121 347s199.334 117 356.001 117c130 0 233.167 -27.833 309.5 -83.5s114.5 -131.167 114.5 -226.5c0 -49.333 -10 -93.833 -30 -133.5
s-47.333 -75.834 -82 -108.501c-29.333 -26.667 -52.166 -48.167 -68.499 -64.5s-27.833 -30.5 -34.5 -42.5s-10 -24.333 -10 -37c0 -19.333 6.5 -37.166 19.5 -53.499s32.667 -34.166 59 -53.499l100.5 -72c119.333 -82.667 179 -185.334 179 -308.001z" />
    <glyph glyph-name="agrave" unicode="&#xe0;" horiz-adv-x="1139" 
d="M404 -20c-107.333 0 -189 28.667 -245 86s-84 136.333 -84 237c0 112 36.667 197.667 110 257s188 91 344 95l239 4v57c0 82.667 -16.5 142.334 -49.5 179.001s-85.5 55 -157.5 55c-71.333 0 -123.166 -13 -155.499 -39s-52.166 -68.333 -59.499 -127l-223 16
c32.667 201.333 181 302 445 302c136 0 239.167 -32 309.5 -96s105.5 -156 105.5 -276v-442c0 -56 7 -96.833 21 -122.5s39.333 -38.5 76 -38.5c20 0 40 2.33301 60 7v-125c-26.667 -6.66699 -51.834 -11.667 -75.501 -15s-49.167 -5 -76.5 -5
c-68 0 -117.833 17.5 -149.5 52.5s-49.834 88.5 -54.501 160.5h-6c-44 -78.667 -96.167 -135.334 -156.5 -170.001s-132.833 -52 -217.5 -52zM768 523l-179 -2.99902c-78 -2 -136 -10.333 -174 -25c-38.667 -14.667 -68.167 -37 -88.5 -67s-30.5 -69.667 -30.5 -119
c0 -56.667 14.5 -99.834 43.5 -129.501s69.5 -44.5 121.5 -44.5c59.333 0 112 14 158 42s82.333 66.5 109 115.5s40 99.833 40 152.5v78zM728 1219v-24h-119l-333 277v34h224z" />
    <glyph glyph-name="aacute" unicode="&#xe1;" horiz-adv-x="1139" 
d="M404 -20c-107.333 0 -189 28.667 -245 86s-84 136.333 -84 237c0 112 36.667 197.667 110 257s188 91 344 95l239 4v57c0 82.667 -16.5 142.334 -49.5 179.001s-85.5 55 -157.5 55c-71.333 0 -123.166 -13 -155.499 -39s-52.166 -68.333 -59.499 -127l-223 16
c32.667 201.333 181 302 445 302c136 0 239.167 -32 309.5 -96s105.5 -156 105.5 -276v-442c0 -56 7 -96.833 21 -122.5s39.333 -38.5 76 -38.5c20 0 40 2.33301 60 7v-125c-26.667 -6.66699 -51.834 -11.667 -75.501 -15s-49.167 -5 -76.5 -5
c-68 0 -117.833 17.5 -149.5 52.5s-49.834 88.5 -54.501 160.5h-6c-44 -78.667 -96.167 -135.334 -156.5 -170.001s-132.833 -52 -217.5 -52zM768 523l-179 -2.99902c-78 -2 -136 -10.333 -174 -25c-38.667 -14.667 -68.167 -37 -88.5 -67s-30.5 -69.667 -30.5 -119
c0 -56.667 14.5 -99.834 43.5 -129.501s69.5 -44.5 121.5 -44.5c59.333 0 112 14 158 42s82.333 66.5 109 115.5s40 99.833 40 152.5v78zM853 1472l-334 -277h-119v24l229 287h224v-34z" />
    <glyph glyph-name="acircumflex" unicode="&#xe2;" horiz-adv-x="1139" 
d="M404 -20c-107.333 0 -189 28.667 -245 86s-84 136.333 -84 237c0 112 36.667 197.667 110 257s188 91 344 95l239 4v57c0 82.667 -16.5 142.334 -49.5 179.001s-85.5 55 -157.5 55c-71.333 0 -123.166 -13 -155.499 -39s-52.166 -68.333 -59.499 -127l-223 16
c32.667 201.333 181 302 445 302c136 0 239.167 -32 309.5 -96s105.5 -156 105.5 -276v-442c0 -56 7 -96.833 21 -122.5s39.333 -38.5 76 -38.5c20 0 40 2.33301 60 7v-125c-26.667 -6.66699 -51.834 -11.667 -75.501 -15s-49.167 -5 -76.5 -5
c-68 0 -117.833 17.5 -149.5 52.5s-49.834 88.5 -54.501 160.5h-6c-44 -78.667 -96.167 -135.334 -156.5 -170.001s-132.833 -52 -217.5 -52zM768 523l-179 -2.99902c-78 -2 -136 -10.333 -174 -25c-38.667 -14.667 -68.167 -37 -88.5 -67s-30.5 -69.667 -30.5 -119
c0 -56.667 14.5 -99.834 43.5 -129.501s69.5 -44.5 121.5 -44.5c59.333 0 112 14 158 42s82.333 66.5 109 115.5s40 99.833 40 152.5v78zM213 1195v23l242 286h212l233 -286v-23h-123l-214 177h-3l-225 -177h-122z" />
    <glyph glyph-name="atilde" unicode="&#xe3;" horiz-adv-x="1139" 
d="M404 -20c-107.333 0 -189 28.667 -245 86s-84 136.333 -84 237c0 112 36.667 197.667 110 257s188 91 344 95l239 4v57c0 82.667 -16.5 142.334 -49.5 179.001s-85.5 55 -157.5 55c-71.333 0 -123.166 -13 -155.499 -39s-52.166 -68.333 -59.499 -127l-223 16
c32.667 201.333 181 302 445 302c136 0 239.167 -32 309.5 -96s105.5 -156 105.5 -276v-442c0 -56 7 -96.833 21 -122.5s39.333 -38.5 76 -38.5c20 0 40 2.33301 60 7v-125c-26.667 -6.66699 -51.834 -11.667 -75.501 -15s-49.167 -5 -76.5 -5
c-68 0 -117.833 17.5 -149.5 52.5s-49.834 88.5 -54.501 160.5h-6c-44 -78.667 -96.167 -135.334 -156.5 -170.001s-132.833 -52 -217.5 -52zM768 523l-179 -2.99902c-78 -2 -136 -10.333 -174 -25c-38.667 -14.667 -68.167 -37 -88.5 -67s-30.5 -69.667 -30.5 -119
c0 -56.667 14.5 -99.834 43.5 -129.501s69.5 -44.5 121.5 -44.5c59.333 0 112 14 158 42s82.333 66.5 109 115.5s40 99.833 40 152.5v78zM731 1195c-26.667 0 -53.499 6.00195 -80.499 18.002s-53.833 25.333 -80.5 40c-27.333 16 -53.833 30.333 -79.5 43
s-49.167 19 -70.5 19c-34 0 -59.333 -9.33301 -76 -28s-28.667 -49.334 -36 -92.001h-106c10 106 33 178.5 69 217.5s83 58.5 141 58.5c30 0 59.833 -6.83301 89.5 -20.5s58.5 -28.834 86.5 -45.501c25.333 -14 49.333 -26.5 72 -37.5s43.667 -16.5 63 -16.5
c30.667 0 55.167 9.33301 73.5 28s30.833 49.334 37.5 92.001h106c-9.33301 -100.667 -31.333 -171.834 -66 -213.501s-82.334 -62.5 -143.001 -62.5z" />
    <glyph glyph-name="adieresis" unicode="&#xe4;" horiz-adv-x="1139" 
d="M404 -20c-107.333 0 -189 28.667 -245 86s-84 136.333 -84 237c0 112 36.667 197.667 110 257s188 91 344 95l239 4v57c0 82.667 -16.5 142.334 -49.5 179.001s-85.5 55 -157.5 55c-71.333 0 -123.166 -13 -155.499 -39s-52.166 -68.333 -59.499 -127l-223 16
c32.667 201.333 181 302 445 302c136 0 239.167 -32 309.5 -96s105.5 -156 105.5 -276v-442c0 -56 7 -96.833 21 -122.5s39.333 -38.5 76 -38.5c20 0 40 2.33301 60 7v-125c-26.667 -6.66699 -51.834 -11.667 -75.501 -15s-49.167 -5 -76.5 -5
c-68 0 -117.833 17.5 -149.5 52.5s-49.834 88.5 -54.501 160.5h-6c-44 -78.667 -96.167 -135.334 -156.5 -170.001s-132.833 -52 -217.5 -52zM768 523l-179 -2.99902c-78 -2 -136 -10.333 -174 -25c-38.667 -14.667 -68.167 -37 -88.5 -67s-30.5 -69.667 -30.5 -119
c0 -56.667 14.5 -99.834 43.5 -129.501s69.5 -44.5 121.5 -44.5c59.333 0 112 14 158 42s82.333 66.5 109 115.5s40 99.833 40 152.5v78zM852 1408v-196h-181v196h181zM445 1408v-196h-182v196h182z" />
    <glyph glyph-name="aring" unicode="&#xe5;" horiz-adv-x="1139" 
d="M404 -20c-107.333 0 -189 28.667 -245 86s-84 136.333 -84 237c0 112 36.667 197.667 110 257s188 91 344 95l239 4v57c0 82.667 -16.5 142.334 -49.5 179.001s-85.5 55 -157.5 55c-71.333 0 -123.166 -13 -155.499 -39s-52.166 -68.333 -59.499 -127l-223 16
c32.667 201.333 181 302 445 302c136 0 239.167 -32 309.5 -96s105.5 -156 105.5 -276v-442c0 -56 7 -96.833 21 -122.5s39.333 -38.5 76 -38.5c20 0 40 2.33301 60 7v-125c-26.667 -6.66699 -51.834 -11.667 -75.501 -15s-49.167 -5 -76.5 -5
c-68 0 -117.833 17.5 -149.5 52.5s-49.834 88.5 -54.501 160.5h-6c-44 -78.667 -96.167 -135.334 -156.5 -170.001s-132.833 -52 -217.5 -52zM768 523l-179 -2.99902c-78 -2 -136 -10.333 -174 -25c-38.667 -14.667 -68.167 -37 -88.5 -67s-30.5 -69.667 -30.5 -119
c0 -56.667 14.5 -99.834 43.5 -129.501s69.5 -44.5 121.5 -44.5c59.333 0 112 14 158 42s82.333 66.5 109 115.5s40 99.833 40 152.5v78zM804 1417c0 -44.667 -10.999 -85.667 -32.999 -123s-51.5 -67.166 -88.5 -89.499s-78.5 -33.5 -124.5 -33.5
c-45.333 0 -86.666 11.167 -123.999 33.5s-67 52.166 -89 89.499s-33 78.333 -33 123c0 46 11.167 87.5 33.5 124.5s52.166 66.5 89.499 88.5s78.333 33 123 33s85.667 -11.167 123 -33.5s67.166 -52 89.499 -89s33.5 -78.167 33.5 -123.5zM690.001 1417
c0 36.667 -12.8291 67.667 -38.4961 93s-56.834 38 -93.501 38s-67.834 -12.667 -93.501 -38s-38.5 -56.333 -38.5 -93s12.667 -68.167 38 -94.5s56.666 -39.5 93.999 -39.5s68.666 13.167 93.999 39.5s38 57.833 38 94.5z" />
    <glyph glyph-name="ae" unicode="&#xe6;" horiz-adv-x="1821" 
d="M1707 249c-68.667 -179.333 -218.332 -269 -448.999 -269c-212 0 -354.333 82.667 -427 248c-50 -88 -109.833 -151.333 -179.5 -190s-152.5 -58 -248.5 -58c-110 0 -193.667 28.667 -251 86s-86 136.333 -86 237c0 228.667 155.667 346 467 352l240 4v57
c0 84 -16.833 144 -50.5 180s-87.167 54 -160.5 54c-74.667 0 -128.834 -13 -162.501 -39s-54.5 -68.333 -62.5 -127l-223 16c16 100 61.833 175.333 137.5 226s180.834 76 315.501 76c159.333 0 274 -42.667 344 -128c81.333 85.333 195.666 128 342.999 128
c158 0 277.167 -49.167 357.5 -147.5s120.5 -244.5 120.5 -438.5v-22h-739c0 -118.667 23.333 -208.5 70 -269.5s113 -91.5 199 -91.5c68.667 0 124 14 166 42s70.667 65 86 111zM1517 648c-8 105.333 -34.168 182.666 -78.501 231.999s-106.833 74 -187.5 74
c-78.667 0 -140.167 -26.667 -184.5 -80s-68.166 -128.666 -71.499 -225.999h522zM287.001 309c0 -56 15.332 -99.002 45.999 -129.002s73.334 -45 128.001 -45c61.333 0 115.333 14.333 162 43c47.333 28.667 84.166 67.334 110.499 116.001s39.5 100.334 39.5 155.001v74
l-181 -3c-81.333 -2.66699 -142.666 -11.667 -183.999 -27c-40.667 -16 -71 -39.167 -91 -69.5s-30 -68.5 -30 -114.5z" />
    <glyph glyph-name="ccedilla" unicode="&#xe7;" horiz-adv-x="1062" 
d="M567 -20c-156 0 -275.336 48.167 -358.003 144.5s-124 234.833 -124 415.5s41.667 319.5 125 416.5s202.333 145.5 357 145.5c116 0 212.167 -29.833 288.5 -89.5s124.5 -141.834 144.5 -246.501l-218 -14c-8.66699 58.667 -31 105.334 -67 140.001s-87.333 52 -154 52
c-87.333 0 -151.333 -31.167 -192 -93.5s-61 -163.833 -61 -304.5c0 -137.333 21.333 -239.5 64 -306.5s106.667 -100.5 192 -100.5c60.667 0 111.334 17.167 152.001 51.5s65.667 86.5 75 156.5l215 -12c-9.33301 -72 -33.666 -134.5 -72.999 -187.5
s-90.166 -94.167 -152.499 -123.5s-133.5 -44 -213.5 -44zM764.997 -247c0 -61.333 -24 -107.333 -72 -138s-118.667 -46 -212 -46c-37.333 0 -68.666 1.66699 -93.999 5v104c29.333 -4 58 -6 86 -6c95.333 0 143 25.667 143 77c0 24.667 -10.333 43.167 -31 55.5
s-53.334 18.5 -98.001 18.5c-14 0 -25.5 -0.166992 -34.5 -0.5s-15.833 -0.833008 -20.5 -1.5l64 179h119l-37 -94c62.667 -2.66699 109.5 -17.5 140.5 -44.5s46.5 -63.167 46.5 -108.5z" />
    <glyph glyph-name="egrave" unicode="&#xe8;" horiz-adv-x="1139" 
d="M309 498c0 -118 23.6699 -208.335 71.0029 -271.002s115.666 -94 204.999 -94c68.667 0 124 14 166 42s70.667 65 86 111l193 -37c-68.667 -179.333 -218.334 -269 -449.001 -269c-161.333 0 -284.333 47.833 -369 143.5s-127 236.834 -127 423.501
c0 178.667 42.667 315.834 128 411.501s206.666 143.5 363.999 143.5c158 0 277.167 -49.167 357.5 -147.5s120.5 -244.5 120.5 -438.5v-18h-746zM840.003 647.998c-8 105.333 -34.167 182.667 -78.5 232s-106.833 74 -187.5 74c-80 0 -143 -27 -189 -81
s-70.667 -129 -74 -225h529zM766.003 1219v-24h-119l-333 277v34h224z" />
    <glyph glyph-name="eacute" unicode="&#xe9;" horiz-adv-x="1139" 
d="M309 498c0 -118 23.6699 -208.335 71.0029 -271.002s115.666 -94 204.999 -94c68.667 0 124 14 166 42s70.667 65 86 111l193 -37c-68.667 -179.333 -218.334 -269 -449.001 -269c-161.333 0 -284.333 47.833 -369 143.5s-127 236.834 -127 423.501
c0 178.667 42.667 315.834 128 411.501s206.666 143.5 363.999 143.5c158 0 277.167 -49.167 357.5 -147.5s120.5 -244.5 120.5 -438.5v-18h-746zM840.003 647.998c-8 105.333 -34.167 182.667 -78.5 232s-106.833 74 -187.5 74c-80 0 -143 -27 -189 -81
s-70.667 -129 -74 -225h529zM886.003 1472l-334 -277h-119v24l229 287h224v-34z" />
    <glyph glyph-name="ecircumflex" unicode="&#xea;" horiz-adv-x="1139" 
d="M309 498c0 -118 23.6699 -208.335 71.0029 -271.002s115.666 -94 204.999 -94c68.667 0 124 14 166 42s70.667 65 86 111l193 -37c-68.667 -179.333 -218.334 -269 -449.001 -269c-161.333 0 -284.333 47.833 -369 143.5s-127 236.834 -127 423.501
c0 178.667 42.667 315.834 128 411.501s206.666 143.5 363.999 143.5c158 0 277.167 -49.167 357.5 -147.5s120.5 -244.5 120.5 -438.5v-18h-746zM840.003 647.998c-8 105.333 -34.167 182.667 -78.5 232s-106.833 74 -187.5 74c-80 0 -143 -27 -189 -81
s-70.667 -129 -74 -225h529zM239.003 1195v23l242 286h212l233 -286v-23h-123l-214 177h-3l-225 -177h-122z" />
    <glyph glyph-name="edieresis" unicode="&#xeb;" horiz-adv-x="1139" 
d="M309 498c0 -118 23.6699 -208.335 71.0029 -271.002s115.666 -94 204.999 -94c68.667 0 124 14 166 42s70.667 65 86 111l193 -37c-68.667 -179.333 -218.334 -269 -449.001 -269c-161.333 0 -284.333 47.833 -369 143.5s-127 236.834 -127 423.501
c0 178.667 42.667 315.834 128 411.501s206.666 143.5 363.999 143.5c158 0 277.167 -49.167 357.5 -147.5s120.5 -244.5 120.5 -438.5v-18h-746zM840.003 647.998c-8 105.333 -34.167 182.667 -78.5 232s-106.833 74 -187.5 74c-80 0 -143 -27 -189 -81
s-70.667 -129 -74 -225h529zM871.003 1408v-196h-181v196h181zM464.003 1408v-196h-182v196h182z" />
    <glyph glyph-name="igrave" unicode="&#xec;" horiz-adv-x="569" 
d="M391 1082v-1082h-213v1082h213zM438 1219v-24h-119l-333 277v34h224z" />
    <glyph glyph-name="iacute" unicode="&#xed;" horiz-adv-x="569" 
d="M391 1082v-1082h-213v1082h213zM581 1472l-334 -277h-119v24l229 287h224v-34z" />
    <glyph glyph-name="icircumflex" unicode="&#xee;" horiz-adv-x="569" 
d="M391 1082v-1082h-213v1082h213zM-57 1195v23l242 286h212l233 -286v-23h-123l-214 177h-3l-225 -177h-122z" />
    <glyph glyph-name="idieresis" unicode="&#xef;" horiz-adv-x="569" 
d="M391 1082v-1082h-213v1082h213zM581 1408v-196h-181v196h181zM174 1408v-196h-182v196h182z" />
    <glyph glyph-name="eth" unicode="&#xf0;" horiz-adv-x="1176" 
d="M585 -19c-158.667 0 -281.829 43.334 -369.496 130.001s-131.5 209.667 -131.5 369c0 160 43.667 282.833 131 368.5s212.666 128.5 375.999 128.5c83.333 0 152.666 -16.667 207.999 -50c-62.667 126.667 -131.334 226.334 -206.001 299.001l-298 -129v137l201 86
c-34 27.333 -71.5 54.666 -112.5 81.999s-85.833 54.666 -134.5 81.999h237c57.333 -27.333 112.666 -60.333 165.999 -99l294 125l-1 -137l-181 -78c111.333 -104.667 195 -222.167 251 -352.5s84 -269.833 84 -418.5c0 -176 -43.667 -310.5 -131 -403.5
s-215 -139.5 -383 -139.5zM875.005 480.001c0 120.667 -22.667 208.167 -68 262.5s-116 81.5 -212 81.5c-98 0 -170.333 -27.667 -217 -83s-70 -142.333 -70 -261c0 -117.333 23 -204.5 69 -261.5s114.333 -85.5 205 -85.5c99.333 0 173 27.333 221 82s72 143 72 265z" />
    <glyph glyph-name="ntilde" unicode="&#xf1;" horiz-adv-x="1176" 
d="M359 611l0.00195312 -611.001h-214v847c0 62 -0.5 111.833 -1.5 149.5s-2.5 66.167 -4.5 85.5h202c1.33301 -11.333 2.66602 -28.333 3.99902 -51s2.5 -47 3.5 -73s1.83301 -49.667 2.5 -71h3c40.667 77.333 88.667 132.5 144 165.5s123 49.5 203 49.5
c117.333 0 204.5 -32 261.5 -96s85.5 -162.667 85.5 -296v-710h-214v660c0 100.667 -16.333 172.334 -49 215.001s-87.334 64 -164.001 64c-80 0 -143.667 -29.5 -191 -88.5s-71 -138.833 -71 -239.5zM761.002 1195c-26.667 0 -53.499 6.00195 -80.499 18.002
s-53.833 25.333 -80.5 40c-27.333 16 -53.833 30.333 -79.5 43s-49.167 19 -70.5 19c-34 0 -59.333 -9.33301 -76 -28s-28.667 -49.334 -36 -92.001h-106c10 106 33 178.5 69 217.5s83 58.5 141 58.5c30 0 59.833 -6.83301 89.5 -20.5s58.5 -28.834 86.5 -45.501
c25.333 -14 49.333 -26.5 72 -37.5s43.667 -16.5 63 -16.5c30.667 0 55.167 9.33301 73.5 28s30.833 49.334 37.5 92.001h106c-9.33301 -100.667 -31.333 -171.834 -66 -213.501s-82.334 -62.5 -143.001 -62.5z" />
    <glyph glyph-name="ograve" unicode="&#xf2;" horiz-adv-x="1176" 
d="M1092 542c0 -184.667 -44 -324.5 -132 -419.5s-213.333 -142.5 -376 -142.5c-162 0 -285.833 48.833 -371.5 146.5s-128.5 236.167 -128.5 415.5c0 182.667 43 321.667 129 417s211.667 143 377 143c168.667 0 294.5 -46.333 377.5 -139s124.5 -233 124.5 -421zM868 542
c0 142.667 -21.666 246.167 -64.999 310.5s-113.333 96.5 -210 96.5c-98.667 0 -170.834 -33.167 -216.501 -99.5s-68.5 -168.833 -68.5 -307.5c0 -135.333 22.5 -237.333 67.5 -306s113.5 -103 205.5 -103c101.333 0 174.5 33.333 219.5 100s67.5 169.667 67.5 309z
M781.001 1219v-24h-119l-333 277v34h224z" />
    <glyph glyph-name="oacute" unicode="&#xf3;" horiz-adv-x="1176" 
d="M1092 542c0 -184.667 -44 -324.5 -132 -419.5s-213.333 -142.5 -376 -142.5c-162 0 -285.833 48.833 -371.5 146.5s-128.5 236.167 -128.5 415.5c0 182.667 43 321.667 129 417s211.667 143 377 143c168.667 0 294.5 -46.333 377.5 -139s124.5 -233 124.5 -421zM868 542
c0 142.667 -21.666 246.167 -64.999 310.5s-113.333 96.5 -210 96.5c-98.667 0 -170.834 -33.167 -216.501 -99.5s-68.5 -168.833 -68.5 -307.5c0 -135.333 22.5 -237.333 67.5 -306s113.5 -103 205.5 -103c101.333 0 174.5 33.333 219.5 100s67.5 169.667 67.5 309z
M895.001 1472l-334 -277h-119v24l229 287h224v-34z" />
    <glyph glyph-name="ocircumflex" unicode="&#xf4;" horiz-adv-x="1176" 
d="M1092 542c0 -184.667 -44 -324.5 -132 -419.5s-213.333 -142.5 -376 -142.5c-162 0 -285.833 48.833 -371.5 146.5s-128.5 236.167 -128.5 415.5c0 182.667 43 321.667 129 417s211.667 143 377 143c168.667 0 294.5 -46.333 377.5 -139s124.5 -233 124.5 -421zM868 542
c0 142.667 -21.666 246.167 -64.999 310.5s-113.333 96.5 -210 96.5c-98.667 0 -170.834 -33.167 -216.501 -99.5s-68.5 -168.833 -68.5 -307.5c0 -135.333 22.5 -237.333 67.5 -306s113.5 -103 205.5 -103c101.333 0 174.5 33.333 219.5 100s67.5 169.667 67.5 309z
M246.001 1195v23l242 286h212l233 -286v-23h-123l-214 177h-3l-225 -177h-122z" />
    <glyph glyph-name="otilde" unicode="&#xf5;" horiz-adv-x="1176" 
d="M1092 542c0 -184.667 -44 -324.5 -132 -419.5s-213.333 -142.5 -376 -142.5c-162 0 -285.833 48.833 -371.5 146.5s-128.5 236.167 -128.5 415.5c0 182.667 43 321.667 129 417s211.667 143 377 143c168.667 0 294.5 -46.333 377.5 -139s124.5 -233 124.5 -421zM868 542
c0 142.667 -21.666 246.167 -64.999 310.5s-113.333 96.5 -210 96.5c-98.667 0 -170.834 -33.167 -216.501 -99.5s-68.5 -168.833 -68.5 -307.5c0 -135.333 22.5 -237.333 67.5 -306s113.5 -103 205.5 -103c101.333 0 174.5 33.333 219.5 100s67.5 169.667 67.5 309z
M756.001 1195c-26.667 0 -53.499 6.00195 -80.499 18.002s-53.833 25.333 -80.5 40c-27.333 16 -53.833 30.333 -79.5 43s-49.167 19 -70.5 19c-34 0 -59.333 -9.33301 -76 -28s-28.667 -49.334 -36 -92.001h-106c10 106 33 178.5 69 217.5s83 58.5 141 58.5
c30 0 59.833 -6.83301 89.5 -20.5s58.5 -28.834 86.5 -45.501c25.333 -14 49.333 -26.5 72 -37.5s43.667 -16.5 63 -16.5c30.667 0 55.167 9.33301 73.5 28s30.833 49.334 37.5 92.001h106c-9.33301 -100.667 -31.333 -171.834 -66 -213.501s-82.334 -62.5 -143.001 -62.5z
" />
    <glyph glyph-name="odieresis" unicode="&#xf6;" horiz-adv-x="1176" 
d="M1092 542c0 -184.667 -44 -324.5 -132 -419.5s-213.333 -142.5 -376 -142.5c-162 0 -285.833 48.833 -371.5 146.5s-128.5 236.167 -128.5 415.5c0 182.667 43 321.667 129 417s211.667 143 377 143c168.667 0 294.5 -46.333 377.5 -139s124.5 -233 124.5 -421zM868 542
c0 142.667 -21.666 246.167 -64.999 310.5s-113.333 96.5 -210 96.5c-98.667 0 -170.834 -33.167 -216.501 -99.5s-68.5 -168.833 -68.5 -307.5c0 -135.333 22.5 -237.333 67.5 -306s113.5 -103 205.5 -103c101.333 0 174.5 33.333 219.5 100s67.5 169.667 67.5 309z
M885.001 1408v-196h-181v196h181zM478.001 1408v-196h-182v196h182z" />
    <glyph glyph-name="divide" unicode="&#xf7;" horiz-adv-x="1124" 
d="M657 1159v-200h-191v200h191zM1065 767v-172h-1005v172h1005zM657 405v-200h-191v200h191z" />
    <glyph glyph-name="oslash" unicode="&#xf8;" horiz-adv-x="1251" 
d="M1132 542c0 -184.667 -43.999 -324.499 -131.999 -419.499s-213.667 -142.5 -377 -142.5c-128.667 0 -234.334 31.667 -317.001 95l-104 -119h-172l188 215c-63.333 94 -95 217.667 -95 371c0 182.667 43 321.667 129 417s211.667 143 377 143
c133.333 0 240.333 -29.333 321 -88l94 108h173l-177 -203c61.333 -90.667 92 -216.334 92 -377.001zM348.001 542.001c0 -77.333 7.00098 -143.333 21.001 -198l457 528c-42.667 51.333 -107.334 77 -194.001 77c-98.667 0 -170.667 -33.167 -216 -99.5
s-68 -168.833 -68 -307.5zM908.002 542.001c0 78 -7 145 -21 201l-458 -528c44 -54.667 108 -82 192 -82c100.667 0 173.667 33.333 219 100s68 169.667 68 309z" />
    <glyph glyph-name="ugrave" unicode="&#xf9;" horiz-adv-x="1176" 
d="M829 195c-40 -77.333 -87.665 -132.503 -142.998 -165.503s-123.333 -49.5 -204 -49.5c-117.333 0 -204.5 31.333 -261.5 94s-85.5 162 -85.5 298v710h214v-660c0 -103.333 16.667 -175.666 50 -216.999s87.666 -62 162.999 -62c80.667 0 144.5 29.5 191.5 88.5
s70.5 138.833 70.5 239.5v611h214v-847c0 -57.333 0.5 -105.666 1.5 -144.999s2.83301 -69.333 5.5 -90h-203c-2 18 -3.83301 42.333 -5.5 73s-2.83398 71.334 -3.50098 122.001h-4zM775.002 1219v-24h-119l-333 277v34h224z" />
    <glyph glyph-name="uacute" unicode="&#xfa;" horiz-adv-x="1176" 
d="M829 195c-40 -77.333 -87.665 -132.503 -142.998 -165.503s-123.333 -49.5 -204 -49.5c-117.333 0 -204.5 31.333 -261.5 94s-85.5 162 -85.5 298v710h214v-660c0 -103.333 16.667 -175.666 50 -216.999s87.666 -62 162.999 -62c80.667 0 144.5 29.5 191.5 88.5
s70.5 138.833 70.5 239.5v611h214v-847c0 -57.333 0.5 -105.666 1.5 -144.999s2.83301 -69.333 5.5 -90h-203c-2 18 -3.83301 42.333 -5.5 73s-2.83398 71.334 -3.50098 122.001h-4zM884.002 1472l-334 -277h-119v24l229 287h224v-34z" />
    <glyph glyph-name="ucircumflex" unicode="&#xfb;" horiz-adv-x="1176" 
d="M829 195c-40 -77.333 -87.665 -132.503 -142.998 -165.503s-123.333 -49.5 -204 -49.5c-117.333 0 -204.5 31.333 -261.5 94s-85.5 162 -85.5 298v710h214v-660c0 -103.333 16.667 -175.666 50 -216.999s87.666 -62 162.999 -62c80.667 0 144.5 29.5 191.5 88.5
s70.5 138.833 70.5 239.5v611h214v-847c0 -57.333 0.5 -105.666 1.5 -144.999s2.83301 -69.333 5.5 -90h-203c-2 18 -3.83301 42.333 -5.5 73s-2.83398 71.334 -3.50098 122.001h-4zM244.002 1195v23l242 286h212l233 -286v-23h-123l-214 177h-3l-225 -177h-122z" />
    <glyph glyph-name="udieresis" unicode="&#xfc;" horiz-adv-x="1176" 
d="M829 195c-40 -77.333 -87.665 -132.503 -142.998 -165.503s-123.333 -49.5 -204 -49.5c-117.333 0 -204.5 31.333 -261.5 94s-85.5 162 -85.5 298v710h214v-660c0 -103.333 16.667 -175.666 50 -216.999s87.666 -62 162.999 -62c80.667 0 144.5 29.5 191.5 88.5
s70.5 138.833 70.5 239.5v611h214v-847c0 -57.333 0.5 -105.666 1.5 -144.999s2.83301 -69.333 5.5 -90h-203c-2 18 -3.83301 42.333 -5.5 73s-2.83398 71.334 -3.50098 122.001h-4zM876.002 1408v-196h-181v196h181zM469.002 1408v-196h-182v196h182z" />
    <glyph glyph-name="yacute" unicode="&#xfd;" horiz-adv-x="1062" 
d="M222 -425c-55.333 0 -102.67 4.00098 -142.003 12.001v156c29.333 -4 58.666 -6 87.999 -6c59.333 0 110.333 19.667 153 59s81.334 109.666 116.001 210.999l-428 1075h227l208 -568c16 -40.667 33 -88.167 51 -142.5s34 -107.833 48 -160.5l49 150.5l48 146.5l191 574
h225l-420 -1101c-20.667 -53.333 -41.167 -100.333 -61.5 -141s-40.166 -74.667 -59.499 -102c-39.333 -56.667 -82.666 -98 -129.999 -124s-101.666 -39 -162.999 -39zM826.996 1472l-334 -277h-119v24l229 287h224v-34z" />
    <glyph glyph-name="thorn" unicode="&#xfe;" horiz-adv-x="1176" 
d="M353 -5l-0.000976562 -420h-213v1909h213v-436c0 -23.333 -0.333008 -48.333 -1 -75s-1.66699 -54.334 -3 -83.001h6c31.333 66.667 74.333 115.834 129 147.501s124.334 47.5 209.001 47.5c131.333 0 230.5 -45.333 297.5 -136s100.5 -228 100.5 -412
c0 -182.667 -34.167 -321.167 -102.5 -415.5s-168.833 -141.5 -301.5 -141.5c-163.333 0 -274.333 63 -333 189h-5c2.66699 -9.33301 4 -67.333 4 -174zM866.999 535c0 138.667 -19.668 238.666 -59.001 299.999s-101 92 -185 92c-92 0 -160.167 -32.833 -204.5 -98.5
s-66.5 -167.5 -66.5 -305.5c0 -131.333 21.667 -229.166 65 -293.499s111.333 -96.5 204 -96.5c84.667 0 146.834 31.5 186.501 94.5s59.5 165.5 59.5 307.5z" />
    <glyph glyph-name="ydieresis" unicode="&#xff;" horiz-adv-x="1062" 
d="M222 -425c-55.333 0 -102.67 4.00098 -142.003 12.001v156c29.333 -4 58.666 -6 87.999 -6c59.333 0 110.333 19.667 153 59s81.334 109.666 116.001 210.999l-428 1075h227l208 -568c16 -40.667 33 -88.167 51 -142.5s34 -107.833 48 -160.5l49 150.5l48 146.5l191 574
h225l-420 -1101c-20.667 -53.333 -41.167 -100.333 -61.5 -141s-40.166 -74.667 -59.499 -102c-39.333 -56.667 -82.666 -98 -129.999 -124s-101.666 -39 -162.999 -39zM828.996 1408v-196h-181v196h181zM421.996 1408v-196h-182v196h182z" />
    <glyph glyph-name="Amacron" unicode="&#x100;" horiz-adv-x="1404" 
d="M400 395l-150 -395h-230l554 1409h261l548 -1409h-227l-149 395h-607zM703 1241c-10 -34 -22.167 -72.501 -36.5 -115.501s-26.833 -78.5 -37.5 -106.5l-169 -451h487l-172 458c-9.33301 24.667 -20.333 55.834 -33 93.501zM418 1697h570v-141h-570v141z" />
    <glyph glyph-name="amacron" unicode="&#x101;" horiz-adv-x="1139" 
d="M407 -20c-107.333 0 -189 28.667 -245 86s-84 136.333 -84 237c0 112 36.667 197.667 110 257s188 91 344 95l239 4v57c0 82.667 -16.5 142.334 -49.5 179.001s-85.5 55 -157.5 55c-71.333 0 -123.166 -13 -155.499 -39s-52.166 -68.333 -59.499 -127l-223 16
c32.667 201.333 181 302 445 302c136 0 239.167 -32 309.5 -96s105.5 -156 105.5 -276v-442c0 -56 7 -96.833 21 -122.5s39.333 -38.5 76 -38.5c20 0 40 2.33301 60 7v-125c-26.667 -6.66699 -51.834 -11.667 -75.501 -15s-49.167 -5 -76.5 -5
c-68 0 -117.833 17.5 -149.5 52.5s-49.834 88.5 -54.501 160.5h-6c-44 -78.667 -96.167 -135.334 -156.5 -170.001s-132.833 -52 -217.5 -52zM771 523l-179 -2.99902c-78 -2 -136 -10.333 -174 -25c-38.667 -14.667 -68.167 -37 -88.5 -67s-30.5 -69.667 -30.5 -119
c0 -56.667 14.5 -99.834 43.5 -129.501s69.5 -44.5 121.5 -44.5c59.333 0 112 14 158 42s82.333 66.5 109 115.5s40 99.833 40 152.5v78zM282 1366h570v-141h-570v141z" />
    <glyph glyph-name="Abreve" unicode="&#x102;" horiz-adv-x="1404" 
d="M400 395l-150 -395h-230l554 1409h261l548 -1409h-227l-149 395h-607zM703 1241c-10 -34 -22.167 -72.501 -36.5 -115.501s-26.833 -78.5 -37.5 -106.5l-169 -451h487l-172 458c-9.33301 24.667 -20.333 55.834 -33 93.501zM702 1527
c-91.333 0 -168.002 24.333 -230.002 73s-98.333 111.667 -109 189h133c10.667 -37.333 34 -66.833 70 -88.5s82 -32.5 138 -32.5c56.667 0 102.667 10.833 138 32.5s58.333 51.167 69 88.5h132c-13.333 -80.667 -50.666 -144.5 -111.999 -191.5
s-137.666 -70.5 -228.999 -70.5z" />
    <glyph glyph-name="abreve" unicode="&#x103;" horiz-adv-x="1139" 
d="M407 -20c-107.333 0 -189 28.667 -245 86s-84 136.333 -84 237c0 112 36.667 197.667 110 257s188 91 344 95l239 4v57c0 82.667 -16.5 142.334 -49.5 179.001s-85.5 55 -157.5 55c-71.333 0 -123.166 -13 -155.499 -39s-52.166 -68.333 -59.499 -127l-223 16
c32.667 201.333 181 302 445 302c136 0 239.167 -32 309.5 -96s105.5 -156 105.5 -276v-442c0 -56 7 -96.833 21 -122.5s39.333 -38.5 76 -38.5c20 0 40 2.33301 60 7v-125c-26.667 -6.66699 -51.834 -11.667 -75.501 -15s-49.167 -5 -76.5 -5
c-68 0 -117.833 17.5 -149.5 52.5s-49.834 88.5 -54.501 160.5h-6c-44 -78.667 -96.167 -135.334 -156.5 -170.001s-132.833 -52 -217.5 -52zM771 523l-179 -2.99902c-78 -2 -136 -10.333 -174 -25c-38.667 -14.667 -68.167 -37 -88.5 -67s-30.5 -69.667 -30.5 -119
c0 -56.667 14.5 -99.834 43.5 -129.501s69.5 -44.5 121.5 -44.5c59.333 0 112 14 158 42s82.333 66.5 109 115.5s40 99.833 40 152.5v78zM567 1195c-92.667 0 -169.835 29 -231.502 87s-97.5 133.667 -107.5 227h132c10 -51.333 32.833 -90.5 68.5 -117.5
s82.167 -40.5 139.5 -40.5s103.833 13.5 139.5 40.5s58.167 66.167 67.5 117.5h133c-13.333 -96 -50.166 -172.333 -110.499 -229s-137.166 -85 -230.499 -85z" />
    <glyph glyph-name="Aogonek" unicode="&#x104;" horiz-adv-x="1404" 
d="M400 395l-150 -395h-230l554 1409h261l548 -1409h-227l-149 395h-607zM703 1241c-10 -34 -22.167 -72.501 -36.5 -115.501s-26.833 -78.5 -37.5 -106.5l-169 -451h487l-172 458c-9.33301 24.667 -20.333 55.834 -33 93.501zM1390 -386.001
c-42 -19.333 -89.668 -29 -143.001 -29c-71.333 0 -125.666 17.333 -162.999 52s-56 81 -56 139c0 48 14.5 94 43.5 138s66.5 78.667 112.5 104h139c-38 -22.667 -71 -54 -99 -94s-42 -82.333 -42 -127c0 -28 8.16699 -50.167 24.5 -66.5s39.5 -24.5 69.5 -24.5
c36 0 74 8.33301 114 25v-117z" />
    <glyph glyph-name="aogonek" unicode="&#x105;" horiz-adv-x="1139" 
d="M407 -20c-107.333 0 -189 28.667 -245 86s-84 136.333 -84 237c0 112 36.667 197.667 110 257s188 91 344 95l239 4v57c0 82.667 -16.5 142.334 -49.5 179.001s-85.5 55 -157.5 55c-71.333 0 -123.166 -13 -155.499 -39s-52.166 -68.333 -59.499 -127l-223 16
c32.667 201.333 181 302 445 302c136 0 239.167 -32 309.5 -96s105.5 -156 105.5 -276v-442c0 -56 7 -96.833 21 -122.5s39.333 -38.5 76 -38.5c20 0 40 2.33301 60 7v-125c-26.667 -6.66699 -51.834 -11.667 -75.501 -15s-49.167 -5 -76.5 -5
c-68 0 -117.833 17.5 -149.5 52.5s-49.834 88.5 -54.501 160.5h-6c-44 -78.667 -96.167 -135.334 -156.5 -170.001s-132.833 -52 -217.5 -52zM771 523l-179 -2.99902c-78 -2 -136 -10.333 -174 -25c-38.667 -14.667 -68.167 -37 -88.5 -67s-30.5 -69.667 -30.5 -119
c0 -56.667 14.5 -99.834 43.5 -129.501s69.5 -44.5 121.5 -44.5c59.333 0 112 14 158 42s82.333 66.5 109 115.5s40 99.833 40 152.5v78zM1117 -396.999c-42 -19.333 -89.668 -29 -143.001 -29c-71.333 0 -125.666 17.333 -162.999 52s-56 81 -56 139c0 48 14.5 94 43.5 138
s66.5 78.667 112.5 104h139c-38 -22.667 -71 -54 -99 -94s-42 -82.333 -42 -127c0 -28 8.16699 -50.167 24.5 -66.5s39.5 -24.5 69.5 -24.5c36 0 74 8.33301 114 25v-117z" />
    <glyph glyph-name="Cacute" unicode="&#x106;" horiz-adv-x="1479" 
d="M798 162c191.333 0 331.67 94.998 421.003 284.998l189 -85c-56.667 -126 -137.834 -221.167 -243.501 -285.5s-229.834 -96.5 -372.501 -96.5c-145.333 0 -269.833 29.333 -373.5 88s-183.167 142.834 -238.5 252.501s-83 239.834 -83 390.501
c0 151.333 27.167 280.666 81.5 387.999s133 189.333 236 246s227.167 85 372.5 85c155.333 0 283.833 -30.667 385.5 -92s175.5 -151.666 221.5 -270.999l-208 -64c-28.667 78 -77.834 138.5 -147.501 181.5s-152.167 64.5 -247.5 64.5
c-148.667 0 -263.334 -47.333 -344.001 -142s-121 -226.667 -121 -396c0 -112.667 18.833 -210 56.5 -292s91.834 -145.333 162.501 -190s155 -67 253 -67zM1115 1755l-320 -225h-133v24l229 235h224v-34z" />
    <glyph glyph-name="cacute" unicode="&#x107;" horiz-adv-x="1062" 
d="M567 -20c-156 0 -275.336 48.167 -358.003 144.5s-124 234.833 -124 415.5s41.667 319.5 125 416.5s202.333 145.5 357 145.5c116 0 212.167 -29.833 288.5 -89.5s124.5 -141.834 144.5 -246.501l-218 -14c-8.66699 58.667 -31 105.334 -67 140.001s-87.333 52 -154 52
c-87.333 0 -151.333 -31.167 -192 -93.5s-61 -163.833 -61 -304.5c0 -137.333 21.333 -239.5 64 -306.5s106.667 -100.5 192 -100.5c60.667 0 111.334 17.167 152.001 51.5s65.667 86.5 75 156.5l215 -12c-9.33301 -72 -33.666 -134.5 -72.999 -187.5
s-90.166 -94.167 -152.499 -123.5s-133.5 -44 -213.5 -44zM888.997 1472l-334 -277h-119v24l229 287h224v-34z" />
    <glyph glyph-name="Ccircumflex" unicode="&#x108;" horiz-adv-x="1479" 
d="M798 162c191.333 0 331.67 94.998 421.003 284.998l189 -85c-56.667 -126 -137.834 -221.167 -243.501 -285.5s-229.834 -96.5 -372.501 -96.5c-145.333 0 -269.833 29.333 -373.5 88s-183.167 142.834 -238.5 252.501s-83 239.834 -83 390.501
c0 151.333 27.167 280.666 81.5 387.999s133 189.333 236 246s227.167 85 372.5 85c155.333 0 283.833 -30.667 385.5 -92s175.5 -151.666 221.5 -270.999l-208 -64c-28.667 78 -77.834 138.5 -147.501 181.5s-152.167 64.5 -247.5 64.5
c-148.667 0 -263.334 -47.333 -344.001 -142s-121 -226.667 -121 -396c0 -112.667 18.833 -210 56.5 -292s91.834 -145.333 162.501 -190s155 -67 253 -67zM451.004 1530v23l242 252h212l233 -252v-23h-123l-214 143h-2l-225 -143h-123z" />
    <glyph glyph-name="ccircumflex" unicode="&#x109;" horiz-adv-x="1062" 
d="M567 -20c-156 0 -275.336 48.167 -358.003 144.5s-124 234.833 -124 415.5s41.667 319.5 125 416.5s202.333 145.5 357 145.5c116 0 212.167 -29.833 288.5 -89.5s124.5 -141.834 144.5 -246.501l-218 -14c-8.66699 58.667 -31 105.334 -67 140.001s-87.333 52 -154 52
c-87.333 0 -151.333 -31.167 -192 -93.5s-61 -163.833 -61 -304.5c0 -137.333 21.333 -239.5 64 -306.5s106.667 -100.5 192 -100.5c60.667 0 111.334 17.167 152.001 51.5s65.667 86.5 75 156.5l215 -12c-9.33301 -72 -33.666 -134.5 -72.999 -187.5
s-90.166 -94.167 -152.499 -123.5s-133.5 -44 -213.5 -44zM215.997 1195v23l242 286h212l233 -286v-23h-123l-214 177h-3l-225 -177h-122z" />
    <glyph glyph-name="Cdotaccent" unicode="&#x10a;" horiz-adv-x="1479" 
d="M798 162c191.333 0 331.67 94.998 421.003 284.998l189 -85c-56.667 -126 -137.834 -221.167 -243.501 -285.5s-229.834 -96.5 -372.501 -96.5c-145.333 0 -269.833 29.333 -373.5 88s-183.167 142.834 -238.5 252.501s-83 239.834 -83 390.501
c0 151.333 27.167 280.666 81.5 387.999s133 189.333 236 246s227.167 85 372.5 85c155.333 0 283.833 -30.667 385.5 -92s175.5 -151.666 221.5 -270.999l-208 -64c-28.667 78 -77.834 138.5 -147.501 181.5s-152.167 64.5 -247.5 64.5
c-148.667 0 -263.334 -47.333 -344.001 -142s-121 -226.667 -121 -396c0 -112.667 18.833 -210 56.5 -292s91.834 -145.333 162.501 -190s155 -67 253 -67zM897.004 1769v-184h-213v184h213z" />
    <glyph glyph-name="cdotaccent" unicode="&#x10b;" horiz-adv-x="1062" 
d="M567 -20c-156 0 -275.336 48.167 -358.003 144.5s-124 234.833 -124 415.5s41.667 319.5 125 416.5s202.333 145.5 357 145.5c116 0 212.167 -29.833 288.5 -89.5s124.5 -141.834 144.5 -246.501l-218 -14c-8.66699 58.667 -31 105.334 -67 140.001s-87.333 52 -154 52
c-87.333 0 -151.333 -31.167 -192 -93.5s-61 -163.833 -61 -304.5c0 -137.333 21.333 -239.5 64 -306.5s106.667 -100.5 192 -100.5c60.667 0 111.334 17.167 152.001 51.5s65.667 86.5 75 156.5l215 -12c-9.33301 -72 -33.666 -134.5 -72.999 -187.5
s-90.166 -94.167 -152.499 -123.5s-133.5 -44 -213.5 -44zM670.997 1484v-184h-213v184h213z" />
    <glyph glyph-name="Ccaron" unicode="&#x10c;" horiz-adv-x="1479" 
d="M798 162c191.333 0 331.67 94.998 421.003 284.998l189 -85c-56.667 -126 -137.834 -221.167 -243.501 -285.5s-229.834 -96.5 -372.501 -96.5c-145.333 0 -269.833 29.333 -373.5 88s-183.167 142.834 -238.5 252.501s-83 239.834 -83 390.501
c0 151.333 27.167 280.666 81.5 387.999s133 189.333 236 246s227.167 85 372.5 85c155.333 0 283.833 -30.667 385.5 -92s175.5 -151.666 221.5 -270.999l-208 -64c-28.667 78 -77.834 138.5 -147.501 181.5s-152.167 64.5 -247.5 64.5
c-148.667 0 -263.334 -47.333 -344.001 -142s-121 -226.667 -121 -396c0 -112.667 18.833 -210 56.5 -292s91.834 -145.333 162.501 -190s155 -67 253 -67zM1131 1781l-233 -251h-212l-242 251v24h123l225 -143h2l214 143h123v-24z" />
    <glyph glyph-name="ccaron" unicode="&#x10d;" horiz-adv-x="1062" 
d="M567 -20c-156 0 -275.336 48.167 -358.003 144.5s-124 234.833 -124 415.5s41.667 319.5 125 416.5s202.333 145.5 357 145.5c116 0 212.167 -29.833 288.5 -89.5s124.5 -141.834 144.5 -246.501l-218 -14c-8.66699 58.667 -31 105.334 -67 140.001s-87.333 52 -154 52
c-87.333 0 -151.333 -31.167 -192 -93.5s-61 -163.833 -61 -304.5c0 -137.333 21.333 -239.5 64 -306.5s106.667 -100.5 192 -100.5c60.667 0 111.334 17.167 152.001 51.5s65.667 86.5 75 156.5l215 -12c-9.33301 -72 -33.666 -134.5 -72.999 -187.5
s-90.166 -94.167 -152.499 -123.5s-133.5 -44 -213.5 -44zM900.997 1481l-233 -286h-212l-242 286v23h123l225 -177h2l214 177h123v-23z" />
    <glyph glyph-name="Dcaron" unicode="&#x10e;" horiz-adv-x="1479" 
d="M1385 718c0 -149.333 -29.001 -277.668 -87.001 -385.001s-138.5 -189.666 -241.5 -246.999s-222.167 -86 -357.5 -86h-541v1409h480c238.667 0 422.834 -59.833 552.501 -179.5s194.5 -290.167 194.5 -511.5zM1158 717.998c0 166.667 -45 293.832 -135 381.499
s-219.667 131.5 -389 131.5h-251v-1053h293c98 0 183 22 255 66s127.833 106.333 167.5 187s59.5 176.334 59.5 287.001zM1036 1781l-233 -251h-212l-242 251v24h123l225 -143h2l214 143h123v-24z" />
    <glyph glyph-name="dcaron" unicode="&#x10f;" horiz-adv-x="1330" 
d="M838 0c-1.33301 7.33301 -3 21.333 -5 42s-3.66699 43.334 -5 68.001s-2 46.334 -2 65.001h-4c-32 -68 -76 -117.5 -132 -148.5s-125.333 -46.5 -208 -46.5c-132.667 0 -232 47 -298 141s-99 232.667 -99 416c0 186 34.167 326.667 102.5 422s168.833 143 301.5 143
c80.667 0 148.5 -15.333 203.5 -46s98.5 -78.334 130.5 -143.001h2l-2 140v431h214v-1257c0 -48.667 0.5 -91.834 1.5 -129.501s2.5 -70.167 4.5 -97.5h-205zM309 541c0 -141.333 19.5 -244 58.5 -308s100.833 -96 185.5 -96c92.667 0 161 34.333 205 103s66 172.667 66 312
c0 134 -21.833 233.833 -65.5 299.5s-111.5 98.5 -203.5 98.5c-86 0 -148.5 -32.5 -187.5 -97.5s-58.5 -168.833 -58.5 -311.5zM1344 1365c0 -55.333 -7.33203 -102.5 -21.999 -141.5s-36.334 -75.5 -65.001 -109.5h-124c62.667 66.667 94 130 94 190h-95v180h212v-119z" />
    <glyph glyph-name="Dcroat" unicode="&#x110;" horiz-adv-x="1479" 
d="M1385 718c0 -150 -29.001 -278.5 -87.001 -385.5s-138.5 -189.167 -241.5 -246.5s-222.167 -86 -357.5 -86h-541v629h-146v176h146v604h480c238.667 0 422.834 -59.833 552.501 -179.5s194.5 -290.167 194.5 -511.5zM1158 718c0 166 -44.833 292.831 -134.5 380.498
s-219.5 131.5 -389.5 131.5h-251v-425h390v-176h-390v-450h293c99.333 0 185 21.833 257 65.5s127.5 105.834 166.5 186.501s58.5 176.334 58.5 287.001z" />
    <glyph glyph-name="dcroat" unicode="&#x111;" horiz-adv-x="1176" 
d="M823 1340v144.001h214v-144h132v-144h-132v-969c0 -48.667 0.5 -91.834 1.5 -129.501s2.83301 -70.167 5.5 -97.5h-206c-1.33301 7.33301 -3 21.333 -5 42s-3.5 43.334 -4.5 68.001s-1.5 46.334 -1.5 65.001h-4c-32.667 -68 -77 -117.5 -133 -148.5
s-125.333 -46.5 -208 -46.5c-132.667 0 -232 46.333 -298 139s-99 230 -99 412c0 183.333 34.167 322.166 102.5 416.499s168.833 141.5 301.5 141.5c80.667 0 148.5 -15.333 203.5 -46s98.5 -78.334 130.5 -143.001h2l-2 140v156h-295v144h295zM309 535.001
c0 -139.333 19.5 -240.501 58.5 -303.501s100.833 -94.5 185.5 -94.5c92.667 0 161 33.833 205 101.5s66 170.167 66 307.5c0 132.667 -21.667 231 -65 295s-111.333 96 -204 96c-86 0 -148.5 -31.667 -187.5 -95s-58.5 -165.666 -58.5 -306.999z" />
    <glyph glyph-name="Emacron" unicode="&#x112;" horiz-adv-x="1366" 
d="M1281 180v-180h-1123v1409h1082v-180h-857v-419h796v-179h-796v-451h898zM415 1697h570v-141h-570v141z" />
    <glyph glyph-name="emacron" unicode="&#x113;" horiz-adv-x="1139" 
d="M309 498c0 -118 23.6699 -208.335 71.0029 -271.002s115.666 -94 204.999 -94c68.667 0 124 14 166 42s70.667 65 86 111l193 -37c-68.667 -179.333 -218.334 -269 -449.001 -269c-161.333 0 -284.333 47.833 -369 143.5s-127 236.834 -127 423.501
c0 178.667 42.667 315.834 128 411.501s206.666 143.5 363.999 143.5c158 0 277.167 -49.167 357.5 -147.5s120.5 -244.5 120.5 -438.5v-18h-746zM840.003 647.998c-8 105.333 -34.167 182.667 -78.5 232s-106.833 74 -187.5 74c-80 0 -143 -27 -189 -81
s-70.667 -129 -74 -225h529zM291.003 1366h570v-141h-570v141z" />
    <glyph glyph-name="Ebreve" unicode="&#x114;" horiz-adv-x="1366" 
d="M1281 180v-180h-1123v1409h1082v-180h-857v-419h796v-179h-796v-451h898zM701 1527c-91.333 0 -168.002 24.333 -230.002 73s-98.333 111.667 -109 189h133c10.667 -37.333 34 -66.833 70 -88.5s82 -32.5 138 -32.5c56.667 0 102.667 10.833 138 32.5
s58.333 51.167 69 88.5h132c-13.333 -80.667 -50.666 -144.5 -111.999 -191.5s-137.666 -70.5 -228.999 -70.5z" />
    <glyph glyph-name="ebreve" unicode="&#x115;" horiz-adv-x="1139" 
d="M309 498c0 -118 23.6699 -208.335 71.0029 -271.002s115.666 -94 204.999 -94c68.667 0 124 14 166 42s70.667 65 86 111l193 -37c-68.667 -179.333 -218.334 -269 -449.001 -269c-161.333 0 -284.333 47.833 -369 143.5s-127 236.834 -127 423.501
c0 178.667 42.667 315.834 128 411.501s206.666 143.5 363.999 143.5c158 0 277.167 -49.167 357.5 -147.5s120.5 -244.5 120.5 -438.5v-18h-746zM840.003 647.998c-8 105.333 -34.167 182.667 -78.5 232s-106.833 74 -187.5 74c-80 0 -143 -27 -189 -81
s-70.667 -129 -74 -225h529zM569.003 1195c-92.667 0 -169.835 29 -231.502 87s-97.5 133.667 -107.5 227h132c10 -51.333 32.833 -90.5 68.5 -117.5s82.167 -40.5 139.5 -40.5s103.833 13.5 139.5 40.5s58.167 66.167 67.5 117.5h133
c-13.333 -96 -50.166 -172.333 -110.499 -229s-137.166 -85 -230.499 -85z" />
    <glyph glyph-name="Edotaccent" unicode="&#x116;" horiz-adv-x="1366" 
d="M1281 180v-180h-1123v1409h1082v-180h-857v-419h796v-179h-796v-451h898zM810 1769v-184h-213v184h213z" />
    <glyph glyph-name="edotaccent" unicode="&#x117;" horiz-adv-x="1139" 
d="M309 498c0 -118 23.6699 -208.335 71.0029 -271.002s115.666 -94 204.999 -94c68.667 0 124 14 166 42s70.667 65 86 111l193 -37c-68.667 -179.333 -218.334 -269 -449.001 -269c-161.333 0 -284.333 47.833 -369 143.5s-127 236.834 -127 423.501
c0 178.667 42.667 315.834 128 411.501s206.666 143.5 363.999 143.5c158 0 277.167 -49.167 357.5 -147.5s120.5 -244.5 120.5 -438.5v-18h-746zM840.003 647.998c-8 105.333 -34.167 182.667 -78.5 232s-106.833 74 -187.5 74c-80 0 -143 -27 -189 -81
s-70.667 -129 -74 -225h529zM680.003 1484v-184h-213v184h213z" />
    <glyph glyph-name="Eogonek" unicode="&#x118;" horiz-adv-x="1366" 
d="M1281 180v-180h-1123v1409h1082v-180h-857v-419h796v-179h-796v-451h898zM1256 -397c-42 -19.333 -89.668 -29 -143.001 -29c-71.333 0 -125.666 17.333 -162.999 52s-56 81 -56 139c0 48 14.5 94 43.5 138s66.5 78.667 112.5 104h139c-38 -22.667 -71 -54 -99 -94
s-42 -82.333 -42 -127c0 -28 8.16699 -50.167 24.5 -66.5s39.5 -24.5 69.5 -24.5c36 0 74 8.33301 114 25v-117z" />
    <glyph glyph-name="eogonek" unicode="&#x119;" horiz-adv-x="1139" 
d="M309 498c0 -118 23.6699 -208.335 71.0029 -271.002s115.666 -94 204.999 -94c68.667 0 124 14 166 42s70.667 65 86 111l193 -37c-68.667 -179.333 -218.334 -269 -449.001 -269c-161.333 0 -284.333 47.833 -369 143.5s-127 236.834 -127 423.501
c0 178.667 42.667 315.834 128 411.501s206.666 143.5 363.999 143.5c158 0 277.167 -49.167 357.5 -147.5s120.5 -244.5 120.5 -438.5v-18h-746zM840.003 647.998c-8 105.333 -34.167 182.667 -78.5 232s-106.833 74 -187.5 74c-80 0 -143 -27 -189 -81
s-70.667 -129 -74 -225h529zM849.003 -391.001c-42 -19.333 -89.668 -29 -143.001 -29c-71.333 0 -125.666 17.333 -162.999 52s-56 81 -56 139c0 48 14.5 94 43.5 138s66.5 78.667 112.5 104h139c-38 -22.667 -71 -54 -99 -94s-42 -82.333 -42 -127
c0 -28 8.16699 -50.167 24.5 -66.5s39.5 -24.5 69.5 -24.5c36 0 74 8.33301 114 25v-117z" />
    <glyph glyph-name="Ecaron" unicode="&#x11a;" horiz-adv-x="1366" 
d="M1281 180v-180h-1123v1409h1082v-180h-857v-419h796v-179h-796v-451h898zM1045 1781l-233 -251h-212l-242 251v24h123l225 -143h2l214 143h123v-24z" />
    <glyph glyph-name="ecaron" unicode="&#x11b;" horiz-adv-x="1139" 
d="M309 498c0 -118 23.6699 -208.335 71.0029 -271.002s115.666 -94 204.999 -94c68.667 0 124 14 166 42s70.667 65 86 111l193 -37c-68.667 -179.333 -218.334 -269 -449.001 -269c-161.333 0 -284.333 47.833 -369 143.5s-127 236.834 -127 423.501
c0 178.667 42.667 315.834 128 411.501s206.666 143.5 363.999 143.5c158 0 277.167 -49.167 357.5 -147.5s120.5 -244.5 120.5 -438.5v-18h-746zM840.003 647.998c-8 105.333 -34.167 182.667 -78.5 232s-106.833 74 -187.5 74c-80 0 -143 -27 -189 -81
s-70.667 -129 -74 -225h529zM915.003 1481l-233 -286h-212l-242 286v23h123l225 -177h2l214 177h123v-23z" />
    <glyph glyph-name="Gcircumflex" unicode="&#x11c;" horiz-adv-x="1593" 
d="M811 160c86.667 0 168.5 13.1689 245.5 39.502s138.5 61.166 184.5 104.499v234h-395v180h603v-497c-74.667 -76 -168.167 -135.167 -280.5 -177.5s-232.5 -63.5 -360.5 -63.5c-148.667 0 -276 29.333 -382 88s-187.333 142.667 -244 252s-85 239.666 -85 390.999
c0 230 61.5 407.333 184.5 532s297.167 187 522.5 187c159.333 0 289 -27.667 389 -83s175 -142.333 225 -261l-212 -63c-36.667 77.333 -88.834 134.333 -156.501 171s-150.5 55 -248.5 55c-154.667 0 -272.667 -46.833 -354 -140.5s-122 -226.167 -122 -397.5
c0 -172 42.833 -306.833 128.5 -404.5s204.834 -146.5 357.501 -146.5zM459 1530v23l242 252h212l233 -252v-23h-123l-214 143h-2l-225 -143h-123z" />
    <glyph glyph-name="gcircumflex" unicode="&#x11d;" horiz-adv-x="1176" 
d="M564 -428c-122.667 0 -220.664 23.832 -293.997 71.499s-120 115.5 -140 203.5l215 28c11.333 -47.333 36.166 -84.166 74.499 -110.499s88.5 -39.5 150.5 -39.5c85.333 0 149 25.5 191 76.5s63 127.167 63 228.5l1 171h-2c-32.667 -68.667 -78.5 -120.167 -137.5 -154.5
s-129.167 -51.5 -210.5 -51.5c-130.667 0 -228.334 45.167 -293.001 135.5s-97 227.833 -97 412.5c0 186 34.333 325.333 103 418s171 139 307 139c77.333 0 143.833 -17 199.5 -51s98.834 -83.333 129.501 -148h3c0 14 0.666992 34.5 2 61.5s3.16602 52.5 5.49902 76.5
s4.16602 38.333 5.49902 43h203c-4 -48 -6 -125.667 -6 -233v-817c0 -152.667 -39.667 -267.5 -119 -344.5s-197.333 -115.5 -354 -115.5zM825.003 545.999c0 124.667 -24.5 222.667 -73.5 294s-113.5 107 -193.5 107c-86 0 -149.333 -32.333 -190 -97
s-61 -166.667 -61 -306c0 -138 19.333 -238.333 58 -301s102 -94 190 -94c82 0 147.5 35.167 196.5 105.5s73.5 167.5 73.5 291.5zM223.003 1195v23l242 286h212l233 -286v-23h-123l-214 177h-3l-225 -177h-122z" />
    <glyph glyph-name="Gbreve" unicode="&#x11e;" horiz-adv-x="1593" 
d="M811 160c86.667 0 168.5 13.1689 245.5 39.502s138.5 61.166 184.5 104.499v234h-395v180h603v-497c-74.667 -76 -168.167 -135.167 -280.5 -177.5s-232.5 -63.5 -360.5 -63.5c-148.667 0 -276 29.333 -382 88s-187.333 142.667 -244 252s-85 239.666 -85 390.999
c0 230 61.5 407.333 184.5 532s297.167 187 522.5 187c159.333 0 289 -27.667 389 -83s175 -142.333 225 -261l-212 -63c-36.667 77.333 -88.834 134.333 -156.501 171s-150.5 55 -248.5 55c-154.667 0 -272.667 -46.833 -354 -140.5s-122 -226.167 -122 -397.5
c0 -172 42.833 -306.833 128.5 -404.5s204.834 -146.5 357.501 -146.5zM809 1527c-91.333 0 -168.002 24.333 -230.002 73s-98.333 111.667 -109 189h133c10.667 -37.333 34 -66.833 70 -88.5s82 -32.5 138 -32.5c56.667 0 102.667 10.833 138 32.5s58.333 51.167 69 88.5
h132c-13.333 -80.667 -50.666 -144.5 -111.999 -191.5s-137.666 -70.5 -228.999 -70.5z" />
    <glyph glyph-name="gbreve" unicode="&#x11f;" horiz-adv-x="1176" 
d="M564 -428c-122.667 0 -220.664 23.832 -293.997 71.499s-120 115.5 -140 203.5l215 28c11.333 -47.333 36.166 -84.166 74.499 -110.499s88.5 -39.5 150.5 -39.5c85.333 0 149 25.5 191 76.5s63 127.167 63 228.5l1 171h-2c-32.667 -68.667 -78.5 -120.167 -137.5 -154.5
s-129.167 -51.5 -210.5 -51.5c-130.667 0 -228.334 45.167 -293.001 135.5s-97 227.833 -97 412.5c0 186 34.333 325.333 103 418s171 139 307 139c77.333 0 143.833 -17 199.5 -51s98.834 -83.333 129.501 -148h3c0 14 0.666992 34.5 2 61.5s3.16602 52.5 5.49902 76.5
s4.16602 38.333 5.49902 43h203c-4 -48 -6 -125.667 -6 -233v-817c0 -152.667 -39.667 -267.5 -119 -344.5s-197.333 -115.5 -354 -115.5zM825.003 545.999c0 124.667 -24.5 222.667 -73.5 294s-113.5 107 -193.5 107c-86 0 -149.333 -32.333 -190 -97
s-61 -166.667 -61 -306c0 -138 19.333 -238.333 58 -301s102 -94 190 -94c82 0 147.5 35.167 196.5 105.5s73.5 167.5 73.5 291.5zM566.003 1195c-92.667 0 -169.835 29 -231.502 87s-97.5 133.667 -107.5 227h132c10 -51.333 32.833 -90.5 68.5 -117.5
s82.167 -40.5 139.5 -40.5s103.833 13.5 139.5 40.5s58.167 66.167 67.5 117.5h133c-13.333 -96 -50.166 -172.333 -110.499 -229s-137.166 -85 -230.499 -85z" />
    <glyph glyph-name="Gdotaccent" unicode="&#x120;" horiz-adv-x="1593" 
d="M811 160c86.667 0 168.5 13.1689 245.5 39.502s138.5 61.166 184.5 104.499v234h-395v180h603v-497c-74.667 -76 -168.167 -135.167 -280.5 -177.5s-232.5 -63.5 -360.5 -63.5c-148.667 0 -276 29.333 -382 88s-187.333 142.667 -244 252s-85 239.666 -85 390.999
c0 230 61.5 407.333 184.5 532s297.167 187 522.5 187c159.333 0 289 -27.667 389 -83s175 -142.333 225 -261l-212 -63c-36.667 77.333 -88.834 134.333 -156.501 171s-150.5 55 -248.5 55c-154.667 0 -272.667 -46.833 -354 -140.5s-122 -226.167 -122 -397.5
c0 -172 42.833 -306.833 128.5 -404.5s204.834 -146.5 357.501 -146.5zM916 1769v-184h-213v184h213z" />
    <glyph glyph-name="gdotaccent" unicode="&#x121;" horiz-adv-x="1176" 
d="M564 -428c-122.667 0 -220.664 23.832 -293.997 71.499s-120 115.5 -140 203.5l215 28c11.333 -47.333 36.166 -84.166 74.499 -110.499s88.5 -39.5 150.5 -39.5c85.333 0 149 25.5 191 76.5s63 127.167 63 228.5l1 171h-2c-32.667 -68.667 -78.5 -120.167 -137.5 -154.5
s-129.167 -51.5 -210.5 -51.5c-130.667 0 -228.334 45.167 -293.001 135.5s-97 227.833 -97 412.5c0 186 34.333 325.333 103 418s171 139 307 139c77.333 0 143.833 -17 199.5 -51s98.834 -83.333 129.501 -148h3c0 14 0.666992 34.5 2 61.5s3.16602 52.5 5.49902 76.5
s4.16602 38.333 5.49902 43h203c-4 -48 -6 -125.667 -6 -233v-817c0 -152.667 -39.667 -267.5 -119 -344.5s-197.333 -115.5 -354 -115.5zM825.003 545.999c0 124.667 -24.5 222.667 -73.5 294s-113.5 107 -193.5 107c-86 0 -149.333 -32.333 -190 -97
s-61 -166.667 -61 -306c0 -138 19.333 -238.333 58 -301s102 -94 190 -94c82 0 147.5 35.167 196.5 105.5s73.5 167.5 73.5 291.5zM680.003 1484v-184h-213v184h213z" />
    <glyph glyph-name="Gcommaaccent" unicode="&#x122;" horiz-adv-x="1593" 
d="M811 160c86.667 0 168.5 13.1689 245.5 39.502s138.5 61.166 184.5 104.499v234h-395v180h603v-497c-74.667 -76 -168.167 -135.167 -280.5 -177.5s-232.5 -63.5 -360.5 -63.5c-148.667 0 -276 29.333 -382 88s-187.333 142.667 -244 252s-85 239.666 -85 390.999
c0 230 61.5 407.333 184.5 532s297.167 187 522.5 187c159.333 0 289 -27.667 389 -83s175 -142.333 225 -261l-212 -63c-36.667 77.333 -88.834 134.333 -156.501 171s-150.5 55 -248.5 55c-154.667 0 -272.667 -46.833 -354 -140.5s-122 -226.167 -122 -397.5
c0 -172 42.833 -306.833 128.5 -404.5s204.834 -146.5 357.501 -146.5zM925 -196.998c0 -54.667 -7.33301 -100.332 -22 -136.999s-36.667 -72.334 -66 -107.001h-123c30 32.667 53.167 63.167 69.5 91.5s24.5 56.833 24.5 85.5h-95v173h212v-106z" />
    <glyph glyph-name="gcommaaccent" unicode="&#x123;" horiz-adv-x="1176" 
d="M564 -428c-122.667 0 -220.664 23.832 -293.997 71.499s-120 115.5 -140 203.5l215 28c11.333 -47.333 36.166 -84.166 74.499 -110.499s88.5 -39.5 150.5 -39.5c85.333 0 149 25.5 191 76.5s63 127.167 63 228.5l1 171h-2c-32.667 -68.667 -78.5 -120.167 -137.5 -154.5
s-129.167 -51.5 -210.5 -51.5c-130.667 0 -228.334 45.167 -293.001 135.5s-97 227.833 -97 412.5c0 186 34.333 325.333 103 418s171 139 307 139c77.333 0 143.833 -17 199.5 -51s98.834 -83.333 129.501 -148h3c0 14 0.666992 34.5 2 61.5s3.16602 52.5 5.49902 76.5
s4.16602 38.333 5.49902 43h203c-4 -48 -6 -125.667 -6 -233v-817c0 -152.667 -39.667 -267.5 -119 -344.5s-197.333 -115.5 -354 -115.5zM825.003 545.999c0 124.667 -24.5 222.667 -73.5 294s-113.5 107 -193.5 107c-86 0 -149.333 -32.333 -190 -97
s-61 -166.667 -61 -306c0 -138 19.333 -238.333 58 -301s102 -94 190 -94c82 0 147.5 35.167 196.5 105.5s73.5 167.5 73.5 291.5zM460.003 1331c0 58 7.33203 106.5 21.999 145.5s35.334 74.167 62.001 105.5h127c-62.667 -66.667 -94 -130 -94 -190h95v-181h-212v120z" />
    <glyph glyph-name="Hcircumflex" unicode="&#x124;" horiz-adv-x="1479" 
d="M383 637v-637h-225v1409h225v-584h713v584h226v-1409h-226v637h-713zM398 1530v23l242 252h212l233 -252v-23h-123l-214 143h-2l-225 -143h-123z" />
    <glyph glyph-name="hcircumflex" unicode="&#x125;" horiz-adv-x="1176" 
d="M351 887c38.667 74.667 85.666 129.167 140.999 163.5s124 51.5 206 51.5c116.667 0 203.667 -32.167 261 -96.5s86 -163.166 86 -296.499v-709h-214v659c0 97.333 -16.667 168.333 -50 213s-87.666 67 -162.999 67c-78.667 0 -142 -29.333 -190 -88
s-72 -136.334 -72 -233.001v-618h-214v1484h214v-392c0 -26 -0.5 -52.833 -1.5 -80.5s-2 -52.667 -3 -75s-2.16699 -38.833 -3.5 -49.5h3zM252.999 1599v23l242 252h212l233 -252v-23h-123l-214 143h-2l-225 -143h-123z" />
    <glyph glyph-name="Hbar" unicode="&#x126;" horiz-adv-x="1479" 
d="M383 637v-637h-225v1032h-144v159h144v218h225v-218h720v218h219v-218h143v-159h-143v-1032h-219v637h-720zM383 825h720v207h-720v-207z" />
    <glyph glyph-name="hbar" unicode="&#x127;" horiz-adv-x="1176" 
d="M351 847c38.667 74.667 85.668 129.167 141.001 163.5s124 51.5 206 51.5c116.667 0 203.667 -32.667 261 -98s86 -163.666 86 -294.999v-669h-214v619c0 96.667 -15.833 167.5 -47.5 212.5s-86.834 67.5 -165.501 67.5s-142 -29.333 -190 -88s-72 -136.334 -72 -233.001
v-578h-214v1196h-132v144h132v144h214v-144h302v-144h-302v-144c0 -26 -0.5 -52.833 -1.5 -80.5s-2 -52.667 -3 -75s-2.16699 -38.833 -3.5 -49.5h3z" />
    <glyph glyph-name="Itilde" unicode="&#x128;" horiz-adv-x="569" 
d="M397 1409v-1409h-225v1409h225zM446 1530c-26 0 -52.667 6.00098 -80 18.001s-54.333 25.333 -81 40l-79 42.5c-25.333 13 -49 19.5 -71 19.5c-33.333 0 -58.5 -9.33301 -75.5 -28s-28.833 -49.334 -35.5 -92.001h-107c10 106 33.333 178.5 70 217.5
s83.667 58.5 141 58.5c28 0 56.5 -6.5 85.5 -19.5s57.167 -27.5 84.5 -43.5l74.5 -39c23.667 -12 45.5 -18 65.5 -18c31.333 0 56 9.33301 74 28s30.333 49.334 37 92.001h106c-8.66699 -100.667 -30.5 -171.834 -65.5 -213.501s-82.833 -62.5 -143.5 -62.5z" />
    <glyph glyph-name="itilde" unicode="&#x129;" horiz-adv-x="569" 
d="M391 1082v-1082h-213v1082h213zM447 1195c-26.667 0 -53.499 6.00195 -80.499 18.002s-53.833 25.333 -80.5 40c-27.333 16 -53.833 30.333 -79.5 43s-49.167 19 -70.5 19c-34 0 -59.333 -9.33301 -76 -28s-28.667 -49.334 -36 -92.001h-106c10 106 33 178.5 69 217.5
s83 58.5 141 58.5c30 0 59.833 -6.83301 89.5 -20.5s58.5 -28.834 86.5 -45.501c25.333 -14 49.333 -26.5 72 -37.5s43.667 -16.5 63 -16.5c30.667 0 55.167 9.33301 73.5 28s30.833 49.334 37.5 92.001h106c-9.33301 -100.667 -31.333 -171.834 -66 -213.501
s-82.334 -62.5 -143.001 -62.5z" />
    <glyph glyph-name="Imacron" unicode="&#x12a;" horiz-adv-x="569" 
d="M397 1409v-1409h-225v1409h225zM1 1697h570v-141h-570v141z" />
    <glyph glyph-name="imacron" unicode="&#x12b;" horiz-adv-x="569" 
d="M391 1082v-1082h-213v1082h213zM1 1366h570v-141h-570v141z" />
    <glyph glyph-name="Ibreve" unicode="&#x12c;" horiz-adv-x="569" 
d="M397 1409v-1409h-225v1409h225zM285 1527c-91.333 0 -168.002 24.333 -230.002 73s-98.333 111.667 -109 189h133c10.667 -37.333 34 -66.833 70 -88.5s82 -32.5 138 -32.5c56.667 0 102.667 10.833 138 32.5s58.333 51.167 69 88.5h132
c-13.333 -80.667 -50.666 -144.5 -111.999 -191.5s-137.666 -70.5 -228.999 -70.5z" />
    <glyph glyph-name="ibreve" unicode="&#x12d;" horiz-adv-x="569" 
d="M391 1082v-1082h-213v1082h213zM286 1195c-92.667 0 -169.835 29 -231.502 87s-97.5 133.667 -107.5 227h132c10 -51.333 32.833 -90.5 68.5 -117.5s82.167 -40.5 139.5 -40.5s103.833 13.5 139.5 40.5s58.167 66.167 67.5 117.5h133
c-13.333 -96 -50.166 -172.333 -110.499 -229s-137.166 -85 -230.499 -85z" />
    <glyph glyph-name="Iogonek" unicode="&#x12e;" horiz-adv-x="569" 
d="M397 1409v-1409h-225v1409h225zM453 -397c-42 -19.333 -89.668 -29 -143.001 -29c-71.333 0 -125.666 17.333 -162.999 52s-56 81 -56 139c0 48 14.5 94 43.5 138s66.5 78.667 112.5 104h139c-38 -22.667 -71 -54 -99 -94s-42 -82.333 -42 -127
c0 -28 8.16699 -50.167 24.5 -66.5s39.5 -24.5 69.5 -24.5c36 0 74 8.33301 114 25v-117z" />
    <glyph glyph-name="iogonek" unicode="&#x12f;" horiz-adv-x="493" 
d="M353 1484v-184h-214v184h214zM353 1082v-1082h-214v1082h214zM406 -397c-42 -19.333 -89.668 -29 -143.001 -29c-71.333 0 -125.666 17.333 -162.999 52s-56 81 -56 139c0 48 14.5 94 43.5 138s66.5 78.667 112.5 104h139c-38 -22.667 -71 -54 -99 -94
s-42 -82.333 -42 -127c0 -28 8.16699 -50.167 24.5 -66.5s39.5 -24.5 69.5 -24.5c36 0 74 8.33301 114 25v-117z" />
    <glyph glyph-name="Idotaccent" unicode="&#x130;" horiz-adv-x="569" 
d="M397 1409v-1409h-225v1409h225zM392 1769v-184h-213v184h213z" />
    <glyph glyph-name="dotlessi" unicode="&#x131;" horiz-adv-x="569" 
d="M391 1082v-1082h-213v1082h213z" />
    <glyph glyph-name="IJ" unicode="&#x132;" horiz-adv-x="1539" 
d="M384 1409v-1409h-225v1409h225zM956 -20c-128 0 -228.668 31.168 -302.001 93.501s-121.666 158.166 -144.999 287.499l222 35c12 -76 37.5 -134.333 76.5 -175s89.167 -61 150.5 -61c65.333 0 116.5 22.5 153.5 67.5s55.5 110.5 55.5 196.5v804h-275v181h499v-980
c0 -140 -38.5 -249.833 -115.5 -329.5s-183.5 -119.5 -319.5 -119.5z" />
    <glyph glyph-name="ij" unicode="&#x133;" horiz-adv-x="986" 
d="M353 1484v-184h-214v184h214zM353 1082v-1082h-214v1082h214zM845 1484v-184h-214v184h214zM589 -425c-56.667 0 -103.667 3 -141 9v159l29 -4c9.33301 -1.33301 19 -2 29 -2c46.667 0 79.167 11.5 97.5 34.5s27.5 68.833 27.5 137.5v1173h214v-1214
c0 -100 -21.333 -173.833 -64 -221.5s-106.667 -71.5 -192 -71.5z" />
    <glyph glyph-name="Jcircumflex" unicode="&#x134;" horiz-adv-x="1062" 
d="M479 -20c-128 0 -228.668 31.168 -302.001 93.501s-121.666 158.166 -144.999 287.499l222 35c12 -76 37.5 -134.333 76.5 -175s89.167 -61 150.5 -61c65.333 0 116.5 22.5 153.5 67.5s55.5 110.5 55.5 196.5v804h-275v181h499v-980c0 -140 -38.5 -249.833 -115.5 -329.5
s-183.5 -119.5 -319.5 -119.5zM313.999 1530v23l242 252h212l233 -252v-23h-123l-214 143h-2l-225 -143h-123z" />
    <glyph glyph-name="jcircumflex" unicode="&#x135;" horiz-adv-x="493" 
d="M249 1372l-225 -177h-123v23l242 286h213l232 -286v-23h-123l-213 177h-3zM97 -425c-56.667 0 -103.667 3 -141 9v159l58 -6c46.667 0 79.167 11.5 97.5 34.5s27.5 68.833 27.5 137.5v1173h214v-1214c0 -100 -21.333 -173.833 -64 -221.5s-106.667 -71.5 -192 -71.5z" />
    <glyph glyph-name="Kcommaaccent" unicode="&#x136;" horiz-adv-x="1404" 
d="M383 531v-531h-225v1409h225v-684l665 684h264l-600 -607l670 -802h-274l-544 669zM829 -197c0 -54.667 -7.33301 -100.332 -22 -136.999s-36.667 -72.334 -66 -107.001h-123c30 32.667 53.167 63.167 69.5 91.5s24.5 56.833 24.5 85.5h-95v173h212v-106z" />
    <glyph glyph-name="kcommaaccent" unicode="&#x137;" horiz-adv-x="1062" 
d="M353 392v-392h-213v1484h213v-901l446 499h241l-419 -451l444 -631h-243l-340 493zM683 -197c0 -54.667 -7.33301 -100.332 -22 -136.999s-36.667 -72.334 -66 -107.001h-123c30 32.667 53.167 63.167 69.5 91.5s24.5 56.833 24.5 85.5h-95v173h212v-106z" />
    <glyph glyph-name="kgreenlandic" unicode="&#x138;" horiz-adv-x="1062" 
d="M353 393v-393h-213v1082h213v-499l446 499h241l-419 -451l444 -631h-243l-340 493z" />
    <glyph glyph-name="Lacute" unicode="&#x139;" horiz-adv-x="1176" 
d="M1110 180v-180h-952v1409h225v-1229h727zM703 1755l-320 -225h-133v24l229 235h224v-34z" />
    <glyph glyph-name="lacute" unicode="&#x13a;" horiz-adv-x="493" 
d="M353 1484v-1484h-213v1484h213zM549 1833l-320 -225h-133v24l229 235h224v-34z" />
    <glyph glyph-name="Lcommaaccent" unicode="&#x13b;" horiz-adv-x="1176" 
d="M1110 180v-180h-952v1409h225v-1229h727zM731 -197c0 -54.667 -7.33301 -100.332 -22 -136.999s-36.667 -72.334 -66 -107.001h-123c30 32.667 53.167 63.167 69.5 91.5s24.5 56.833 24.5 85.5h-95v173h212v-106z" />
    <glyph glyph-name="lcommaaccent" unicode="&#x13c;" horiz-adv-x="493" 
d="M353 1484v-1484h-213v1484h213zM354 -197c0 -54.667 -7.33301 -100.332 -22 -136.999s-36.667 -72.334 -66 -107.001h-123c30 32.667 53.167 63.167 69.5 91.5s24.5 56.833 24.5 85.5h-95v173h212v-106z" />
    <glyph glyph-name="Lcaron" unicode="&#x13d;" horiz-adv-x="1176" 
d="M1110 180v-180h-952v1409h225v-1229h727zM900 1290c0 -55.333 -7.33203 -102.5 -21.999 -141.5s-36.334 -75.5 -65.001 -109.5h-124c62.667 66.667 94 130 94 190h-95v180h212v-119z" />
    <glyph glyph-name="lcaron" unicode="&#x13e;" horiz-adv-x="661" 
d="M353 1484v-1484h-213v1484h213zM675 1365c0 -55.333 -7.33203 -102.5 -21.999 -141.5s-36.334 -75.5 -65.001 -109.5h-124c62.667 66.667 94 130 94 190h-95v180h212v-119z" />
    <glyph glyph-name="Ldot" unicode="&#x13f;" horiz-adv-x="1176" 
d="M1110 180v-180h-952v1409h225v-1229h727zM853 859v-184h-213v184h213z" />
    <glyph glyph-name="ldot" unicode="&#x140;" horiz-adv-x="783" 
d="M353 1484v-1484h-213v1484h213zM732 859v-184h-213v184h213z" />
    <glyph glyph-name="Lslash" unicode="&#x141;" horiz-adv-x="1176" 
d="M157 0l1 520l-145 -79v181l145 78v709h225v-588l274 147v-179l-274 -148v-460h727v-181h-953z" />
    <glyph glyph-name="lslash" unicode="&#x142;" horiz-adv-x="493" 
d="M140 0v548l-123 -68v177l123 68v759h213v-637l126 72v-177l-126 -72v-670h-213z" />
    <glyph glyph-name="Nacute" unicode="&#x143;" horiz-adv-x="1479" 
d="M358 901v-901h-200v1409h260l716 -1170c-9.33301 121.333 -14 215 -14 281v889h202v-1409h-269l-707 1162l8 -136c2.66699 -43.333 4 -85 4 -125zM1097 1755l-320 -225h-133v24l229 235h224v-34z" />
    <glyph glyph-name="nacute" unicode="&#x144;" horiz-adv-x="1176" 
d="M359 611l0.00195312 -611.001h-214v847c0 62 -0.5 111.833 -1.5 149.5s-2.5 66.167 -4.5 85.5h202c1.33301 -11.333 2.66602 -28.333 3.99902 -51s2.5 -47 3.5 -73s1.83301 -49.667 2.5 -71h3c40.667 77.333 88.667 132.5 144 165.5s123 49.5 203 49.5
c117.333 0 204.5 -32 261.5 -96s85.5 -162.667 85.5 -296v-710h-214v660c0 100.667 -16.333 172.334 -49 215.001s-87.334 64 -164.001 64c-80 0 -143.667 -29.5 -191 -88.5s-71 -138.833 -71 -239.5zM918.002 1472l-334 -277h-119v24l229 287h224v-34z" />
    <glyph glyph-name="Ncommaaccent" unicode="&#x145;" horiz-adv-x="1479" 
d="M358 901v-901h-200v1409h260l716 -1170c-9.33301 121.333 -14 215 -14 281v889h202v-1409h-269l-707 1162l8 -136c2.66699 -43.333 4 -85 4 -125zM843 -197c0 -54.667 -7.33301 -100.332 -22 -136.999s-36.667 -72.334 -66 -107.001h-123
c30 32.667 53.167 63.167 69.5 91.5s24.5 56.833 24.5 85.5h-95v173h212v-106z" />
    <glyph glyph-name="ncommaaccent" unicode="&#x146;" horiz-adv-x="1176" 
d="M359 611l0.00195312 -611.001h-214v847c0 62 -0.5 111.833 -1.5 149.5s-2.5 66.167 -4.5 85.5h202c1.33301 -11.333 2.66602 -28.333 3.99902 -51s2.5 -47 3.5 -73s1.83301 -49.667 2.5 -71h3c40.667 77.333 88.667 132.5 144 165.5s123 49.5 203 49.5
c117.333 0 204.5 -32 261.5 -96s85.5 -162.667 85.5 -296v-710h-214v660c0 100.667 -16.333 172.334 -49 215.001s-87.334 64 -164.001 64c-80 0 -143.667 -29.5 -191 -88.5s-71 -138.833 -71 -239.5zM703.002 -197.001c0 -54.667 -7.33301 -100.332 -22 -136.999
s-36.667 -72.334 -66 -107.001h-123c30 32.667 53.167 63.167 69.5 91.5s24.5 56.833 24.5 85.5h-95v173h212v-106z" />
    <glyph glyph-name="Ncaron" unicode="&#x147;" horiz-adv-x="1479" 
d="M358 901v-901h-200v1409h260l716 -1170c-9.33301 121.333 -14 215 -14 281v889h202v-1409h-269l-707 1162l8 -136c2.66699 -43.333 4 -85 4 -125zM1114 1781l-233 -251h-212l-242 251v24h123l225 -143h2l214 143h123v-24z" />
    <glyph glyph-name="ncaron" unicode="&#x148;" horiz-adv-x="1176" 
d="M359 611l0.00195312 -611.001h-214v847c0 62 -0.5 111.833 -1.5 149.5s-2.5 66.167 -4.5 85.5h202c1.33301 -11.333 2.66602 -28.333 3.99902 -51s2.5 -47 3.5 -73s1.83301 -49.667 2.5 -71h3c40.667 77.333 88.667 132.5 144 165.5s123 49.5 203 49.5
c117.333 0 204.5 -32 261.5 -96s85.5 -162.667 85.5 -296v-710h-214v660c0 100.667 -16.333 172.334 -49 215.001s-87.334 64 -164.001 64c-80 0 -143.667 -29.5 -191 -88.5s-71 -138.833 -71 -239.5zM949.002 1481l-233 -286h-212l-242 286v23h123l225 -177h2l214 177h123
v-23z" />
    <glyph glyph-name="napostrophe" unicode="&#x149;" horiz-adv-x="1308" 
d="M488 611l0.00195312 -611.001h-214v847c0 62 -0.5 111.833 -1.5 149.5s-2.5 66.167 -4.5 85.5h202c1.33301 -11.333 2.66602 -28.333 3.99902 -51s2.5 -47 3.5 -73s1.83301 -49.667 2.5 -71h3c40.667 77.333 88.667 132.5 144 165.5s123 49.5 203 49.5
c117.333 0 204.5 -32 261.5 -96s85.5 -162.667 85.5 -296v-710h-214v660c0 100.667 -16.333 172.334 -49 215.001s-87.334 64 -164.001 64c-80 0 -143.667 -29.5 -191 -88.5s-71 -138.833 -71 -239.5zM222.002 1247c0 -73.333 -7 -135.832 -21 -187.499
s-36.333 -100.834 -67 -147.501h-143c70.667 98 106 191 106 279h-101v218h226v-162z" />
    <glyph glyph-name="Eng" unicode="&#x14a;" horiz-adv-x="1481" 
d="M929 -20c-72 0 -136.167 12.665 -192.5 37.998s-105.833 65.333 -148.5 120l152 134c32 -40 63.333 -68.833 94 -86.5s63 -26.5 97 -26.5c89.333 0 145.666 50.333 168.999 151c12 50 18 129.333 18 238v313c0 136 -24.5 234.667 -73.5 296s-128.833 92 -239.5 92
c-75.333 0 -145.333 -17 -210 -51s-116 -80 -154 -138s-57 -120 -57 -186v-874h-226v1092l-4 317h219c2.66699 -48 4.66699 -92.833 6 -134.5s2 -80.5 2 -116.5h4c46.667 85.333 114.334 151.833 203.001 199.5s186.667 71.5 294 71.5c161.333 0 278 -43 350 -129
s108 -223 108 -411v-347c0 -135.333 -13.833 -244.166 -41.5 -326.499s-71.667 -142.166 -132 -179.499s-139.5 -56 -237.5 -56z" />
    <glyph glyph-name="eng" unicode="&#x14b;" horiz-adv-x="1176" 
d="M792 -425c-56.667 0 -103.998 3 -141.998 9v159l59 -6c46.667 0 79.167 11.667 97.5 35s27.5 69 27.5 137v751c0 96.667 -15.333 167.334 -46 212.001s-86.334 67 -167.001 67s-144.5 -29.5 -191.5 -88.5s-70.5 -138.833 -70.5 -239.5v-611h-214v847
c0 62 -0.666992 111.833 -2 149.5s-3 66.167 -5 85.5h203c0.666992 -4 1.66699 -15.333 3 -34s2.66602 -41.834 3.99902 -69.501s2.33301 -58.167 3 -91.5h3c40 77.333 87.667 132.5 143 165.5s123.333 49.5 204 49.5c117.333 0 204.5 -31.333 261.5 -94
s85.5 -162 85.5 -298v-842c0 -98.667 -21.333 -172.167 -64 -220.5s-106.667 -72.5 -192 -72.5z" />
    <glyph glyph-name="Omacron" unicode="&#x14c;" horiz-adv-x="1593" 
d="M1499 711c0 -149.333 -28.833 -278.666 -86.5 -387.999s-139.167 -193.833 -244.5 -253.5s-230 -89.5 -374 -89.5c-144.667 0 -269.5 29.333 -374.5 88s-185.667 142.667 -242 252s-84.5 239.666 -84.5 390.999c0 150.667 27.833 279.5 83.5 386.5s136 189.167 241 246.5
s231.167 86 378.5 86c146 0 271.5 -28.5 376.5 -85.5s185.667 -139 242 -246s84.5 -236.167 84.5 -387.5zM1269 711c0 167.333 -41.333 298.833 -124 394.5s-199 143.5 -349 143.5c-151.333 0 -268.333 -47.167 -351 -141.5s-124 -226.5 -124 -396.5
c0 -112.667 18.833 -210.167 56.5 -292.5s92 -145.833 163 -190.5s155.5 -67 253.5 -67c152.667 0 270 47.833 352 143.5s123 231.167 123 406.5zM511 1697h570v-141h-570v141z" />
    <glyph glyph-name="omacron" unicode="&#x14d;" horiz-adv-x="1176" 
d="M1092 542c0 -184.667 -44 -324.5 -132 -419.5s-213.333 -142.5 -376 -142.5c-162 0 -285.833 48.833 -371.5 146.5s-128.5 236.167 -128.5 415.5c0 182.667 43 321.667 129 417s211.667 143 377 143c168.667 0 294.5 -46.333 377.5 -139s124.5 -233 124.5 -421zM868 542
c0 142.667 -21.666 246.167 -64.999 310.5s-113.333 96.5 -210 96.5c-98.667 0 -170.834 -33.167 -216.501 -99.5s-68.5 -168.833 -68.5 -307.5c0 -135.333 22.5 -237.333 67.5 -306s113.5 -103 205.5 -103c101.333 0 174.5 33.333 219.5 100s67.5 169.667 67.5 309z
M305.001 1366h570v-141h-570v141z" />
    <glyph glyph-name="Obreve" unicode="&#x14e;" horiz-adv-x="1593" 
d="M1499 711c0 -149.333 -28.833 -278.666 -86.5 -387.999s-139.167 -193.833 -244.5 -253.5s-230 -89.5 -374 -89.5c-144.667 0 -269.5 29.333 -374.5 88s-185.667 142.667 -242 252s-84.5 239.666 -84.5 390.999c0 150.667 27.833 279.5 83.5 386.5s136 189.167 241 246.5
s231.167 86 378.5 86c146 0 271.5 -28.5 376.5 -85.5s185.667 -139 242 -246s84.5 -236.167 84.5 -387.5zM1269 711c0 167.333 -41.333 298.833 -124 394.5s-199 143.5 -349 143.5c-151.333 0 -268.333 -47.167 -351 -141.5s-124 -226.5 -124 -396.5
c0 -112.667 18.833 -210.167 56.5 -292.5s92 -145.833 163 -190.5s155.5 -67 253.5 -67c152.667 0 270 47.833 352 143.5s123 231.167 123 406.5zM791 1527c-91.333 0 -168.002 24.333 -230.002 73s-98.333 111.667 -109 189h133c10.667 -37.333 34 -66.833 70 -88.5
s82 -32.5 138 -32.5c56.667 0 102.667 10.833 138 32.5s58.333 51.167 69 88.5h132c-13.333 -80.667 -50.666 -144.5 -111.999 -191.5s-137.666 -70.5 -228.999 -70.5z" />
    <glyph glyph-name="obreve" unicode="&#x14f;" horiz-adv-x="1176" 
d="M1092 542c0 -184.667 -44 -324.5 -132 -419.5s-213.333 -142.5 -376 -142.5c-162 0 -285.833 48.833 -371.5 146.5s-128.5 236.167 -128.5 415.5c0 182.667 43 321.667 129 417s211.667 143 377 143c168.667 0 294.5 -46.333 377.5 -139s124.5 -233 124.5 -421zM868 542
c0 142.667 -21.666 246.167 -64.999 310.5s-113.333 96.5 -210 96.5c-98.667 0 -170.834 -33.167 -216.501 -99.5s-68.5 -168.833 -68.5 -307.5c0 -135.333 22.5 -237.333 67.5 -306s113.5 -103 205.5 -103c101.333 0 174.5 33.333 219.5 100s67.5 169.667 67.5 309z
M590.001 1195c-92.667 0 -169.835 29 -231.502 87s-97.5 133.667 -107.5 227h132c10 -51.333 32.833 -90.5 68.5 -117.5s82.167 -40.5 139.5 -40.5s103.833 13.5 139.5 40.5s58.167 66.167 67.5 117.5h133c-13.333 -96 -50.166 -172.333 -110.499 -229
s-137.166 -85 -230.499 -85z" />
    <glyph glyph-name="Ohungarumlaut" unicode="&#x150;" horiz-adv-x="1593" 
d="M1499 711c0 -149.333 -28.833 -278.666 -86.5 -387.999s-139.167 -193.833 -244.5 -253.5s-230 -89.5 -374 -89.5c-144.667 0 -269.5 29.333 -374.5 88s-185.667 142.667 -242 252s-84.5 239.666 -84.5 390.999c0 150.667 27.833 279.5 83.5 386.5s136 189.167 241 246.5
s231.167 86 378.5 86c146 0 271.5 -28.5 376.5 -85.5s185.667 -139 242 -246s84.5 -236.167 84.5 -387.5zM1269 711c0 167.333 -41.333 298.833 -124 394.5s-199 143.5 -349 143.5c-151.333 0 -268.333 -47.167 -351 -141.5s-124 -226.5 -124 -396.5
c0 -112.667 18.833 -210.167 56.5 -292.5s92 -145.833 163 -190.5s155.5 -67 253.5 -67c152.667 0 270 47.833 352 143.5s123 231.167 123 406.5zM502 1530v25l203 235h216v-34l-312 -226h-107zM869 1530v25l203 235h216v-34l-313 -226h-106z" />
    <glyph glyph-name="ohungarumlaut" unicode="&#x151;" horiz-adv-x="1176" 
d="M1092 542c0 -184.667 -44 -324.5 -132 -419.5s-213.333 -142.5 -376 -142.5c-162 0 -285.833 48.833 -371.5 146.5s-128.5 236.167 -128.5 415.5c0 182.667 43 321.667 129 417s211.667 143 377 143c168.667 0 294.5 -46.333 377.5 -139s124.5 -233 124.5 -421zM868 542
c0 142.667 -21.666 246.167 -64.999 310.5s-113.333 96.5 -210 96.5c-98.667 0 -170.834 -33.167 -216.501 -99.5s-68.5 -168.833 -68.5 -307.5c0 -135.333 22.5 -237.333 67.5 -306s113.5 -103 205.5 -103c101.333 0 174.5 33.333 219.5 100s67.5 169.667 67.5 309z
M289.001 1195v25l220 280h216v-34l-326 -271h-110zM656.001 1195v25l219 280h217v-34l-326 -271h-110z" />
    <glyph glyph-name="OE" unicode="&#x152;" horiz-adv-x="2048" 
d="M997 0c-24 -2.66699 -53.666 -5.00098 -88.999 -7.00098s-74.666 -3 -117.999 -3c-144.667 0 -269.167 29 -373.5 87s-184.333 140.833 -240 248.5s-83.5 236.167 -83.5 385.5c0 148.667 27.833 275.834 83.5 381.501s135.667 186.667 240 243s229.5 84.5 375.5 84.5
c31.333 0 64.666 -1 99.999 -3s71.666 -4.66699 108.999 -8h919v-180h-757v-419h697v-177h-697v-453h798v-180h-964zM936.001 1230c-27.333 4 -53.666 6.5 -78.999 7.5s-47 1.5 -65 1.5c-153.333 0 -270.166 -45.667 -350.499 -137s-120.5 -221.666 -120.5 -390.999
c0 -170 41.333 -302.5 124 -397.5s197.667 -142.5 345 -142.5c31.333 0 59.166 0.666992 83.499 2s45.166 3.66602 62.499 6.99902v1050z" />
    <glyph glyph-name="oe" unicode="&#x153;" horiz-adv-x="1933" 
d="M1104 494c0 -115.333 23.667 -204.333 71 -267s116 -94 206 -94c68 0 123 14 165 42s70.667 65 86 111l194 -37c-68.667 -179.333 -218.667 -269 -450 -269c-174.667 0 -303.667 58.333 -387 175c-87.333 -116.667 -220.333 -175 -399 -175
c-162 0 -286.833 48.833 -374.5 146.5s-131.5 236.167 -131.5 415.5c0 182 44.167 320.833 132.5 416.5s214.833 143.5 379.5 143.5c182 0 314.333 -56.333 397 -169c86 112.667 212.667 169 380 169c158 0 277 -49.167 357 -147.5s120 -244.5 120 -438.5v-22h-746zM880 542
c0 140 -22.333 242.833 -67 308.5s-115.667 98.5 -213 98.5c-100.667 0 -174.5 -33.833 -221.5 -101.5s-70.5 -169.5 -70.5 -305.5c0 -135.333 23.5 -237.333 70.5 -306s116.833 -103 209.5 -103c102 0 176.167 33.333 222.5 100s69.5 169.667 69.5 309zM1369 954
c-80 0 -143 -26.999 -189 -80.999s-70.667 -129 -74 -225h530c-8.66699 105.333 -35.167 182.666 -79.5 231.999s-106.833 74 -187.5 74z" />
    <glyph glyph-name="Racute" unicode="&#x154;" horiz-adv-x="1479" 
d="M383 568l-0.000976562 -568h-225v1409h676c162 0 287 -35.667 375 -107s132 -172 132 -302c0 -102.667 -29.667 -189.667 -89 -261s-140.666 -117 -243.999 -137l394 -602h-258l-353 568h-408zM1114 995c0 77.333 -25.832 136 -77.499 176s-126.834 60 -225.501 60h-428
v-486h436c94.667 0 167.5 22 218.5 66s76.5 105.333 76.5 184zM1004 1755l-320 -225h-133v24l229 235h224v-34z" />
    <glyph glyph-name="racute" unicode="&#x155;" horiz-adv-x="720" 
d="M356 553l-0.000976562 -552.998h-214v829c0 45.333 -0.5 88.666 -1.5 129.999s-2.5 82.333 -4.5 123h202l4 -69c1.33301 -23.333 2.33301 -45.333 3 -66s1.33398 -38.834 2.00098 -54.501s1 -27.167 1 -34.5h4c22 68 44.667 119.667 68 155
c22.667 32.667 49 55.667 79 69s67 20 111 20c28 0 53.667 -3.66699 77 -11v-189c-30 8 -64.667 12 -104 12c-72.667 0 -128.667 -30.833 -168 -92.5s-59 -151.167 -59 -268.5zM711.999 1472l-334 -277h-119v24l229 287h224v-34z" />
    <glyph glyph-name="Rcommaaccent" unicode="&#x156;" horiz-adv-x="1479" 
d="M383 568l-0.000976562 -568h-225v1409h676c162 0 287 -35.667 375 -107s132 -172 132 -302c0 -102.667 -29.667 -189.667 -89 -261s-140.666 -117 -243.999 -137l394 -602h-258l-353 568h-408zM1114 995c0 77.333 -25.832 136 -77.499 176s-126.834 60 -225.501 60h-428
v-486h436c94.667 0 167.5 22 218.5 66s76.5 105.333 76.5 184zM852 -197c0 -54.667 -7.33301 -100.332 -22 -136.999s-36.667 -72.334 -66 -107.001h-123c30 32.667 53.167 63.167 69.5 91.5s24.5 56.833 24.5 85.5h-95v173h212v-106z" />
    <glyph glyph-name="rcommaaccent" unicode="&#x157;" horiz-adv-x="720" 
d="M356 553l-0.000976562 -552.998h-214v829c0 45.333 -0.5 88.666 -1.5 129.999s-2.5 82.333 -4.5 123h202l4 -69c1.33301 -23.333 2.33301 -45.333 3 -66s1.33398 -38.834 2.00098 -54.501s1 -27.167 1 -34.5h4c22 68 44.667 119.667 68 155
c22.667 32.667 49 55.667 79 69s67 20 111 20c28 0 53.667 -3.66699 77 -11v-189c-30 8 -64.667 12 -104 12c-72.667 0 -128.667 -30.833 -168 -92.5s-59 -151.167 -59 -268.5zM354.999 -196.998c0 -54.667 -7.33301 -100.332 -22 -136.999s-36.667 -72.334 -66 -107.001
h-123c30 32.667 53.167 63.167 69.5 91.5s24.5 56.833 24.5 85.5h-95v173h212v-106z" />
    <glyph glyph-name="Rcaron" unicode="&#x158;" horiz-adv-x="1479" 
d="M383 568l-0.000976562 -568h-225v1409h676c162 0 287 -35.667 375 -107s132 -172 132 -302c0 -102.667 -29.667 -189.667 -89 -261s-140.666 -117 -243.999 -137l394 -602h-258l-353 568h-408zM1114 995c0 77.333 -25.832 136 -77.499 176s-126.834 60 -225.501 60h-428
v-486h436c94.667 0 167.5 22 218.5 66s76.5 105.333 76.5 184zM1036 1781l-233 -251h-212l-242 251v24h123l225 -143h2l214 143h123v-24z" />
    <glyph glyph-name="rcaron" unicode="&#x159;" horiz-adv-x="720" 
d="M356 553l-0.000976562 -552.998h-214v829c0 45.333 -0.5 88.666 -1.5 129.999s-2.5 82.333 -4.5 123h202l4 -69c1.33301 -23.333 2.33301 -45.333 3 -66s1.33398 -38.834 2.00098 -54.501s1 -27.167 1 -34.5h4c22 68 44.667 119.667 68 155
c22.667 32.667 49 55.667 79 69s67 20 111 20c28 0 53.667 -3.66699 77 -11v-189c-30 8 -64.667 12 -104 12c-72.667 0 -128.667 -30.833 -168 -92.5s-59 -151.167 -59 -268.5zM742.999 1481l-233 -286h-212l-242 286v23h123l225 -177h2l214 177h123v-23z" />
    <glyph glyph-name="Sacute" unicode="&#x15a;" horiz-adv-x="1366" 
d="M1277 395c0 -132.667 -50.9951 -235.002 -152.995 -307.002s-247.667 -108 -437 -108c-347.333 0 -549 122.667 -605 368l218 40c20.667 -81.333 63.5 -140.833 128.5 -178.5s153.833 -56.5 266.5 -56.5c116.667 0 205.834 19.333 267.501 58s92.5 95.667 92.5 171
c0 44 -10.833 80 -32.5 108s-52.5 51 -92.5 69c-32.667 15.333 -73.334 29 -122.001 41s-104.667 25 -168 39c-72.667 16.667 -132.334 32.167 -179.001 46.5s-84.667 29.333 -114 45s-55.333 32.167 -78 49.5c-38.667 30.667 -68.5 67.834 -89.5 111.501
s-31.5 95.5 -31.5 155.5c0 123.333 46.667 218 140 284s227.666 99 402.999 99c165.333 0 290.833 -25.5 376.5 -76.5s143.834 -136.833 174.501 -257.5l-220 -35c-18.667 70 -54.834 121.333 -108.501 154s-128.834 49 -225.501 49c-104.667 0 -184.334 -17 -239.001 -51
s-82 -85 -82 -153c0 -41.333 10.833 -75.333 32.5 -102s53.167 -49.334 94.5 -68.001c39.333 -18 122.333 -41 249 -69c58 -13.333 112.667 -26.666 164 -39.999s97.666 -29 138.999 -47c28 -11.333 54.167 -24.833 78.5 -40.5s45.5 -33.167 63.5 -52.5
c28 -30 49.833 -65.167 65.5 -105.5s23.5 -87.166 23.5 -140.499zM999.005 1755l-320 -225h-133v24l229 235h224v-34z" />
    <glyph glyph-name="sacute" unicode="&#x15b;" horiz-adv-x="1062" 
d="M985 305c0 -103.333 -39.9971 -183.334 -119.997 -240.001s-191.333 -85 -334 -85c-139.333 0 -246.5 22.667 -321.5 68s-124.167 115.666 -147.5 210.999l188 33c15.333 -55.333 44.666 -95.666 87.999 -120.999s107.666 -38 192.999 -38c87.333 0 151 12.667 191 38
s60 64 60 116c0 40 -14.5 72.167 -43.5 96.5s-76.833 44.833 -143.5 61.5l-170.5 44c-44.333 12 -79.666 22.833 -105.999 32.5s-47.5 18.834 -63.5 27.501c-48 26 -85 58.333 -111 97s-39 86.334 -39 143.001c0 100 36.667 176.833 110 230.5s179.333 80.5 318 80.5
c122.667 0 220.5 -22.333 293.5 -67s118.833 -113.667 137.5 -207l-191 -22c-9.33301 46.667 -33.833 82.167 -73.5 106.5s-95.167 36.5 -166.5 36.5c-76.667 0 -133.334 -11 -170.001 -33s-55 -56.333 -55 -103c0 -34.667 11.5 -63 34.5 -85s65.5 -40 127.5 -54
c83.333 -19.333 161.166 -40 233.499 -62s125.833 -45 160.5 -69c38.667 -26.667 68.5 -58.834 89.5 -96.501s31.5 -84.167 31.5 -139.5zM843.003 1472l-334 -277h-119v24l229 287h224v-34z" />
    <glyph glyph-name="Scircumflex" unicode="&#x15c;" horiz-adv-x="1366" 
d="M1277 395c0 -132.667 -50.9951 -235.002 -152.995 -307.002s-247.667 -108 -437 -108c-347.333 0 -549 122.667 -605 368l218 40c20.667 -81.333 63.5 -140.833 128.5 -178.5s153.833 -56.5 266.5 -56.5c116.667 0 205.834 19.333 267.501 58s92.5 95.667 92.5 171
c0 44 -10.833 80 -32.5 108s-52.5 51 -92.5 69c-32.667 15.333 -73.334 29 -122.001 41s-104.667 25 -168 39c-72.667 16.667 -132.334 32.167 -179.001 46.5s-84.667 29.333 -114 45s-55.333 32.167 -78 49.5c-38.667 30.667 -68.5 67.834 -89.5 111.501
s-31.5 95.5 -31.5 155.5c0 123.333 46.667 218 140 284s227.666 99 402.999 99c165.333 0 290.833 -25.5 376.5 -76.5s143.834 -136.833 174.501 -257.5l-220 -35c-18.667 70 -54.834 121.333 -108.501 154s-128.834 49 -225.501 49c-104.667 0 -184.334 -17 -239.001 -51
s-82 -85 -82 -153c0 -41.333 10.833 -75.333 32.5 -102s53.167 -49.334 94.5 -68.001c39.333 -18 122.333 -41 249 -69c58 -13.333 112.667 -26.666 164 -39.999s97.666 -29 138.999 -47c28 -11.333 54.167 -24.833 78.5 -40.5s45.5 -33.167 63.5 -52.5
c28 -30 49.833 -65.167 65.5 -105.5s23.5 -87.166 23.5 -140.499zM361.005 1530v23l242 252h212l233 -252v-23h-123l-214 143h-2l-225 -143h-123z" />
    <glyph glyph-name="scircumflex" unicode="&#x15d;" horiz-adv-x="1062" 
d="M985 305c0 -103.333 -39.9971 -183.334 -119.997 -240.001s-191.333 -85 -334 -85c-139.333 0 -246.5 22.667 -321.5 68s-124.167 115.666 -147.5 210.999l188 33c15.333 -55.333 44.666 -95.666 87.999 -120.999s107.666 -38 192.999 -38c87.333 0 151 12.667 191 38
s60 64 60 116c0 40 -14.5 72.167 -43.5 96.5s-76.833 44.833 -143.5 61.5l-170.5 44c-44.333 12 -79.666 22.833 -105.999 32.5s-47.5 18.834 -63.5 27.501c-48 26 -85 58.333 -111 97s-39 86.334 -39 143.001c0 100 36.667 176.833 110 230.5s179.333 80.5 318 80.5
c122.667 0 220.5 -22.333 293.5 -67s118.833 -113.667 137.5 -207l-191 -22c-9.33301 46.667 -33.833 82.167 -73.5 106.5s-95.167 36.5 -166.5 36.5c-76.667 0 -133.334 -11 -170.001 -33s-55 -56.333 -55 -103c0 -34.667 11.5 -63 34.5 -85s65.5 -40 127.5 -54
c83.333 -19.333 161.166 -40 233.499 -62s125.833 -45 160.5 -69c38.667 -26.667 68.5 -58.834 89.5 -96.501s31.5 -84.167 31.5 -139.5zM182.003 1195v23l242 286h212l233 -286v-23h-123l-214 177h-3l-225 -177h-122z" />
    <glyph glyph-name="Scedilla" unicode="&#x15e;" horiz-adv-x="1366" 
d="M1277 395c0 -132.667 -50.9951 -235.002 -152.995 -307.002s-247.667 -108 -437 -108c-347.333 0 -549 122.667 -605 368l218 40c20.667 -81.333 63.5 -140.833 128.5 -178.5s153.833 -56.5 266.5 -56.5c116.667 0 205.834 19.333 267.501 58s92.5 95.667 92.5 171
c0 44 -10.833 80 -32.5 108s-52.5 51 -92.5 69c-32.667 15.333 -73.334 29 -122.001 41s-104.667 25 -168 39c-72.667 16.667 -132.334 32.167 -179.001 46.5s-84.667 29.333 -114 45s-55.333 32.167 -78 49.5c-38.667 30.667 -68.5 67.834 -89.5 111.501
s-31.5 95.5 -31.5 155.5c0 123.333 46.667 218 140 284s227.666 99 402.999 99c165.333 0 290.833 -25.5 376.5 -76.5s143.834 -136.833 174.501 -257.5l-220 -35c-18.667 70 -54.834 121.333 -108.501 154s-128.834 49 -225.501 49c-104.667 0 -184.334 -17 -239.001 -51
s-82 -85 -82 -153c0 -41.333 10.833 -75.333 32.5 -102s53.167 -49.334 94.5 -68.001c39.333 -18 122.333 -41 249 -69c58 -13.333 112.667 -26.666 164 -39.999s97.666 -29 138.999 -47c28 -11.333 54.167 -24.833 78.5 -40.5s45.5 -33.167 63.5 -52.5
c28 -30 49.833 -65.167 65.5 -105.5s23.5 -87.166 23.5 -140.499zM911.005 -247.002c0 -61.333 -24 -107.333 -72 -138s-118.667 -46 -212 -46c-37.333 0 -68.666 1.66699 -93.999 5v104c29.333 -4 58 -6 86 -6c95.333 0 143 25.667 143 77
c0 24.667 -10.333 43.167 -31 55.5s-53.334 18.5 -98.001 18.5c-14 0 -25.5 -0.166992 -34.5 -0.5s-15.833 -0.833008 -20.5 -1.5l64 179h119l-37 -94c62.667 -2.66699 109.5 -17.5 140.5 -44.5s46.5 -63.167 46.5 -108.5z" />
    <glyph glyph-name="scedilla" unicode="&#x15f;" horiz-adv-x="1062" 
d="M985 305c0 -103.333 -39.9971 -183.334 -119.997 -240.001s-191.333 -85 -334 -85c-139.333 0 -246.5 22.667 -321.5 68s-124.167 115.666 -147.5 210.999l188 33c15.333 -55.333 44.666 -95.666 87.999 -120.999s107.666 -38 192.999 -38c87.333 0 151 12.667 191 38
s60 64 60 116c0 40 -14.5 72.167 -43.5 96.5s-76.833 44.833 -143.5 61.5l-170.5 44c-44.333 12 -79.666 22.833 -105.999 32.5s-47.5 18.834 -63.5 27.501c-48 26 -85 58.333 -111 97s-39 86.334 -39 143.001c0 100 36.667 176.833 110 230.5s179.333 80.5 318 80.5
c122.667 0 220.5 -22.333 293.5 -67s118.833 -113.667 137.5 -207l-191 -22c-9.33301 46.667 -33.833 82.167 -73.5 106.5s-95.167 36.5 -166.5 36.5c-76.667 0 -133.334 -11 -170.001 -33s-55 -56.333 -55 -103c0 -34.667 11.5 -63 34.5 -85s65.5 -40 127.5 -54
c83.333 -19.333 161.166 -40 233.499 -62s125.833 -45 160.5 -69c38.667 -26.667 68.5 -58.834 89.5 -96.501s31.5 -84.167 31.5 -139.5zM730.003 -247.001c0 -61.333 -24 -107.333 -72 -138s-118.667 -46 -212 -46c-37.333 0 -68.666 1.66699 -93.999 5v104
c29.333 -4 58 -6 86 -6c95.333 0 143 25.667 143 77c0 24.667 -10.333 43.167 -31 55.5s-53.334 18.5 -98.001 18.5c-14 0 -25.5 -0.166992 -34.5 -0.5s-15.833 -0.833008 -20.5 -1.5l64 179h119l-37 -94c62.667 -2.66699 109.5 -17.5 140.5 -44.5s46.5 -63.167 46.5 -108.5
z" />
    <glyph glyph-name="Scaron" unicode="&#x160;" horiz-adv-x="1366" 
d="M1277 395c0 -132.667 -50.9951 -235.002 -152.995 -307.002s-247.667 -108 -437 -108c-347.333 0 -549 122.667 -605 368l218 40c20.667 -81.333 63.5 -140.833 128.5 -178.5s153.833 -56.5 266.5 -56.5c116.667 0 205.834 19.333 267.501 58s92.5 95.667 92.5 171
c0 44 -10.833 80 -32.5 108s-52.5 51 -92.5 69c-32.667 15.333 -73.334 29 -122.001 41s-104.667 25 -168 39c-72.667 16.667 -132.334 32.167 -179.001 46.5s-84.667 29.333 -114 45s-55.333 32.167 -78 49.5c-38.667 30.667 -68.5 67.834 -89.5 111.501
s-31.5 95.5 -31.5 155.5c0 123.333 46.667 218 140 284s227.666 99 402.999 99c165.333 0 290.833 -25.5 376.5 -76.5s143.834 -136.833 174.501 -257.5l-220 -35c-18.667 70 -54.834 121.333 -108.501 154s-128.834 49 -225.501 49c-104.667 0 -184.334 -17 -239.001 -51
s-82 -85 -82 -153c0 -41.333 10.833 -75.333 32.5 -102s53.167 -49.334 94.5 -68.001c39.333 -18 122.333 -41 249 -69c58 -13.333 112.667 -26.666 164 -39.999s97.666 -29 138.999 -47c28 -11.333 54.167 -24.833 78.5 -40.5s45.5 -33.167 63.5 -52.5
c28 -30 49.833 -65.167 65.5 -105.5s23.5 -87.166 23.5 -140.499zM1041 1781l-233 -251h-212l-242 251v24h123l225 -143h2l214 143h123v-24z" />
    <glyph glyph-name="scaron" unicode="&#x161;" horiz-adv-x="1062" 
d="M985 305c0 -103.333 -39.9971 -183.334 -119.997 -240.001s-191.333 -85 -334 -85c-139.333 0 -246.5 22.667 -321.5 68s-124.167 115.666 -147.5 210.999l188 33c15.333 -55.333 44.666 -95.666 87.999 -120.999s107.666 -38 192.999 -38c87.333 0 151 12.667 191 38
s60 64 60 116c0 40 -14.5 72.167 -43.5 96.5s-76.833 44.833 -143.5 61.5l-170.5 44c-44.333 12 -79.666 22.833 -105.999 32.5s-47.5 18.834 -63.5 27.501c-48 26 -85 58.333 -111 97s-39 86.334 -39 143.001c0 100 36.667 176.833 110 230.5s179.333 80.5 318 80.5
c122.667 0 220.5 -22.333 293.5 -67s118.833 -113.667 137.5 -207l-191 -22c-9.33301 46.667 -33.833 82.167 -73.5 106.5s-95.167 36.5 -166.5 36.5c-76.667 0 -133.334 -11 -170.001 -33s-55 -56.333 -55 -103c0 -34.667 11.5 -63 34.5 -85s65.5 -40 127.5 -54
c83.333 -19.333 161.166 -40 233.499 -62s125.833 -45 160.5 -69c38.667 -26.667 68.5 -58.834 89.5 -96.501s31.5 -84.167 31.5 -139.5zM871.003 1481l-233 -286h-212l-242 286v23h123l225 -177h2l214 177h123v-23z" />
    <glyph glyph-name="Tcommaaccent" unicode="&#x162;" horiz-adv-x="1251" 
d="M738 1229v-1229h-225v1229h-475v180h1174v-180h-474zM839 -247c0 -61.333 -24 -107.333 -72 -138s-118.667 -46 -212 -46c-37.333 0 -68.666 1.66699 -93.999 5v104c29.333 -4 58 -6 86 -6c95.333 0 143 25.667 143 77c0 24.667 -10.333 43.167 -31 55.5
s-53.334 18.5 -98.001 18.5c-14 0 -25.5 -0.166992 -34.5 -0.5s-15.833 -0.833008 -20.5 -1.5l64 179h119l-37 -94c62.667 -2.66699 109.5 -17.5 140.5 -44.5s46.5 -63.167 46.5 -108.5z" />
    <glyph glyph-name="tcommaaccent" unicode="&#x163;" horiz-adv-x="607" 
d="M588 11c-61.333 -18.667 -127.999 -28 -199.999 -28c-75.333 0 -132.5 21.167 -171.5 63.5s-58.5 105.833 -58.5 190.5v694h-129v151h138l65 246h139v-246h201v-151h-201v-642c0 -52.667 9 -90.167 27 -112.5s48 -33.5 90 -33.5c21.333 0 54.666 4.66699 99.999 14v-146z
M588.001 -247c0 -61.333 -24 -107.333 -72 -138s-118.667 -46 -212 -46c-37.333 0 -68.666 1.66699 -93.999 5v104c29.333 -4 58 -6 86 -6c95.333 0 143 25.667 143 77c0 24.667 -10.333 43.167 -31 55.5s-53.334 18.5 -98.001 18.5c-14 0 -25.5 -0.166992 -34.5 -0.5
s-15.833 -0.833008 -20.5 -1.5l64 179h119l-37 -94c62.667 -2.66699 109.5 -17.5 140.5 -44.5s46.5 -63.167 46.5 -108.5z" />
    <glyph glyph-name="Tcaron" unicode="&#x164;" horiz-adv-x="1251" 
d="M738 1229v-1229h-225v1229h-475v180h1174v-180h-474zM967 1781l-233 -251h-212l-242 251v24h123l225 -143h2l214 143h123v-24z" />
    <glyph glyph-name="tcaron" unicode="&#x165;" horiz-adv-x="839" 
d="M588 11c-61.333 -18.667 -127.999 -28 -199.999 -28c-75.333 0 -132.5 21.167 -171.5 63.5s-58.5 105.833 -58.5 190.5v694h-129v151h138l65 246h139v-246h201v-151h-201v-642c0 -52.667 9 -90.167 27 -112.5s48 -33.5 90 -33.5c21.333 0 54.666 4.66699 99.999 14v-146z
M850.001 1365c0 -55.333 -7.33203 -102.5 -21.999 -141.5s-36.334 -75.5 -65.001 -109.5h-124c62.667 66.667 94 130 94 190h-95v180h212v-119z" />
    <glyph glyph-name="Tbar" unicode="&#x166;" horiz-adv-x="1251" 
d="M738 640v-640h-225v640h-262v166h262v423h-475v180h1174v-180h-474v-423h263v-166h-263z" />
    <glyph glyph-name="tbar" unicode="&#x167;" horiz-adv-x="607" 
d="M388 -17c-75.333 0 -132.499 21.167 -171.499 63.5s-58.5 105.833 -58.5 190.5v265h-126v150h126v279h-129v151h138l65 246h139v-246h201v-151h-201v-279h195v-150h-195v-213c0 -52.667 9 -90.167 27 -112.5s48 -33.5 90 -33.5c21.333 0 54.666 4.66699 99.999 14v-146
c-61.333 -18.667 -128 -28 -200 -28z" />
    <glyph glyph-name="Utilde" unicode="&#x168;" horiz-adv-x="1479" 
d="M728 -20c-120 0 -223.5 21.333 -310.5 64s-154 104 -201 184s-70.5 176.333 -70.5 289v892h226v-873c0 -123.333 30.667 -216.833 92 -280.5s150 -95.5 266 -95.5c120 0 212.833 33.167 278.5 99.5s98.5 162.5 98.5 288.5v861h225v-875
c0 -115.333 -24.333 -214.333 -73 -297s-118.167 -146.167 -208.5 -190.5s-197.833 -66.5 -322.5 -66.5zM899 1530c-26 0 -52.667 6.00098 -80 18.001s-54.333 25.333 -81 40l-79 42.5c-25.333 13 -49 19.5 -71 19.5c-33.333 0 -58.5 -9.33301 -75.5 -28
s-28.833 -49.334 -35.5 -92.001h-107c10 106 33.333 178.5 70 217.5s83.667 58.5 141 58.5c28 0 56.5 -6.5 85.5 -19.5s57.167 -27.5 84.5 -43.5l74.5 -39c23.667 -12 45.5 -18 65.5 -18c31.333 0 56 9.33301 74 28s30.333 49.334 37 92.001h106
c-8.66699 -100.667 -30.5 -171.834 -65.5 -213.501s-82.833 -62.5 -143.5 -62.5z" />
    <glyph glyph-name="utilde" unicode="&#x169;" horiz-adv-x="1176" 
d="M825 195c-40 -77.333 -87.665 -132.503 -142.998 -165.503s-123.333 -49.5 -204 -49.5c-117.333 0 -204.5 31.333 -261.5 94s-85.5 162 -85.5 298v710h214v-660c0 -103.333 16.667 -175.666 50 -216.999s87.666 -62 162.999 -62c80.667 0 144.5 29.5 191.5 88.5
s70.5 138.833 70.5 239.5v611h214v-847c0 -57.333 0.5 -105.666 1.5 -144.999s2.83301 -69.333 5.5 -90h-203c-2 18 -3.83301 42.333 -5.5 73s-2.83398 71.334 -3.50098 122.001h-4zM754.002 1195c-26.667 0 -53.499 6.00195 -80.499 18.002s-53.833 25.333 -80.5 40
c-27.333 16 -53.833 30.333 -79.5 43s-49.167 19 -70.5 19c-34 0 -59.333 -9.33301 -76 -28s-28.667 -49.334 -36 -92.001h-106c10 106 33 178.5 69 217.5s83 58.5 141 58.5c30 0 59.833 -6.83301 89.5 -20.5s58.5 -28.834 86.5 -45.501c25.333 -14 49.333 -26.5 72 -37.5
s43.667 -16.5 63 -16.5c30.667 0 55.167 9.33301 73.5 28s30.833 49.334 37.5 92.001h106c-9.33301 -100.667 -31.333 -171.834 -66 -213.501s-82.334 -62.5 -143.001 -62.5z" />
    <glyph glyph-name="Umacron" unicode="&#x16a;" horiz-adv-x="1479" 
d="M728 -20c-120 0 -223.5 21.333 -310.5 64s-154 104 -201 184s-70.5 176.333 -70.5 289v892h226v-873c0 -123.333 30.667 -216.833 92 -280.5s150 -95.5 266 -95.5c120 0 212.833 33.167 278.5 99.5s98.5 162.5 98.5 288.5v861h225v-875
c0 -115.333 -24.333 -214.333 -73 -297s-118.167 -146.167 -208.5 -190.5s-197.833 -66.5 -322.5 -66.5zM455 1695h570v-141h-570v141z" />
    <glyph glyph-name="umacron" unicode="&#x16b;" horiz-adv-x="1176" 
d="M825 195c-40 -77.333 -87.665 -132.503 -142.998 -165.503s-123.333 -49.5 -204 -49.5c-117.333 0 -204.5 31.333 -261.5 94s-85.5 162 -85.5 298v710h214v-660c0 -103.333 16.667 -175.666 50 -216.999s87.666 -62 162.999 -62c80.667 0 144.5 29.5 191.5 88.5
s70.5 138.833 70.5 239.5v611h214v-847c0 -57.333 0.5 -105.666 1.5 -144.999s2.83301 -69.333 5.5 -90h-203c-2 18 -3.83301 42.333 -5.5 73s-2.83398 71.334 -3.50098 122.001h-4zM298.002 1366h570v-141h-570v141z" />
    <glyph glyph-name="Ubreve" unicode="&#x16c;" horiz-adv-x="1479" 
d="M728 -20c-120 0 -223.5 21.333 -310.5 64s-154 104 -201 184s-70.5 176.333 -70.5 289v892h226v-873c0 -123.333 30.667 -216.833 92 -280.5s150 -95.5 266 -95.5c120 0 212.833 33.167 278.5 99.5s98.5 162.5 98.5 288.5v861h225v-875
c0 -115.333 -24.333 -214.333 -73 -297s-118.167 -146.167 -208.5 -190.5s-197.833 -66.5 -322.5 -66.5zM738 1527c-91.333 0 -168.002 24.333 -230.002 73s-98.333 111.667 -109 189h133c10.667 -37.333 34 -66.833 70 -88.5s82 -32.5 138 -32.5
c56.667 0 102.667 10.833 138 32.5s58.333 51.167 69 88.5h132c-13.333 -80.667 -50.666 -144.5 -111.999 -191.5s-137.666 -70.5 -228.999 -70.5z" />
    <glyph glyph-name="ubreve" unicode="&#x16d;" horiz-adv-x="1176" 
d="M825 195c-40 -77.333 -87.665 -132.503 -142.998 -165.503s-123.333 -49.5 -204 -49.5c-117.333 0 -204.5 31.333 -261.5 94s-85.5 162 -85.5 298v710h214v-660c0 -103.333 16.667 -175.666 50 -216.999s87.666 -62 162.999 -62c80.667 0 144.5 29.5 191.5 88.5
s70.5 138.833 70.5 239.5v611h214v-847c0 -57.333 0.5 -105.666 1.5 -144.999s2.83301 -69.333 5.5 -90h-203c-2 18 -3.83301 42.333 -5.5 73s-2.83398 71.334 -3.50098 122.001h-4zM584.002 1195c-92.667 0 -169.835 29 -231.502 87s-97.5 133.667 -107.5 227h132
c10 -51.333 32.833 -90.5 68.5 -117.5s82.167 -40.5 139.5 -40.5s103.833 13.5 139.5 40.5s58.167 66.167 67.5 117.5h133c-13.333 -96 -50.166 -172.333 -110.499 -229s-137.166 -85 -230.499 -85z" />
    <glyph glyph-name="Uring" unicode="&#x16e;" horiz-adv-x="1479" 
d="M728 -20c-120 0 -223.5 21.333 -310.5 64s-154 104 -201 184s-70.5 176.333 -70.5 289v892h226v-873c0 -123.333 30.667 -216.833 92 -280.5s150 -95.5 266 -95.5c120 0 212.833 33.167 278.5 99.5s98.5 162.5 98.5 288.5v861h225v-875
c0 -115.333 -24.333 -214.333 -73 -297s-118.167 -146.167 -208.5 -190.5s-197.833 -66.5 -322.5 -66.5zM986 1650c0 -44.667 -10.999 -85.667 -32.999 -123s-51.5 -67.166 -88.5 -89.499s-78.5 -33.5 -124.5 -33.5c-45.333 0 -86.666 11.167 -123.999 33.5
s-67 52.166 -89 89.499s-33 78.333 -33 123c0 46 11.167 87.5 33.5 124.5s52.166 66.5 89.499 88.5s78.333 33 123 33s85.667 -11.167 123 -33.5s67.166 -52 89.499 -89s33.5 -78.167 33.5 -123.5zM872.001 1650c0 36.667 -12.8291 67.667 -38.4961 93
s-56.834 38 -93.501 38s-67.834 -12.667 -93.501 -38s-38.5 -56.333 -38.5 -93s12.667 -68.167 38 -94.5s56.666 -39.5 93.999 -39.5s68.666 13.167 93.999 39.5s38 57.833 38 94.5z" />
    <glyph glyph-name="uring" unicode="&#x16f;" horiz-adv-x="1176" 
d="M825 195c-40 -77.333 -87.665 -132.503 -142.998 -165.503s-123.333 -49.5 -204 -49.5c-117.333 0 -204.5 31.333 -261.5 94s-85.5 162 -85.5 298v710h214v-660c0 -103.333 16.667 -175.666 50 -216.999s87.666 -62 162.999 -62c80.667 0 144.5 29.5 191.5 88.5
s70.5 138.833 70.5 239.5v611h214v-847c0 -57.333 0.5 -105.666 1.5 -144.999s2.83301 -69.333 5.5 -90h-203c-2 18 -3.83301 42.333 -5.5 73s-2.83398 71.334 -3.50098 122.001h-4zM832.002 1403c0 -44.667 -10.999 -85.667 -32.999 -123s-51.5 -67.166 -88.5 -89.499
s-78.5 -33.5 -124.5 -33.5c-45.333 0 -86.666 11.167 -123.999 33.5s-67 52.166 -89 89.499s-33 78.333 -33 123c0 46 11.167 87.5 33.5 124.5s52.166 66.5 89.499 88.5s78.333 33 123 33s85.667 -11.167 123 -33.5s67.166 -52 89.499 -89s33.5 -78.167 33.5 -123.5z
M718.003 1403c0 36.667 -12.8291 67.667 -38.4961 93s-56.834 38 -93.501 38s-67.834 -12.667 -93.501 -38s-38.5 -56.333 -38.5 -93s12.667 -68.167 38 -94.5s56.666 -39.5 93.999 -39.5s68.666 13.167 93.999 39.5s38 57.833 38 94.5z" />
    <glyph glyph-name="Uhungarumlaut" unicode="&#x170;" horiz-adv-x="1479" 
d="M728 -20c-120 0 -223.5 21.333 -310.5 64s-154 104 -201 184s-70.5 176.333 -70.5 289v892h226v-873c0 -123.333 30.667 -216.833 92 -280.5s150 -95.5 266 -95.5c120 0 212.833 33.167 278.5 99.5s98.5 162.5 98.5 288.5v861h225v-875
c0 -115.333 -24.333 -214.333 -73 -297s-118.167 -146.167 -208.5 -190.5s-197.833 -66.5 -322.5 -66.5zM428 1530v25l203 235h216v-34l-312 -226h-107zM795 1530v25l203 235h216v-34l-313 -226h-106z" />
    <glyph glyph-name="uhungarumlaut" unicode="&#x171;" horiz-adv-x="1176" 
d="M825 195c-40 -77.333 -87.665 -132.503 -142.998 -165.503s-123.333 -49.5 -204 -49.5c-117.333 0 -204.5 31.333 -261.5 94s-85.5 162 -85.5 298v710h214v-660c0 -103.333 16.667 -175.666 50 -216.999s87.666 -62 162.999 -62c80.667 0 144.5 29.5 191.5 88.5
s70.5 138.833 70.5 239.5v611h214v-847c0 -57.333 0.5 -105.666 1.5 -144.999s2.83301 -69.333 5.5 -90h-203c-2 18 -3.83301 42.333 -5.5 73s-2.83398 71.334 -3.50098 122.001h-4zM274.002 1195v25l220 280h216v-34l-326 -271h-110zM641.002 1195v25l219 280h217v-34
l-326 -271h-110z" />
    <glyph glyph-name="Uogonek" unicode="&#x172;" horiz-adv-x="1479" 
d="M728 -20c-120 0 -223.5 21.333 -310.5 64s-154 104 -201 184s-70.5 176.333 -70.5 289v892h226v-873c0 -123.333 30.667 -216.833 92 -280.5s150 -95.5 266 -95.5c120 0 212.833 33.167 278.5 99.5s98.5 162.5 98.5 288.5v861h225v-875
c0 -115.333 -24.333 -214.333 -73 -297s-118.167 -146.167 -208.5 -190.5s-197.833 -66.5 -322.5 -66.5zM985 -397c-42 -19.333 -89.668 -29 -143.001 -29c-71.333 0 -125.666 17.333 -162.999 52s-56 81 -56 139c0 48 14.5 94 43.5 138s66.5 78.667 112.5 104h139
c-38 -22.667 -71 -54 -99 -94s-42 -82.333 -42 -127c0 -28 8.16699 -50.167 24.5 -66.5s39.5 -24.5 69.5 -24.5c36 0 74 8.33301 114 25v-117z" />
    <glyph glyph-name="uogonek" unicode="&#x173;" horiz-adv-x="1176" 
d="M825 195c-40 -77.333 -87.665 -132.503 -142.998 -165.503s-123.333 -49.5 -204 -49.5c-117.333 0 -204.5 31.333 -261.5 94s-85.5 162 -85.5 298v710h214v-660c0 -103.333 16.667 -175.666 50 -216.999s87.666 -62 162.999 -62c80.667 0 144.5 29.5 191.5 88.5
s70.5 138.833 70.5 239.5v611h214v-847c0 -57.333 0.5 -105.666 1.5 -144.999s2.83301 -69.333 5.5 -90h-203c-2 18 -3.83301 42.333 -5.5 73s-2.83398 71.334 -3.50098 122.001h-4zM1055 -397.003c-42 -19.333 -89.668 -29 -143.001 -29
c-71.333 0 -125.666 17.333 -162.999 52s-56 81 -56 139c0 48 14.5 94 43.5 138s66.5 78.667 112.5 104h139c-38 -22.667 -71 -54 -99 -94s-42 -82.333 -42 -127c0 -28 8.16699 -50.167 24.5 -66.5s39.5 -24.5 69.5 -24.5c36 0 74 8.33301 114 25v-117z" />
    <glyph glyph-name="Wcircumflex" unicode="&#x174;" horiz-adv-x="1933" 
d="M901 871l-228 -871.002h-269l-397 1409h232l234 -884c13.333 -50 26.166 -102.167 38.499 -156.5s23.833 -108.833 34.5 -163.5l21 95.5l25 112c8.66699 37.667 16.667 70.834 24 99.501l237 897h232l229 -862c14.667 -57.333 28.5 -115.166 41.5 -173.499
s24.5 -114.5 34.5 -168.5l28.5 119.5l28 113c9 35 16.167 64.167 21.5 87.5l227 884h233l-398 -1409h-269l-226 868c-9.33301 34.667 -19.5 77 -30.5 127l-36.5 174c-5.33301 -32.667 -12.666 -69.167 -21.999 -109.5l-26.5 -112zM622 1530v23l242 252h212l233 -252v-23
h-123l-214 143h-2l-225 -143h-123z" />
    <glyph glyph-name="wcircumflex" unicode="&#x175;" horiz-adv-x="1517" 
d="M718 729l-189 -728.999h-238l-295 1082h207l170 -713l19 -84.5c7.33301 -32.333 14.333 -65.833 21 -100.5l20.5 95c7 31.333 14.5 62.666 22.5 93.999l188 709h229l182 -707l21 -88l23 -103l22 99l21 94l176 705h204l-302 -1082h-238l-183 730
c-6 24 -12.167 51.5 -18.5 82.5l-21.5 104.5l-18 -87.5c-7.33301 -35.667 -15 -69.167 -23 -100.5zM413 1195v23l242 286h212l233 -286v-23h-123l-214 177h-3l-225 -177h-122z" />
    <glyph glyph-name="Ycircumflex" unicode="&#x176;" horiz-adv-x="1366" 
d="M795 582v-582h-225v582l-528 827h243l398 -646l399 646h243zM337 1530v23l242 252h212l233 -252v-23h-123l-214 143h-2l-225 -143h-123z" />
    <glyph glyph-name="ycircumflex" unicode="&#x177;" horiz-adv-x="1062" 
d="M222 -425c-55.333 0 -102.67 4.00098 -142.003 12.001v156c29.333 -4 58.666 -6 87.999 -6c59.333 0 110.333 19.667 153 59s81.334 109.666 116.001 210.999l-428 1075h227l208 -568c16 -40.667 33 -88.167 51 -142.5s34 -107.833 48 -160.5l49 150.5l48 146.5l191 574
h225l-420 -1101c-20.667 -53.333 -41.167 -100.333 -61.5 -141s-40.166 -74.667 -59.499 -102c-39.333 -56.667 -82.666 -98 -129.999 -124s-101.666 -39 -162.999 -39zM192.996 1195v23l242 286h212l233 -286v-23h-123l-214 177h-3l-225 -177h-122z" />
    <glyph glyph-name="Ydieresis" unicode="&#x178;" horiz-adv-x="1366" 
d="M795 582v-582h-225v582l-528 827h243l398 -646l399 646h243zM976 1726v-196h-174v196h174zM563 1726v-196h-175v196h175z" />
    <glyph glyph-name="Zacute" unicode="&#x179;" horiz-adv-x="1251" 
d="M1189 181v-181h-1125v165l826 1063h-752v181h1006v-161l-826 -1067h871zM936 1755l-320 -225h-133v24l229 235h224v-34z" />
    <glyph glyph-name="zacute" unicode="&#x17a;" horiz-adv-x="1024" 
d="M931 161v-161h-848v158l573 764h-537v160h782v-158l-573 -763h603zM819 1472l-334 -277h-119v24l229 287h224v-34z" />
    <glyph glyph-name="Zdotaccent" unicode="&#x17b;" horiz-adv-x="1251" 
d="M1189 181v-181h-1125v165l826 1063h-752v181h1006v-161l-826 -1067h871zM736 1769v-184h-213v184h213z" />
    <glyph glyph-name="zdotaccent" unicode="&#x17c;" horiz-adv-x="1024" 
d="M931 161v-161h-848v158l573 764h-537v160h782v-158l-573 -763h603zM616 1484v-184h-213v184h213z" />
    <glyph glyph-name="Zcaron" unicode="&#x17d;" horiz-adv-x="1251" 
d="M1189 181v-181h-1125v165l826 1063h-752v181h1006v-161l-826 -1067h871zM986 1781l-233 -251h-212l-242 251v24h123l225 -143h2l214 143h123v-24z" />
    <glyph glyph-name="zcaron" unicode="&#x17e;" horiz-adv-x="1024" 
d="M931 161v-161h-848v158l573 764h-537v160h782v-158l-573 -763h603zM839 1481l-233 -286h-212l-242 286v23h123l225 -177h2l214 177h123v-23z" />
    <glyph glyph-name="longs" unicode="&#x17f;" horiz-adv-x="493" 
d="M353 1175v-1175h-214v1201c0 98.667 23.167 170.334 69.5 215.001s116.833 67 211.5 67c52 0 100 -4.66699 144 -14v-151c-30 5.33301 -56.667 8 -80 8c-46.667 0 -80.167 -11 -100.5 -33s-30.5 -61.333 -30.5 -118z" />
    <glyph glyph-name="uni0180" unicode="&#x180;" horiz-adv-x="1176" 
d="M1091 539c0 -184.667 -34.001 -324 -102.001 -418s-168.667 -141 -302 -141c-80 0 -147.5 15.5 -202.5 46.5s-98.833 78.833 -131.5 143.5h-2c0 -14 -0.666992 -33.5 -2 -58.5s-2.66602 -48.333 -3.99902 -70s-3 -35.5 -5 -41.5h-207c2 22.667 3.66699 53.167 5 91.5
s2 84.833 2 139.5v965h-129v144h129v144h213v-144h307v-144h-307v-145c0 -24 -0.333008 -49.5 -1 -76.5s-1.66699 -55.167 -3 -84.5h4c32.667 69.333 77 119.833 133 151.5s125 47.5 207 47.5c134.667 0 234.667 -46 300 -138s98 -229.333 98 -412zM866.999 535
c0 140.667 -19.1689 241.832 -57.502 303.499s-100.166 92.5 -185.499 92.5c-94.667 0 -163.667 -33 -207 -99s-65 -168.333 -65 -307c0 -132 21.333 -230.333 64 -295s111.334 -97 206.001 -97c86 0 148.333 31.833 187 95.5s58 165.834 58 306.501z" />
    <glyph glyph-name="uni0181" unicode="&#x181;" horiz-adv-x="1606" 
d="M1498 399c0 -126.667 -46.333 -224.835 -139 -294.502s-221.667 -104.5 -387 -104.5h-617v1239h-28c-49.333 0 -85 -10.667 -107 -32s-33 -53.666 -33 -96.999c0 -34 7.33301 -72.333 22 -115l-174 -17c-14.667 57.333 -22 109.666 -22 156.999
c0 86 29.333 153.167 88 201.5s139 72.5 241 72.5h570c336.667 0 505 -115.333 505 -346c0 -82 -23 -151.167 -69 -207.5s-112.667 -94.166 -200 -113.499c112.667 -13.333 199.167 -50.166 259.5 -110.499s90.5 -137.833 90.5 -232.5zM1190 1034
c0 72 -24.166 123.333 -72.499 154s-118.5 46 -210.5 46h-326v-414h327c95.333 0 166.166 17.667 212.499 53s69.5 89 69.5 161zM1271 415.999c0 154.667 -109.333 232 -328 232h-362v-473h376c108.667 0 188.167 20.167 238.5 60.5s75.5 100.5 75.5 180.5z" />
    <glyph glyph-name="uni0182" unicode="&#x182;" horiz-adv-x="1387" 
d="M1305 419c0 -83.333 -19.834 -156.5 -59.501 -219.5s-96.667 -112 -171 -147s-163.166 -52.5 -266.499 -52.5h-650v1409h987v-180h-762v-407h428c157.333 0 279 -35.167 365 -105.5s129 -169.5 129 -297.5zM1078 416c0 74 -26 131.167 -78 171.5s-129.667 60.5 -233 60.5
h-384v-474h391c103.333 0 179.833 20.833 229.5 62.5s74.5 101.5 74.5 179.5z" />
    <glyph glyph-name="uni0183" unicode="&#x183;" horiz-adv-x="1176" 
d="M1091 539c0 -183.333 -34.334 -322.333 -103.001 -417s-169 -142 -301 -142c-80 0 -147.5 15.5 -202.5 46.5s-98.833 78.833 -131.5 143.5h-2c0 -14 -0.666992 -33.5 -2 -58.5s-2.66602 -48.333 -3.99902 -70s-3 -35.5 -5 -41.5h-207c2 22.667 3.66699 53.167 5 91.5
s2 84.833 2 139.5v1253h743v-177h-530v-256c0 -24 -0.333008 -49.5 -1 -76.5s-1.66699 -55.167 -3 -84.5h4c32.667 69.333 77 119.833 133 151.5s125 47.5 207 47.5c133.333 0 233 -46.333 299 -139s99 -229.667 99 -411zM866.999 535
c0 138.667 -19.499 239.334 -58.499 302.001s-100.5 94 -184.5 94c-92.667 0 -161.167 -33.167 -205.5 -99.5s-66.5 -168.5 -66.5 -306.5c0 -131.333 21.667 -229.5 65 -294.5s111.666 -97.5 204.999 -97.5c85.333 0 147.5 32.167 186.5 96.5s58.5 166.166 58.5 305.499z
" />
    <glyph glyph-name="uni0184" unicode="&#x184;" horiz-adv-x="1387" 
d="M1305 422c0 -83.333 -19.668 -156.667 -59.001 -220c-39.333 -64 -96.666 -113.667 -171.999 -149s-164 -53 -266 -53h-650v1008l-151 158v34l314 209h62v-580h428c158 0 279.833 -35.833 365.5 -107.5s128.5 -171.5 128.5 -299.5zM1078 418.999
c0 74 -26 131.833 -78 173.5s-129.667 62.5 -233 62.5h-384v-481h391c103.333 0 179.833 21.333 229.5 64s74.5 103 74.5 181z" />
    <glyph glyph-name="uni0185" unicode="&#x185;" horiz-adv-x="1176" 
d="M1091 546c0 -185.333 -34.001 -326 -102.001 -422s-168.667 -144 -302 -144c-80 0 -147.5 15.5 -202.5 46.5s-98.833 78.833 -131.5 143.5h-2c0 -14 -0.666992 -33.5 -2 -58.5s-2.66602 -48.333 -3.99902 -70s-3 -35.5 -5 -41.5h-207c2 22.667 3.66699 53.167 5 91.5
s2 84.833 2 139.5v859l-133 167v34l287 193h59v-420c0 -24 -0.333008 -49.5 -1 -76.5s-1.66699 -55.167 -3 -84.5h4c32.667 69.333 77 119.833 133 151.5s125 47.5 207 47.5c134 0 233.833 -46.833 299.5 -140.5s98.5 -232.167 98.5 -415.5zM866.999 542
c0 141.333 -19.3311 243.667 -57.998 307s-100.334 95 -185.001 95c-93.333 0 -162 -33.667 -206 -101s-66 -171.333 -66 -312c0 -132.667 21.667 -232.167 65 -298.5s111.666 -99.5 204.999 -99.5c85.333 0 147.5 32.667 186.5 98s58.5 169 58.5 311z" />
    <glyph glyph-name="uni0186" unicode="&#x186;" horiz-adv-x="1479" 
d="M695 161c148 0 262.167 47 342.5 141s120.5 226.333 120.5 397c0 113.333 -18.833 211 -56.5 293s-91.5 145.167 -161.5 189.5s-154.333 66.5 -253 66.5c-188 0 -327.333 -95 -418 -285l-190 85c58 126 139.333 221.167 244 285.5s228 96.5 370 96.5
c146 0 270.667 -29.333 374 -88s182.333 -142.5 237 -251.5s82 -239.5 82 -391.5s-27 -281.5 -81 -388.5s-132.167 -188.833 -234.5 -245.5s-226.5 -85 -372.5 -85c-155.333 0 -283.5 30.333 -384.5 91s-174.167 151.334 -219.5 272.001l207 64
c27.333 -76.667 75.833 -136.834 145.5 -180.501s152.5 -65.5 248.5 -65.5z" />
    <glyph glyph-name="uni0187" unicode="&#x187;" horiz-adv-x="1479" 
d="M1186 1003c-28.667 78 -77.8311 138.499 -147.498 181.499s-152.167 64.5 -247.5 64.5c-148.667 0 -263.334 -47.333 -344.001 -142s-121 -226.667 -121 -396c0 -112.667 18.833 -210 56.5 -292s91.834 -145.333 162.501 -190s155 -67 253 -67
c94 0 176.167 23.333 246.5 70s128.5 118.334 174.5 215.001l189 -85c-56.667 -125.333 -137.834 -220.333 -243.501 -285s-229.834 -97 -372.501 -97c-145.333 0 -269.833 29.333 -373.5 88s-183.167 142.834 -238.5 252.501s-83 239.834 -83 390.501
c0 151.333 27.167 280.666 81.5 387.999s133 189.333 236 246s227.167 85 372.5 85c170 0 307.667 -37.667 413 -113v35c0 93.333 24.333 165.666 73 216.999s116.667 77 204 77c40 0 83.667 -5 131 -15v-173c-37.333 10.667 -66.666 16 -87.999 16
c-44.667 0 -76.834 -11.667 -96.501 -35s-29.5 -60.333 -29.5 -111v-261z" />
    <glyph glyph-name="uni0188" unicode="&#x188;" horiz-adv-x="1062" 
d="M782 752c-8.66699 58.667 -31.001 105.333 -67.001 140s-87.333 52 -154 52c-87.333 0 -151.333 -31.167 -192 -93.5s-61 -163.833 -61 -304.5c0 -137.333 21.333 -239.5 64 -306.5s106.667 -100.5 192 -100.5c60.667 0 111.334 17.167 152.001 51.5
s65.667 86.5 75 156.5l215 -12c-9.33301 -71.333 -33.5 -133.5 -72.5 -186.5s-89.667 -94.333 -152 -124s-133.833 -44.5 -214.5 -44.5c-156 0 -275.333 48.167 -358 144.5s-124 234.833 -124 415.5s41.667 319.5 125 416.5s202.333 145.5 357 145.5
c92 0 172.667 -20.333 242 -61c5.33301 83.333 31.333 147 78 191s112 66 196 66c37.333 0 76.333 -4.66699 117 -14v-167c-28.667 10 -56 15 -82 15c-42.667 0 -73 -11.667 -91 -35s-27 -60.333 -27 -111v-220z" />
    <glyph glyph-name="uni0189" unicode="&#x189;" horiz-adv-x="1479" 
d="M1385 718c0 -150 -29.001 -278.5 -87.001 -385.5s-138.5 -189.167 -241.5 -246.5s-222.167 -86 -357.5 -86h-541v629h-146v176h146v604h480c238.667 0 422.834 -59.833 552.501 -179.5s194.5 -290.167 194.5 -511.5zM1158 718c0 166 -44.833 292.831 -134.5 380.498
s-219.5 131.5 -389.5 131.5h-251v-425h390v-176h-390v-450h293c99.333 0 185 21.833 257 65.5s127.5 105.834 166.5 186.501s58.5 176.334 58.5 287.001z" />
    <glyph glyph-name="uni018A" unicode="&#x18a;" horiz-adv-x="1677" 
d="M1583 718c0 -146 -28.334 -273 -85.001 -381c-56.667 -108.667 -137.167 -192 -241.5 -250s-224.166 -87 -359.499 -87h-542v1239h-28c-49.333 0 -85 -10.667 -107 -32s-33 -53.666 -33 -96.999c0 -34 7.33301 -72.333 22 -115l-174 -17
c-14.667 57.333 -22 109.666 -22 156.999c0 86 29.333 153.167 88 201.5s139 72.5 241 72.5h494c238 0 422 -60 552 -180s195 -290.333 195 -511zM1356 718c0 166.667 -45 293.832 -135 381.499s-220 131.5 -390 131.5h-250v-1053h293c96.667 0 181.167 22 253.5 66
s128.5 106.333 168.5 187s60 176.334 60 287.001z" />
    <glyph glyph-name="uni018B" unicode="&#x18b;" horiz-adv-x="1387" 
d="M83 419c0 128 43.168 227.167 129.501 297.5s208.166 105.5 365.499 105.5h427v407h-762v180h988v-1409h-651c-153.333 0 -274.5 38 -363.5 114s-133.5 177.667 -133.5 305zM311.001 416c0 -78 24.832 -137.833 74.499 -179.5s125.834 -62.5 228.501 -62.5h391v474h-383
c-104 0 -181.833 -20.167 -233.5 -60.5s-77.5 -97.5 -77.5 -171.5z" />
    <glyph glyph-name="uni018C" unicode="&#x18c;" horiz-adv-x="1176" 
d="M83 539c0 181.333 33.002 318.333 99.002 411s165.333 139 298 139c82 0 151 -15.833 207 -47.5s100.333 -82.167 133 -151.5h4c-0.666992 29.333 -1.5 57.5 -2.5 84.5s-1.5 52.5 -1.5 76.5v256h-529v177h743v-1253c0 -54.667 0.5 -101.167 1.5 -139.5
s2.83301 -68.833 5.5 -91.5h-207c-1.33301 5.33301 -3 18.833 -5 40.5s-3.66699 45.167 -5 70.5s-2 45 -2 59h-2c-32.667 -65.333 -76.334 -113.333 -131.001 -144s-122.334 -46 -203.001 -46c-131.333 0 -231.333 47.333 -300 142s-103 233.667 -103 417zM306.002 535
c0 -139.333 19.668 -241.166 59.001 -305.499s101.666 -96.5 186.999 -96.5c92 0 160 32.5 204 97.5s66 163.167 66 294.5c0 136.667 -22.167 238.5 -66.5 305.5s-112.833 100.5 -205.5 100.5c-84.667 0 -146.5 -31.333 -185.5 -94s-58.5 -163.334 -58.5 -302.001z" />
    <glyph glyph-name="uni018D" unicode="&#x18d;" horiz-adv-x="1174" 
d="M1092 555c0 -166 -36.999 -295.5 -110.999 -388.5s-183.333 -146.5 -328 -160.5l353 -283v-148h-825v165h525l-423 333c-68 54 -118.167 119.833 -150.5 197.5s-48.5 172.5 -48.5 284.5c0 120 19.333 220.5 58 301.5s95.667 142.167 171 183.5s167.666 62 276.999 62
c170 0 296.167 -44.833 378.5 -134.5s123.5 -227.167 123.5 -412.5zM868.001 555c0 138 -21.168 238.167 -63.501 300.5s-112.833 93.5 -211.5 93.5c-100 0 -172.5 -31.667 -217.5 -95s-67.5 -163 -67.5 -299c0 -133.333 22.333 -233.333 67 -300s113.334 -100 206.001 -100
c103.333 0 177 33.667 221 101s66 167 66 299z" />
    <glyph glyph-name="uni018E" unicode="&#x18e;" horiz-adv-x="1366" 
d="M1209 1409v-1409h-1123v180h897v451h-796v179h796v419h-856v180h1082z" />
    <glyph glyph-name="uni018F" unicode="&#x18f;" horiz-adv-x="1523" 
d="M1200 823c-15.333 134 -61.3311 238.832 -137.998 314.499s-176.334 113.5 -299.001 113.5c-96 0 -176 -20.5 -240 -61.5s-113.667 -100.167 -149 -177.5l-209 63c49.333 114.667 124.166 202.5 224.499 263.5s225.166 91.5 374.499 91.5c145.333 0 269.333 -32 372 -96
c96 -58 169.333 -140.5 220 -247.5s76 -232.167 76 -375.5c0 -146.667 -27 -275.334 -81 -386.001s-131.667 -195.834 -233 -255.501s-220 -89.5 -356 -89.5c-138 0 -257.667 29.667 -359 89c-101.333 58.667 -178.666 143.334 -231.999 254.001s-80 240 -80 388
c0 16.667 0.5 34.334 1.5 53.001s2.5 38.334 4.5 59.001h1103zM762.002 152.999c136.667 0 243 42.167 319 126.5s117.667 204.166 125 359.499h-893c10 -153.333 54.333 -272.666 133 -357.999s184 -128 316 -128z" />
    <glyph glyph-name="uni018F" unicode="&#x4d8;" horiz-adv-x="1523" 
d="M1200 823c-15.333 134 -61.3311 238.832 -137.998 314.499s-176.334 113.5 -299.001 113.5c-96 0 -176 -20.5 -240 -61.5s-113.667 -100.167 -149 -177.5l-209 63c49.333 114.667 124.166 202.5 224.499 263.5s225.166 91.5 374.499 91.5c145.333 0 269.333 -32 372 -96
c96 -58 169.333 -140.5 220 -247.5s76 -232.167 76 -375.5c0 -146.667 -27 -275.334 -81 -386.001s-131.667 -195.834 -233 -255.501s-220 -89.5 -356 -89.5c-138 0 -257.667 29.667 -359 89c-101.333 58.667 -178.666 143.334 -231.999 254.001s-80 240 -80 388
c0 16.667 0.5 34.334 1.5 53.001s2.5 38.334 4.5 59.001h1103zM762.002 152.999c136.667 0 243 42.167 319 126.5s117.667 204.166 125 359.499h-893c10 -153.333 54.333 -272.666 133 -357.999s184 -128 316 -128z" />
    <glyph glyph-name="uni0190" unicode="&#x190;" horiz-adv-x="1252" 
d="M617 -20c-105.333 0 -197.5 17.498 -276.5 52.498s-140.5 83.667 -184.5 146s-66 134.166 -66 215.499c0 92.667 27.5 168.334 82.5 227.001s134.167 96 237.5 112c-186.667 40 -280 146 -280 318c0 75.333 20.167 141.333 60.5 198s96.666 100.834 168.999 132.501
s156.833 47.5 253.5 47.5c136.667 0 249.667 -29.333 339 -88s157.333 -148.667 204 -270l-208 -61c-30.667 83.333 -73.167 144.666 -127.5 183.999s-121.5 59 -201.5 59c-81.333 0 -146.166 -18.167 -194.499 -54.5s-72.5 -87.166 -72.5 -152.499
c0 -156.667 111.667 -235 335 -235h67v-174h-67c-127.333 0 -221.166 -18.167 -281.499 -54.5s-90.5 -95.166 -90.5 -176.499c0 -78.667 27.333 -139.667 82 -183s130.667 -65 228 -65c169.333 0 290.666 88.667 363.999 266l198 -83
c-52.667 -126 -125.167 -217.667 -217.5 -275s-209.833 -86 -352.5 -86z" />
    <glyph glyph-name="uni0191" unicode="&#x191;" horiz-adv-x="1251" 
d="M383 -97c0 -107.333 -25.332 -188.834 -75.999 -244.501s-124.334 -83.5 -221.001 -83.5c-41.333 0 -91.333 6.66699 -150 20l23 177c38 -10 68 -15 90 -15c37.333 0 64.833 12.833 82.5 38.5s26.5 64.834 26.5 117.501v1496h1013v-180h-788v-495h765v-181h-765v-650z
" />
    <glyph glyph-name="florin" unicode="&#x192;" horiz-adv-x="1139" 
d="M864 1300c-12 4 -28.499 7.66699 -49.499 11s-41.167 5 -60.5 5c-40 0 -69.5 -11.5 -88.5 -34.5s-28.5 -62.833 -28.5 -119.5v-120h211v-151h-213v-1337h-213v1337h-154v151h155v126c0 104 22.833 179.333 68.5 226s115.5 70 209.5 70
c27.333 0 55.666 -1.83301 84.999 -5.5s55.333 -9.16699 78 -16.5v-142z" />
    <glyph glyph-name="uni0193" unicode="&#x193;" horiz-adv-x="1593" 
d="M1206 1023c-36.667 77.333 -88.835 134.334 -156.502 171.001s-150.5 55 -248.5 55c-154.667 0 -272.667 -46.833 -354 -140.5s-122 -226.167 -122 -397.5c0 -172 42.833 -306.833 128.5 -404.5s204.834 -146.5 357.501 -146.5c86.667 0 168.5 13.167 245.5 39.5
s138.5 61.166 184.5 104.499v234h-395v180h603v-497c-74.667 -76 -168.167 -135.167 -280.5 -177.5s-232.5 -63.5 -360.5 -63.5c-148.667 0 -276 29.333 -382 88s-187.333 142.667 -244 252s-85 239.666 -85 390.999c0 230 61.5 407.333 184.5 532s297.167 187 522.5 187
c177.333 0 317.333 -35.333 420 -106v40c0 92.667 24.5 164.834 73.5 216.501s116.833 77.5 203.5 77.5c40.667 0 84.334 -5.33301 131.001 -16v-173c-37.333 10.667 -66.666 16 -87.999 16c-44.667 0 -76.834 -11.667 -96.501 -35s-29.5 -60 -29.5 -110v-254z" />
    <glyph glyph-name="uni0194" unicode="&#x194;" horiz-adv-x="1287" 
d="M11 1409l237 -0.000976562l397 -956l395 956h236l-516 -1154c30.667 -56.667 56.667 -106.667 78 -150s37.333 -80 48 -110c20.667 -59.333 31 -110 31 -152c0 -83.333 -24 -148.833 -72 -196.5s-114.333 -71.5 -199 -71.5c-84 0 -150 24 -198 72s-72 113.333 -72 196
c0 44.667 11.333 98.334 34 161.001c10 28.667 24.833 64 44.5 106s44.167 90.333 73.5 145zM729 -149.001c0 33.333 -7.66699 74.332 -23 122.999s-35.333 96.667 -60 144c-23.333 -45.333 -43 -92.333 -59 -141s-24 -90.667 -24 -126c0 -34 7.5 -60 22.5 -78
s35.167 -27 60.5 -27s45.5 8.83301 60.5 26.5s22.5 43.834 22.5 78.501z" />
    <glyph glyph-name="uni0195" unicode="&#x195;" horiz-adv-x="1838" 
d="M1275 -20c-141.333 0 -248.332 35.335 -320.999 106.002s-109 173 -109 307v266c0 100 -18.167 171.667 -54.5 215s-93.833 65 -172.5 65s-142 -29.333 -190 -88s-72 -136.334 -72 -233.001v-618h-214v1484h214v-392c0 -26 -0.5 -52.833 -1.5 -80.5s-2 -52.667 -3 -75
s-2.16699 -38.833 -3.5 -49.5h3c35.333 73.333 81.666 127.5 138.999 162.5s126.666 52.5 207.999 52.5c119.333 0 209.333 -32.5 270 -97.5s91 -163.5 91 -295.5v-297c0 -98.667 17.5 -168.334 52.5 -209.001s89.833 -61 164.5 -61c75.333 0 130.333 20.5 165 61.5
s52 110.5 52 208.5v670h214v-687c0 -132.667 -36.667 -235 -110 -307s-180.666 -108 -321.999 -108z" />
    <glyph glyph-name="uni0196" unicode="&#x196;" horiz-adv-x="493" 
d="M199 0c-19.333 20.667 -34.5 53.3311 -45.5 97.998s-16.5 90.667 -16.5 138v1248h214v-1257c0 -43.333 7.33301 -85.666 22 -126.999s34 -74.666 58 -99.999h-232z" />
    <glyph glyph-name="uni0197" unicode="&#x197;" horiz-adv-x="569" 
d="M178 0v648h-155v170h155v666h214v-666h158v-170h-158v-648h-214z" />
    <glyph glyph-name="uni0198" unicode="&#x198;" horiz-adv-x="1404" 
d="M383 531l-0.000976562 -530.999h-225v1409h225v-684l489 504c34.667 36 69.167 69 103.5 99s70.5 54 108.5 72s79.333 27 124 27c22.667 0 44.334 -1.5 65.001 -4.5s42 -7.16699 64 -12.5v-183c-16.667 4.66699 -34.167 8.5 -52.5 11.5s-34.833 4.5 -49.5 4.5
c-38.667 0 -73.667 -10.833 -105 -32.5s-68 -53.834 -110 -96.501l-308 -312l670 -802h-274l-544 669z" />
    <glyph glyph-name="uni0199" unicode="&#x199;" horiz-adv-x="1062" 
d="M822 0l-340.002 492.999l-129 -101v-392h-213v1202c0 94.667 26.5 167.334 79.5 218.001s127.833 76 224.5 76c50 0 99.667 -5 149 -15v-177c-15.333 4.66699 -33.666 8.5 -54.999 11.5s-41.666 4.5 -60.999 4.5c-82.667 0 -124 -48.667 -124 -146v-591l446 499h241
l-419 -451l444 -631h-243z" />
    <glyph glyph-name="uni019A" unicode="&#x19a;" horiz-adv-x="493" 
d="M136 0v661h-116v156h116v667h213v-667h115v-156h-115v-661h-213z" />
    <glyph glyph-name="uni019B" unicode="&#x19b;" horiz-adv-x="1062" 
d="M128 1193l220 86l-76 205h217l49 -130l165 64l55 -137l-168 -65l457 -1216h-225l-272 789l-312 -789h-223l435 1004l-50 137l-217 -84z" />
    <glyph glyph-name="uni019C" unicode="&#x19c;" horiz-adv-x="1893" 
d="M1054 1409l0.00195312 -946.002c0 -105.333 16.667 -183.166 50 -233.499s87.666 -75.5 162.999 -75.5c79.333 0 139.833 27.667 181.5 83s62.5 134 62.5 236v936h224v-1409h-219l-7 140h-2c-30 -53.333 -70.333 -93.333 -121 -120s-109 -40 -175 -40
c-148.667 0 -252.334 59.333 -311.001 178c-42.667 -61.333 -92.167 -106.333 -148.5 -135s-122.5 -43 -198.5 -43c-132 0 -232 39.333 -300 118s-102 195 -102 349v962h224v-925c0 -114 17 -197.5 51 -250.5s91.333 -79.5 172 -79.5c76.667 0 134.667 26.333 174 79
s59 127.334 59 224.001v952h223z" />
    <glyph glyph-name="uni019D" unicode="&#x19d;" horiz-adv-x="1479" 
d="M358 -104c0 -108 -22.833 -188.5 -68.5 -241.5s-116.167 -79.5 -211.5 -79.5c-46 0 -91 4.66699 -135 14v185c34 -9.33301 66.667 -14 98 -14c40 0 69.333 13 88 39s28 65.333 28 118l1 1492h260l716 -1170c-9.33301 121.333 -14 215 -14 281v889h202v-1409h-269
l-707 1162l8 -136c2.66699 -43.333 4 -85 4 -125v-1005z" />
    <glyph glyph-name="uni019E" unicode="&#x19e;" horiz-adv-x="1176" 
d="M1045 710l0.000976562 -1135h-214v1085c0 98 -15.333 169 -46 213s-86.334 66 -167.001 66c-80 0 -143.667 -29.5 -191 -88.5s-71 -138.833 -71 -239.5v-611h-214v847c0 58 -0.5 106.5 -1.5 145.5s-2.5 68.833 -4.5 89.5h202c1.33301 -4 2.5 -15.333 3.5 -34
s2.16699 -41.834 3.5 -69.501s2.33301 -58.167 3 -91.5h3c40.667 77.333 88.667 132.5 144 165.5s123 49.5 203 49.5c117.333 0 204.5 -31.333 261.5 -94s85.5 -162 85.5 -298z" />
    <glyph glyph-name="uni019F" unicode="&#x19f;" horiz-adv-x="1593" 
d="M1499 711c0 -146.667 -28.332 -275.666 -84.999 -386.999c-57.333 -110.667 -139 -195.667 -245 -255s-231 -89 -375 -89c-144.667 0 -270 29.333 -376 88c-104.667 58.667 -185 143.167 -241 253.5s-84 240.166 -84 389.499c0 150.667 27.833 279.5 83.5 386.5
s136 189.167 241 246.5s231.167 86 378.5 86c145.333 0 270.666 -28.333 375.999 -85c106 -57.333 187 -140.5 243 -249.5s84 -237.167 84 -384.5zM796.001 1249c-133.333 0 -240.333 -37 -321 -111s-129.667 -179 -147 -315h933c-17.333 134 -66.5 238.5 -147.5 313.5
s-186.833 112.5 -317.5 112.5zM794.001 161.001c142 0 253.502 41.501 334.502 124.501s126.5 200.5 136.5 352.5h-941c11.333 -146.667 58.166 -262.834 140.499 -348.501s192.166 -128.5 329.499 -128.5z" />
    <glyph glyph-name="Ohorn" unicode="&#x1a0;" horiz-adv-x="1753" 
d="M1499 711c0 -146.667 -28.334 -275.666 -85.001 -386.999c-57.333 -110.667 -139 -195.667 -245 -255s-231 -89 -375 -89c-144.667 0 -269.5 30 -374.5 90s-185.667 144.667 -242 254s-84.5 238.333 -84.5 387c0 150.667 27.833 279.5 83.5 386.5s136 189.167 241 246.5
s231.167 86 378.5 86c169.333 0 310.833 -38.5 424.5 -115.5s192.834 -185.833 237.501 -326.5c52.667 26.667 90 58 112 94s33 79 33 129h-100v198h218v-141c0 -90 -19.5 -166.667 -58.5 -230s-99.833 -113.333 -182.5 -150c6 -28 10.667 -56.833 14 -86.5
s5 -59.834 5 -90.501zM1269 711.001c0 167.333 -41.333 298.833 -124 394.5s-199 143.5 -349 143.5c-151.333 0 -268.333 -47.167 -351 -141.5s-124 -226.5 -124 -396.5c0 -112.667 18.833 -210.167 56.5 -292.5s92 -145.833 163 -190.5s155.5 -67 253.5 -67
c152.667 0 270 47.833 352 143.5s123 231.167 123 406.5z" />
    <glyph glyph-name="ohorn" unicode="&#x1a1;" horiz-adv-x="1381" 
d="M1089 560c0.666992 -136 -19.335 -246.668 -60.002 -332.001s-98.667 -148 -174 -188s-165.666 -60 -270.999 -60c-162 0 -285.833 48.833 -371.5 146.5s-128.5 236.167 -128.5 415.5c0 182.667 43 321.667 129 417s211.667 143 377 143
c151.333 0 267.833 -37 349.5 -111s130.167 -183 145.5 -327c92 40.667 138 115.334 138 224.001h-100v198h218v-141c0 -95.333 -21.167 -175.833 -63.5 -241.5s-105.166 -113.5 -188.499 -143.5zM867.998 541.999c0 142.667 -21.666 246.167 -64.999 310.5
s-113.333 96.5 -210 96.5c-98.667 0 -170.834 -33.167 -216.501 -99.5s-68.5 -168.833 -68.5 -307.5c0 -135.333 22.5 -237.333 67.5 -306s113.5 -103 205.5 -103c101.333 0 174.5 33.167 219.5 99.5s67.5 169.5 67.5 309.5z" />
    <glyph glyph-name="uni01A2" unicode="&#x1a2;" horiz-adv-x="1791" 
d="M1416 -424l-0.000976562 1632l-215 1v-1125c-64 -32.667 -130.167 -58.167 -198.5 -76.5s-141.166 -27.5 -218.499 -27.5c-144 0 -267.667 29.333 -371 88s-182.5 142.5 -237.5 251.5s-82.5 239.5 -82.5 391.5c0 150 27 278.5 81 385.5s132.667 189.333 236 247
s229 86.5 377 86.5c115.333 0 237 -25 365 -75l425 69h53v-1848h-214zM986.999 1215c-57.333 23.333 -123.335 35 -198.002 35c-149.333 0 -264.666 -47.333 -345.999 -142s-122 -227 -122 -397c0 -114 18.667 -212.333 56 -295s90.833 -146.167 160.5 -190.5
s153.834 -66.5 252.501 -66.5c75.333 0 141 11.667 197 35v1021z" />
    <glyph glyph-name="uni01A3" unicode="&#x1a3;" horiz-adv-x="1419" 
d="M1273 1096l-0.000976562 -1521h-201v1329h-182v-840c-39.333 -26.667 -86.166 -47.334 -140.499 -62.001s-110.833 -22 -169.5 -22c-160.667 0 -283.5 48.667 -368.5 146s-127.5 236 -127.5 416c0 183.333 42.5 322.5 127.5 417.5s209.833 142.5 374.5 142.5
c58 0 112.5 -7.16699 163.5 -21.5s95.833 -33.5 134.5 -57.5l335 73h54zM688.999 151.001l-1.00195 781c-31.333 11.333 -63.666 17 -96.999 17c-99.333 0 -171.166 -32.833 -215.499 -98.5s-66.5 -168.5 -66.5 -308.5c0 -135.333 22 -237.333 66 -306s112 -103 204 -103
c40 0 76.667 6 110 18z" />
    <glyph glyph-name="uni01A4" unicode="&#x1a4;" horiz-adv-x="1564" 
d="M957 1409c161.333 0 286.167 -37.667 374.5 -113s132.5 -181.333 132.5 -318c0 -90 -20.167 -168.5 -60.5 -235.5s-97.333 -119 -171 -156s-161.5 -55.5 -263.5 -55.5h-393v-531h-225v1239h-24c-49.333 0 -85 -10.667 -107 -32s-33 -53.666 -33 -96.999
c0 -34 7.33301 -72.333 22 -115l-174 -17c-14.667 57.333 -22 109.666 -22 156.999c0 86 29.333 153.167 88 201.5s139 72.5 241 72.5h615zM1237 975c0 170.667 -102 255.999 -306 255.999h-355v-523h363c98 0 172.167 22.333 222.5 67s75.5 111.334 75.5 200.001z" />
    <glyph glyph-name="uni01A5" unicode="&#x1a5;" horiz-adv-x="1176" 
d="M1091 546c0 -186 -34.1699 -326.831 -102.503 -422.498s-168.833 -143.5 -301.5 -143.5c-81.333 0 -150.166 16.167 -206.499 48.5s-98.5 79.166 -126.5 140.499h-5c2.66699 -9.33301 4 -67.333 4 -174v-420h-213v1627c0 95.333 25.833 168.166 77.5 218.499
s126.834 75.5 225.501 75.5c22.667 0 47 -1.16699 73 -3.5s52 -6.5 78 -12.5v-181c-16.667 5.33301 -35.5 9.5 -56.5 12.5s-40.5 4.5 -58.5 4.5c-85.333 0 -128 -47.667 -128 -143v-267h4c31.333 66.667 74.333 115.834 129 147.501s124.334 47.5 209.001 47.5
c130.667 0 229.667 -45.833 297 -137.5s101 -230.834 101 -417.501zM866.997 543.002c0 141.333 -19.668 243.666 -59.001 306.999s-101 95 -185 95c-92.667 0 -161 -33.667 -205 -101s-66 -171.666 -66 -312.999c0 -133.333 21.667 -233 65 -299s111.333 -99 204 -99
c84.667 0 146.834 32.167 186.501 96.5s59.5 168.833 59.5 313.5z" />
    <glyph glyph-name="uni01A6" unicode="&#x1a6;" horiz-adv-x="1366" 
d="M937 441l406.999 -764h-253l-368 730h-340v-407h-225v1409h223v-161h382c162 0 287 -35.833 375 -107.5s132 -172.167 132 -301.5c0 -102.667 -29.667 -189.667 -89 -261s-140.666 -117 -243.999 -137zM1043 834c0 76.667 -25.832 135 -77.499 175
s-126.834 60 -225.501 60h-357v-485h365c94.667 0 167.5 21.833 218.5 65.5s76.5 105.167 76.5 184.5z" />
    <glyph glyph-name="uni01A7" unicode="&#x1a7;" horiz-adv-x="1366" 
d="M92 390c0 67.333 12.0088 124.83 36.0088 172.497s58 88.167 102 121.5c43.333 32.667 96.666 60 159.999 82s140.666 42 231.999 60c110.667 22 188.334 42.333 233.001 61c46.667 19.333 82 42.833 106 70.5s36 61.834 36 102.501c0 136 -105.333 204 -316 204
c-96.667 0 -172.334 -18.333 -227.001 -55s-91.334 -93.667 -110.001 -171l-221 35c31.333 126.667 89.833 217.834 175.5 273.501s212.834 83.5 381.501 83.5c175.333 0 308.666 -32.833 399.999 -98.5s137 -160.5 137 -284.5c0 -51.333 -7.83301 -96.333 -23.5 -135
s-37.834 -72 -66.501 -100c-18 -19.333 -39.833 -36.666 -65.5 -51.999s-54.5 -29.333 -86.5 -42c-25.333 -10 -58.833 -20.833 -100.5 -32.5s-91.5 -23.834 -149.5 -36.501c-50 -10.667 -94 -21.167 -132 -31.5s-69.667 -20.5 -95 -30.5
c-63.333 -22.667 -109.833 -50.667 -139.5 -84s-44.5 -75 -44.5 -125c0 -150 117.333 -225 352 -225c73.333 0 136.666 8.66699 189.999 26s97.666 46.833 132.999 88.5s61.666 98.834 78.999 171.501l218 -41c-32.667 -143.333 -99.834 -248.833 -201.501 -316.5
s-239.5 -101.5 -413.5 -101.5c-188.667 0 -332.334 35.167 -431.001 105.5s-148 171.833 -148 304.5z" />
    <glyph glyph-name="uni01A8" unicode="&#x1a8;" horiz-adv-x="1062" 
d="M81 305c0 54 10.4971 100.003 31.4971 138.003s51.833 71 92.5 99c32 22.667 80.5 44 145.5 64s134.833 38 209.5 54c70 15.333 120.333 34.833 151 58.5s46 54.5 46 92.5c0 46 -17.5 80.167 -52.5 102.5s-87.5 33.5 -157.5 33.5c-72 0 -127.667 -13.167 -167 -39.5
s-64.666 -68.166 -75.999 -125.499l-191 22c20 98.667 66.667 172.667 140 222s172.333 74 297 74c129.333 0 229.833 -26.833 301.5 -80.5s107.5 -130.5 107.5 -230.5c0 -57.333 -12.5 -105.333 -37.5 -144s-62.833 -71.334 -113.5 -98.001
c-22.667 -12 -52.667 -24 -90 -36s-77.166 -23.333 -119.499 -34l-123.5 -31c-71.333 -18.667 -121.166 -39.834 -149.499 -63.501s-42.5 -55.5 -42.5 -95.5c0 -52 19.667 -90.667 59 -116s99 -38 179 -38c83.333 0 147.833 15.167 193.5 45.5s77.167 77.166 94.5 140.499
l189 -33c-25.333 -102.667 -77.333 -179.334 -156 -230.001s-186 -76 -322 -76s-243.167 28.333 -321.5 85s-117.5 136.667 -117.5 240z" />
    <glyph glyph-name="uni01A9" unicode="&#x1a9;" horiz-adv-x="1254" 
d="M1179 180v-180h-1077v186l508 555l-491 483v185h999v-180h-755l429 -421v-127l-458 -501h845z" />
    <glyph glyph-name="uni01AA" unicode="&#x1aa;" horiz-adv-x="765" 
d="M53 1297c0 60.667 19.335 108.331 58.002 142.998s90.667 52 156 52c96.667 0 169 -27.667 217 -83s72 -134.666 72 -237.999v-1276c0 -95.333 39 -143 117 -143c16.667 0 35.167 1.16699 55.5 3.5s38.166 5.5 53.499 9.5v-176c-44.667 -9.33301 -94.667 -14 -150 -14
c-93.333 0 -164.833 26.167 -214.5 78.5s-74.5 128.5 -74.5 228.5v1252c-11.333 -7.33301 -26.5 -13.666 -45.5 -18.999s-37.5 -8 -55.5 -8c-56.667 0 -102.334 17.667 -137.001 53s-52 81 -52 137zM144.002 1300c0 -30.667 9.5 -55.334 28.5 -74.001s43.167 -28 72.5 -28
c30 0 54.333 9.33301 73 28s28 43.334 28 74.001c0 30 -9.33301 54.333 -28 73s-43 28 -73 28c-29.333 0 -53.5 -9.33301 -72.5 -28s-28.5 -43 -28.5 -73z" />
    <glyph glyph-name="uni01AB" unicode="&#x1ab;" horiz-adv-x="607" 
d="M588 -136c0 -94.667 -22.332 -166.5 -66.999 -215.5s-112.667 -73.5 -204 -73.5c-45.333 0 -94 6 -146 18v174c41.333 -11.333 77.333 -17 108 -17c76.667 0 115 46 115 138v95c-82.667 0.666992 -142.667 22.167 -180 64.5s-56 105.5 -56 189.5v694h-129v151h138l65 246
h139v-246h201v-151h-201v-642c0 -52.667 9 -90.167 27 -112.5s48 -33.5 90 -33.5c21.333 0 54.666 4.66699 99.999 14v-293z" />
    <glyph glyph-name="uni01AC" unicode="&#x1ac;" horiz-adv-x="1251" 
d="M738 1229v-1229h-225v1229h-186c-49.333 0 -85 -9.33301 -107 -28s-33 -49 -33 -91c0 -34 7.33301 -72.333 22 -115l-174 -17c-14.667 57.333 -22 109.666 -22 156.999c0 87.333 26.5 154.833 79.5 202.5s129.5 71.5 229.5 71.5h890v-180h-474z" />
    <glyph glyph-name="uni01AD" unicode="&#x1ad;" horiz-adv-x="607" 
d="M588 11c-61.333 -18.667 -127.997 -28 -199.997 -28c-75.333 0 -132.5 21.167 -171.5 63.5s-58.5 105.833 -58.5 190.5v694h-129v151h133v114c0 98 25.167 172.5 75.5 223.5s122.5 76.5 216.5 76.5c49.333 0 96.333 -5 141 -15v-179c-16.667 6 -34.834 10.5 -54.501 13.5
s-36.834 4.5 -51.501 4.5c-42 0 -72.167 -12 -90.5 -36s-27.5 -60.667 -27.5 -110v-92h201v-151h-201v-642c0 -52.667 9 -90.167 27 -112.5s48 -33.5 90 -33.5c21.333 0 54.666 4.66699 99.999 14v-146z" />
    <glyph glyph-name="uni01AE" unicode="&#x1ae;" horiz-adv-x="1251" 
d="M949 -407c-53.333 -12 -101 -18.001 -143 -18.001c-96 0 -168.833 26.833 -218.5 80.5s-74.5 133.167 -74.5 238.5v1335h-475v180h1174v-180h-474v-1316c0 -53.333 8.33301 -92.666 25 -117.999s43.667 -38 81 -38c34 0 69 5 105 15v-179z" />
    <glyph glyph-name="Uhorn" unicode="&#x1af;" horiz-adv-x="1732" 
d="M726 -20c-119.333 0 -222.331 21.167 -308.998 63.5s-153.5 103.5 -200.5 183.5s-70.5 176.667 -70.5 290v892h226v-873c0 -124 30.333 -217.667 91 -281s149 -95 265 -95c119.333 0 211.5 33.167 276.5 99.5s97.5 162.5 97.5 288.5v861h225v-439
c77.333 14 135.166 41.167 173.499 81.5s57.5 93.5 57.5 159.5h-100v198h218v-141c0 -113.333 -28.333 -204.5 -85 -273.5s-144.667 -112.5 -264 -130.5v-330c0 -115.333 -24.333 -214.333 -73 -297s-117.834 -146.167 -207.501 -190.5s-196.5 -66.5 -320.5 -66.5z" />
    <glyph glyph-name="uhorn" unicode="&#x1b0;" horiz-adv-x="1408" 
d="M825 195c-39.333 -76 -86.833 -130.829 -142.5 -164.496s-123.834 -50.5 -204.501 -50.5c-117.333 0 -204.5 31.5 -261.5 94.5s-85.5 162.167 -85.5 297.5v710h214v-660c0 -94.667 15.333 -164.834 46 -210.501s86.334 -68.5 167.001 -68.5s144.5 29.5 191.5 88.5
s70.5 138.833 70.5 239.5v611h214v-450c75.333 18.667 130 48 164 88s51 94.667 51 164h-100v198h217v-141c0 -114 -26.333 -204.5 -79 -271.5s-137 -113.833 -253 -140.5v-294c0 -61.333 0.666992 -111 2 -149s3 -66.667 5 -86h-203
c-0.666992 5.33301 -1.66699 16.666 -3 33.999s-2.5 39.666 -3.5 66.999s-1.83301 58.666 -2.5 93.999h-4z" />
    <glyph glyph-name="uni01B1" unicode="&#x1b1;" horiz-adv-x="1568" 
d="M784 -21c-136 0 -253.501 25.165 -352.501 75.498s-175.5 122 -229.5 215s-81 203.833 -81 332.5c0 134 35.5 255.333 106.5 364s177.5 200 319.5 274c-48.667 -3.33301 -89.667 -6 -123 -8s-59.333 -3 -78 -3h-253v180h609v-253c-115.333 -60 -203 -134.167 -263 -222.5
s-90 -191.166 -90 -308.499c0 -147.333 38.167 -261.666 114.5 -342.999s182.833 -122 319.5 -122c138 0 245.167 40.667 321.5 122s114.5 195.666 114.5 342.999c0 116.667 -29.667 219.334 -89 308.001s-147 163 -263 223v253h607v-180h-252c-18 0 -43.833 1 -77.5 3
s-74.5 4.66699 -122.5 8c140.667 -73.333 246.5 -164.333 317.5 -273s106.5 -230.334 106.5 -365.001c0 -128 -26.833 -238.667 -80.5 -332s-130.167 -165.166 -229.5 -215.499s-216.666 -75.5 -351.999 -75.5z" />
    <glyph glyph-name="uni01B2" unicode="&#x1b2;" horiz-adv-x="1479" 
d="M696 -20c-170.667 0 -305.001 48.166 -403.001 144.499s-147 233.833 -147 412.5v872h226v-853c0 -126 28.833 -223.5 86.5 -292.5s140.5 -103.5 248.5 -103.5c90 0 164.167 28 222.5 84s101.833 142 130.5 258s43 263.667 43 443c0 104.667 -13.5 180.334 -40.5 227.001
s-70.833 70 -131.5 70c-37.333 0 -73.666 -3.66699 -108.999 -11l-5 178c50.667 9.33301 108.667 14 174 14c110 0 193.667 -38.333 251 -115s86 -189 86 -337c0 -274 -33.333 -484.333 -100 -631c-96.667 -240 -274 -360 -532 -360z" />
    <glyph glyph-name="uni01B3" unicode="&#x1b3;" horiz-adv-x="1580" 
d="M685 763l307.001 493.001c37.333 60 76.166 103 116.499 129s87.5 39 141.5 39c44.667 0 90 -8.5 136 -25.5s90 -44.167 132 -81.5l-93 -152c-19.333 17.333 -43 32.666 -71 45.999s-53.333 20 -76 20c-24 0 -44.333 -5.33301 -61 -16s-35 -31.667 -55 -63l-367 -570
v-582h-225v582l-528 827h245z" />
    <glyph glyph-name="uni01B4" unicode="&#x1b4;" horiz-adv-x="1062" 
d="M222 -425c-55.333 0 -102.667 4 -142 12v156c29.333 -4 58.666 -6 87.999 -6c57.333 0 106.166 18.167 146.499 54.5s75.5 93.166 105.5 170.499l17 45l-428 1075h227l208 -568c3.33301 -8 9.83301 -26.333 19.5 -55l31.5 -95.5l31 -95.5
c9.33301 -28.667 15 -47.667 17 -57l77 241l269 790c28 85.333 64.333 148.333 109 189s105.334 61 182.001 61c86 0 166.333 -28.667 241 -86l-86 -151c-42.667 35.333 -86 53 -130 53c-32 0 -58.833 -10.833 -80.5 -32.5s-40.167 -52.834 -55.5 -93.501l-433 -1201
c-38 -101.333 -77 -181.666 -117 -240.999s-84.167 -101.666 -132.5 -126.999s-103.166 -38 -164.499 -38z" />
    <glyph glyph-name="uni01B5" unicode="&#x1b5;" horiz-adv-x="1251" 
d="M1189 181v-181h-1125v165l389 502h-394v154h515l316 407h-752v181h1006v-161l-331 -427h365v-154h-485l-375 -486h871z" />
    <glyph glyph-name="uni01B6" unicode="&#x1b6;" horiz-adv-x="1024" 
d="M956 161v-161h-901v158l261 317h-263v147h379l244 300h-580v160h819v-158l-248 -302h278v-147h-396l-255 -314h662z" />
    <glyph glyph-name="uni01B7" unicode="&#x1b7;" horiz-adv-x="1251" 
d="M606 -429c-140 0 -256.169 28.6689 -348.502 86.002s-165.166 147.666 -218.499 270.999l194 82c38 -89.333 87.167 -155.333 147.5 -198s133.166 -64 218.499 -64c112.667 0 200.834 36.833 264.501 110.5s95.5 178.167 95.5 313.5
c0 133.333 -40.167 235.833 -120.5 307.5s-197.166 107.5 -350.499 107.5h-90v171l473 470h-767v181h1029v-176l-495 -482c174 -10.667 307.833 -65.334 401.5 -164.001s140.5 -235.667 140.5 -411c0 -118 -23.667 -223.333 -71 -316c-48 -92 -116 -163.167 -204 -213.5
s-187.667 -75.5 -299 -75.5z" />
    <glyph glyph-name="uni01B8" unicode="&#x1b8;" horiz-adv-x="1251" 
d="M645 -429c-117.333 0 -218.833 24.3311 -304.5 72.998s-152 117.834 -199 207.501s-70.5 195.834 -70.5 318.501c0 112 21.833 209.667 65.5 293s106 149.666 187 198.999s177.5 79 289.5 89l-495 482v176h1029v-181h-767l473 -470v-171h-90
c-153.333 0 -270.166 -35.667 -350.499 -107s-120.5 -174 -120.5 -308c0 -88.667 15 -164.667 45 -228s72 -111.833 126 -145.5s117 -50.5 189 -50.5c85.333 0 158.166 21.333 218.499 64s109.5 108.667 147.5 198l194 -82
c-53.333 -123.333 -126.333 -213.666 -219 -270.999s-208.667 -86 -348 -86z" />
    <glyph glyph-name="uni01B9" unicode="&#x1b9;" horiz-adv-x="1103" 
d="M572 -271c80.667 0 144.333 18.6699 191 56.0029s75 96.666 85 177.999l211 -13c-15.333 -123.333 -65.666 -217.333 -150.999 -282s-199 -97 -341 -97c-103.333 0 -191.833 21.167 -265.5 63.5s-129.834 100.666 -168.501 174.999s-58 158.833 -58 253.5
c0 130 36.333 236.667 109 320s173.667 132.666 303 147.999l-368 368v184h890v-162h-651l368 -377v-159h-89c-110 0 -195.167 -28.5 -255.5 -85.5s-90.5 -136.5 -90.5 -238.5c0 -60.667 11.167 -116.167 33.5 -166.5s54.333 -90.5 96 -120.5s92.167 -45 151.5 -45z" />
    <glyph glyph-name="uni01BA" unicode="&#x1ba;" horiz-adv-x="1103" 
d="M1050 -100c-25.333 -104 -83.8291 -184.834 -175.496 -242.501s-208.167 -86.5 -349.5 -86.5c-44.667 0 -87.834 2.83301 -129.501 8.5s-79.834 14.834 -114.501 27.501c-70.667 25.333 -123.5 61.5 -158.5 108.5s-52.5 102.167 -52.5 165.5
c0 54.667 14.667 101.334 44 140.001c20 25.333 44.667 48 74 68s68.166 38.833 116.499 56.5s111.166 35.834 188.499 54.501c101.333 24 170 48.333 206 73c36.667 24 55 54 55 90c0 51.333 -33.333 86 -100 104c-48.667 14 -126.667 21.667 -234 23l-66 1v140l338 290
h-597v161h880v-134l-380 -313c125.333 -6.66699 218.333 -32.834 279 -78.501s91 -110.5 91 -194.5c0 -54.667 -13.667 -100.5 -41 -137.5s-66.333 -68.167 -117 -93.5c-50 -25.333 -137 -53.333 -261 -84c-87.333 -21.333 -147.333 -40.333 -180 -57
c-27.333 -14 -48.166 -30.167 -62.499 -48.5s-21.5 -40.5 -21.5 -66.5c0 -44.667 21.667 -79.834 65 -105.501s106.333 -38.5 189 -38.5s149.667 16.333 201 49s85.666 81 102.999 145z" />
    <glyph glyph-name="uni01BB" unicode="&#x1bb;" horiz-adv-x="1139" 
d="M1043 179v-179.001h-951v150c25.333 56.667 56 110 92 160c21.333 30 44.333 59 69 87s54.167 58.167 88.5 90.5s77.5 69.833 129.5 112.5h-382v155h563c100.667 92 151 184.667 151 278c0 72 -20.333 127.333 -61 166s-98 58 -172 58
c-71.333 0 -128.833 -19.333 -172.5 -58s-69.834 -94 -78.501 -166l-217 17c14 118.667 62 211.667 144 279s189.667 101 323 101c145.333 0 257 -33.833 335 -101.5s117 -163.5 117 -287.5c0 -95.333 -38.667 -190.666 -116 -285.999h131v-155h-285l-91.5 -77l-84.5 -70
c-26 -21.333 -48 -40.333 -66 -57c-40 -36 -75.167 -71.833 -105.5 -107.5s-53.166 -72.167 -68.499 -109.5h708z" />
    </font>
</defs>
</svg>
